<svg width="512" height="291" viewBox="0 0 512 291" fill="none" xmlns="http://www.w3.org/2000/svg">
<rect x="152" width="101" height="32" rx="16" fill="#F4F4F5"/>
<path d="M174.188 12.846C174.188 12.37 173.987 11.978 173.586 11.67C173.194 11.3527 172.69 11.194 172.074 11.194C171.514 11.194 171.038 11.348 170.646 11.656C170.254 11.964 170.058 12.3513 170.058 12.818C170.058 13.0887 170.119 13.3173 170.24 13.504C170.371 13.6907 170.557 13.8353 170.8 13.938C171.043 14.0313 171.262 14.1013 171.458 14.148C171.663 14.1853 171.92 14.2227 172.228 14.26C172.769 14.3253 173.227 14.4047 173.6 14.498C173.983 14.5913 174.37 14.7407 174.762 14.946C175.154 15.1513 175.453 15.4453 175.658 15.828C175.863 16.2107 175.966 16.6773 175.966 17.228C175.966 18.0213 175.658 18.7073 175.042 19.286C174.426 19.8553 173.488 20.14 172.228 20.14C171.071 20.14 170.156 19.8647 169.484 19.314C168.821 18.7633 168.49 18.0913 168.49 17.298C168.49 17.2513 168.513 17.228 168.56 17.228H169.806C169.862 17.228 169.89 17.256 169.89 17.312C169.89 17.7133 170.095 18.0867 170.506 18.432C170.926 18.7773 171.5 18.95 172.228 18.95C172.947 18.95 173.516 18.7867 173.936 18.46C174.356 18.124 174.566 17.7133 174.566 17.228C174.566 16.9293 174.505 16.6773 174.384 16.472C174.263 16.2573 174.081 16.094 173.838 15.982C173.595 15.87 173.353 15.786 173.11 15.73C172.877 15.674 172.583 15.6273 172.228 15.59C171.864 15.5527 171.537 15.506 171.248 15.45C170.959 15.394 170.641 15.3007 170.296 15.17C169.96 15.03 169.68 14.8667 169.456 14.68C169.232 14.4933 169.041 14.2413 168.882 13.924C168.733 13.6067 168.658 13.238 168.658 12.818C168.658 11.9687 168.999 11.2873 169.68 10.774C170.361 10.2607 171.159 10.004 172.074 10.004C173.035 10.004 173.861 10.2513 174.552 10.746C175.243 11.2407 175.588 11.9407 175.588 12.846C175.588 12.8927 175.565 12.916 175.518 12.916H174.258C174.211 12.916 174.188 12.8927 174.188 12.846ZM183.892 15.31H182.646C182.609 15.31 182.581 15.2867 182.562 15.24C182.245 14.3907 181.601 13.966 180.63 13.966C179.977 13.966 179.459 14.1993 179.076 14.666C178.693 15.1233 178.502 15.7207 178.502 16.458C178.502 17.1953 178.693 17.7973 179.076 18.264C179.459 18.7213 179.977 18.95 180.63 18.95C181.601 18.95 182.245 18.5253 182.562 17.676C182.581 17.6293 182.609 17.606 182.646 17.606H183.892C183.948 17.606 183.971 17.6293 183.962 17.676C183.766 18.46 183.379 19.0667 182.8 19.496C182.231 19.9253 181.507 20.14 180.63 20.14C179.547 20.14 178.698 19.804 178.082 19.132C177.475 18.46 177.172 17.5687 177.172 16.458C177.172 15.338 177.475 14.4467 178.082 13.784C178.698 13.112 179.547 12.776 180.63 12.776C181.507 12.776 182.235 12.9953 182.814 13.434C183.393 13.8633 183.775 14.4653 183.962 15.24C183.971 15.2867 183.948 15.31 183.892 15.31ZM190.93 13.784C191.555 14.456 191.868 15.3473 191.868 16.458C191.868 17.5687 191.555 18.46 190.93 19.132C190.314 19.804 189.469 20.14 188.396 20.14C187.313 20.14 186.464 19.804 185.848 19.132C185.232 18.46 184.924 17.5687 184.924 16.458C184.924 15.3473 185.232 14.456 185.848 13.784C186.464 13.112 187.313 12.776 188.396 12.776C189.469 12.776 190.314 13.112 190.93 13.784ZM189.964 18.264C190.347 17.7973 190.538 17.1953 190.538 16.458C190.538 15.7207 190.347 15.1233 189.964 14.666C189.581 14.1993 189.059 13.966 188.396 13.966C187.743 13.966 187.22 14.1993 186.828 14.666C186.445 15.1233 186.254 15.7207 186.254 16.458C186.254 17.1953 186.445 17.7973 186.828 18.264C187.22 18.7213 187.743 18.95 188.396 18.95C189.059 18.95 189.581 18.7213 189.964 18.264ZM197.305 13.966H196.591C196.031 13.966 195.583 14.176 195.247 14.596C194.911 15.0067 194.743 15.5013 194.743 16.08V19.93C194.743 19.9767 194.72 20 194.673 20H193.483C193.436 20 193.413 19.9767 193.413 19.93V12.986C193.413 12.9393 193.436 12.916 193.483 12.916H194.533C194.561 12.916 194.584 12.9393 194.603 12.986L194.743 13.616C194.771 13.7 194.822 13.7047 194.897 13.63C195.466 13.0607 196.031 12.776 196.591 12.776H197.305C197.352 12.776 197.375 12.7993 197.375 12.846V13.896C197.375 13.9427 197.352 13.966 197.305 13.966ZM204.481 16.934H199.287C199.24 16.934 199.217 16.9573 199.217 17.004C199.217 17.536 199.399 17.9933 199.763 18.376C200.127 18.7587 200.607 18.95 201.205 18.95C202.045 18.95 202.637 18.6233 202.983 17.97C203.001 17.9233 203.034 17.9 203.081 17.9H204.327C204.383 17.9 204.406 17.9233 204.397 17.97C204.219 18.6513 203.841 19.1833 203.263 19.566C202.693 19.9487 202.007 20.14 201.205 20.14C200.169 20.14 199.343 19.804 198.727 19.132C198.111 18.4507 197.803 17.5593 197.803 16.458C197.803 15.338 198.101 14.4467 198.699 13.784C199.305 13.112 200.141 12.776 201.205 12.776C202.278 12.776 203.113 13.112 203.711 13.784C204.317 14.456 204.621 15.3473 204.621 16.458C204.621 16.6073 204.607 16.738 204.579 16.85C204.56 16.906 204.527 16.934 204.481 16.934ZM203.165 15.814C203.165 15.3473 202.997 14.9227 202.661 14.54C202.325 14.1573 201.839 13.966 201.205 13.966C200.589 13.966 200.103 14.176 199.749 14.596C199.394 15.0067 199.217 15.4127 199.217 15.814C199.217 15.8607 199.24 15.884 199.287 15.884H203.095C203.141 15.884 203.165 15.8607 203.165 15.814ZM212.178 20H210.4C210.363 20 210.335 19.9767 210.316 19.93L207.95 12.986C207.941 12.9393 207.969 12.916 208.034 12.916H209.308C209.336 12.916 209.36 12.9393 209.378 12.986L211.212 18.614C211.231 18.6513 211.254 18.67 211.282 18.67C211.31 18.67 211.334 18.6513 211.352 18.614L213.2 12.986C213.219 12.9393 213.242 12.916 213.27 12.916H214.544C214.61 12.916 214.633 12.9393 214.614 12.986L212.248 19.93C212.23 19.9767 212.206 20 212.178 20ZM217.11 12.986V19.93C217.11 19.9767 217.087 20 217.04 20H215.85C215.803 20 215.78 19.9767 215.78 19.93V12.986C215.78 12.9393 215.803 12.916 215.85 12.916H217.04C217.087 12.916 217.11 12.9393 217.11 12.986ZM217.138 11.698H215.738C215.691 11.698 215.668 11.6747 215.668 11.628V10.214C215.668 10.1673 215.691 10.144 215.738 10.144H217.138C217.185 10.144 217.208 10.1673 217.208 10.214V11.628C217.208 11.6747 217.185 11.698 217.138 11.698ZM225.33 16.934H220.136C220.09 16.934 220.066 16.9573 220.066 17.004C220.066 17.536 220.248 17.9933 220.612 18.376C220.976 18.7587 221.457 18.95 222.054 18.95C222.894 18.95 223.487 18.6233 223.832 17.97C223.851 17.9233 223.884 17.9 223.93 17.9H225.176C225.232 17.9 225.256 17.9233 225.246 17.97C225.069 18.6513 224.691 19.1833 224.112 19.566C223.543 19.9487 222.857 20.14 222.054 20.14C221.018 20.14 220.192 19.804 219.576 19.132C218.96 18.4507 218.652 17.5593 218.652 16.458C218.652 15.338 218.951 14.4467 219.548 13.784C220.155 13.112 220.99 12.776 222.054 12.776C223.128 12.776 223.963 13.112 224.56 13.784C225.167 14.456 225.47 15.3473 225.47 16.458C225.47 16.6073 225.456 16.738 225.428 16.85C225.41 16.906 225.377 16.934 225.33 16.934ZM224.014 15.814C224.014 15.3473 223.846 14.9227 223.51 14.54C223.174 14.1573 222.689 13.966 222.054 13.966C221.438 13.966 220.953 14.176 220.598 14.596C220.244 15.0067 220.066 15.4127 220.066 15.814C220.066 15.8607 220.09 15.884 220.136 15.884H223.944C223.991 15.884 224.014 15.8607 224.014 15.814ZM234.355 20H232.577C232.549 20 232.526 19.9767 232.507 19.93L231.149 14.344C231.14 14.3067 231.116 14.288 231.079 14.288C231.042 14.288 231.018 14.3067 231.009 14.344L229.665 19.93C229.646 19.9767 229.623 20 229.595 20H227.817C227.78 20 227.752 19.9767 227.733 19.93L226.067 12.986C226.058 12.9393 226.086 12.916 226.151 12.916H227.341C227.369 12.916 227.392 12.9393 227.411 12.986L228.629 18.614C228.638 18.6513 228.662 18.67 228.699 18.67C228.736 18.67 228.76 18.6513 228.769 18.614L230.155 12.986C230.174 12.9393 230.197 12.916 230.225 12.916H231.947C231.975 12.916 231.998 12.9393 232.017 12.986L233.403 18.614C233.412 18.6513 233.436 18.67 233.473 18.67C233.51 18.67 233.534 18.6513 233.543 18.614L234.761 12.986C234.78 12.9393 234.803 12.916 234.831 12.916H236.021C236.086 12.916 236.114 12.9393 236.105 12.986L234.439 19.93C234.42 19.9767 234.392 20 234.355 20Z" fill="black"/>
<path d="M279.772 19.93V11.39C279.753 11.3527 279.73 11.334 279.702 11.334H277C276.953 11.334 276.93 11.3107 276.93 11.264V10.214C276.93 10.1673 276.953 10.144 277 10.144H283.874C283.921 10.144 283.944 10.1673 283.944 10.214V11.264C283.944 11.3107 283.921 11.334 283.874 11.334H281.172C281.125 11.334 281.102 11.3573 281.102 11.404V19.93C281.102 19.9767 281.079 20 281.032 20H279.842C279.795 20 279.772 19.9767 279.772 19.93ZM288.108 13.966H287.394C286.834 13.966 286.386 14.176 286.05 14.596C285.714 15.0067 285.546 15.5013 285.546 16.08V19.93C285.546 19.9767 285.522 20 285.476 20H284.286C284.239 20 284.216 19.9767 284.216 19.93V12.986C284.216 12.9393 284.239 12.916 284.286 12.916H285.336C285.364 12.916 285.387 12.9393 285.406 12.986L285.546 13.616C285.574 13.7 285.625 13.7047 285.7 13.63C286.269 13.0607 286.834 12.776 287.394 12.776H288.108C288.154 12.776 288.178 12.7993 288.178 12.846V13.896C288.178 13.9427 288.154 13.966 288.108 13.966ZM295.284 16.934H290.09C290.043 16.934 290.02 16.9573 290.02 17.004C290.02 17.536 290.202 17.9933 290.566 18.376C290.93 18.7587 291.41 18.95 292.008 18.95C292.848 18.95 293.44 18.6233 293.786 17.97C293.804 17.9233 293.837 17.9 293.884 17.9H295.13C295.186 17.9 295.209 17.9233 295.2 17.97C295.022 18.6513 294.644 19.1833 294.066 19.566C293.496 19.9487 292.81 20.14 292.008 20.14C290.972 20.14 290.146 19.804 289.53 19.132C288.914 18.4507 288.606 17.5593 288.606 16.458C288.606 15.338 288.904 14.4467 289.502 13.784C290.108 13.112 290.944 12.776 292.008 12.776C293.081 12.776 293.916 13.112 294.514 13.784C295.12 14.456 295.424 15.3473 295.424 16.458C295.424 16.6073 295.41 16.738 295.382 16.85C295.363 16.906 295.33 16.934 295.284 16.934ZM293.968 15.814C293.968 15.3473 293.8 14.9227 293.464 14.54C293.128 14.1573 292.642 13.966 292.008 13.966C291.392 13.966 290.906 14.176 290.552 14.596C290.197 15.0067 290.02 15.4127 290.02 15.814C290.02 15.8607 290.043 15.884 290.09 15.884H293.898C293.944 15.884 293.968 15.8607 293.968 15.814ZM297.014 12.916H298.064C298.092 12.916 298.116 12.9393 298.134 12.986L298.274 13.616C298.284 13.6533 298.307 13.672 298.344 13.672C298.382 13.672 298.41 13.658 298.428 13.63C298.811 13.0607 299.422 12.776 300.262 12.776C301.233 12.776 301.984 13.0887 302.516 13.714C303.048 14.33 303.314 15.1187 303.314 16.08V19.93C303.314 19.9767 303.291 20 303.244 20H302.054C302.008 20 301.984 19.9767 301.984 19.93V16.08C301.984 15.4827 301.835 14.9833 301.536 14.582C301.238 14.1713 300.766 13.966 300.122 13.966C299.562 13.966 299.114 14.176 298.778 14.596C298.442 15.0067 298.274 15.5013 298.274 16.08V19.93C298.274 19.9767 298.251 20 298.204 20H297.014C296.968 20 296.944 19.9767 296.944 19.93V12.986C296.944 12.9393 296.968 12.916 297.014 12.916ZM311.472 20H310.422C310.394 20 310.371 19.9767 310.352 19.93L310.212 19.37C310.184 19.286 310.138 19.2767 310.072 19.342C309.876 19.538 309.578 19.72 309.176 19.888C308.775 20.056 308.406 20.14 308.07 20.14C307.053 20.14 306.241 19.804 305.634 19.132C305.037 18.4507 304.738 17.5593 304.738 16.458C304.738 15.3567 305.037 14.47 305.634 13.798C306.241 13.1167 307.053 12.776 308.07 12.776C308.5 12.776 308.906 12.874 309.288 13.07C309.68 13.2567 309.942 13.4247 310.072 13.574C310.11 13.6113 310.142 13.6253 310.17 13.616C310.198 13.5973 310.212 13.574 310.212 13.546V10.214C310.212 10.1673 310.236 10.144 310.282 10.144H311.472C311.519 10.144 311.542 10.1673 311.542 10.214V19.93C311.542 19.9767 311.519 20 311.472 20ZM306.642 14.666C306.26 15.1233 306.068 15.7207 306.068 16.458C306.068 17.1953 306.26 17.7973 306.642 18.264C307.025 18.7213 307.548 18.95 308.21 18.95C308.836 18.95 309.326 18.7213 309.68 18.264C310.035 17.8067 310.212 17.2047 310.212 16.458C310.212 15.7113 310.035 15.1093 309.68 14.652C309.326 14.1947 308.836 13.966 308.21 13.966C307.548 13.966 307.025 14.1993 306.642 14.666ZM319.647 20H317.869C317.832 20 317.804 19.9767 317.785 19.93L315.419 12.986C315.41 12.9393 315.438 12.916 315.503 12.916H316.777C316.805 12.916 316.828 12.9393 316.847 12.986L318.681 18.614C318.7 18.6513 318.723 18.67 318.751 18.67C318.779 18.67 318.802 18.6513 318.821 18.614L320.669 12.986C320.688 12.9393 320.711 12.916 320.739 12.916H322.013C322.078 12.916 322.102 12.9393 322.083 12.986L319.717 19.93C319.698 19.9767 319.675 20 319.647 20ZM324.579 12.986V19.93C324.579 19.9767 324.556 20 324.509 20H323.319C323.272 20 323.249 19.9767 323.249 19.93V12.986C323.249 12.9393 323.272 12.916 323.319 12.916H324.509C324.556 12.916 324.579 12.9393 324.579 12.986ZM324.607 11.698H323.207C323.16 11.698 323.137 11.6747 323.137 11.628V10.214C323.137 10.1673 323.16 10.144 323.207 10.144H324.607C324.654 10.144 324.677 10.1673 324.677 10.214V11.628C324.677 11.6747 324.654 11.698 324.607 11.698ZM332.799 16.934H327.605C327.559 16.934 327.535 16.9573 327.535 17.004C327.535 17.536 327.717 17.9933 328.081 18.376C328.445 18.7587 328.926 18.95 329.523 18.95C330.363 18.95 330.956 18.6233 331.301 17.97C331.32 17.9233 331.353 17.9 331.399 17.9H332.645C332.701 17.9 332.725 17.9233 332.715 17.97C332.538 18.6513 332.16 19.1833 331.581 19.566C331.012 19.9487 330.326 20.14 329.523 20.14C328.487 20.14 327.661 19.804 327.045 19.132C326.429 18.4507 326.121 17.5593 326.121 16.458C326.121 15.338 326.42 14.4467 327.017 13.784C327.624 13.112 328.459 12.776 329.523 12.776C330.597 12.776 331.432 13.112 332.029 13.784C332.636 14.456 332.939 15.3473 332.939 16.458C332.939 16.6073 332.925 16.738 332.897 16.85C332.879 16.906 332.846 16.934 332.799 16.934ZM331.483 15.814C331.483 15.3473 331.315 14.9227 330.979 14.54C330.643 14.1573 330.158 13.966 329.523 13.966C328.907 13.966 328.422 14.176 328.067 14.596C327.713 15.0067 327.535 15.4127 327.535 15.814C327.535 15.8607 327.559 15.884 327.605 15.884H331.413C331.46 15.884 331.483 15.8607 331.483 15.814ZM341.824 20H340.046C340.018 20 339.994 19.9767 339.976 19.93L338.618 14.344C338.608 14.3067 338.585 14.288 338.548 14.288C338.51 14.288 338.487 14.3067 338.478 14.344L337.134 19.93C337.115 19.9767 337.092 20 337.064 20H335.286C335.248 20 335.22 19.9767 335.202 19.93L333.536 12.986C333.526 12.9393 333.554 12.916 333.62 12.916H334.81C334.838 12.916 334.861 12.9393 334.88 12.986L336.098 18.614C336.107 18.6513 336.13 18.67 336.168 18.67C336.205 18.67 336.228 18.6513 336.238 18.614L337.624 12.986C337.642 12.9393 337.666 12.916 337.694 12.916H339.416C339.444 12.916 339.467 12.9393 339.486 12.986L340.872 18.614C340.881 18.6513 340.904 18.67 340.942 18.67C340.979 18.67 341.002 18.6513 341.012 18.614L342.23 12.986C342.248 12.9393 342.272 12.916 342.3 12.916H343.49C343.555 12.916 343.583 12.9393 343.574 12.986L341.908 19.93C341.889 19.9767 341.861 20 341.824 20Z" fill="#71717A"/>
<g clip-path="url(#clip0_1118_22411)">
<rect x="176" y="64" width="160" height="160" rx="80" fill="white"/>
<path d="M256 66C256 64.8954 255.104 63.9974 254 64.025C237.347 64.4413 221.221 70.0474 207.886 80.0859C194.018 90.5258 183.921 105.193 179.12 121.875C174.32 138.556 175.075 156.346 181.272 172.561C187.469 188.775 198.772 202.535 213.475 211.762C228.178 220.989 245.483 225.183 262.779 223.712C280.076 222.241 296.424 215.184 309.357 203.607C322.291 192.029 331.108 176.559 334.478 159.531C337.718 143.157 335.753 126.197 328.886 111.021C328.431 110.015 327.233 109.599 326.238 110.079L315.432 115.298C314.437 115.778 314.024 116.973 314.473 117.982C319.834 130.03 321.349 143.457 318.782 156.425C316.086 170.047 309.033 182.423 298.686 191.685C288.339 200.948 275.26 206.593 261.424 207.77C247.587 208.947 233.743 205.591 221.98 198.209C210.218 190.828 201.175 179.82 196.218 166.849C191.26 153.877 190.656 139.645 194.496 126.3C198.337 112.954 206.414 101.221 217.509 92.8687C228.07 84.9183 240.82 80.4431 254 80.0312C255.104 79.9967 256 79.1046 256 78V66Z" fill="#11C182" fill-opacity="0.2"/>
<path d="M256 66.4C256 65.0745 254.925 63.9962 253.6 64.036C234.813 64.5994 216.821 71.762 202.787 84.2641C201.797 85.1458 201.757 86.668 202.668 87.6308C203.579 88.5937 205.096 88.6323 206.087 87.7525C219.228 76.0916 236.041 69.3985 253.6 68.8383C254.925 68.796 256 67.7255 256 66.4Z" fill="#11C182"/>
<path d="M200.021 90.2585C199.065 89.3405 197.543 89.3694 196.654 90.3526C184.05 104.295 176.756 122.235 176.056 141.017C176.006 142.341 177.077 143.424 178.402 143.434C179.728 143.444 180.806 142.376 180.858 141.052C181.546 123.497 188.362 106.733 200.118 93.6784C201.005 92.6935 200.978 91.1764 200.021 90.2585Z" fill="#11C182"/>
<path d="M266.034 220.949C266.206 222.263 267.411 223.193 268.719 222.982C280.021 221.162 290.811 216.936 300.353 210.579C309.895 204.223 317.952 195.894 323.986 186.166C324.684 185.039 324.29 183.569 323.143 182.904C321.996 182.24 320.531 182.633 319.83 183.758C314.167 192.85 306.622 200.636 297.692 206.585C288.762 212.533 278.67 216.497 268.098 218.22C266.79 218.434 265.863 219.634 266.034 220.949Z" fill="#11C182"/>
<path d="M325.292 179.814C326.273 180.321 327.482 179.938 327.964 178.944C333.089 168.391 335.833 156.831 335.993 145.084C336.152 133.337 333.722 121.707 328.885 111.019C328.43 110.013 327.232 109.597 326.237 110.077L315.434 115.295C314.439 115.775 314.025 116.97 314.474 117.979C318.235 126.43 320.122 135.603 319.997 144.867C319.871 154.132 317.736 163.251 313.747 171.596C313.271 172.593 313.652 173.798 314.634 174.306L325.292 179.814Z" fill="#11C182"/>
<path d="M178.507 148.075C177.183 148.144 176.163 149.274 176.272 150.595C177.071 160.254 179.619 169.694 183.799 178.453C188.324 187.935 194.671 196.432 202.48 203.461C210.288 210.489 219.405 215.911 229.309 219.416C238.458 222.654 248.113 224.198 257.802 223.98C259.128 223.95 260.144 222.817 260.075 221.493C260.005 220.169 258.876 219.157 257.55 219.184C248.491 219.371 239.465 217.919 230.91 214.891C221.6 211.596 213.031 206.5 205.691 199.893C198.351 193.287 192.384 185.299 188.131 176.386C184.223 168.196 181.832 159.372 181.068 150.343C180.956 149.022 179.831 148.005 178.507 148.075Z" fill="#11C182"/>
<path d="M324.094 105.958C325.058 105.419 325.406 104.199 324.843 103.249C318.194 92.0158 308.891 82.5711 297.737 75.7503C286.584 68.9296 273.938 64.9516 260.909 64.1507C259.806 64.083 258.878 64.9478 258.838 66.0517L258.401 78.0437C258.361 79.1475 259.224 80.0717 260.326 80.1464C270.608 80.8429 280.581 84.0133 289.39 89.4003C298.199 94.7872 305.565 102.22 310.869 111.056C311.438 112.003 312.654 112.349 313.618 111.811L324.094 105.958Z" fill="#FF68DE" fill-opacity="0.2"/>
<path d="M323.734 106.134C324.891 105.487 325.308 104.023 324.627 102.886C317.99 91.8087 308.765 82.4918 297.727 75.7443C286.69 68.9968 274.192 65.0328 261.307 64.1762C259.985 64.0883 258.871 65.1268 258.823 66.4514C258.775 67.776 259.81 68.8849 261.133 68.9754C273.193 69.8004 284.89 73.5221 295.224 79.8397C305.558 86.1572 314.202 94.871 320.435 105.229C321.118 106.365 322.577 106.781 323.734 106.134Z" fill="#FF68DE"/>
<path d="M254.077 121.472H258.013C258.098 121.472 258.162 121.525 258.205 121.632L265.661 143.84C265.703 143.947 265.65 144 265.501 144H262.493C262.429 144 262.375 143.947 262.333 143.84L260.861 139.264C260.839 139.157 260.765 139.104 260.637 139.104H251.357C251.271 139.104 251.207 139.157 251.165 139.264L249.661 143.84C249.618 143.947 249.565 144 249.501 144H246.525C246.375 144 246.311 143.947 246.333 143.84L253.885 121.632C253.927 121.525 253.991 121.472 254.077 121.472ZM252.221 136.544H259.805C259.933 136.544 259.975 136.491 259.933 136.384L256.189 124.672C256.146 124.587 256.093 124.544 256.029 124.544C255.965 124.544 255.911 124.587 255.869 124.672L252.093 136.384C252.05 136.491 252.093 136.544 252.221 136.544Z" fill="#11C182"/>
<path d="M218.76 158.214L217.136 161.266C217.117 161.294 217.122 161.322 217.15 161.35C217.178 161.378 217.206 161.383 217.234 161.364C217.393 161.261 217.668 161.21 218.06 161.21C219.021 161.21 219.815 161.527 220.44 162.162C221.065 162.797 221.378 163.627 221.378 164.654C221.378 165.69 221.065 166.535 220.44 167.188C219.815 167.832 218.965 168.154 217.892 168.154C216.819 168.154 215.969 167.832 215.344 167.188C214.728 166.535 214.42 165.69 214.42 164.654C214.42 163.945 214.597 163.268 214.952 162.624L217.36 158.214C217.379 158.167 217.411 158.144 217.458 158.144H218.69C218.755 158.144 218.779 158.167 218.76 158.214ZM219.446 166.348C219.801 165.937 219.978 165.373 219.978 164.654C219.978 163.935 219.801 163.371 219.446 162.96C219.101 162.549 218.583 162.344 217.892 162.344C217.211 162.344 216.693 162.549 216.338 162.96C215.993 163.371 215.82 163.935 215.82 164.654C215.82 165.373 215.993 165.937 216.338 166.348C216.693 166.759 217.211 166.964 217.892 166.964C218.583 166.964 219.101 166.759 219.446 166.348ZM225.741 167.93V158.214C225.741 158.167 225.765 158.144 225.811 158.144H230.473C231.22 158.144 231.836 158.419 232.321 158.97C232.807 159.511 233.049 160.169 233.049 160.944C233.049 161.383 232.937 161.77 232.713 162.106C232.499 162.433 232.242 162.657 231.943 162.778C231.906 162.787 231.887 162.811 231.887 162.848C231.887 162.885 231.906 162.909 231.943 162.918C232.279 163.058 232.583 163.357 232.853 163.814C233.133 164.262 233.273 164.724 233.273 165.2C233.273 166.031 233.003 166.707 232.461 167.23C231.929 167.743 231.243 168 230.403 168H225.811C225.765 168 225.741 167.977 225.741 167.93ZM230.305 163.52H227.141C227.095 163.52 227.071 163.543 227.071 163.59V166.74C227.071 166.787 227.095 166.81 227.141 166.81H230.207C230.702 166.81 231.113 166.651 231.439 166.334C231.775 166.007 231.943 165.629 231.943 165.2C231.943 164.78 231.78 164.397 231.453 164.052C231.127 163.697 230.744 163.52 230.305 163.52ZM231.719 160.944C231.719 160.496 231.584 160.113 231.313 159.796C231.052 159.479 230.683 159.32 230.207 159.32H227.141C227.095 159.32 227.071 159.343 227.071 159.39V162.26C227.071 162.307 227.095 162.33 227.141 162.33H230.207C230.599 162.311 230.949 162.171 231.257 161.91C231.565 161.649 231.719 161.327 231.719 160.944ZM236.136 160.986V167.93C236.136 167.977 236.112 168 236.066 168H234.876C234.829 168 234.806 167.977 234.806 167.93V160.986C234.806 160.939 234.829 160.916 234.876 160.916H236.066C236.112 160.916 236.136 160.939 236.136 160.986ZM236.164 159.698H234.764C234.717 159.698 234.694 159.675 234.694 159.628V158.214C234.694 158.167 234.717 158.144 234.764 158.144H236.164C236.21 158.144 236.234 158.167 236.234 158.214V159.628C236.234 159.675 236.21 159.698 236.164 159.698ZM243.684 161.784C244.309 162.456 244.622 163.347 244.622 164.458C244.622 165.569 244.309 166.46 243.684 167.132C243.068 167.804 242.223 168.14 241.15 168.14C240.067 168.14 239.218 167.804 238.602 167.132C237.986 166.46 237.678 165.569 237.678 164.458C237.678 163.347 237.986 162.456 238.602 161.784C239.218 161.112 240.067 160.776 241.15 160.776C242.223 160.776 243.068 161.112 243.684 161.784ZM242.718 166.264C243.1 165.797 243.292 165.195 243.292 164.458C243.292 163.721 243.1 163.123 242.718 162.666C242.335 162.199 241.812 161.966 241.15 161.966C240.496 161.966 239.974 162.199 239.582 162.666C239.199 163.123 239.008 163.721 239.008 164.458C239.008 165.195 239.199 165.797 239.582 166.264C239.974 166.721 240.496 166.95 241.15 166.95C241.812 166.95 242.335 166.721 242.718 166.264ZM246.237 160.916H247.287C247.315 160.916 247.338 160.939 247.357 160.986L247.497 161.616C247.516 161.653 247.544 161.672 247.581 161.672C247.618 161.663 247.646 161.644 247.665 161.616C247.786 161.373 248.006 161.173 248.323 161.014C248.64 160.855 248.976 160.776 249.331 160.776C249.826 160.776 250.222 160.837 250.521 160.958C250.82 161.079 251.1 161.299 251.361 161.616C251.408 161.681 251.464 161.681 251.529 161.616C252.014 161.056 252.719 160.776 253.643 160.776C254.548 160.776 255.234 161.061 255.701 161.63C256.168 162.199 256.401 163.016 256.401 164.08V167.93C256.401 167.977 256.378 168 256.331 168H255.141C255.094 168 255.071 167.977 255.071 167.93V164.08C255.071 163.772 255.052 163.511 255.015 163.296C254.978 163.072 254.908 162.853 254.805 162.638C254.702 162.414 254.539 162.246 254.315 162.134C254.1 162.022 253.83 161.966 253.503 161.966C252.906 161.966 252.495 162.157 252.271 162.54C252.056 162.923 251.949 163.436 251.949 164.08V167.93C251.949 167.949 251.94 167.967 251.921 167.986C251.912 167.995 251.898 168 251.879 168H250.689H250.675C250.647 168 250.633 167.991 250.633 167.972C250.624 167.963 250.619 167.949 250.619 167.93V164.08C250.619 163.436 250.507 162.923 250.283 162.54C250.068 162.157 249.658 161.966 249.051 161.966C248.5 161.966 248.104 162.167 247.861 162.568C247.618 162.96 247.497 163.464 247.497 164.08V167.93C247.497 167.977 247.474 168 247.427 168H246.237C246.19 168 246.167 167.977 246.167 167.93V160.986C246.167 160.939 246.19 160.916 246.237 160.916ZM264.872 166.88V167.93C264.872 167.977 264.849 168 264.802 168H264.536C263.743 168 263.248 167.762 263.052 167.286C263.024 167.211 262.982 167.202 262.926 167.258C262.338 167.846 261.531 168.14 260.504 168.14C259.646 168.14 258.974 167.939 258.488 167.538C258.012 167.127 257.774 166.581 257.774 165.9C257.774 165.275 258.04 164.766 258.572 164.374C259.104 163.973 259.842 163.772 260.784 163.772H262.282C262.422 163.772 262.534 163.725 262.618 163.632C262.702 163.529 262.744 163.422 262.744 163.31C262.744 163.123 262.73 162.969 262.702 162.848C262.674 162.727 262.609 162.591 262.506 162.442C262.404 162.283 262.226 162.167 261.974 162.092C261.722 162.008 261.4 161.966 261.008 161.966C260.439 161.966 260.014 162.083 259.734 162.316C259.464 162.549 259.328 162.857 259.328 163.24C259.328 163.287 259.305 163.31 259.258 163.31H258.068C258.022 163.31 257.998 163.287 257.998 163.24C257.998 162.456 258.288 161.849 258.866 161.42C259.445 160.991 260.159 160.776 261.008 160.776C261.988 160.776 262.744 160.991 263.276 161.42C263.808 161.84 264.074 162.47 264.074 163.31V166.348C264.074 166.46 264.116 166.567 264.2 166.67C264.284 166.763 264.396 166.81 264.536 166.81H264.802C264.849 166.81 264.872 166.833 264.872 166.88ZM262.744 165.088V164.892C262.744 164.845 262.721 164.822 262.674 164.822H260.784C260.206 164.822 259.781 164.929 259.51 165.144C259.24 165.359 259.104 165.611 259.104 165.9C259.104 166.171 259.23 166.413 259.482 166.628C259.734 166.843 260.075 166.95 260.504 166.95C261.279 166.95 261.844 166.768 262.198 166.404C262.562 166.031 262.744 165.592 262.744 165.088ZM270.061 161.966H269.347C268.787 161.966 268.339 162.176 268.003 162.596C267.667 163.007 267.499 163.501 267.499 164.08V167.93C267.499 167.977 267.475 168 267.429 168H266.239C266.192 168 266.169 167.977 266.169 167.93V160.986C266.169 160.939 266.192 160.916 266.239 160.916H267.289C267.317 160.916 267.34 160.939 267.359 160.986L267.499 161.616C267.527 161.7 267.578 161.705 267.653 161.63C268.222 161.061 268.787 160.776 269.347 160.776H270.061C270.107 160.776 270.131 160.799 270.131 160.846V161.896C270.131 161.943 270.107 161.966 270.061 161.966ZM277.96 168H276.7C276.644 168 276.602 167.977 276.574 167.93L274.348 164.108C274.32 164.071 274.287 164.071 274.25 164.108L272.654 165.48C272.635 165.499 272.626 165.527 272.626 165.564V167.93C272.626 167.977 272.602 168 272.556 168H271.366C271.319 168 271.296 167.977 271.296 167.93V158.214C271.296 158.167 271.319 158.144 271.366 158.144H272.556C272.602 158.144 272.626 158.167 272.626 158.214V163.702C272.626 163.721 272.635 163.735 272.654 163.744C272.682 163.753 272.705 163.749 272.724 163.73L275.944 160.986C276 160.939 276.07 160.916 276.154 160.916H277.876C277.894 160.916 277.908 160.925 277.918 160.944C277.927 160.963 277.927 160.977 277.918 160.986L275.314 163.198C275.286 163.226 275.286 163.263 275.314 163.31L278.016 167.93C278.034 167.977 278.016 168 277.96 168ZM285.043 164.934H279.849C279.803 164.934 279.779 164.957 279.779 165.004C279.779 165.536 279.961 165.993 280.325 166.376C280.689 166.759 281.17 166.95 281.767 166.95C282.607 166.95 283.2 166.623 283.545 165.97C283.564 165.923 283.597 165.9 283.643 165.9H284.889C284.945 165.9 284.969 165.923 284.959 165.97C284.782 166.651 284.404 167.183 283.825 167.566C283.256 167.949 282.57 168.14 281.767 168.14C280.731 168.14 279.905 167.804 279.289 167.132C278.673 166.451 278.365 165.559 278.365 164.458C278.365 163.338 278.664 162.447 279.261 161.784C279.868 161.112 280.703 160.776 281.767 160.776C282.841 160.776 283.676 161.112 284.273 161.784C284.88 162.456 285.183 163.347 285.183 164.458C285.183 164.607 285.169 164.738 285.141 164.85C285.123 164.906 285.09 164.934 285.043 164.934ZM283.727 163.814C283.727 163.347 283.559 162.923 283.223 162.54C282.887 162.157 282.402 161.966 281.767 161.966C281.151 161.966 280.666 162.176 280.311 162.596C279.957 163.007 279.779 163.413 279.779 163.814C279.779 163.861 279.803 163.884 279.849 163.884H283.657C283.704 163.884 283.727 163.861 283.727 163.814ZM290.596 161.966H289.882C289.322 161.966 288.874 162.176 288.538 162.596C288.202 163.007 288.034 163.501 288.034 164.08V167.93C288.034 167.977 288.011 168 287.964 168H286.774C286.727 168 286.704 167.977 286.704 167.93V160.986C286.704 160.939 286.727 160.916 286.774 160.916H287.824C287.852 160.916 287.875 160.939 287.894 160.986L288.034 161.616C288.062 161.7 288.113 161.705 288.188 161.63C288.757 161.061 289.322 160.776 289.882 160.776H290.596C290.643 160.776 290.666 160.799 290.666 160.846V161.896C290.666 161.943 290.643 161.966 290.596 161.966ZM297.098 163.31H295.894C295.847 163.31 295.824 163.287 295.824 163.24C295.824 162.848 295.67 162.54 295.362 162.316C295.063 162.083 294.634 161.966 294.074 161.966C293.579 161.966 293.201 162.055 292.94 162.232C292.688 162.409 292.562 162.619 292.562 162.862C292.562 162.974 292.576 163.072 292.604 163.156C292.641 163.24 292.697 163.315 292.772 163.38C292.856 163.436 292.93 163.483 292.996 163.52C293.07 163.557 293.173 163.595 293.304 163.632C293.444 163.66 293.546 163.679 293.612 163.688C293.686 163.697 293.803 163.711 293.962 163.73C294.12 163.749 294.223 163.763 294.27 163.772C295.24 163.912 295.889 164.047 296.216 164.178C296.972 164.495 297.35 165.065 297.35 165.886C297.35 166.651 297.07 167.221 296.51 167.594C295.95 167.958 295.203 168.14 294.27 168.14C293.252 168.14 292.468 167.907 291.918 167.44C291.376 166.973 291.106 166.385 291.106 165.676C291.106 165.629 291.129 165.606 291.176 165.606H292.352C292.408 165.606 292.436 165.629 292.436 165.676C292.436 166.04 292.604 166.343 292.94 166.586C293.276 166.829 293.719 166.95 294.27 166.95C295.436 166.95 296.02 166.595 296.02 165.886C296.02 165.802 296.006 165.723 295.978 165.648C295.959 165.573 295.922 165.508 295.866 165.452C295.81 165.396 295.754 165.349 295.698 165.312C295.651 165.265 295.576 165.228 295.474 165.2C295.38 165.163 295.306 165.135 295.25 165.116C295.194 165.097 295.105 165.079 294.984 165.06C294.862 165.041 294.778 165.027 294.732 165.018C294.685 165.009 294.601 164.999 294.48 164.99C294.358 164.971 294.288 164.962 294.27 164.962C293.971 164.925 293.733 164.897 293.556 164.878C293.388 164.85 293.164 164.803 292.884 164.738C292.613 164.673 292.394 164.593 292.226 164.5C292.067 164.407 291.899 164.29 291.722 164.15C291.554 164.001 291.428 163.819 291.344 163.604C291.269 163.389 291.232 163.142 291.232 162.862C291.232 162.274 291.493 161.779 292.016 161.378C292.538 160.977 293.224 160.776 294.074 160.776C294.979 160.776 295.716 160.991 296.286 161.42C296.864 161.84 297.154 162.447 297.154 163.24C297.154 163.287 297.135 163.31 297.098 163.31Z" fill="#71717A"/>
</g>
<path d="M360 120.5H456C460.142 120.5 463.5 123.858 463.5 128V164C463.5 168.142 460.142 171.5 456 171.5H360C355.858 171.5 352.5 168.142 352.5 164V128C352.5 123.858 355.858 120.5 360 120.5Z" fill="white"/>
<path d="M360 120.5H456C460.142 120.5 463.5 123.858 463.5 128V164C463.5 168.142 460.142 171.5 456 171.5H360C355.858 171.5 352.5 168.142 352.5 164V128C352.5 123.858 355.858 120.5 360 120.5Z" stroke="#E4E4E7"/>
<path d="M362.976 129.552H364.452C364.484 129.552 364.508 129.572 364.524 129.612L367.32 137.94C367.336 137.98 367.316 138 367.26 138H366.132C366.108 138 366.088 137.98 366.072 137.94L365.52 136.224C365.512 136.184 365.484 136.164 365.436 136.164H361.956C361.924 136.164 361.9 136.184 361.884 136.224L361.32 137.94C361.304 137.98 361.284 138 361.26 138H360.144C360.088 138 360.064 137.98 360.072 137.94L362.904 129.612C362.92 129.572 362.944 129.552 362.976 129.552ZM362.28 135.204H365.124C365.172 135.204 365.188 135.184 365.172 135.144L363.768 130.752C363.752 130.72 363.732 130.704 363.708 130.704C363.684 130.704 363.664 130.72 363.648 130.752L362.232 135.144C362.216 135.184 362.232 135.204 362.28 135.204ZM369.481 129.612V137.94C369.481 137.98 369.461 138 369.421 138H368.401C368.361 138 368.341 137.98 368.341 137.94V129.612C368.341 129.572 368.361 129.552 368.401 129.552H369.421C369.461 129.552 369.481 129.572 369.481 129.612ZM372.219 138H371.319C371.279 138 371.259 137.98 371.259 137.94V129.612C371.259 129.572 371.279 129.552 371.319 129.552H372.339C372.379 129.552 372.399 129.572 372.399 129.612V132.468C372.399 132.492 372.411 132.512 372.435 132.528C372.459 132.536 372.487 132.524 372.519 132.492C372.631 132.364 372.851 132.22 373.179 132.06C373.515 131.892 373.867 131.808 374.235 131.808C375.107 131.808 375.799 132.1 376.311 132.684C376.831 133.26 377.091 134.02 377.091 134.964C377.091 135.908 376.831 136.672 376.311 137.256C375.799 137.832 375.107 138.12 374.235 138.12C373.947 138.12 373.631 138.048 373.287 137.904C372.943 137.76 372.687 137.604 372.519 137.436C372.463 137.38 372.423 137.388 372.399 137.46L372.279 137.94C372.263 137.98 372.243 138 372.219 138ZM375.459 136.512C375.787 136.112 375.951 135.596 375.951 134.964C375.951 134.332 375.787 133.82 375.459 133.428C375.131 133.028 374.683 132.828 374.115 132.828C373.579 132.828 373.159 133.024 372.855 133.416C372.551 133.808 372.399 134.324 372.399 134.964C372.399 135.604 372.551 136.12 372.855 136.512C373.159 136.904 373.579 137.1 374.115 137.1C374.683 137.1 375.131 136.904 375.459 136.512ZM383.712 138H382.812C382.788 138 382.768 137.98 382.752 137.94L382.632 137.4C382.616 137.368 382.592 137.352 382.56 137.352C382.536 137.352 382.516 137.364 382.5 137.388C382.372 137.572 382.164 137.74 381.876 137.892C381.596 138.044 381.28 138.12 380.928 138.12C380 138.12 379.332 137.864 378.924 137.352C378.516 136.832 378.312 136.144 378.312 135.288V131.988C378.312 131.948 378.332 131.928 378.372 131.928H379.392C379.432 131.928 379.452 131.948 379.452 131.988V135.288C379.452 135.8 379.58 136.232 379.836 136.584C380.092 136.928 380.496 137.1 381.048 137.1C381.528 137.1 381.912 136.924 382.2 136.572C382.488 136.212 382.632 135.784 382.632 135.288V131.988C382.632 131.948 382.652 131.928 382.692 131.928H383.712C383.752 131.928 383.772 131.948 383.772 131.988V137.94C383.772 137.98 383.752 138 383.712 138ZM385.604 131.928H386.504C386.528 131.928 386.548 131.948 386.564 131.988L386.684 132.528C386.7 132.56 386.724 132.576 386.756 132.576C386.788 132.568 386.812 132.552 386.828 132.528C386.932 132.32 387.12 132.148 387.392 132.012C387.664 131.876 387.952 131.808 388.256 131.808C388.68 131.808 389.02 131.86 389.276 131.964C389.532 132.068 389.772 132.256 389.996 132.528C390.036 132.584 390.084 132.584 390.14 132.528C390.556 132.048 391.16 131.808 391.952 131.808C392.728 131.808 393.316 132.052 393.716 132.54C394.116 133.028 394.316 133.728 394.316 134.64V137.94C394.316 137.98 394.296 138 394.256 138H393.236C393.196 138 393.176 137.98 393.176 137.94V134.64C393.176 134.376 393.16 134.152 393.128 133.968C393.096 133.776 393.036 133.588 392.948 133.404C392.86 133.212 392.72 133.068 392.528 132.972C392.344 132.876 392.112 132.828 391.832 132.828C391.32 132.828 390.968 132.992 390.776 133.32C390.592 133.648 390.5 134.088 390.5 134.64V137.94C390.5 137.956 390.492 137.972 390.476 137.988C390.468 137.996 390.456 138 390.44 138H389.42H389.408C389.384 138 389.372 137.992 389.372 137.976C389.364 137.968 389.36 137.956 389.36 137.94V134.64C389.36 134.088 389.264 133.648 389.072 133.32C388.888 132.992 388.536 132.828 388.016 132.828C387.544 132.828 387.204 133 386.996 133.344C386.788 133.68 386.684 134.112 386.684 134.64V137.94C386.684 137.98 386.664 138 386.624 138H385.604C385.564 138 385.544 137.98 385.544 137.94V131.988C385.544 131.948 385.564 131.928 385.604 131.928ZM397.137 131.988V137.94C397.137 137.98 397.117 138 397.077 138H396.057C396.017 138 395.997 137.98 395.997 137.94V131.988C395.997 131.948 396.017 131.928 396.057 131.928H397.077C397.117 131.928 397.137 131.948 397.137 131.988ZM397.161 130.884H395.961C395.921 130.884 395.901 130.864 395.901 130.824V129.612C395.901 129.572 395.921 129.552 395.961 129.552H397.161C397.201 129.552 397.221 129.572 397.221 129.612V130.824C397.221 130.864 397.201 130.884 397.161 130.884ZM398.975 131.928H399.875C399.899 131.928 399.919 131.948 399.935 131.988L400.055 132.528C400.063 132.56 400.083 132.576 400.115 132.576C400.147 132.576 400.171 132.564 400.187 132.54C400.515 132.052 401.039 131.808 401.759 131.808C402.591 131.808 403.235 132.076 403.691 132.612C404.147 133.14 404.375 133.816 404.375 134.64V137.94C404.375 137.98 404.355 138 404.315 138H403.295C403.255 138 403.235 137.98 403.235 137.94V134.64C403.235 134.128 403.107 133.7 402.851 133.356C402.595 133.004 402.191 132.828 401.639 132.828C401.159 132.828 400.775 133.008 400.487 133.368C400.199 133.72 400.055 134.144 400.055 134.64V137.94C400.055 137.98 400.035 138 399.995 138H398.975C398.935 138 398.915 137.98 398.915 137.94V131.988C398.915 131.948 398.935 131.928 398.975 131.928Z" fill="black"/>
<circle cx="364" cy="156" r="4" fill="#11C182"/>
<path d="M384.204 151.39C384.96 152.314 385.338 153.541 385.338 155.072C385.338 156.603 384.96 157.83 384.204 158.754C383.448 159.678 382.356 160.14 380.928 160.14C379.5 160.14 378.403 159.678 377.638 158.754C376.882 157.83 376.504 156.603 376.504 155.072C376.504 153.541 376.882 152.314 377.638 151.39C378.403 150.466 379.5 150.004 380.928 150.004C382.356 150.004 383.448 150.466 384.204 151.39ZM378.688 157.928C379.211 158.609 379.957 158.95 380.928 158.95C381.899 158.95 382.645 158.609 383.168 157.928C383.691 157.247 383.952 156.295 383.952 155.072C383.952 153.849 383.691 152.897 383.168 152.216C382.645 151.535 381.899 151.194 380.928 151.194C379.957 151.194 379.211 151.535 378.688 152.216C378.165 152.897 377.904 153.849 377.904 155.072C377.904 156.295 378.165 157.247 378.688 157.928ZM386.95 152.916H388C388.028 152.916 388.051 152.939 388.07 152.986L388.21 153.56C388.228 153.597 388.252 153.616 388.28 153.616C388.308 153.616 388.331 153.602 388.35 153.574C388.536 153.369 388.83 153.187 389.232 153.028C389.633 152.86 390.006 152.776 390.352 152.776C391.369 152.776 392.176 153.117 392.774 153.798C393.38 154.47 393.684 155.357 393.684 156.458C393.684 157.559 393.38 158.451 392.774 159.132C392.176 159.804 391.369 160.14 390.352 160.14C389.922 160.14 389.512 160.047 389.12 159.86C388.737 159.664 388.48 159.491 388.35 159.342C388.312 159.305 388.28 159.295 388.252 159.314C388.224 159.323 388.21 159.342 388.21 159.37V162.702C388.21 162.749 388.186 162.772 388.14 162.772H386.95C386.903 162.772 386.88 162.749 386.88 162.702V152.986C386.88 152.939 386.903 152.916 386.95 152.916ZM391.78 158.264C392.162 157.797 392.354 157.195 392.354 156.458C392.354 155.721 392.162 155.123 391.78 154.666C391.397 154.199 390.874 153.966 390.212 153.966C389.586 153.966 389.096 154.195 388.742 154.652C388.387 155.109 388.21 155.711 388.21 156.458C388.21 157.205 388.387 157.807 388.742 158.264C389.096 158.721 389.586 158.95 390.212 158.95C390.874 158.95 391.397 158.721 391.78 158.264ZM398.549 158.88V159.93C398.549 159.977 398.525 160 398.479 160H397.401C396.178 160 395.567 159.449 395.567 158.348V154.036C395.567 153.989 395.543 153.966 395.497 153.966H394.251C394.204 153.966 394.181 153.943 394.181 153.896V152.986C394.181 152.939 394.204 152.916 394.251 152.916H395.497C395.543 152.916 395.567 152.893 395.567 152.846V150.956C395.567 150.909 395.59 150.886 395.637 150.886H396.827C396.873 150.886 396.897 150.909 396.897 150.956V152.846C396.897 152.893 396.92 152.916 396.967 152.916H398.479C398.525 152.916 398.549 152.939 398.549 152.986V153.896C398.549 153.943 398.525 153.966 398.479 153.966H396.967C396.92 153.966 396.897 153.989 396.897 154.036V158.11C396.897 158.577 397.149 158.81 397.653 158.81H398.479C398.525 158.81 398.549 158.833 398.549 158.88ZM401.335 152.986V159.93C401.335 159.977 401.311 160 401.265 160H400.075C400.028 160 400.005 159.977 400.005 159.93V152.986C400.005 152.939 400.028 152.916 400.075 152.916H401.265C401.311 152.916 401.335 152.939 401.335 152.986ZM401.363 151.698H399.963C399.916 151.698 399.893 151.675 399.893 151.628V150.214C399.893 150.167 399.916 150.144 399.963 150.144H401.363C401.409 150.144 401.433 150.167 401.433 150.214V151.628C401.433 151.675 401.409 151.698 401.363 151.698ZM403.479 152.916H404.529C404.557 152.916 404.58 152.939 404.599 152.986L404.739 153.616C404.758 153.653 404.786 153.672 404.823 153.672C404.86 153.663 404.888 153.644 404.907 153.616C405.028 153.373 405.248 153.173 405.565 153.014C405.882 152.855 406.218 152.776 406.573 152.776C407.068 152.776 407.464 152.837 407.763 152.958C408.062 153.079 408.342 153.299 408.603 153.616C408.65 153.681 408.706 153.681 408.771 153.616C409.256 153.056 409.961 152.776 410.885 152.776C411.79 152.776 412.476 153.061 412.943 153.63C413.41 154.199 413.643 155.016 413.643 156.08V159.93C413.643 159.977 413.62 160 413.573 160H412.383C412.336 160 412.313 159.977 412.313 159.93V156.08C412.313 155.772 412.294 155.511 412.257 155.296C412.22 155.072 412.15 154.853 412.047 154.638C411.944 154.414 411.781 154.246 411.557 154.134C411.342 154.022 411.072 153.966 410.745 153.966C410.148 153.966 409.737 154.157 409.513 154.54C409.298 154.923 409.191 155.436 409.191 156.08V159.93C409.191 159.949 409.182 159.967 409.163 159.986C409.154 159.995 409.14 160 409.121 160H407.931H407.917C407.889 160 407.875 159.991 407.875 159.972C407.866 159.963 407.861 159.949 407.861 159.93V156.08C407.861 155.436 407.749 154.923 407.525 154.54C407.31 154.157 406.9 153.966 406.293 153.966C405.742 153.966 405.346 154.167 405.103 154.568C404.86 154.96 404.739 155.464 404.739 156.08V159.93C404.739 159.977 404.716 160 404.669 160H403.479C403.432 160 403.409 159.977 403.409 159.93V152.986C403.409 152.939 403.432 152.916 403.479 152.916ZM422.114 158.88V159.93C422.114 159.977 422.091 160 422.044 160H421.778C420.985 160 420.49 159.762 420.294 159.286C420.266 159.211 420.224 159.202 420.168 159.258C419.58 159.846 418.773 160.14 417.746 160.14C416.888 160.14 416.216 159.939 415.73 159.538C415.254 159.127 415.016 158.581 415.016 157.9C415.016 157.275 415.282 156.766 415.814 156.374C416.346 155.973 417.084 155.772 418.026 155.772H419.524C419.664 155.772 419.776 155.725 419.86 155.632C419.944 155.529 419.986 155.422 419.986 155.31C419.986 155.123 419.972 154.969 419.944 154.848C419.916 154.727 419.851 154.591 419.748 154.442C419.646 154.283 419.468 154.167 419.216 154.092C418.964 154.008 418.642 153.966 418.25 153.966C417.681 153.966 417.256 154.083 416.976 154.316C416.706 154.549 416.57 154.857 416.57 155.24C416.57 155.287 416.547 155.31 416.5 155.31H415.31C415.264 155.31 415.24 155.287 415.24 155.24C415.24 154.456 415.53 153.849 416.108 153.42C416.687 152.991 417.401 152.776 418.25 152.776C419.23 152.776 419.986 152.991 420.518 153.42C421.05 153.84 421.316 154.47 421.316 155.31V158.348C421.316 158.46 421.358 158.567 421.442 158.67C421.526 158.763 421.638 158.81 421.778 158.81H422.044C422.091 158.81 422.114 158.833 422.114 158.88ZM419.986 157.088V156.892C419.986 156.845 419.963 156.822 419.916 156.822H418.026C417.448 156.822 417.023 156.929 416.752 157.144C416.482 157.359 416.346 157.611 416.346 157.9C416.346 158.171 416.472 158.413 416.724 158.628C416.976 158.843 417.317 158.95 417.746 158.95C418.521 158.95 419.086 158.768 419.44 158.404C419.804 158.031 419.986 157.592 419.986 157.088ZM424.741 150.214V159.93C424.741 159.977 424.718 160 424.671 160H423.481C423.434 160 423.411 159.977 423.411 159.93V150.214C423.411 150.167 423.434 150.144 423.481 150.144H424.671C424.718 150.144 424.741 150.167 424.741 150.214Z" fill="#11C182"/>
<path d="M226.304 273.868C226.304 273.46 226.132 273.124 225.788 272.86C225.452 272.588 225.02 272.452 224.492 272.452C224.012 272.452 223.604 272.584 223.268 272.848C222.932 273.112 222.764 273.444 222.764 273.844C222.764 274.076 222.816 274.272 222.92 274.432C223.032 274.592 223.192 274.716 223.4 274.804C223.608 274.884 223.796 274.944 223.964 274.984C224.14 275.016 224.36 275.048 224.624 275.08C225.088 275.136 225.48 275.204 225.8 275.284C226.128 275.364 226.46 275.492 226.796 275.668C227.132 275.844 227.388 276.096 227.564 276.424C227.74 276.752 227.828 277.152 227.828 277.624C227.828 278.304 227.564 278.892 227.036 279.388C226.508 279.876 225.704 280.12 224.624 280.12C223.632 280.12 222.848 279.884 222.272 279.412C221.704 278.94 221.42 278.364 221.42 277.684C221.42 277.644 221.44 277.624 221.48 277.624H222.548C222.596 277.624 222.62 277.648 222.62 277.696C222.62 278.04 222.796 278.36 223.148 278.656C223.508 278.952 224 279.1 224.624 279.1C225.24 279.1 225.728 278.96 226.088 278.68C226.448 278.392 226.628 278.04 226.628 277.624C226.628 277.368 226.576 277.152 226.472 276.976C226.368 276.792 226.212 276.652 226.004 276.556C225.796 276.46 225.588 276.388 225.38 276.34C225.18 276.292 224.928 276.252 224.624 276.22C224.312 276.188 224.032 276.148 223.784 276.1C223.536 276.052 223.264 275.972 222.968 275.86C222.68 275.74 222.44 275.6 222.248 275.44C222.056 275.28 221.892 275.064 221.756 274.792C221.628 274.52 221.564 274.204 221.564 273.844C221.564 273.116 221.856 272.532 222.44 272.092C223.024 271.652 223.708 271.432 224.492 271.432C225.316 271.432 226.024 271.644 226.616 272.068C227.208 272.492 227.504 273.092 227.504 273.868C227.504 273.908 227.484 273.928 227.444 273.928H226.364C226.324 273.928 226.304 273.908 226.304 273.868ZM234.586 277.372H230.134C230.094 277.372 230.074 277.392 230.074 277.432C230.074 277.888 230.23 278.28 230.542 278.608C230.854 278.936 231.266 279.1 231.778 279.1C232.498 279.1 233.006 278.82 233.302 278.26C233.318 278.22 233.346 278.2 233.386 278.2H234.454C234.502 278.2 234.522 278.22 234.514 278.26C234.362 278.844 234.038 279.3 233.542 279.628C233.054 279.956 232.466 280.12 231.778 280.12C230.89 280.12 230.182 279.832 229.654 279.256C229.126 278.672 228.862 277.908 228.862 276.964C228.862 276.004 229.118 275.24 229.63 274.672C230.15 274.096 230.866 273.808 231.778 273.808C232.698 273.808 233.414 274.096 233.926 274.672C234.446 275.248 234.706 276.012 234.706 276.964C234.706 277.092 234.694 277.204 234.67 277.3C234.654 277.348 234.626 277.372 234.586 277.372ZM233.458 276.412C233.458 276.012 233.314 275.648 233.026 275.32C232.738 274.992 232.322 274.828 231.778 274.828C231.25 274.828 230.834 275.008 230.53 275.368C230.226 275.72 230.074 276.068 230.074 276.412C230.074 276.452 230.094 276.472 230.134 276.472H233.398C233.438 276.472 233.458 276.452 233.458 276.412ZM236.069 273.928H236.969C236.993 273.928 237.013 273.948 237.029 273.988L237.149 274.48C237.165 274.512 237.185 274.528 237.209 274.528C237.233 274.528 237.253 274.516 237.269 274.492C237.429 274.316 237.681 274.16 238.025 274.024C238.369 273.88 238.689 273.808 238.985 273.808C239.857 273.808 240.549 274.1 241.061 274.684C241.581 275.26 241.841 276.02 241.841 276.964C241.841 277.908 241.581 278.672 241.061 279.256C240.549 279.832 239.857 280.12 238.985 280.12C238.617 280.12 238.265 280.04 237.929 279.88C237.601 279.712 237.381 279.564 237.269 279.436C237.237 279.404 237.209 279.396 237.185 279.412C237.161 279.42 237.149 279.436 237.149 279.46V282.316C237.149 282.356 237.129 282.376 237.089 282.376H236.069C236.029 282.376 236.009 282.356 236.009 282.316V273.988C236.009 273.948 236.029 273.928 236.069 273.928ZM240.209 278.512C240.537 278.112 240.701 277.596 240.701 276.964C240.701 276.332 240.537 275.82 240.209 275.428C239.881 275.028 239.433 274.828 238.865 274.828C238.329 274.828 237.909 275.024 237.605 275.416C237.301 275.808 237.149 276.324 237.149 276.964C237.149 277.604 237.301 278.12 237.605 278.512C237.909 278.904 238.329 279.1 238.865 279.1C239.433 279.1 239.881 278.904 240.209 278.512ZM244.972 279.94V279.1C244.972 279.028 244.988 278.976 245.02 278.944L248.356 275.692C249.044 275.036 249.384 274.464 249.376 273.976C249.368 273.6 249.228 273.252 248.956 272.932C248.684 272.612 248.292 272.452 247.78 272.452C247.34 272.452 246.976 272.596 246.688 272.884C246.4 273.164 246.256 273.492 246.256 273.868C246.256 273.908 246.236 273.928 246.196 273.928H245.176C245.136 273.928 245.116 273.908 245.116 273.868C245.116 273.156 245.364 272.572 245.86 272.116C246.364 271.66 247.004 271.432 247.78 271.432C248.62 271.432 249.284 271.676 249.772 272.164C250.268 272.652 250.516 273.256 250.516 273.976C250.516 274.832 250.072 275.656 249.184 276.448L246.544 278.884C246.528 278.892 246.524 278.912 246.532 278.944C246.54 278.968 246.56 278.98 246.592 278.98H250.456C250.496 278.98 250.516 279 250.516 279.04V279.94C250.516 279.98 250.496 280 250.456 280H245.032C244.992 280 244.972 279.98 244.972 279.94ZM251.417 279.94V279.1C251.417 279.028 251.433 278.976 251.465 278.944L254.801 275.692C255.489 275.036 255.829 274.464 255.821 273.976C255.813 273.6 255.673 273.252 255.401 272.932C255.129 272.612 254.737 272.452 254.225 272.452C253.785 272.452 253.421 272.596 253.133 272.884C252.845 273.164 252.701 273.492 252.701 273.868C252.701 273.908 252.681 273.928 252.641 273.928H251.621C251.581 273.928 251.561 273.908 251.561 273.868C251.561 273.156 251.809 272.572 252.305 272.116C252.809 271.66 253.449 271.432 254.225 271.432C255.065 271.432 255.729 271.676 256.217 272.164C256.713 272.652 256.961 273.256 256.961 273.976C256.961 274.832 256.517 275.656 255.629 276.448L252.989 278.884C252.973 278.892 252.969 278.912 252.977 278.944C252.985 278.968 253.005 278.98 253.037 278.98H256.901C256.941 278.98 256.961 279 256.961 279.04V279.94C256.961 279.98 256.941 280 256.901 280H251.477C251.437 280 251.417 279.98 251.417 279.94ZM258.895 280H258.367C258.327 280 258.307 279.98 258.307 279.94V278.476C258.307 278.436 258.327 278.416 258.367 278.416H259.807C259.847 278.416 259.867 278.436 259.867 278.476V279.928C259.867 280.392 259.727 280.784 259.447 281.104C259.167 281.424 258.807 281.584 258.367 281.584C258.327 281.584 258.307 281.564 258.307 281.524V280.864C258.307 280.824 258.327 280.804 258.367 280.804C258.495 280.804 258.623 280.728 258.751 280.576C258.887 280.432 258.955 280.26 258.955 280.06C258.955 280.02 258.935 280 258.895 280ZM263.347 279.94V279.1C263.347 279.028 263.363 278.976 263.395 278.944L266.731 275.692C267.419 275.036 267.759 274.464 267.751 273.976C267.743 273.6 267.603 273.252 267.331 272.932C267.059 272.612 266.667 272.452 266.155 272.452C265.715 272.452 265.351 272.596 265.063 272.884C264.775 273.164 264.631 273.492 264.631 273.868C264.631 273.908 264.611 273.928 264.571 273.928H263.551C263.511 273.928 263.491 273.908 263.491 273.868C263.491 273.156 263.739 272.572 264.235 272.116C264.739 271.66 265.379 271.432 266.155 271.432C266.995 271.432 267.659 271.676 268.147 272.164C268.643 272.652 268.891 273.256 268.891 273.976C268.891 274.832 268.447 275.656 267.559 276.448L264.919 278.884C264.903 278.892 264.899 278.912 264.907 278.944C264.915 278.968 264.935 278.98 264.967 278.98H268.831C268.871 278.98 268.891 279 268.891 279.04V279.94C268.891 279.98 268.871 280 268.831 280H263.407C263.367 280 263.347 279.98 263.347 279.94ZM276.279 275.776C276.279 278.68 275.211 280.132 273.075 280.132C270.931 280.132 269.859 278.68 269.859 275.776C269.859 272.88 270.931 271.432 273.075 271.432C275.211 271.432 276.279 272.88 276.279 275.776ZM275.079 275.776C275.079 274.672 274.923 273.844 274.611 273.292C274.299 272.732 273.787 272.452 273.075 272.452C272.363 272.452 271.851 272.732 271.539 273.292C271.227 273.844 271.071 274.672 271.071 275.776C271.071 276.88 271.227 277.712 271.539 278.272C271.851 278.832 272.363 279.112 273.075 279.112C273.787 279.112 274.299 278.832 274.611 278.272C274.923 277.704 275.079 276.872 275.079 275.776ZM277.105 279.94V279.1C277.105 279.028 277.121 278.976 277.153 278.944L280.489 275.692C281.177 275.036 281.517 274.464 281.509 273.976C281.501 273.6 281.361 273.252 281.089 272.932C280.817 272.612 280.425 272.452 279.913 272.452C279.473 272.452 279.109 272.596 278.821 272.884C278.533 273.164 278.389 273.492 278.389 273.868C278.389 273.908 278.369 273.928 278.329 273.928H277.309C277.269 273.928 277.249 273.908 277.249 273.868C277.249 273.156 277.497 272.572 277.993 272.116C278.497 271.66 279.137 271.432 279.913 271.432C280.753 271.432 281.417 271.676 281.905 272.164C282.401 272.652 282.649 273.256 282.649 273.976C282.649 274.832 282.205 275.656 281.317 276.448L278.677 278.884C278.661 278.892 278.657 278.912 278.665 278.944C278.673 278.968 278.693 278.98 278.725 278.98H282.589C282.629 278.98 282.649 279 282.649 279.04V279.94C282.649 279.98 282.629 280 282.589 280H277.165C277.125 280 277.105 279.98 277.105 279.94ZM283.732 275.98L284.26 271.636C284.268 271.58 284.296 271.552 284.344 271.552H288.844C288.884 271.552 288.904 271.572 288.904 271.612V272.512C288.904 272.552 288.884 272.572 288.844 272.572H285.316C285.276 272.572 285.256 272.592 285.256 272.632L284.992 274.612C284.992 274.636 284.992 274.656 284.992 274.672C285 274.68 285.012 274.684 285.028 274.684C285.052 274.676 285.072 274.664 285.088 274.648C285.528 274.304 286.016 274.132 286.552 274.132C287.424 274.132 288.128 274.408 288.664 274.96C289.208 275.504 289.48 276.216 289.48 277.096C289.48 278.04 289.224 278.78 288.712 279.316C288.2 279.852 287.48 280.12 286.552 280.12C286.032 280.12 285.572 280.036 285.172 279.868C284.772 279.692 284.468 279.472 284.26 279.208C284.052 278.936 283.896 278.676 283.792 278.428C283.696 278.172 283.648 277.936 283.648 277.72C283.648 277.68 283.668 277.66 283.708 277.66H284.812C284.852 277.66 284.872 277.68 284.872 277.72C284.872 278.008 285.008 278.312 285.28 278.632C285.56 278.944 285.984 279.1 286.552 279.1C287.08 279.1 287.508 278.92 287.836 278.56C288.172 278.2 288.34 277.712 288.34 277.096C288.34 276.528 288.172 276.064 287.836 275.704C287.5 275.336 287.072 275.152 286.552 275.152C286.136 275.152 285.796 275.22 285.532 275.356C285.276 275.484 285.052 275.692 284.86 275.98C284.836 276.02 284.792 276.04 284.728 276.04H283.792C283.752 276.04 283.732 276.02 283.732 275.98Z" fill="#71717A"/>
<defs>
<clipPath id="clip0_1118_22411">
<rect x="176" y="64" width="160" height="160" rx="80" fill="white"/>
</clipPath>
</defs>
</svg>
