<svg width="512" height="291" viewBox="0 0 512 291" fill="none" xmlns="http://www.w3.org/2000/svg">
<rect y="112" width="512" height="55" rx="1" fill="#E9F9F3"/>
<rect y="13" width="2" height="64" rx="1" fill="#FF68DE"/>
<rect y="80" width="2" height="29" rx="1" fill="#D7DB0E"/>
<rect y="170" width="2" height="29" rx="1" fill="#D7DB0E"/>
<rect y="112" width="2" height="55" rx="1" fill="#11C182"/>
<path d="M1.5 166.5H511.5" stroke="#11C182" stroke-linecap="round" stroke-dasharray="4 4"/>
<path d="M1.5 112.5H511.5" stroke="#11C182" stroke-linecap="round" stroke-dasharray="4 4"/>
<rect x="1" y="255" width="511" height="1" rx="0.5" fill="#E4E4E7"/>
<path d="M241.18 273.36H242.2C242.24 273.36 242.26 273.38 242.26 273.42V273.624C242.26 273.824 242.272 274 242.296 274.152C242.32 274.296 242.372 274.448 242.452 274.608C242.532 274.768 242.66 274.892 242.836 274.98C243.012 275.06 243.236 275.1 243.508 275.1C243.772 275.1 243.992 275.06 244.168 274.98C244.352 274.892 244.48 274.768 244.552 274.608C244.632 274.448 244.684 274.296 244.708 274.152C244.74 274 244.756 273.824 244.756 273.624V267.612C244.756 267.572 244.776 267.552 244.816 267.552H245.836C245.876 267.552 245.896 267.572 245.896 267.612V273.624C245.896 274.4 245.716 275.012 245.356 275.46C245.004 275.9 244.384 276.12 243.496 276.12C242.664 276.12 242.06 275.892 241.684 275.436C241.308 274.98 241.12 274.376 241.12 273.624V273.42C241.12 273.38 241.14 273.36 241.18 273.36ZM253.14 275.04V275.94C253.14 275.98 253.12 276 253.08 276H252.852C252.172 276 251.748 275.796 251.58 275.388C251.556 275.324 251.52 275.316 251.472 275.364C250.968 275.868 250.276 276.12 249.396 276.12C248.66 276.12 248.084 275.948 247.668 275.604C247.26 275.252 247.056 274.784 247.056 274.2C247.056 273.664 247.284 273.228 247.74 272.892C248.196 272.548 248.828 272.376 249.636 272.376H250.92C251.04 272.376 251.136 272.336 251.208 272.256C251.28 272.168 251.316 272.076 251.316 271.98C251.316 271.82 251.304 271.688 251.28 271.584C251.256 271.48 251.2 271.364 251.112 271.236C251.024 271.1 250.872 271 250.656 270.936C250.44 270.864 250.164 270.828 249.828 270.828C249.34 270.828 248.976 270.928 248.736 271.128C248.504 271.328 248.388 271.592 248.388 271.92C248.388 271.96 248.368 271.98 248.328 271.98H247.308C247.268 271.98 247.248 271.96 247.248 271.92C247.248 271.248 247.496 270.728 247.992 270.36C248.488 269.992 249.1 269.808 249.828 269.808C250.668 269.808 251.316 269.992 251.772 270.36C252.228 270.72 252.456 271.26 252.456 271.98V274.584C252.456 274.68 252.492 274.772 252.564 274.86C252.636 274.94 252.732 274.98 252.852 274.98H253.08C253.12 274.98 253.14 275 253.14 275.04ZM251.316 273.504V273.336C251.316 273.296 251.296 273.276 251.256 273.276H249.636C249.14 273.276 248.776 273.368 248.544 273.552C248.312 273.736 248.196 273.952 248.196 274.2C248.196 274.432 248.304 274.64 248.52 274.824C248.736 275.008 249.028 275.1 249.396 275.1C250.06 275.1 250.544 274.944 250.848 274.632C251.16 274.312 251.316 273.936 251.316 273.504ZM254.311 269.928H255.211C255.235 269.928 255.255 269.948 255.271 269.988L255.391 270.528C255.399 270.56 255.419 270.576 255.451 270.576C255.483 270.576 255.507 270.564 255.523 270.54C255.851 270.052 256.375 269.808 257.095 269.808C257.927 269.808 258.571 270.076 259.027 270.612C259.483 271.14 259.711 271.816 259.711 272.64V275.94C259.711 275.98 259.691 276 259.651 276H258.631C258.591 276 258.571 275.98 258.571 275.94V272.64C258.571 272.128 258.443 271.7 258.187 271.356C257.931 271.004 257.527 270.828 256.975 270.828C256.495 270.828 256.111 271.008 255.823 271.368C255.535 271.72 255.391 272.144 255.391 272.64V275.94C255.391 275.98 255.371 276 255.331 276H254.311C254.271 276 254.251 275.98 254.251 275.94V269.988C254.251 269.948 254.271 269.928 254.311 269.928ZM263.202 275.94V275.1C263.202 275.028 263.218 274.976 263.25 274.944L266.586 271.692C267.274 271.036 267.614 270.464 267.606 269.976C267.598 269.6 267.458 269.252 267.186 268.932C266.914 268.612 266.522 268.452 266.01 268.452C265.57 268.452 265.206 268.596 264.918 268.884C264.63 269.164 264.486 269.492 264.486 269.868C264.486 269.908 264.466 269.928 264.426 269.928H263.406C263.366 269.928 263.346 269.908 263.346 269.868C263.346 269.156 263.594 268.572 264.09 268.116C264.594 267.66 265.234 267.432 266.01 267.432C266.85 267.432 267.514 267.676 268.002 268.164C268.498 268.652 268.746 269.256 268.746 269.976C268.746 270.832 268.302 271.656 267.414 272.448L264.774 274.884C264.758 274.892 264.754 274.912 264.762 274.944C264.77 274.968 264.79 274.98 264.822 274.98H268.686C268.726 274.98 268.746 275 268.746 275.04V275.94C268.746 275.98 268.726 276 268.686 276H263.262C263.222 276 263.202 275.98 263.202 275.94ZM269.648 275.94V275.1C269.648 275.028 269.664 274.976 269.696 274.944L273.032 271.692C273.72 271.036 274.06 270.464 274.052 269.976C274.044 269.6 273.904 269.252 273.632 268.932C273.36 268.612 272.968 268.452 272.456 268.452C272.016 268.452 271.652 268.596 271.364 268.884C271.076 269.164 270.932 269.492 270.932 269.868C270.932 269.908 270.912 269.928 270.872 269.928H269.852C269.812 269.928 269.792 269.908 269.792 269.868C269.792 269.156 270.04 268.572 270.536 268.116C271.04 267.66 271.68 267.432 272.456 267.432C273.296 267.432 273.96 267.676 274.448 268.164C274.944 268.652 275.192 269.256 275.192 269.976C275.192 270.832 274.748 271.656 273.86 272.448L271.22 274.884C271.204 274.892 271.2 274.912 271.208 274.944C271.216 274.968 271.236 274.98 271.268 274.98H275.132C275.172 274.98 275.192 275 275.192 275.04V275.94C275.192 275.98 275.172 276 275.132 276H269.708C269.668 276 269.648 275.98 269.648 275.94ZM277.126 276H276.598C276.558 276 276.538 275.98 276.538 275.94V274.476C276.538 274.436 276.558 274.416 276.598 274.416H278.038C278.078 274.416 278.098 274.436 278.098 274.476V275.928C278.098 276.392 277.958 276.784 277.678 277.104C277.398 277.424 277.038 277.584 276.598 277.584C276.558 277.584 276.538 277.564 276.538 277.524V276.864C276.538 276.824 276.558 276.804 276.598 276.804C276.726 276.804 276.854 276.728 276.982 276.576C277.118 276.432 277.186 276.26 277.186 276.06C277.186 276.02 277.166 276 277.126 276ZM281.577 275.94V275.1C281.577 275.028 281.593 274.976 281.625 274.944L284.961 271.692C285.649 271.036 285.989 270.464 285.981 269.976C285.973 269.6 285.833 269.252 285.561 268.932C285.289 268.612 284.897 268.452 284.385 268.452C283.945 268.452 283.581 268.596 283.293 268.884C283.005 269.164 282.861 269.492 282.861 269.868C282.861 269.908 282.841 269.928 282.801 269.928H281.781C281.741 269.928 281.721 269.908 281.721 269.868C281.721 269.156 281.969 268.572 282.465 268.116C282.969 267.66 283.609 267.432 284.385 267.432C285.225 267.432 285.889 267.676 286.377 268.164C286.873 268.652 287.121 269.256 287.121 269.976C287.121 270.832 286.677 271.656 285.789 272.448L283.149 274.884C283.133 274.892 283.129 274.912 283.137 274.944C283.145 274.968 283.165 274.98 283.197 274.98H287.061C287.101 274.98 287.121 275 287.121 275.04V275.94C287.121 275.98 287.101 276 287.061 276H281.637C281.597 276 281.577 275.98 281.577 275.94ZM294.51 271.776C294.51 274.68 293.442 276.132 291.306 276.132C289.162 276.132 288.09 274.68 288.09 271.776C288.09 268.88 289.162 267.432 291.306 267.432C293.442 267.432 294.51 268.88 294.51 271.776ZM293.31 271.776C293.31 270.672 293.154 269.844 292.842 269.292C292.53 268.732 292.018 268.452 291.306 268.452C290.594 268.452 290.082 268.732 289.77 269.292C289.458 269.844 289.302 270.672 289.302 271.776C289.302 272.88 289.458 273.712 289.77 274.272C290.082 274.832 290.594 275.112 291.306 275.112C292.018 275.112 292.53 274.832 292.842 274.272C293.154 273.704 293.31 272.872 293.31 271.776ZM295.335 275.94V275.1C295.335 275.028 295.351 274.976 295.383 274.944L298.719 271.692C299.407 271.036 299.747 270.464 299.739 269.976C299.731 269.6 299.591 269.252 299.319 268.932C299.047 268.612 298.655 268.452 298.143 268.452C297.703 268.452 297.339 268.596 297.051 268.884C296.763 269.164 296.619 269.492 296.619 269.868C296.619 269.908 296.599 269.928 296.559 269.928H295.539C295.499 269.928 295.479 269.908 295.479 269.868C295.479 269.156 295.727 268.572 296.223 268.116C296.727 267.66 297.367 267.432 298.143 267.432C298.983 267.432 299.647 267.676 300.135 268.164C300.631 268.652 300.879 269.256 300.879 269.976C300.879 270.832 300.435 271.656 299.547 272.448L296.907 274.884C296.891 274.892 296.887 274.912 296.895 274.944C296.903 274.968 296.923 274.98 296.955 274.98H300.819C300.859 274.98 300.879 275 300.879 275.04V275.94C300.879 275.98 300.859 276 300.819 276H295.395C295.355 276 295.335 275.98 295.335 275.94ZM301.962 271.98L302.49 267.636C302.498 267.58 302.526 267.552 302.574 267.552H307.074C307.114 267.552 307.134 267.572 307.134 267.612V268.512C307.134 268.552 307.114 268.572 307.074 268.572H303.546C303.506 268.572 303.486 268.592 303.486 268.632L303.222 270.612C303.222 270.636 303.222 270.656 303.222 270.672C303.23 270.68 303.242 270.684 303.258 270.684C303.282 270.676 303.302 270.664 303.318 270.648C303.758 270.304 304.246 270.132 304.782 270.132C305.654 270.132 306.358 270.408 306.894 270.96C307.438 271.504 307.71 272.216 307.71 273.096C307.71 274.04 307.454 274.78 306.942 275.316C306.43 275.852 305.71 276.12 304.782 276.12C304.262 276.12 303.802 276.036 303.402 275.868C303.002 275.692 302.698 275.472 302.49 275.208C302.282 274.936 302.126 274.676 302.022 274.428C301.926 274.172 301.878 273.936 301.878 273.72C301.878 273.68 301.898 273.66 301.938 273.66H303.042C303.082 273.66 303.102 273.68 303.102 273.72C303.102 274.008 303.238 274.312 303.51 274.632C303.79 274.944 304.214 275.1 304.782 275.1C305.31 275.1 305.738 274.92 306.066 274.56C306.402 274.2 306.57 273.712 306.57 273.096C306.57 272.528 306.402 272.064 306.066 271.704C305.73 271.336 305.302 271.152 304.782 271.152C304.366 271.152 304.026 271.22 303.762 271.356C303.506 271.484 303.282 271.692 303.09 271.98C303.066 272.02 303.022 272.04 302.958 272.04H302.022C301.982 272.04 301.962 272.02 301.962 271.98Z" fill="#71717A"/>
<path d="M72.18 273.36H73.2C73.24 273.36 73.26 273.38 73.26 273.42V273.624C73.26 273.824 73.272 274 73.296 274.152C73.32 274.296 73.372 274.448 73.452 274.608C73.532 274.768 73.66 274.892 73.836 274.98C74.012 275.06 74.236 275.1 74.508 275.1C74.772 275.1 74.992 275.06 75.168 274.98C75.352 274.892 75.48 274.768 75.552 274.608C75.632 274.448 75.684 274.296 75.708 274.152C75.74 274 75.756 273.824 75.756 273.624V267.612C75.756 267.572 75.776 267.552 75.816 267.552H76.836C76.876 267.552 76.896 267.572 76.896 267.612V273.624C76.896 274.4 76.716 275.012 76.356 275.46C76.004 275.9 75.384 276.12 74.496 276.12C73.664 276.12 73.06 275.892 72.684 275.436C72.308 274.98 72.12 274.376 72.12 273.624V273.42C72.12 273.38 72.14 273.36 72.18 273.36ZM84.1399 275.04V275.94C84.1399 275.98 84.1199 276 84.0799 276H83.8519C83.1719 276 82.7479 275.796 82.5799 275.388C82.5559 275.324 82.5199 275.316 82.4719 275.364C81.9679 275.868 81.2759 276.12 80.3959 276.12C79.6599 276.12 79.0839 275.948 78.6679 275.604C78.2599 275.252 78.0559 274.784 78.0559 274.2C78.0559 273.664 78.2839 273.228 78.7399 272.892C79.1959 272.548 79.8279 272.376 80.6359 272.376H81.9199C82.0399 272.376 82.1359 272.336 82.2079 272.256C82.2799 272.168 82.3159 272.076 82.3159 271.98C82.3159 271.82 82.3039 271.688 82.2799 271.584C82.2559 271.48 82.1999 271.364 82.1119 271.236C82.0239 271.1 81.8719 271 81.6559 270.936C81.4399 270.864 81.1639 270.828 80.8279 270.828C80.3399 270.828 79.9759 270.928 79.7359 271.128C79.5039 271.328 79.3879 271.592 79.3879 271.92C79.3879 271.96 79.3679 271.98 79.3279 271.98H78.3079C78.2679 271.98 78.2479 271.96 78.2479 271.92C78.2479 271.248 78.4959 270.728 78.9919 270.36C79.4879 269.992 80.0999 269.808 80.8279 269.808C81.6679 269.808 82.3159 269.992 82.7719 270.36C83.2279 270.72 83.4559 271.26 83.4559 271.98V274.584C83.4559 274.68 83.4919 274.772 83.5639 274.86C83.6359 274.94 83.7319 274.98 83.8519 274.98H84.0799C84.1199 274.98 84.1399 275 84.1399 275.04ZM82.3159 273.504V273.336C82.3159 273.296 82.2959 273.276 82.2559 273.276H80.6359C80.1399 273.276 79.7759 273.368 79.5439 273.552C79.3119 273.736 79.1959 273.952 79.1959 274.2C79.1959 274.432 79.3039 274.64 79.5199 274.824C79.7359 275.008 80.0279 275.1 80.3959 275.1C81.0599 275.1 81.5439 274.944 81.8479 274.632C82.1599 274.312 82.3159 273.936 82.3159 273.504ZM85.3113 269.928H86.2113C86.2353 269.928 86.2553 269.948 86.2713 269.988L86.3913 270.528C86.3993 270.56 86.4193 270.576 86.4513 270.576C86.4833 270.576 86.5073 270.564 86.5233 270.54C86.8513 270.052 87.3753 269.808 88.0953 269.808C88.9273 269.808 89.5713 270.076 90.0273 270.612C90.4833 271.14 90.7113 271.816 90.7113 272.64V275.94C90.7113 275.98 90.6913 276 90.6513 276H89.6313C89.5913 276 89.5713 275.98 89.5713 275.94V272.64C89.5713 272.128 89.4433 271.7 89.1873 271.356C88.9313 271.004 88.5273 270.828 87.9753 270.828C87.4953 270.828 87.1113 271.008 86.8233 271.368C86.5353 271.72 86.3913 272.144 86.3913 272.64V275.94C86.3913 275.98 86.3713 276 86.3313 276H85.3113C85.2713 276 85.2513 275.98 85.2513 275.94V269.988C85.2513 269.948 85.2713 269.928 85.3113 269.928ZM96.3503 268.392V267.612C96.3503 267.572 96.3703 267.552 96.4103 267.552H97.4303C97.4703 267.552 97.4903 267.572 97.4903 267.612V275.94C97.4903 275.98 97.4703 276 97.4303 276H96.4103C96.3703 276 96.3503 275.98 96.3503 275.94V270.408C96.3503 270.296 96.3103 270.208 96.2303 270.144C96.1583 270.08 96.0743 270.048 95.9783 270.048H94.1423C94.1023 270.048 94.0823 270.028 94.0823 269.988V269.148C94.0823 269.108 94.1023 269.088 94.1423 269.088H95.6303C95.8303 269.088 95.9983 269.024 96.1343 268.896C96.2783 268.76 96.3503 268.592 96.3503 268.392ZM101.254 275.94L102.646 273.324C102.654 273.3 102.646 273.276 102.622 273.252C102.606 273.228 102.586 273.224 102.562 273.24C102.434 273.328 102.198 273.372 101.854 273.372C101.03 273.372 100.35 273.1 99.8141 272.556C99.2781 272.012 99.0101 271.3 99.0101 270.42C99.0101 269.532 99.2781 268.812 99.8141 268.26C100.35 267.7 101.078 267.42 101.998 267.42C102.918 267.42 103.642 267.7 104.17 268.26C104.706 268.812 104.974 269.532 104.974 270.42C104.974 271.028 104.822 271.608 104.518 272.16L102.454 275.94C102.43 275.98 102.402 276 102.37 276H101.314C101.25 276 101.23 275.98 101.254 275.94ZM100.654 268.968C100.358 269.32 100.21 269.804 100.21 270.42C100.21 271.036 100.358 271.52 100.654 271.872C100.958 272.224 101.406 272.4 101.998 272.4C102.582 272.4 103.022 272.224 103.318 271.872C103.622 271.52 103.774 271.036 103.774 270.42C103.774 269.804 103.622 269.32 103.318 268.968C103.022 268.616 102.582 268.44 101.998 268.44C101.406 268.44 100.958 268.616 100.654 268.968ZM105.806 276H105.278C105.238 276 105.218 275.98 105.218 275.94V274.476C105.218 274.436 105.238 274.416 105.278 274.416H106.718C106.758 274.416 106.778 274.436 106.778 274.476V275.928C106.778 276.392 106.638 276.784 106.358 277.104C106.078 277.424 105.718 277.584 105.278 277.584C105.238 277.584 105.218 277.564 105.218 277.524V276.864C105.218 276.824 105.238 276.804 105.278 276.804C105.406 276.804 105.534 276.728 105.662 276.576C105.798 276.432 105.866 276.26 105.866 276.06C105.866 276.02 105.846 276 105.806 276ZM110.257 275.94V275.1C110.257 275.028 110.273 274.976 110.305 274.944L113.641 271.692C114.329 271.036 114.669 270.464 114.661 269.976C114.653 269.6 114.513 269.252 114.241 268.932C113.969 268.612 113.577 268.452 113.065 268.452C112.625 268.452 112.261 268.596 111.973 268.884C111.685 269.164 111.541 269.492 111.541 269.868C111.541 269.908 111.521 269.928 111.481 269.928H110.461C110.421 269.928 110.401 269.908 110.401 269.868C110.401 269.156 110.649 268.572 111.145 268.116C111.649 267.66 112.289 267.432 113.065 267.432C113.905 267.432 114.569 267.676 115.057 268.164C115.553 268.652 115.801 269.256 115.801 269.976C115.801 270.832 115.357 271.656 114.469 272.448L111.829 274.884C111.813 274.892 111.809 274.912 111.817 274.944C111.825 274.968 111.845 274.98 111.877 274.98H115.741C115.781 274.98 115.801 275 115.801 275.04V275.94C115.801 275.98 115.781 276 115.741 276H110.317C110.277 276 110.257 275.98 110.257 275.94ZM123.189 271.776C123.189 274.68 122.121 276.132 119.985 276.132C117.841 276.132 116.769 274.68 116.769 271.776C116.769 268.88 117.841 267.432 119.985 267.432C122.121 267.432 123.189 268.88 123.189 271.776ZM121.989 271.776C121.989 270.672 121.833 269.844 121.521 269.292C121.209 268.732 120.697 268.452 119.985 268.452C119.273 268.452 118.761 268.732 118.449 269.292C118.137 269.844 117.981 270.672 117.981 271.776C117.981 272.88 118.137 273.712 118.449 274.272C118.761 274.832 119.273 275.112 119.985 275.112C120.697 275.112 121.209 274.832 121.521 274.272C121.833 273.704 121.989 272.872 121.989 271.776ZM124.015 275.94V275.1C124.015 275.028 124.031 274.976 124.063 274.944L127.399 271.692C128.087 271.036 128.427 270.464 128.419 269.976C128.411 269.6 128.271 269.252 127.999 268.932C127.727 268.612 127.335 268.452 126.823 268.452C126.383 268.452 126.019 268.596 125.731 268.884C125.443 269.164 125.299 269.492 125.299 269.868C125.299 269.908 125.279 269.928 125.239 269.928H124.219C124.179 269.928 124.159 269.908 124.159 269.868C124.159 269.156 124.407 268.572 124.903 268.116C125.407 267.66 126.047 267.432 126.823 267.432C127.663 267.432 128.327 267.676 128.815 268.164C129.311 268.652 129.559 269.256 129.559 269.976C129.559 270.832 129.115 271.656 128.227 272.448L125.587 274.884C125.571 274.892 125.567 274.912 125.575 274.944C125.583 274.968 125.603 274.98 125.635 274.98H129.499C129.539 274.98 129.559 275 129.559 275.04V275.94C129.559 275.98 129.539 276 129.499 276H124.075C124.035 276 124.015 275.98 124.015 275.94ZM134.01 267.552H135.018C135.058 267.552 135.078 267.572 135.078 267.612V272.988C135.078 273.028 135.098 273.048 135.138 273.048H136.47C136.51 273.048 136.53 273.068 136.53 273.108V274.008C136.53 274.048 136.51 274.068 136.47 274.068H135.138C135.098 274.068 135.078 274.088 135.078 274.128V275.94C135.078 275.98 135.058 276 135.018 276H133.998C133.958 276 133.938 275.98 133.938 275.94V274.128C133.938 274.088 133.918 274.068 133.878 274.068H129.93C129.89 274.068 129.87 274.048 129.87 274.008V273.168C129.87 273.096 129.882 273.036 129.906 272.988L133.89 267.612C133.914 267.572 133.954 267.552 134.01 267.552ZM133.818 269.448L131.238 272.964C131.23 272.98 131.23 273 131.238 273.024C131.254 273.04 131.274 273.048 131.298 273.048H133.878C133.918 273.048 133.938 273.028 133.938 272.988V269.46C133.938 269.444 133.93 269.432 133.914 269.424C133.898 269.416 133.878 269.416 133.854 269.424C133.838 269.424 133.826 269.432 133.818 269.448Z" fill="#71717A"/>
<path d="M410.304 269.868C410.304 269.46 410.132 269.124 409.788 268.86C409.452 268.588 409.02 268.452 408.492 268.452C408.012 268.452 407.604 268.584 407.268 268.848C406.932 269.112 406.764 269.444 406.764 269.844C406.764 270.076 406.816 270.272 406.92 270.432C407.032 270.592 407.192 270.716 407.4 270.804C407.608 270.884 407.796 270.944 407.964 270.984C408.14 271.016 408.36 271.048 408.624 271.08C409.088 271.136 409.48 271.204 409.8 271.284C410.128 271.364 410.46 271.492 410.796 271.668C411.132 271.844 411.388 272.096 411.564 272.424C411.74 272.752 411.828 273.152 411.828 273.624C411.828 274.304 411.564 274.892 411.036 275.388C410.508 275.876 409.704 276.12 408.624 276.12C407.632 276.12 406.848 275.884 406.272 275.412C405.704 274.94 405.42 274.364 405.42 273.684C405.42 273.644 405.44 273.624 405.48 273.624H406.548C406.596 273.624 406.62 273.648 406.62 273.696C406.62 274.04 406.796 274.36 407.148 274.656C407.508 274.952 408 275.1 408.624 275.1C409.24 275.1 409.728 274.96 410.088 274.68C410.448 274.392 410.628 274.04 410.628 273.624C410.628 273.368 410.576 273.152 410.472 272.976C410.368 272.792 410.212 272.652 410.004 272.556C409.796 272.46 409.588 272.388 409.38 272.34C409.18 272.292 408.928 272.252 408.624 272.22C408.312 272.188 408.032 272.148 407.784 272.1C407.536 272.052 407.264 271.972 406.968 271.86C406.68 271.74 406.44 271.6 406.248 271.44C406.056 271.28 405.892 271.064 405.756 270.792C405.628 270.52 405.564 270.204 405.564 269.844C405.564 269.116 405.856 268.532 406.44 268.092C407.024 267.652 407.708 267.432 408.492 267.432C409.316 267.432 410.024 267.644 410.616 268.068C411.208 268.492 411.504 269.092 411.504 269.868C411.504 269.908 411.484 269.928 411.444 269.928H410.364C410.324 269.928 410.304 269.908 410.304 269.868ZM418.586 273.372H414.134C414.094 273.372 414.074 273.392 414.074 273.432C414.074 273.888 414.23 274.28 414.542 274.608C414.854 274.936 415.266 275.1 415.778 275.1C416.498 275.1 417.006 274.82 417.302 274.26C417.318 274.22 417.346 274.2 417.386 274.2H418.454C418.502 274.2 418.522 274.22 418.514 274.26C418.362 274.844 418.038 275.3 417.542 275.628C417.054 275.956 416.466 276.12 415.778 276.12C414.89 276.12 414.182 275.832 413.654 275.256C413.126 274.672 412.862 273.908 412.862 272.964C412.862 272.004 413.118 271.24 413.63 270.672C414.15 270.096 414.866 269.808 415.778 269.808C416.698 269.808 417.414 270.096 417.926 270.672C418.446 271.248 418.706 272.012 418.706 272.964C418.706 273.092 418.694 273.204 418.67 273.3C418.654 273.348 418.626 273.372 418.586 273.372ZM417.458 272.412C417.458 272.012 417.314 271.648 417.026 271.32C416.738 270.992 416.322 270.828 415.778 270.828C415.25 270.828 414.834 271.008 414.53 271.368C414.226 271.72 414.074 272.068 414.074 272.412C414.074 272.452 414.094 272.472 414.134 272.472H417.398C417.438 272.472 417.458 272.452 417.458 272.412ZM420.069 269.928H420.969C420.993 269.928 421.013 269.948 421.029 269.988L421.149 270.48C421.165 270.512 421.185 270.528 421.209 270.528C421.233 270.528 421.253 270.516 421.269 270.492C421.429 270.316 421.681 270.16 422.025 270.024C422.369 269.88 422.689 269.808 422.985 269.808C423.857 269.808 424.549 270.1 425.061 270.684C425.581 271.26 425.841 272.02 425.841 272.964C425.841 273.908 425.581 274.672 425.061 275.256C424.549 275.832 423.857 276.12 422.985 276.12C422.617 276.12 422.265 276.04 421.929 275.88C421.601 275.712 421.381 275.564 421.269 275.436C421.237 275.404 421.209 275.396 421.185 275.412C421.161 275.42 421.149 275.436 421.149 275.46V278.316C421.149 278.356 421.129 278.376 421.089 278.376H420.069C420.029 278.376 420.009 278.356 420.009 278.316V269.988C420.009 269.948 420.029 269.928 420.069 269.928ZM424.209 274.512C424.537 274.112 424.701 273.596 424.701 272.964C424.701 272.332 424.537 271.82 424.209 271.428C423.881 271.028 423.433 270.828 422.865 270.828C422.329 270.828 421.909 271.024 421.605 271.416C421.301 271.808 421.149 272.324 421.149 272.964C421.149 273.604 421.301 274.12 421.605 274.512C421.909 274.904 422.329 275.1 422.865 275.1C423.433 275.1 423.881 274.904 424.209 274.512ZM428.972 275.94V275.1C428.972 275.028 428.988 274.976 429.02 274.944L432.356 271.692C433.044 271.036 433.384 270.464 433.376 269.976C433.368 269.6 433.228 269.252 432.956 268.932C432.684 268.612 432.292 268.452 431.78 268.452C431.34 268.452 430.976 268.596 430.688 268.884C430.4 269.164 430.256 269.492 430.256 269.868C430.256 269.908 430.236 269.928 430.196 269.928H429.176C429.136 269.928 429.116 269.908 429.116 269.868C429.116 269.156 429.364 268.572 429.86 268.116C430.364 267.66 431.004 267.432 431.78 267.432C432.62 267.432 433.284 267.676 433.772 268.164C434.268 268.652 434.516 269.256 434.516 269.976C434.516 270.832 434.072 271.656 433.184 272.448L430.544 274.884C430.528 274.892 430.524 274.912 430.532 274.944C430.54 274.968 430.56 274.98 430.592 274.98H434.456C434.496 274.98 434.516 275 434.516 275.04V275.94C434.516 275.98 434.496 276 434.456 276H429.032C428.992 276 428.972 275.98 428.972 275.94ZM435.417 275.94V275.1C435.417 275.028 435.433 274.976 435.465 274.944L438.801 271.692C439.489 271.036 439.829 270.464 439.821 269.976C439.813 269.6 439.673 269.252 439.401 268.932C439.129 268.612 438.737 268.452 438.225 268.452C437.785 268.452 437.421 268.596 437.133 268.884C436.845 269.164 436.701 269.492 436.701 269.868C436.701 269.908 436.681 269.928 436.641 269.928H435.621C435.581 269.928 435.561 269.908 435.561 269.868C435.561 269.156 435.809 268.572 436.305 268.116C436.809 267.66 437.449 267.432 438.225 267.432C439.065 267.432 439.729 267.676 440.217 268.164C440.713 268.652 440.961 269.256 440.961 269.976C440.961 270.832 440.517 271.656 439.629 272.448L436.989 274.884C436.973 274.892 436.969 274.912 436.977 274.944C436.985 274.968 437.005 274.98 437.037 274.98H440.901C440.941 274.98 440.961 275 440.961 275.04V275.94C440.961 275.98 440.941 276 440.901 276H435.477C435.437 276 435.417 275.98 435.417 275.94ZM442.895 276H442.367C442.327 276 442.307 275.98 442.307 275.94V274.476C442.307 274.436 442.327 274.416 442.367 274.416H443.807C443.847 274.416 443.867 274.436 443.867 274.476V275.928C443.867 276.392 443.727 276.784 443.447 277.104C443.167 277.424 442.807 277.584 442.367 277.584C442.327 277.584 442.307 277.564 442.307 277.524V276.864C442.307 276.824 442.327 276.804 442.367 276.804C442.495 276.804 442.623 276.728 442.751 276.576C442.887 276.432 442.955 276.26 442.955 276.06C442.955 276.02 442.935 276 442.895 276ZM447.347 275.94V275.1C447.347 275.028 447.363 274.976 447.395 274.944L450.731 271.692C451.419 271.036 451.759 270.464 451.751 269.976C451.743 269.6 451.603 269.252 451.331 268.932C451.059 268.612 450.667 268.452 450.155 268.452C449.715 268.452 449.351 268.596 449.063 268.884C448.775 269.164 448.631 269.492 448.631 269.868C448.631 269.908 448.611 269.928 448.571 269.928H447.551C447.511 269.928 447.491 269.908 447.491 269.868C447.491 269.156 447.739 268.572 448.235 268.116C448.739 267.66 449.379 267.432 450.155 267.432C450.995 267.432 451.659 267.676 452.147 268.164C452.643 268.652 452.891 269.256 452.891 269.976C452.891 270.832 452.447 271.656 451.559 272.448L448.919 274.884C448.903 274.892 448.899 274.912 448.907 274.944C448.915 274.968 448.935 274.98 448.967 274.98H452.831C452.871 274.98 452.891 275 452.891 275.04V275.94C452.891 275.98 452.871 276 452.831 276H447.407C447.367 276 447.347 275.98 447.347 275.94ZM460.279 271.776C460.279 274.68 459.211 276.132 457.075 276.132C454.931 276.132 453.859 274.68 453.859 271.776C453.859 268.88 454.931 267.432 457.075 267.432C459.211 267.432 460.279 268.88 460.279 271.776ZM459.079 271.776C459.079 270.672 458.923 269.844 458.611 269.292C458.299 268.732 457.787 268.452 457.075 268.452C456.363 268.452 455.851 268.732 455.539 269.292C455.227 269.844 455.071 270.672 455.071 271.776C455.071 272.88 455.227 273.712 455.539 274.272C455.851 274.832 456.363 275.112 457.075 275.112C457.787 275.112 458.299 274.832 458.611 274.272C458.923 273.704 459.079 272.872 459.079 271.776ZM461.105 275.94V275.1C461.105 275.028 461.121 274.976 461.153 274.944L464.489 271.692C465.177 271.036 465.517 270.464 465.509 269.976C465.501 269.6 465.361 269.252 465.089 268.932C464.817 268.612 464.425 268.452 463.913 268.452C463.473 268.452 463.109 268.596 462.821 268.884C462.533 269.164 462.389 269.492 462.389 269.868C462.389 269.908 462.369 269.928 462.329 269.928H461.309C461.269 269.928 461.249 269.908 461.249 269.868C461.249 269.156 461.497 268.572 461.993 268.116C462.497 267.66 463.137 267.432 463.913 267.432C464.753 267.432 465.417 267.676 465.905 268.164C466.401 268.652 466.649 269.256 466.649 269.976C466.649 270.832 466.205 271.656 465.317 272.448L462.677 274.884C462.661 274.892 462.657 274.912 462.665 274.944C462.673 274.968 462.693 274.98 462.725 274.98H466.589C466.629 274.98 466.649 275 466.649 275.04V275.94C466.649 275.98 466.629 276 466.589 276H461.165C461.125 276 461.105 275.98 461.105 275.94ZM467.732 271.98L468.26 267.636C468.268 267.58 468.296 267.552 468.344 267.552H472.844C472.884 267.552 472.904 267.572 472.904 267.612V268.512C472.904 268.552 472.884 268.572 472.844 268.572H469.316C469.276 268.572 469.256 268.592 469.256 268.632L468.992 270.612C468.992 270.636 468.992 270.656 468.992 270.672C469 270.68 469.012 270.684 469.028 270.684C469.052 270.676 469.072 270.664 469.088 270.648C469.528 270.304 470.016 270.132 470.552 270.132C471.424 270.132 472.128 270.408 472.664 270.96C473.208 271.504 473.48 272.216 473.48 273.096C473.48 274.04 473.224 274.78 472.712 275.316C472.2 275.852 471.48 276.12 470.552 276.12C470.032 276.12 469.572 276.036 469.172 275.868C468.772 275.692 468.468 275.472 468.26 275.208C468.052 274.936 467.896 274.676 467.792 274.428C467.696 274.172 467.648 273.936 467.648 273.72C467.648 273.68 467.668 273.66 467.708 273.66H468.812C468.852 273.66 468.872 273.68 468.872 273.72C468.872 274.008 469.008 274.312 469.28 274.632C469.56 274.944 469.984 275.1 470.552 275.1C471.08 275.1 471.508 274.92 471.836 274.56C472.172 274.2 472.34 273.712 472.34 273.096C472.34 272.528 472.172 272.064 471.836 271.704C471.5 271.336 471.072 271.152 470.552 271.152C470.136 271.152 469.796 271.22 469.532 271.356C469.276 271.484 469.052 271.692 468.86 271.98C468.836 272.02 468.792 272.04 468.728 272.04H467.792C467.752 272.04 467.732 272.02 467.732 271.98Z" fill="#A1A1AA"/>
<rect y="202" width="2" height="54" rx="1" fill="#FF68DE"/>
<path d="M252 166.5L184 112" stroke="#11C182" stroke-width="2" stroke-linecap="round"/>
<path d="M183.5 111.5L140 77" stroke="#D7DB0E" stroke-width="2" stroke-linecap="round"/>
<path d="M275 185L252.5 167" stroke="#D7DB0E" stroke-width="2" stroke-linecap="round"/>
<path d="M139.5 76.5L105 49" stroke="#FF68DE" stroke-width="2" stroke-linecap="round"/>
<path d="M441 185H274.5" stroke="#D4D4D8" stroke-width="2" stroke-linecap="round" stroke-dasharray="6 6"/>
<g filter="url(#filter0_d_3706_37109)">
<circle cx="275" cy="185" r="4" fill="#D7DB0E"/>
<circle cx="275" cy="185" r="5" stroke="white" stroke-width="2"/>
</g>
<circle cx="440" cy="185" r="5" fill="#D4D4D8" stroke="white" stroke-width="2"/>
<circle cx="105" cy="49" r="5" fill="#FF68DE" stroke="white" stroke-width="2"/>
<path d="M470.032 122.62C470.68 123.412 471.004 124.464 471.004 125.776C471.004 127.088 470.68 128.14 470.032 128.932C469.384 129.724 468.448 130.12 467.224 130.12C466 130.12 465.06 129.724 464.404 128.932C463.756 128.14 463.432 127.088 463.432 125.776C463.432 124.464 463.756 123.412 464.404 122.62C465.06 121.828 466 121.432 467.224 121.432C468.448 121.432 469.384 121.828 470.032 122.62ZM465.304 128.224C465.752 128.808 466.392 129.1 467.224 129.1C468.056 129.1 468.696 128.808 469.144 128.224C469.592 127.64 469.816 126.824 469.816 125.776C469.816 124.728 469.592 123.912 469.144 123.328C468.696 122.744 468.056 122.452 467.224 122.452C466.392 122.452 465.752 122.744 465.304 123.328C464.856 123.912 464.632 124.728 464.632 125.776C464.632 126.824 464.856 127.64 465.304 128.224ZM472.386 123.928H473.286C473.31 123.928 473.33 123.948 473.346 123.988L473.466 124.48C473.482 124.512 473.502 124.528 473.526 124.528C473.55 124.528 473.57 124.516 473.586 124.492C473.746 124.316 473.998 124.16 474.342 124.024C474.686 123.88 475.006 123.808 475.302 123.808C476.174 123.808 476.866 124.1 477.378 124.684C477.898 125.26 478.158 126.02 478.158 126.964C478.158 127.908 477.898 128.672 477.378 129.256C476.866 129.832 476.174 130.12 475.302 130.12C474.934 130.12 474.582 130.04 474.246 129.88C473.918 129.712 473.698 129.564 473.586 129.436C473.554 129.404 473.526 129.396 473.502 129.412C473.478 129.42 473.466 129.436 473.466 129.46V132.316C473.466 132.356 473.446 132.376 473.406 132.376H472.386C472.346 132.376 472.326 132.356 472.326 132.316V123.988C472.326 123.948 472.346 123.928 472.386 123.928ZM476.526 128.512C476.854 128.112 477.018 127.596 477.018 126.964C477.018 126.332 476.854 125.82 476.526 125.428C476.198 125.028 475.75 124.828 475.182 124.828C474.646 124.828 474.226 125.024 473.922 125.416C473.618 125.808 473.466 126.324 473.466 126.964C473.466 127.604 473.618 128.12 473.922 128.512C474.226 128.904 474.646 129.1 475.182 129.1C475.75 129.1 476.198 128.904 476.526 128.512ZM482.327 129.04V129.94C482.327 129.98 482.307 130 482.267 130H481.343C480.295 130 479.771 129.528 479.771 128.584V124.888C479.771 124.848 479.751 124.828 479.711 124.828H478.643C478.603 124.828 478.583 124.808 478.583 124.768V123.988C478.583 123.948 478.603 123.928 478.643 123.928H479.711C479.751 123.928 479.771 123.908 479.771 123.868V122.248C479.771 122.208 479.791 122.188 479.831 122.188H480.851C480.891 122.188 480.911 122.208 480.911 122.248V123.868C480.911 123.908 480.931 123.928 480.971 123.928H482.267C482.307 123.928 482.327 123.948 482.327 123.988V124.768C482.327 124.808 482.307 124.828 482.267 124.828H480.971C480.931 124.828 480.911 124.848 480.911 124.888V128.38C480.911 128.78 481.127 128.98 481.559 128.98H482.267C482.307 128.98 482.327 129 482.327 129.04ZM484.716 123.988V129.94C484.716 129.98 484.696 130 484.656 130H483.636C483.596 130 483.576 129.98 483.576 129.94V123.988C483.576 123.948 483.596 123.928 483.636 123.928H484.656C484.696 123.928 484.716 123.948 484.716 123.988ZM484.74 122.884H483.54C483.5 122.884 483.479 122.864 483.479 122.824V121.612C483.479 121.572 483.5 121.552 483.54 121.552H484.74C484.78 121.552 484.8 121.572 484.8 121.612V122.824C484.8 122.864 484.78 122.884 484.74 122.884ZM486.553 123.928H487.453C487.477 123.928 487.497 123.948 487.513 123.988L487.633 124.528C487.649 124.56 487.673 124.576 487.705 124.576C487.737 124.568 487.761 124.552 487.777 124.528C487.881 124.32 488.069 124.148 488.341 124.012C488.613 123.876 488.901 123.808 489.205 123.808C489.629 123.808 489.969 123.86 490.225 123.964C490.481 124.068 490.721 124.256 490.945 124.528C490.985 124.584 491.033 124.584 491.089 124.528C491.505 124.048 492.109 123.808 492.901 123.808C493.677 123.808 494.265 124.052 494.665 124.54C495.065 125.028 495.265 125.728 495.265 126.64V129.94C495.265 129.98 495.245 130 495.205 130H494.185C494.145 130 494.125 129.98 494.125 129.94V126.64C494.125 126.376 494.109 126.152 494.077 125.968C494.045 125.776 493.985 125.588 493.897 125.404C493.809 125.212 493.669 125.068 493.477 124.972C493.293 124.876 493.061 124.828 492.781 124.828C492.269 124.828 491.917 124.992 491.725 125.32C491.541 125.648 491.449 126.088 491.449 126.64V129.94C491.449 129.956 491.441 129.972 491.425 129.988C491.417 129.996 491.405 130 491.389 130H490.369H490.357C490.333 130 490.321 129.992 490.321 129.976C490.313 129.968 490.309 129.956 490.309 129.94V126.64C490.309 126.088 490.213 125.648 490.021 125.32C489.837 124.992 489.485 124.828 488.965 124.828C488.493 124.828 488.153 125 487.945 125.344C487.737 125.68 487.633 126.112 487.633 126.64V129.94C487.633 129.98 487.613 130 487.573 130H486.553C486.513 130 486.493 129.98 486.493 129.94V123.988C486.493 123.948 486.513 123.928 486.553 123.928ZM502.527 129.04V129.94C502.527 129.98 502.507 130 502.467 130H502.239C501.559 130 501.135 129.796 500.967 129.388C500.943 129.324 500.907 129.316 500.859 129.364C500.355 129.868 499.663 130.12 498.783 130.12C498.047 130.12 497.471 129.948 497.055 129.604C496.647 129.252 496.443 128.784 496.443 128.2C496.443 127.664 496.671 127.228 497.127 126.892C497.583 126.548 498.215 126.376 499.023 126.376H500.307C500.427 126.376 500.523 126.336 500.595 126.256C500.667 126.168 500.703 126.076 500.703 125.98C500.703 125.82 500.691 125.688 500.667 125.584C500.643 125.48 500.587 125.364 500.499 125.236C500.411 125.1 500.259 125 500.043 124.936C499.827 124.864 499.551 124.828 499.215 124.828C498.727 124.828 498.363 124.928 498.123 125.128C497.891 125.328 497.775 125.592 497.775 125.92C497.775 125.96 497.755 125.98 497.715 125.98H496.695C496.655 125.98 496.635 125.96 496.635 125.92C496.635 125.248 496.883 124.728 497.379 124.36C497.875 123.992 498.487 123.808 499.215 123.808C500.055 123.808 500.703 123.992 501.159 124.36C501.615 124.72 501.843 125.26 501.843 125.98V128.584C501.843 128.68 501.879 128.772 501.951 128.86C502.023 128.94 502.119 128.98 502.239 128.98H502.467C502.507 128.98 502.527 129 502.527 129.04ZM500.703 127.504V127.336C500.703 127.296 500.683 127.276 500.643 127.276H499.023C498.527 127.276 498.163 127.368 497.931 127.552C497.699 127.736 497.583 127.952 497.583 128.2C497.583 128.432 497.691 128.64 497.907 128.824C498.123 129.008 498.415 129.1 498.783 129.1C499.447 129.1 499.931 128.944 500.235 128.632C500.547 128.312 500.703 127.936 500.703 127.504ZM504.778 121.612V129.94C504.778 129.98 504.758 130 504.718 130H503.698C503.658 130 503.638 129.98 503.638 129.94V121.612C503.638 121.572 503.658 121.552 503.698 121.552H504.718C504.758 121.552 504.778 121.572 504.778 121.612Z" fill="#11C182"/>
<g filter="url(#filter1_d_3706_37109)">
<path d="M277.513 193.853C277.327 193.613 277.093 193.127 276.687 192.52C276.453 192.187 275.88 191.553 275.707 191.227C275.582 191.028 275.545 190.786 275.607 190.56C275.711 190.129 276.12 189.844 276.56 189.893C276.901 189.962 277.213 190.129 277.46 190.373C277.632 190.535 277.79 190.712 277.933 190.9C278.04 191.033 278.067 191.087 278.187 191.24C278.307 191.393 278.387 191.547 278.327 191.32C278.28 190.987 278.2 190.427 278.087 189.927C278 189.547 277.98 189.487 277.9 189.2C277.82 188.913 277.773 188.673 277.687 188.347C277.607 188.026 277.545 187.701 277.5 187.373C277.416 186.954 277.477 186.519 277.673 186.14C277.906 185.921 278.248 185.863 278.54 185.993C278.834 186.21 279.053 186.513 279.167 186.86C279.341 187.287 279.458 187.735 279.513 188.193C279.62 188.86 279.827 189.833 279.833 190.033C279.833 189.787 279.787 189.267 279.833 189.033C279.88 188.79 280.049 188.588 280.28 188.5C280.479 188.439 280.689 188.425 280.893 188.46C281.1 188.503 281.283 188.622 281.407 188.793C281.561 189.182 281.647 189.595 281.66 190.013C281.678 189.647 281.741 189.284 281.847 188.933C281.958 188.776 282.121 188.663 282.307 188.613C282.527 188.573 282.753 188.573 282.973 188.613C283.154 188.674 283.312 188.788 283.427 188.94C283.568 189.294 283.653 189.667 283.68 190.047C283.68 190.14 283.727 189.787 283.873 189.553C283.95 189.327 284.141 189.159 284.375 189.111C284.609 189.064 284.85 189.146 285.008 189.325C285.166 189.504 285.216 189.754 285.14 189.98C285.14 190.413 285.14 190.393 285.14 190.687C285.14 190.98 285.14 191.24 285.14 191.487C285.116 191.877 285.062 192.265 284.98 192.647C284.864 192.985 284.703 193.305 284.5 193.6C284.176 193.96 283.909 194.367 283.707 194.807C283.657 195.025 283.634 195.249 283.64 195.473C283.639 195.68 283.666 195.887 283.72 196.087C283.447 196.115 283.173 196.115 282.9 196.087C282.64 196.047 282.32 195.527 282.233 195.367C282.19 195.281 282.103 195.226 282.007 195.226C281.911 195.226 281.823 195.281 281.78 195.367C281.633 195.62 281.307 196.08 281.08 196.107C280.633 196.16 279.713 196.107 278.987 196.107C278.987 196.107 279.107 195.44 278.833 195.2C278.56 194.96 278.28 194.68 278.073 194.493L277.513 193.853Z" fill="white"/>
<path fill-rule="evenodd" clip-rule="evenodd" d="M277.513 193.853C277.327 193.613 277.093 193.127 276.687 192.52C276.453 192.187 275.88 191.553 275.707 191.227C275.582 191.028 275.545 190.786 275.607 190.56C275.711 190.129 276.12 189.844 276.56 189.893C276.901 189.962 277.213 190.129 277.46 190.373C277.632 190.535 277.79 190.712 277.933 190.9C278.04 191.033 278.067 191.087 278.187 191.24C278.307 191.393 278.387 191.547 278.327 191.32C278.28 190.987 278.2 190.427 278.087 189.927C278 189.547 277.98 189.487 277.9 189.2C277.82 188.913 277.773 188.673 277.687 188.347C277.607 188.026 277.545 187.701 277.5 187.373C277.416 186.954 277.477 186.519 277.673 186.14C277.906 185.921 278.248 185.863 278.54 185.993C278.834 186.21 279.053 186.513 279.167 186.86C279.341 187.287 279.458 187.735 279.513 188.193C279.62 188.86 279.827 189.833 279.833 190.033C279.833 189.787 279.787 189.267 279.833 189.033C279.88 188.79 280.049 188.588 280.28 188.5C280.479 188.439 280.689 188.425 280.893 188.46C281.1 188.503 281.283 188.622 281.407 188.793C281.561 189.182 281.647 189.595 281.66 190.013C281.678 189.647 281.741 189.284 281.847 188.933C281.958 188.776 282.121 188.663 282.307 188.613C282.527 188.573 282.753 188.573 282.973 188.613C283.154 188.674 283.312 188.788 283.427 188.94C283.568 189.294 283.653 189.667 283.68 190.047C283.68 190.14 283.727 189.787 283.873 189.553C283.95 189.327 284.141 189.159 284.375 189.111C284.609 189.064 284.85 189.146 285.008 189.325C285.166 189.504 285.216 189.754 285.14 189.98C285.14 190.413 285.14 190.393 285.14 190.687C285.14 190.98 285.14 191.24 285.14 191.487C285.116 191.877 285.062 192.265 284.98 192.647C284.864 192.985 284.703 193.305 284.5 193.6C284.176 193.96 283.909 194.367 283.707 194.807C283.657 195.025 283.634 195.249 283.64 195.473C283.639 195.68 283.666 195.887 283.72 196.087C283.447 196.115 283.173 196.115 282.9 196.087C282.64 196.047 282.32 195.527 282.233 195.367C282.19 195.281 282.103 195.226 282.007 195.226C281.911 195.226 281.823 195.281 281.78 195.367C281.633 195.62 281.307 196.08 281.08 196.107C280.633 196.16 279.713 196.107 278.987 196.107C278.987 196.107 279.107 195.44 278.833 195.2C278.56 194.96 278.28 194.68 278.073 194.493L277.513 193.853Z" stroke="black" stroke-width="0.5" stroke-linecap="round" stroke-linejoin="round"/>
<path d="M283.167 194.217V191.916C283.167 191.778 283.055 191.667 282.917 191.667C282.779 191.667 282.667 191.778 282.667 191.916V194.217C282.667 194.355 282.779 194.467 282.917 194.467C283.055 194.467 283.167 194.355 283.167 194.217Z" fill="black"/>
<path d="M281.847 194.216L281.833 191.914C281.833 191.777 281.72 191.666 281.582 191.667C281.444 191.667 281.333 191.78 281.333 191.917L281.347 194.219C281.347 194.357 281.46 194.467 281.598 194.467C281.736 194.466 281.847 194.354 281.847 194.216Z" fill="black"/>
<path d="M280 191.919L280.013 194.217C280.014 194.356 280.127 194.467 280.265 194.467C280.403 194.466 280.514 194.353 280.513 194.214L280.5 191.916C280.499 191.778 280.387 191.666 280.249 191.667C280.11 191.668 279.999 191.781 280 191.919Z" fill="black"/>
</g>
<rect x="512" y="284" width="24" height="24" rx="8" transform="rotate(180 512 284)" fill="#F4F4F5"/>
<path d="M498.5 269L501.5 272L498.5 275" stroke="#D4D4D8" stroke-width="1.5" stroke-linecap="round" stroke-linejoin="round"/>
<rect x="24" y="284" width="24" height="24" rx="8" transform="rotate(180 24 284)" fill="#F4F4F5"/>
<path d="M13.5 269L10.5 272L13.5 275" stroke="#18181B" stroke-width="1.5" stroke-linecap="round" stroke-linejoin="round"/>
<path d="M17.08 209.776C17.08 212.68 16.012 214.132 13.876 214.132C11.732 214.132 10.66 212.68 10.66 209.776C10.66 206.88 11.732 205.432 13.876 205.432C16.012 205.432 17.08 206.88 17.08 209.776ZM15.88 209.776C15.88 208.672 15.724 207.844 15.412 207.292C15.1 206.732 14.588 206.452 13.876 206.452C13.164 206.452 12.652 206.732 12.34 207.292C12.028 207.844 11.872 208.672 11.872 209.776C11.872 210.88 12.028 211.712 12.34 212.272C12.652 212.832 13.164 213.112 13.876 213.112C14.588 213.112 15.1 212.832 15.412 212.272C15.724 211.704 15.88 210.872 15.88 209.776ZM19.3581 214H17.9181C17.8781 214 17.8581 213.98 17.8581 213.94V212.476C17.8581 212.436 17.8781 212.416 17.9181 212.416H19.3581C19.3981 212.416 19.4181 212.436 19.4181 212.476V213.94C19.4181 213.98 19.3981 214 19.3581 214ZM25.7719 213.46C25.2599 213.9 24.5639 214.12 23.6839 214.12C22.8039 214.12 22.1039 213.9 21.5839 213.46C21.0719 213.012 20.8159 212.432 20.8159 211.72C20.8159 211.416 20.8679 211.136 20.9719 210.88C21.0759 210.616 21.2039 210.408 21.3559 210.256C21.5159 210.096 21.6639 209.972 21.7999 209.884C21.9439 209.788 22.0759 209.72 22.1959 209.68C22.2359 209.672 22.2559 209.652 22.2559 209.62C22.2559 209.588 22.2359 209.568 22.1959 209.56C21.9719 209.488 21.7159 209.292 21.4279 208.972C21.1479 208.644 21.0079 208.236 21.0079 207.748C21.0079 207.068 21.2559 206.512 21.7519 206.08C22.2479 205.648 22.8919 205.432 23.6839 205.432C24.4759 205.432 25.1199 205.648 25.6159 206.08C26.1119 206.512 26.3599 207.068 26.3599 207.748C26.3599 208.236 26.2159 208.644 25.9279 208.972C25.6479 209.292 25.3959 209.488 25.1719 209.56C25.1319 209.568 25.1119 209.588 25.1119 209.62C25.1119 209.652 25.1319 209.672 25.1719 209.68C25.2919 209.72 25.4199 209.788 25.5559 209.884C25.6999 209.972 25.8479 210.096 25.9999 210.256C26.1599 210.408 26.2919 210.616 26.3959 210.88C26.4999 211.136 26.5519 211.416 26.5519 211.72C26.5519 212.432 26.2919 213.012 25.7719 213.46ZM22.4479 212.704C22.7839 212.968 23.1959 213.1 23.6839 213.1C24.1719 213.1 24.5799 212.968 24.9079 212.704C25.2439 212.44 25.4119 212.112 25.4119 211.72C25.4119 211.256 25.2479 210.88 24.9199 210.592C24.5919 210.304 24.1799 210.16 23.6839 210.16C23.1879 210.16 22.7759 210.304 22.4479 210.592C22.1199 210.88 21.9559 211.256 21.9559 211.72C21.9559 212.112 22.1199 212.44 22.4479 212.704ZM25.2199 207.748C25.2199 207.388 25.0759 207.084 24.7879 206.836C24.5079 206.58 24.1399 206.452 23.6839 206.452C23.2279 206.452 22.8559 206.58 22.5679 206.836C22.2879 207.084 22.1479 207.388 22.1479 207.748C22.1479 208.14 22.2919 208.472 22.5799 208.744C22.8679 209.008 23.2359 209.14 23.6839 209.14C24.1319 209.14 24.4999 209.008 24.7879 208.744C25.0759 208.472 25.2199 208.14 25.2199 207.748ZM27.1984 213.94V213.1C27.1984 213.028 27.2144 212.976 27.2464 212.944L30.5824 209.692C31.2704 209.036 31.6104 208.464 31.6024 207.976C31.5944 207.6 31.4544 207.252 31.1824 206.932C30.9104 206.612 30.5184 206.452 30.0064 206.452C29.5664 206.452 29.2024 206.596 28.9144 206.884C28.6264 207.164 28.4824 207.492 28.4824 207.868C28.4824 207.908 28.4624 207.928 28.4224 207.928H27.4024C27.3624 207.928 27.3424 207.908 27.3424 207.868C27.3424 207.156 27.5904 206.572 28.0864 206.116C28.5904 205.66 29.2304 205.432 30.0064 205.432C30.8464 205.432 31.5104 205.676 31.9984 206.164C32.4944 206.652 32.7424 207.256 32.7424 207.976C32.7424 208.832 32.2984 209.656 31.4104 210.448L28.7704 212.884C28.7544 212.892 28.7504 212.912 28.7584 212.944C28.7664 212.968 28.7864 212.98 28.8184 212.98H32.6824C32.7224 212.98 32.7424 213 32.7424 213.04V213.94C32.7424 213.98 32.7224 214 32.6824 214H27.2584C27.2184 214 27.1984 213.98 27.1984 213.94Z" fill="#71717A"/>
<path d="M12.448 174.392V173.612C12.448 173.572 12.468 173.552 12.508 173.552H13.528C13.568 173.552 13.588 173.572 13.588 173.612V181.94C13.588 181.98 13.568 182 13.528 182H12.508C12.468 182 12.448 181.98 12.448 181.94V176.408C12.448 176.296 12.408 176.208 12.328 176.144C12.256 176.08 12.172 176.048 12.076 176.048H10.24C10.2 176.048 10.18 176.028 10.18 175.988V175.148C10.18 175.108 10.2 175.088 10.24 175.088H11.728C11.928 175.088 12.096 175.024 12.232 174.896C12.376 174.76 12.448 174.592 12.448 174.392ZM16.9558 182H15.5158C15.4758 182 15.4558 181.98 15.4558 181.94V180.476C15.4558 180.436 15.4758 180.416 15.5158 180.416H16.9558C16.9958 180.416 17.0158 180.436 17.0158 180.476V181.94C17.0158 181.98 16.9958 182 16.9558 182ZM24.6386 177.776C24.6386 180.68 23.5706 182.132 21.4346 182.132C19.2906 182.132 18.2186 180.68 18.2186 177.776C18.2186 174.88 19.2906 173.432 21.4346 173.432C23.5706 173.432 24.6386 174.88 24.6386 177.776ZM23.4386 177.776C23.4386 176.672 23.2826 175.844 22.9706 175.292C22.6586 174.732 22.1466 174.452 21.4346 174.452C20.7226 174.452 20.2106 174.732 19.8986 175.292C19.5866 175.844 19.4306 176.672 19.4306 177.776C19.4306 178.88 19.5866 179.712 19.8986 180.272C20.2106 180.832 20.7226 181.112 21.4346 181.112C22.1466 181.112 22.6586 180.832 22.9706 180.272C23.2826 179.704 23.4386 178.872 23.4386 177.776Z" fill="#71717A"/>
<path d="M10.448 122.392V121.612C10.448 121.572 10.468 121.552 10.508 121.552H11.528C11.568 121.552 11.588 121.572 11.588 121.612V129.94C11.588 129.98 11.568 130 11.528 130H10.508C10.468 130 10.448 129.98 10.448 129.94V124.408C10.448 124.296 10.408 124.208 10.328 124.144C10.256 124.08 10.172 124.048 10.076 124.048H8.24C8.2 124.048 8.18 124.028 8.18 123.988V123.148C8.18 123.108 8.2 123.088 8.24 123.088H9.728C9.928 123.088 10.096 123.024 10.232 122.896C10.376 122.76 10.448 122.592 10.448 122.392ZM14.9558 130H13.5158C13.4758 130 13.4558 129.98 13.4558 129.94V128.476C13.4558 128.436 13.4758 128.416 13.5158 128.416H14.9558C14.9958 128.416 15.0158 128.436 15.0158 128.476V129.94C15.0158 129.98 14.9958 130 14.9558 130ZM19.873 121.612L18.481 124.228C18.465 124.252 18.469 124.276 18.493 124.3C18.517 124.324 18.541 124.328 18.565 124.312C18.701 124.224 18.937 124.18 19.273 124.18C20.097 124.18 20.777 124.452 21.313 124.996C21.849 125.54 22.117 126.252 22.117 127.132C22.117 128.02 21.849 128.744 21.313 129.304C20.777 129.856 20.049 130.132 19.129 130.132C18.209 130.132 17.481 129.856 16.945 129.304C16.417 128.744 16.153 128.02 16.153 127.132C16.153 126.524 16.305 125.944 16.609 125.392L18.673 121.612C18.689 121.572 18.717 121.552 18.757 121.552H19.813C19.869 121.552 19.889 121.572 19.873 121.612ZM20.461 128.584C20.765 128.232 20.917 127.748 20.917 127.132C20.917 126.516 20.765 126.032 20.461 125.68C20.165 125.328 19.721 125.152 19.129 125.152C18.545 125.152 18.101 125.328 17.797 125.68C17.501 126.032 17.353 126.516 17.353 127.132C17.353 127.748 17.501 128.232 17.797 128.584C18.101 128.936 18.545 129.112 19.129 129.112C19.721 129.112 20.165 128.936 20.461 128.584Z" fill="#71717A"/>
<path d="M10.448 84.392V83.612C10.448 83.572 10.468 83.552 10.508 83.552H11.528C11.568 83.552 11.588 83.572 11.588 83.612V91.94C11.588 91.98 11.568 92 11.528 92H10.508C10.468 92 10.448 91.98 10.448 91.94V86.408C10.448 86.296 10.408 86.208 10.328 86.144C10.256 86.08 10.172 86.048 10.076 86.048H8.24C8.2 86.048 8.18 86.028 8.18 85.988V85.148C8.18 85.108 8.2 85.088 8.24 85.088H9.728C9.928 85.088 10.096 85.024 10.232 84.896C10.376 84.76 10.448 84.592 10.448 84.392ZM14.9558 92H13.5158C13.4758 92 13.4558 91.98 13.4558 91.94V90.476C13.4558 90.436 13.4758 90.416 13.5158 90.416H14.9558C14.9958 90.416 15.0158 90.436 15.0158 90.476V91.94C15.0158 91.98 14.9958 92 14.9558 92ZM21.121 83.612V84.416C21.121 84.496 21.109 84.568 21.085 84.632L18.349 91.94C18.333 91.98 18.309 92 18.277 92H17.173C17.125 92 17.109 91.98 17.125 91.94L19.957 84.632C19.973 84.592 19.957 84.572 19.909 84.572H15.721C15.681 84.572 15.661 84.552 15.661 84.512V83.612C15.661 83.572 15.681 83.552 15.721 83.552H21.061C21.101 83.552 21.121 83.572 21.121 83.612ZM27.1444 83.612V84.416C27.1444 84.496 27.1324 84.568 27.1084 84.632L24.3724 91.94C24.3564 91.98 24.3324 92 24.3004 92H23.1964C23.1484 92 23.1324 91.98 23.1484 91.94L25.9804 84.632C25.9964 84.592 25.9804 84.572 25.9324 84.572H21.7444C21.7044 84.572 21.6844 84.552 21.6844 84.512V83.612C21.6844 83.572 21.7044 83.552 21.7444 83.552H27.0844C27.1244 83.552 27.1444 83.572 27.1444 83.612Z" fill="#71717A"/>
<defs>
<filter id="filter0_d_3706_37109" x="265" y="175" width="20" height="20" filterUnits="userSpaceOnUse" color-interpolation-filters="sRGB">
<feFlood flood-opacity="0" result="BackgroundImageFix"/>
<feColorMatrix in="SourceAlpha" type="matrix" values="0 0 0 0 0 0 0 0 0 0 0 0 0 0 0 0 0 0 127 0" result="hardAlpha"/>
<feMorphology radius="4" operator="dilate" in="SourceAlpha" result="effect1_dropShadow_3706_37109"/>
<feOffset/>
<feComposite in2="hardAlpha" operator="out"/>
<feColorMatrix type="matrix" values="0 0 0 0 0.843137 0 0 0 0 0.858824 0 0 0 0 0.054902 0 0 0 0.2 0"/>
<feBlend mode="normal" in2="BackgroundImageFix" result="effect1_dropShadow_3706_37109"/>
<feBlend mode="normal" in="SourceGraphic" in2="effect1_dropShadow_3706_37109" result="shape"/>
</filter>
<filter id="filter1_d_3706_37109" x="274.794" y="185.674" width="11.1641" height="11.9059" filterUnits="userSpaceOnUse" color-interpolation-filters="sRGB">
<feFlood flood-opacity="0" result="BackgroundImageFix"/>
<feColorMatrix in="SourceAlpha" type="matrix" values="0 0 0 0 0 0 0 0 0 0 0 0 0 0 0 0 0 0 127 0" result="hardAlpha"/>
<feOffset dy="0.666667"/>
<feGaussianBlur stdDeviation="0.266667"/>
<feColorMatrix type="matrix" values="0 0 0 0 0 0 0 0 0 0 0 0 0 0 0 0 0 0 0.5 0"/>
<feBlend mode="normal" in2="BackgroundImageFix" result="effect1_dropShadow_3706_37109"/>
<feBlend mode="normal" in="SourceGraphic" in2="effect1_dropShadow_3706_37109" result="shape"/>
</filter>
</defs>
</svg>
