<svg width="128" height="128" viewBox="0 0 128 128" fill="none" xmlns="http://www.w3.org/2000/svg">
<g clip-path="url(#clip0_1816_393)">
<rect width="128" height="128" rx="32" fill="white"/>
<g clip-path="url(#clip1_1816_393)">
<path d="M4.14532 0.0425611C2.06862 0.954281 -0.0587237 3.53749 -0.413281 5.56353C-0.565234 6.47525 -0.615885 33.4216 -0.565234 65.5344C-0.413281 123.53 -0.413281 123.884 0.650391 125.252C1.20755 126.012 2.32188 127.126 3.08164 127.683C4.44922 128.747 4.65183 128.747 64.1668 128.747C123.682 128.747 123.884 128.747 125.252 127.683C126.012 127.126 127.126 126.012 127.683 125.252C128.747 123.884 128.747 123.682 128.747 64.1668C128.747 4.65181 128.747 4.4492 127.683 3.08163C127.126 2.32186 126.012 1.20754 125.252 0.650374C123.884 -0.413299 123.581 -0.413299 64.7746 -0.514601C16.4029 -0.615903 5.36094 -0.514601 4.14532 0.0425611ZM33.0164 31.9527C37.1192 33.6749 37.9296 38.6893 34.5866 41.7284C33.1177 43.096 32.358 43.3999 30.4839 43.3999C26.2798 43.3999 23.646 41.0193 23.646 37.2205C23.646 35.1944 24.7096 33.5229 26.8876 32.206C28.7617 31.041 30.6358 30.9904 33.0164 31.9527ZM105.701 64.1668V93.5444H99.6226H93.5445V64.1668V34.7892H99.6226H105.701V64.1668ZM77.0322 50.491C80.2232 52.1119 82.5532 54.999 83.8701 58.9498C84.8831 61.8875 84.9338 63.2045 84.9338 77.8426V93.5444H78.8556H72.7775V79.4635C72.7775 66.6994 72.6762 65.2305 71.7645 63.3058C70.5489 60.5199 68.2189 59.1017 64.9772 59.1017C61.6343 59.1017 58.8991 60.7226 57.5822 63.4071C56.6198 65.3318 56.5692 66.5474 56.5692 79.5141V93.5444H50.491H44.4129V71.5112V49.478H50.2378H56.012L56.164 53.3781C56.2653 56.3159 56.4679 57.0757 56.7718 56.3159C58.1394 53.3781 60.7732 51.0988 64.4201 49.63C65.2812 49.2754 67.7631 49.0728 70.245 49.1235C73.6892 49.2248 75.0568 49.478 77.0322 50.491ZM36.3087 71.5112V93.5444H30.2306H24.1525V71.5112V49.478H30.2306H36.3087V71.5112Z" fill="black"/>
</g>
</g>
<defs>
<clipPath id="clip0_1816_393">
<rect width="128" height="128" rx="32" fill="white"/>
</clipPath>
<clipPath id="clip1_1816_393">
<rect width="129.667" height="129.667" fill="white" transform="translate(-0.666748 -0.666626)"/>
</clipPath>
</defs>
</svg>
