<svg width="107" height="107" viewBox="0 0 107 107" fill="none" xmlns="http://www.w3.org/2000/svg">
<path d="M2.6967 93.2063C-0.232233 96.1353 -0.232233 100.884 2.6967 103.813C5.62563 106.742 10.3744 106.742 13.3033 103.813L2.6967 93.2063ZM106.01 7.99998C106.01 3.85784 102.652 0.499973 98.5097 0.499979L31.0097 0.499977C26.8675 0.499977 23.5097 3.85784 23.5097 7.99998C23.5097 12.1421 26.8675 15.5 31.0097 15.5H91.0097V75.5C91.0097 79.6421 94.3675 83 98.5097 83C102.652 83 106.01 79.6421 106.01 75.5L106.01 7.99998ZM13.3033 103.813L103.813 13.3033L93.2064 2.69668L2.6967 93.2063L13.3033 103.813Z" fill="#FB3D3D"/>
</svg>
