<svg width="500" height="500" viewBox="0 0 500 500" fill="none" xmlns="http://www.w3.org/2000/svg">
<g filter="url(#filter0_d_662_25)">
<path fill-rule="evenodd" clip-rule="evenodd" d="M250.5 444C340.799 444 414 357.143 414 250C414 142.857 340.799 56 250.5 56C160.201 56 87 142.857 87 250C87 257.439 87.3529 264.78 88.0398 272.001L149 250L204.5 291L269.5 223H359.5L302 244L285 331H192L137.909 390.672C167.228 423.721 206.868 444 250.5 444Z" fill="#A13DF0"/>
</g>
<path fill-rule="evenodd" clip-rule="evenodd" d="M250.5 428C329.507 428 398 350.98 398 250C398 242.354 397.607 234.845 396.847 227.497C396.218 227.514 395.579 227.482 394.935 227.397C394.987 227.404 395.014 227.408 395.014 227.41C395.014 227.412 394.986 227.413 394.927 227.415C394.555 227.428 392.962 227.485 389.649 228.186C385.587 229.047 379.576 230.737 371.149 233.863C355.355 239.723 331.578 250.437 297.01 269.538L302 244L359.5 223H335.211C346.059 217.975 355.178 214.19 362.801 211.362C372.007 207.947 379.175 205.872 384.676 204.707C387.671 204.073 390.449 203.646 392.955 203.488C375.763 126.298 316.837 72 250.5 72C171.493 72 103 149.019 103 250C103 253.701 103.092 257.369 103.273 261.003C104.034 261.219 104.784 261.514 105.513 261.892C106.894 262.606 108.403 263.333 110.034 264.063L88.0093 272.012C88.0124 271.941 88.0162 271.869 88.0206 271.798C87.3463 264.643 87 257.369 87 250C87 142.857 160.201 56 250.5 56C340.799 56 414 142.857 414 250C414 357.143 340.799 444 250.5 444C206.868 444 167.228 423.721 137.909 390.672L148.729 378.736C175.575 409.496 211.774 428 250.5 428ZM186.698 277.849L204.5 291L220.752 273.998C208.969 276.386 197.543 277.567 186.698 277.849ZM230.476 115.96C237.082 115.421 241.999 109.629 241.46 103.024C240.921 96.4182 235.129 91.5006 228.524 92.0398C212.181 93.3739 193 110.318 193 148C193 160.89 187.51 170.206 180.294 176.97C172.82 183.975 163.728 187.949 158.089 189.358C151.66 190.966 147.751 197.481 149.358 203.91C150.966 210.34 157.481 214.249 163.91 212.642C172.939 210.385 185.847 204.659 196.706 194.48C207.824 184.06 217 168.711 217 148C217 133.122 220.602 125.043 223.742 120.911C226.978 116.652 230.097 115.991 230.476 115.96ZM321.394 316.007C327.465 318.665 330.233 325.741 327.575 331.812C318.279 353.05 304.731 374.24 285.485 393.485C280.799 398.172 273.201 398.172 268.515 393.485C263.828 388.799 263.828 381.201 268.515 376.515C285.472 359.558 297.39 340.92 305.589 322.188C308.247 316.117 315.323 313.349 321.394 316.007Z" fill="white"/>
<defs>
<filter id="filter0_d_662_25" x="63" y="36" width="375" height="436" filterUnits="userSpaceOnUse" color-interpolation-filters="sRGB">
<feFlood flood-opacity="0" result="BackgroundImageFix"/>
<feColorMatrix in="SourceAlpha" type="matrix" values="0 0 0 0 0 0 0 0 0 0 0 0 0 0 0 0 0 0 127 0" result="hardAlpha"/>
<feOffset dy="4"/>
<feGaussianBlur stdDeviation="12"/>
<feComposite in2="hardAlpha" operator="out"/>
<feColorMatrix type="matrix" values="0 0 0 0 0 0 0 0 0 0 0 0 0 0 0 0 0 0 0.1 0"/>
<feBlend mode="normal" in2="BackgroundImageFix" result="effect1_dropShadow_662_25"/>
<feBlend mode="normal" in="SourceGraphic" in2="effect1_dropShadow_662_25" result="shape"/>
</filter>
</defs>
</svg>
