<svg width="500" height="500" viewBox="0 0 500 500" fill="none" xmlns="http://www.w3.org/2000/svg">
<g filter="url(#filter0_d_662_45)">
<path fill-rule="evenodd" clip-rule="evenodd" d="M414 250C414 357.143 340.799 444 250.5 444C206.868 444 167.228 423.721 137.909 390.672L189.451 333.812L346 340L360.5 243.5L410.479 209.764C412.786 222.745 414 236.204 414 250ZM404.407 184.369C381.734 109.524 321.385 56 250.5 56C160.201 56 87 142.857 87 250C87 257.439 87.3529 264.78 88.0398 272.001L149 250L204.5 291L269.5 223H283.115L338.5 175L404.407 184.369Z" fill="#A13DF0"/>
</g>
<path fill-rule="evenodd" clip-rule="evenodd" d="M398 250C398 350.98 329.507 428 250.5 428C211.774 428 175.575 409.496 148.729 378.736L137.909 390.672C167.228 423.721 206.868 444 250.5 444C340.799 444 414 357.143 414 250C414 236.204 412.786 222.745 410.479 209.764L378.68 231.228C383.311 229.717 386.92 228.764 389.649 228.186C392.962 227.485 394.555 227.428 394.927 227.415C394.986 227.413 395.014 227.412 395.014 227.41C395.014 227.408 394.987 227.404 394.935 227.397C395.579 227.482 396.218 227.514 396.847 227.497C397.607 234.845 398 242.354 398 250ZM324.195 339.138C315.086 357.9 302.517 376.454 285.485 393.485C280.799 398.172 273.201 398.172 268.515 393.485C263.828 388.799 263.828 381.201 268.515 376.515C280.656 364.374 290.213 351.371 297.672 338.09L324.195 339.138ZM386.866 181.876L404.407 184.369C381.734 109.524 321.385 56 250.5 56C160.201 56 87 142.857 87 250C87 257.369 87.3463 264.643 88.0206 271.798C88.0162 271.869 88.0124 271.941 88.0093 272.012L110.034 264.063C108.403 263.333 106.894 262.606 105.513 261.892C104.784 261.514 104.034 261.219 103.273 261.003C103.092 257.369 103 253.701 103 250C103 149.019 171.493 72 250.5 72C310.456 72 364.357 116.354 386.866 181.876ZM204.5 291L186.698 277.849C197.543 277.567 208.969 276.386 220.752 273.998L204.5 291ZM241.46 103.024C241.999 109.629 237.082 115.421 230.476 115.96C230.097 115.991 226.978 116.652 223.742 120.911C220.602 125.043 217 133.122 217 148C217 168.711 207.824 184.06 196.706 194.48C185.847 204.659 172.939 210.385 163.91 212.642C157.481 214.249 150.966 210.34 149.358 203.91C147.751 197.481 151.66 190.966 158.089 189.358C163.728 187.949 172.82 183.975 180.294 176.97C187.51 170.206 193 160.89 193 148C193 110.318 212.181 93.3739 228.524 92.0398C235.129 91.5006 240.921 96.4182 241.46 103.024Z" fill="white"/>
<defs>
<filter id="filter0_d_662_45" x="63" y="36" width="375" height="436" filterUnits="userSpaceOnUse" color-interpolation-filters="sRGB">
<feFlood flood-opacity="0" result="BackgroundImageFix"/>
<feColorMatrix in="SourceAlpha" type="matrix" values="0 0 0 0 0 0 0 0 0 0 0 0 0 0 0 0 0 0 127 0" result="hardAlpha"/>
<feOffset dy="4"/>
<feGaussianBlur stdDeviation="12"/>
<feComposite in2="hardAlpha" operator="out"/>
<feColorMatrix type="matrix" values="0 0 0 0 0 0 0 0 0 0 0 0 0 0 0 0 0 0 0.1 0"/>
<feBlend mode="normal" in2="BackgroundImageFix" result="effect1_dropShadow_662_45"/>
<feBlend mode="normal" in="SourceGraphic" in2="effect1_dropShadow_662_45" result="shape"/>
</filter>
</defs>
</svg>
