<svg width="500" height="500" viewBox="0 0 500 500" fill="none" xmlns="http://www.w3.org/2000/svg">
<g filter="url(#filter0_d_661_2)">
<ellipse cx="250.5" cy="250" rx="163.5" ry="194" fill="#A13DF0"/>
<path d="M406 250C406 354.062 335.153 436 250.5 436C165.847 436 95 354.062 95 250C95 145.938 165.847 64 250.5 64C335.153 64 406 145.938 406 250Z" stroke="white" stroke-width="16"/>
</g>
<path d="M161 201C175.667 197.333 205 181.6 205 148C205 114.4 221.333 104.667 229.5 104" stroke="white" stroke-width="24" stroke-linecap="round"/>
<path d="M277 385C295.101 366.899 307.834 346.985 316.582 327" stroke="white" stroke-width="24" stroke-linecap="round"/>
<path d="M100 272.55C129 287.55 206.4 306.65 284 263.05C361.6 219.45 390.167 214.667 396.5 215.5" stroke="white" stroke-width="24" stroke-linecap="round"/>
<defs>
<filter id="filter0_d_661_2" x="63" y="36" width="375" height="436" filterUnits="userSpaceOnUse" color-interpolation-filters="sRGB">
<feFlood flood-opacity="0" result="BackgroundImageFix"/>
<feColorMatrix in="SourceAlpha" type="matrix" values="0 0 0 0 0 0 0 0 0 0 0 0 0 0 0 0 0 0 127 0" result="hardAlpha"/>
<feOffset dy="4"/>
<feGaussianBlur stdDeviation="12"/>
<feComposite in2="hardAlpha" operator="out"/>
<feColorMatrix type="matrix" values="0 0 0 0 0 0 0 0 0 0 0 0 0 0 0 0 0 0 0.1 0"/>
<feBlend mode="normal" in2="BackgroundImageFix" result="effect1_dropShadow_661_2"/>
<feBlend mode="normal" in="SourceGraphic" in2="effect1_dropShadow_661_2" result="shape"/>
</filter>
</defs>
</svg>
