<?xml version="1.0" encoding="utf-8"?>
<!-- Generator: Adobe Illustrator 26.0.1, SVG Export Plug-In . SVG Version: 6.00 Build 0)  -->
<svg version="1.1" id="Ebene_1" xmlns="http://www.w3.org/2000/svg" xmlns:xlink="http://www.w3.org/1999/xlink" x="0px" y="0px"
	 viewBox="0 0 1000 1000" style="enable-background:new 0 0 1000 1000;" xml:space="preserve">
<style type="text/css">
	.st0{display:none;}
	.st1{display:inline;}
	.st2{fill:#FFFFFF;}
</style>
<g id="bg" class="st0">
	<rect x="0.5" y="0.5" class="st1" width="999" height="1000"/>
</g>
<g id="Ebene_1_00000003805518882902423410000015991109330854915718_">
	<path class="st2" d="M895.7,500.9c0,73.4-59.3,132.6-132.7,132.5c-73.3,0-132.8-59.5-132.7-132.8c0.1-73.1,59.9-132.8,132.9-132.7
		C836.4,368.1,895.7,427.5,895.7,500.9z M762.7,572.5c40.1,0.1,72-31.3,72.1-71.1c0.1-40.2-32-72.7-71.7-72.6
		c-39.6,0.1-71.8,32.3-71.8,71.8C691.2,540.5,722.9,572.4,762.7,572.5z"/>
	<path class="st2" d="M600.6,414.5c-39.8,48.3-43.7,118.9-0.2,172.7C558.8,638.8,473,653,413.1,600.8
		c-59.2-51.6-60.9-141.8-3.9-196.5C463.4,352.5,554.5,357.1,600.6,414.5z M528,435c-29.6-13.8-66.5-3.3-86,23.9
		c-20.1,27.9-17.5,66.4,6,91.2c21,22.1,58.1,29.7,79.8,16C505.1,522.7,505.1,479,528,435z"/>
	<path class="st2" d="M338.6,586.2c-26.7,34.1-82,57.5-138.5,40.5c-53.5-16.2-92.1-66-93.9-121.5c-1.9-58.4,32.3-109.8,86.5-130
		c51.7-19.3,112.6-3.6,146,37.7C297.2,470.5,296.9,528.2,338.6,586.2z M266.5,433.9c-29.1-13.7-66-3.5-85.6,23.2
		c-20.3,27.7-18.2,66.1,5.1,91.3c20.8,22.5,57.9,30.3,80.3,16.6C243.6,521.5,243.5,477.8,266.5,433.9z"/>
</g>
</svg>
