<svg width="801" height="315" viewBox="0 0 801 315" fill="none" xmlns="http://www.w3.org/2000/svg">
<path fill-rule="evenodd" clip-rule="evenodd" d="M84.3619 151.912C89.4119 152.025 93.4134 156.212 93.2995 161.262C93.1041 169.923 94.3272 182.81 98.9619 193.25C103.432 203.32 110.372 209.964 121.985 210.254C137.87 210.65 151.869 203.497 163.741 193.458C175.62 183.413 184.651 171.072 190.385 162.546C193.204 158.355 198.887 157.242 203.079 160.061C207.27 162.88 208.383 168.563 205.564 172.755C199.527 181.731 189.376 195.737 175.552 207.426C161.722 219.12 143.498 229.089 121.528 228.54C100.622 228.019 88.5491 214.877 82.243 200.672C76.1013 186.837 74.7838 170.958 75.0118 160.849C75.1258 155.799 79.3119 151.798 84.3619 151.912Z" fill="#1280EC"/>
<path fill-rule="evenodd" clip-rule="evenodd" d="M196.992 42.0946C204.777 32.3592 216.163 25.0192 228.885 29.3777C232.928 30.7626 236.842 33.0002 240.02 36.6073C243.197 40.2125 245.166 44.6484 246.172 49.6866C248.1 59.3501 246.673 72.2621 242.414 89.2151C234.829 119.405 216.99 154.987 206.419 171.346C203.677 175.589 198.016 176.805 193.773 174.064C189.531 171.323 188.314 165.661 191.055 161.418C200.809 146.323 217.684 112.577 224.673 84.7581C228.797 68.34 229.328 58.75 228.233 53.2662C227.727 50.7308 226.94 49.4317 226.296 48.7012C225.654 47.9726 224.683 47.274 222.957 46.6827C221.198 46.08 217.214 46.0962 211.279 53.5183C205.566 60.6632 199.972 72.7132 196.218 89.0366C192.651 104.543 189.075 122.214 187.49 139.132C185.887 156.245 186.43 171.592 190.356 182.918C192.011 187.69 189.484 192.901 184.711 194.555C179.938 196.21 174.728 193.683 173.073 188.91C167.854 173.855 167.597 155.368 169.278 137.426C170.976 119.291 174.768 100.688 178.391 84.9366C182.512 67.0158 188.986 52.1071 196.992 42.0946Z" fill="#1280EC"/>
<path fill-rule="evenodd" clip-rule="evenodd" d="M279.052 152.611C283.856 154.172 286.485 159.332 284.923 164.136C278.466 184.003 269.948 200.245 258.757 211.47C247.306 222.957 233.246 228.959 216.904 228.282C202.744 227.695 191.218 218.565 183.444 208.099C175.574 197.506 170.338 184.028 169.298 171.568C168.877 166.534 172.618 162.112 177.651 161.692C182.685 161.272 187.106 165.012 187.526 170.046C188.265 178.893 192.159 189.157 198.127 197.191C204.191 205.354 211.212 209.738 217.662 210.005C228.504 210.455 237.692 206.691 245.803 198.555C254.175 190.157 261.535 176.918 267.527 158.482C269.088 153.678 274.248 151.05 279.052 152.611Z" fill="#1280EC"/>
<path fill-rule="evenodd" clip-rule="evenodd" d="M305.695 126.558C305.695 121.506 309.79 117.412 314.841 117.412C333.576 117.412 345.41 126.629 351.797 138.397C357.742 149.347 358.799 162.03 358.021 170.724C357.77 179.752 355.212 193.074 348.057 204.673C340.574 216.805 327.901 227.158 308.388 228.027C298.831 228.453 290.52 226.394 283.723 221.98C276.953 217.584 272.353 211.288 269.446 204.343C263.755 190.75 264.148 173.863 267.573 159.225C268.724 154.307 273.645 151.253 278.563 152.404C283.481 153.555 286.535 158.475 285.384 163.393C282.458 175.897 282.648 188.511 286.319 197.278C288.092 201.513 290.564 204.612 293.685 206.638C296.778 208.647 301.177 210.038 307.575 209.753C319.972 209.201 327.581 203.025 332.488 195.07C337.632 186.73 339.598 176.6 339.741 169.989L339.748 169.65L339.781 169.311C340.383 163.047 339.51 154.104 335.721 147.124C332.298 140.818 326.39 135.704 314.841 135.704C309.79 135.704 305.695 131.609 305.695 126.558Z" fill="#1280EC"/>
<path fill-rule="evenodd" clip-rule="evenodd" d="M378.993 111.168C382.565 114.739 382.565 120.53 378.993 124.102C371.766 131.329 365.39 136.175 359.189 138.94C352.666 141.85 346.831 142.239 341.282 141.418C337.706 140.889 333.829 139.728 330.525 138.739C329.413 138.406 328.365 138.093 327.416 137.829C323.177 136.652 318.678 135.704 313.064 135.704C305.636 135.704 299.684 139.29 294.912 144.635C290.035 150.097 286.993 156.797 285.78 161.035C284.391 165.892 279.327 168.702 274.471 167.312C269.614 165.922 266.804 160.859 268.194 156.003C270.03 149.587 274.254 140.307 281.267 132.452C288.385 124.479 298.947 117.412 313.064 117.412C320.914 117.412 327.156 118.773 332.31 120.203C334.189 120.725 335.745 121.192 337.107 121.601C339.821 122.415 341.764 122.998 343.958 123.323C346.483 123.696 348.752 123.566 351.738 122.234C355.048 120.758 359.587 117.639 366.059 111.168C369.631 107.596 375.422 107.596 378.993 111.168Z" fill="#1280EC"/>
<path fill-rule="evenodd" clip-rule="evenodd" d="M93.8318 154.214C97.4358 157.818 97.4358 163.661 93.8318 167.265C90.9033 170.193 88.0792 173.034 85.349 175.78C71.5627 189.647 60.1713 201.105 49.819 209.317C37.1173 219.394 24.7472 225.628 9.72879 225.628C4.63201 225.628 0.500244 221.496 0.500244 216.399C0.500244 211.302 4.63201 207.17 9.72879 207.17C18.9353 207.17 27.3295 203.599 38.348 194.858C47.7699 187.383 58.2068 176.891 72.0158 163.009C74.7945 160.215 77.7097 157.285 80.7807 154.214C84.3847 150.61 90.2279 150.61 93.8318 154.214Z" fill="#1280EC"/>
<path fill-rule="evenodd" clip-rule="evenodd" d="M379.389 122.132C378.159 123.414 376.763 125.03 375.204 127.039C372.081 131.067 366.284 131.8 362.256 128.676C358.229 125.553 357.496 119.756 360.619 115.728C366.289 108.418 372.125 102.856 378.194 100.779C381.554 99.6288 385.633 99.3513 389.535 101.303C393.322 103.198 395.45 106.451 396.577 109.313C398.529 114.267 398.443 120.282 397.481 125.861C401.106 124.248 405.012 122.924 409.132 122.128C412.502 121.477 416.374 121 419.876 121.81C421.816 122.258 424.125 123.209 426.076 125.186C428.092 127.228 429.035 129.664 429.363 131.85C429.922 135.572 428.777 139.193 427.994 141.399C427.086 143.956 425.781 146.867 424.481 149.738C424.382 149.956 424.283 150.175 424.183 150.396C418.833 162.211 411.459 178.492 411.459 198.961C411.459 204.236 412.163 207.331 412.864 208.933C413.043 209.344 413.19 209.595 413.292 209.742C413.676 209.74 414.628 209.645 416.345 208.931C418.829 207.898 422.093 205.899 426.068 202.659C442.172 189.53 464.266 160.781 485.241 121.905C487.334 118.025 491.878 116.168 496.089 117.47C500.3 118.772 503.003 122.871 502.54 127.255C501.398 138.082 499.119 151.563 496.913 164.577L496.841 165.002C494.844 176.783 492.916 188.159 491.783 197.449C495.477 191.733 498.772 186.564 501.78 181.842C519.912 153.39 527.674 141.211 550 123.897C565.425 111.934 585.515 106.005 600.947 113.057C609.096 116.781 615.003 123.812 617.479 133.473C619.87 142.806 618.983 154.155 614.94 167.217C613.433 172.086 608.264 174.811 603.395 173.304C598.526 171.797 595.801 166.629 597.308 161.76C600.763 150.597 600.849 142.931 599.599 138.054C598.434 133.505 596.086 131.129 593.276 129.844C586.79 126.88 574.148 128.526 561.311 138.482C541.646 153.732 535.632 163.15 517.624 191.352C514.16 196.777 510.253 202.896 505.719 209.885C501.723 216.046 498.143 220.795 494.897 223.819C493.328 225.28 491.15 227 488.428 227.895C485.196 228.958 481.06 228.821 477.596 226C474.81 223.73 473.719 220.683 473.231 218.875C472.684 216.848 472.458 214.682 472.371 212.667C472.194 208.606 472.527 203.651 473.094 198.403C473.957 190.419 475.469 180.837 477.108 171.019C463.264 191.374 449.587 207.298 437.73 216.964C432.963 220.851 428.147 224.013 423.43 225.974C418.796 227.9 413.328 229.043 407.901 227.445C402.087 225.733 398.19 221.447 395.951 216.326C393.821 211.451 393.002 205.501 393.002 198.961C393.002 174.456 401.793 155.076 407.16 143.243C407.333 142.864 407.501 142.492 407.666 142.128C407.756 141.928 407.845 141.732 407.932 141.54C399.79 144.411 392.565 150.16 387.684 154.472C387.17 154.926 386.58 155.457 386.012 155.967C385.288 156.617 384.601 157.235 384.153 157.621C383.764 157.957 382.994 158.618 382.148 159.159C382.141 159.164 382.132 159.169 382.123 159.175C381.826 159.366 380.564 160.178 378.804 160.549C377.839 160.753 375.727 161.042 373.32 160.056C370.503 158.901 368.817 156.649 368.071 154.533C367.443 152.751 367.515 151.228 367.576 150.546C367.646 149.758 367.801 149.126 367.905 148.751C368.112 148.005 368.374 147.383 368.53 147.03C368.862 146.276 369.29 145.462 369.695 144.719C370.535 143.179 371.817 140.966 373.484 138.093C376.391 133.083 378.236 128.003 379.105 123.724C379.217 123.171 379.312 122.64 379.389 122.132ZM481.796 210.753C481.796 210.753 481.802 210.749 481.813 210.741C481.802 210.749 481.796 210.753 481.796 210.753ZM491.044 214.041C491.085 214.156 491.08 214.176 491.051 214.066C491.049 214.059 491.047 214.05 491.044 214.041ZM413.449 209.921C413.448 209.925 413.425 209.909 413.384 209.861C413.429 209.893 413.45 209.916 413.449 209.921Z" fill="#1280EC"/>
<path d="M519.606 81.5932C519.606 91.4682 511.601 99.4735 501.726 99.4735C491.851 99.4735 483.845 91.4682 483.845 81.5932C483.845 71.7182 491.851 63.7129 501.726 63.7129C511.601 63.7129 519.606 71.7182 519.606 81.5932Z" fill="#1280EC"/>
<path d="M602.064 177.698C603.926 172.161 605.634 166.369 607.277 160.451C605.215 166.246 603.476 172.055 602.064 177.698Z" fill="#1280EC"/>
<path fill-rule="evenodd" clip-rule="evenodd" d="M759.412 121.428C759.411 121.43 759.382 121.44 759.325 121.452C759.385 121.432 759.413 121.426 759.412 121.428ZM752.528 126.182C751.685 126.951 750.788 127.82 749.84 128.795C746.01 132.731 741.838 137.867 737.42 143.9C728.573 155.981 719.29 170.888 710.333 185.382C709.844 186.174 709.355 186.965 708.867 187.755C700.563 201.198 692.493 214.264 685.698 223.412C682.18 228.147 678.474 232.576 674.814 235.411C673.023 236.799 670.425 238.462 667.219 239.018C663.387 239.682 659.408 238.611 656.411 235.614C651.393 230.595 649.838 223.349 649.372 217.148C648.879 210.578 649.471 203.028 650.567 195.377C651.854 186.396 653.928 176.677 656.181 167.31C651.539 175.348 649.586 179.027 647.163 183.591C644.427 188.745 641.092 195.028 632.609 209.991C626.114 221.448 619.947 229.687 613.854 233.725C610.664 235.839 606.144 237.675 601.103 236.358C596.024 235.031 593.1 231.209 591.542 228.047C590.414 225.757 589.635 223.102 589.124 220.229C586.518 222.849 583.668 225.196 580.536 227.205C568.631 234.84 554.525 237.839 542.854 230.319C531.556 223.04 526.527 208.336 526.527 190.156C526.527 185.059 530.659 180.927 535.756 180.927C540.853 180.927 544.984 185.059 544.984 190.156C544.984 206.005 549.451 212.614 552.85 214.804C555.875 216.753 561.669 217.378 570.572 211.668C580.243 205.466 587.181 192.903 593.203 175.095C594.668 169.286 596.462 163.316 598.583 157.357L616.169 162.921C614.537 168.798 612.818 174.641 610.931 180.284C608.541 189.921 607.198 198.876 606.855 206.141C606.677 209.906 606.786 212.881 607.03 215.124C609.391 212.386 612.582 207.893 616.553 200.889C624.523 186.831 627.863 180.557 630.668 175.287C635.007 167.135 638.066 161.388 655.008 132.945C659.91 124.716 663.648 118.962 666.385 115.732C667.098 114.89 667.953 113.966 668.923 113.156C669.649 112.551 671.571 111.02 674.374 110.574C676.013 110.313 678.074 110.411 680.147 111.401C682.19 112.377 683.505 113.865 684.291 115.146C685.656 117.369 685.836 119.614 685.888 120.5C686.012 122.62 685.673 124.977 685.335 126.89C684.961 129.006 684.415 131.465 683.778 134.112C682.739 138.425 681.36 143.624 679.874 149.227C679.541 150.482 679.203 151.758 678.862 153.048C675.075 167.375 670.861 183.873 668.838 197.994C667.824 205.072 667.429 211.119 667.778 215.766C667.792 215.958 667.808 216.145 667.824 216.327C668.742 215.216 669.761 213.914 670.881 212.405C677.185 203.919 684.872 191.477 693.41 177.657C693.816 177.001 694.223 176.341 694.632 175.679C703.52 161.297 713.18 145.761 722.529 132.995C727.209 126.605 731.948 120.716 736.611 115.924C741.158 111.25 746.188 107.031 751.528 104.698C754.141 103.556 757.891 102.432 761.919 103.451C766.638 104.645 769.358 108.107 770.623 111.367C771.75 114.272 771.922 117.371 771.855 119.899C771.783 122.574 771.409 125.48 770.882 128.431C769.21 137.794 765.444 150.403 761.672 163.033C760.819 165.888 759.966 168.743 759.138 171.562C754.442 187.529 750.475 202.425 749.876 212.726C749.634 216.893 750.038 219.127 750.359 220.126C750.423 220.122 750.492 220.116 750.566 220.109C750.818 219.905 751.261 219.518 751.911 218.837C753.623 217.044 755.731 214.372 758.722 210.483C759.075 210.025 759.436 209.554 759.806 209.072C765.541 201.602 773.411 191.351 784.627 179.714C788.164 176.044 794.006 175.936 797.676 179.473C801.346 183.011 801.453 188.853 797.916 192.522C787.436 203.395 780.114 212.931 774.399 220.373C774.044 220.835 773.696 221.289 773.353 221.735C770.503 225.44 767.78 228.944 765.257 231.586C763.002 233.947 759.415 237.29 754.56 238.169C750.993 238.816 747.212 238.816 743.595 237.519C739.825 236.168 736.962 233.665 735.009 230.581C731.47 224.991 731.093 217.793 731.45 211.655C732.194 198.866 736.861 181.895 741.43 166.355C742.343 163.252 743.252 160.202 744.14 157.225C747.741 145.152 750.976 134.306 752.528 126.182ZM663.035 221.151C663.035 221.151 663.046 221.144 663.07 221.132C663.046 221.146 663.034 221.152 663.035 221.151ZM603.305 218.549C603.305 218.548 603.317 218.542 603.339 218.533C603.316 218.544 603.305 218.549 603.305 218.549ZM608.168 220.021C608.171 220.026 608.173 220.029 608.173 220.029C608.173 220.029 608.171 220.026 608.168 220.021Z" fill="#1280EC"/>
<path fill-rule="evenodd" clip-rule="evenodd" d="M83.8456 150.646C88.9424 150.646 93.0742 154.777 93.0742 159.874L93.0742 305.224C93.0742 310.32 88.9424 314.452 83.8456 314.452C78.7488 314.452 74.6171 310.32 74.6171 305.224L74.6171 159.874C74.6171 154.777 78.7488 150.646 83.8456 150.646Z" fill="#1280EC"/>
<path fill-rule="evenodd" clip-rule="evenodd" d="M93.8407 144C121.503 112.5 135.779 84.4101 141.591 62.6603C145.026 49.8054 145.437 39.4381 144.173 31.9673C142.876 24.2993 140.055 20.7489 138.128 19.506C136.789 18.6416 134.512 17.9743 130.413 20.4679C125.987 23.1603 120.223 29.2722 114.502 40.6406C104.599 60.3184 95.9304 93.5716 93.8407 144ZM159.422 67.4255C151.529 96.9621 130.831 134.17 90.6595 174.341L74.9054 190.095L74.9054 167.815C74.9054 102.378 84.8172 58.569 98.0147 32.3437C104.585 19.2876 112.341 9.85697 120.821 4.69899C129.627 -0.657662 139.642 -1.48302 148.135 3.99714C156.042 9.09891 160.596 18.3958 162.371 28.8881C164.18 39.5776 163.362 52.6836 159.422 67.4255Z" fill="#1280EC"/>
</svg>
