<svg width="500" height="500" viewBox="0 0 500 500" fill="none" xmlns="http://www.w3.org/2000/svg">
<path d="M491.154 103.408C463.833 77.2021 428.32 60.0892 391.049 53.7844C353.564 47.4796 314.577 51.7686 279.965 67.8093C246.468 83.3354 218.204 109.455 198.689 140.679C188.91 156.291 181.319 173.361 176.344 191.117C171.325 209.002 168.709 228.045 169.953 246.616C171.24 265.745 176.987 285.603 191.269 299.199C206.409 313.524 226.953 322.145 247.497 324.761C268.299 327.378 290.216 325.362 309.645 317.256C318.265 313.653 326.543 309.107 333.234 302.545C339.196 296.712 344.128 289.635 347.774 282.129C354.636 268.061 358.625 249.747 350.218 235.422C345.886 228.045 338.424 222.469 331.347 217.88C323.112 212.562 314.062 208.23 304.712 205.399C295.491 202.612 285.541 201.84 275.976 201.239C265.34 200.596 254.703 200.682 244.066 201.454C222.836 203.04 201.777 207.287 181.619 214.192C161.933 220.925 142.461 229.975 125.476 242.07C109.092 253.693 95.3677 268.533 84.2593 285.217C59.512 322.317 49.1756 366.536 44.2004 410.283C42.9137 421.606 41.9701 432.929 41.1981 444.295C41.0265 446.611 43.2997 448.584 45.4871 448.584C47.9318 448.584 49.6045 446.611 49.776 444.295C52.7783 400.676 58.1396 355.856 76.8824 315.84C84.9028 298.727 95.1535 282.601 108.02 268.747C121.23 254.551 136.928 243.786 154.169 235.036C190.197 216.722 231.199 207.887 271.559 209.603C280.823 209.989 290.473 210.546 299.48 212.862C308.058 215.092 316.25 218.824 323.841 223.327C330.446 227.273 338.038 232.377 342.155 238.725C345.801 244.3 346.701 250.777 346.23 257.51C345.114 272.264 337.008 287.362 326.2 297.441C320.024 303.231 311.961 307.348 303.983 310.35C294.633 313.867 284.769 316.012 274.861 316.827C255.261 318.457 235.231 315.797 217.518 306.919C208.983 302.673 200.748 297.183 194.357 290.064C188.61 283.63 184.707 275.738 182.22 267.504C177.073 250.391 177.416 231.777 180.118 214.235C182.777 196.993 188.009 180.094 195.558 164.311C210.527 132.916 234.073 105.552 263.41 86.7665C293.604 67.4233 329.117 58.3736 364.887 59.7031C400.528 61.0327 435.74 72.57 464.991 92.9855C472.111 97.9607 478.802 103.493 485.063 109.498C489.095 113.272 495.143 107.225 491.154 103.408Z" fill="#1281ED"/>
<path d="M11.1318 425.166C11.6893 425.338 12.2041 425.552 12.7617 425.767C12.4186 425.638 12.0755 425.466 11.7324 425.338C15.2922 426.882 18.4661 429.198 21.597 431.428C24.8995 433.744 28.1591 436.103 31.4187 438.505C33.263 439.877 35.1072 441.293 36.9514 442.708C36.6512 442.494 36.3939 442.279 36.0936 442.022C38.2381 443.652 40.2968 445.41 42.4842 446.997C45.1433 448.97 48.832 449.27 51.6198 447.34C53.5927 445.968 55.1796 444.08 56.9381 442.408C58.525 440.864 60.1547 439.363 61.8274 437.947C63.7146 436.317 65.6446 434.731 67.5746 433.229C67.2744 433.444 67.0171 433.658 66.7168 433.916C72.0351 429.798 77.6538 426.153 83.5726 422.936C85.2453 422.035 86.9609 421.135 88.7194 420.277C89.6629 419.848 90.4348 418.69 90.6921 417.703C90.9923 416.674 90.8637 415.302 90.2632 414.401C89.6628 413.5 88.805 412.685 87.6898 412.428C86.5318 412.171 85.4597 412.342 84.3875 412.857C73.3219 418.261 63.0713 425.252 53.9787 433.487C52.7349 434.602 51.534 435.76 50.3331 436.918C49.1751 438.076 48.0598 439.363 46.7731 440.392C47.0734 440.178 47.3307 439.963 47.6309 439.706C47.2878 439.963 46.9446 440.178 46.5157 440.392C46.8589 440.263 47.2021 440.092 47.5453 439.963C47.245 440.092 46.9448 440.178 46.6445 440.22C47.0305 440.178 47.4164 440.135 47.8024 440.049C47.5451 440.092 47.2449 440.092 46.9876 440.049C47.3736 440.092 47.7597 440.135 48.1457 440.22C47.8455 440.178 47.5882 440.092 47.3308 440.006C47.6739 440.135 48.017 440.306 48.3601 440.435C47.7597 440.178 47.2449 439.834 46.7302 439.448C47.0304 439.663 47.2878 439.877 47.588 440.135C39.1387 433.573 30.7325 426.968 21.8115 421.092C19.2381 419.376 16.5359 417.918 13.5766 416.931C12.5472 416.588 11.1746 416.846 10.274 417.36C9.37328 417.875 8.51566 418.904 8.30121 419.934C7.61497 422.25 8.85861 424.394 11.1318 425.166Z" fill="#1281ED"/>
</svg>
