<svg width="750" height="750" viewBox="0 0 750 750" fill="none" xmlns="http://www.w3.org/2000/svg">
<g clip-path="url(#clip0_916_278)">
<rect width="750" height="750" fill="#FFFBF5"/>
<path d="M-8 -15L567.5 224L331.5 348.5L474 415L331.5 520.5L397 597.5L487.5 633L496 763.5" stroke="#FFEAD0" stroke-width="48"/>
<path fill-rule="evenodd" clip-rule="evenodd" d="M511.157 226.589L-17.2051 7.16464L1.20449 -37.1647L623.843 221.411L385.432 347.183L520.682 410.3L366.419 524.509L411.375 577.359L510.458 616.225L519.949 761.94L472.05 765.06L464.541 649.775L382.624 617.641L296.581 516.491L427.317 419.7L277.568 349.816L511.157 226.589Z" fill="#F3F3F3" stroke="#CBCBCB"/>
<g filter="url(#filter0_d_916_278)">
<ellipse cx="381" cy="372" rx="49" ry="32" fill="#278EFF"/>
<path d="M426 372C426 379.044 421.625 385.947 413.461 391.278C405.333 396.586 393.868 400 381 400C368.132 400 356.667 396.586 348.539 391.278C340.375 385.947 336 379.044 336 372C336 364.956 340.375 358.053 348.539 352.722C356.667 347.414 368.132 344 381 344C393.868 344 405.333 347.414 413.461 352.722C421.625 358.053 426 364.956 426 372Z" stroke="white" stroke-width="8"/>
</g>
<path d="M593.188 320.455L620.402 312.516V346.43L593.188 356.354V320.455Z" fill="#DFDFDF"/>
<path d="M593.188 320.455L565.975 312.516V346.804L593.188 356.354V320.455Z" fill="#E4E4E4"/>
<path d="M593.188 305.958L620.402 312.516L593.188 320.455L565.975 312.516L593.188 305.958Z" fill="#EBEBEB"/>
<path d="M593.688 355.639V320.83L619.902 313.183V346.08L593.688 355.639ZM566.475 346.449V313.183L592.688 320.83V355.648L566.475 346.449ZM618.459 312.562L593.188 319.935L567.918 312.562L593.188 306.472L618.459 312.562Z" stroke="#D3D3D3"/>
<path d="M583.436 391.407L626.776 374.021V430.044L583.436 449.362V391.407Z" fill="#DFDFDF"/>
<path d="M583.436 391.407L540.096 374.021V430.771L583.436 449.362V391.407Z" fill="#E4E4E4"/>
<path d="M583.436 356.634L626.776 374.021L583.436 391.407L540.096 374.021L583.436 356.634Z" fill="#EBEBEB"/>
<path d="M583.936 448.592V391.745L626.276 374.76V429.719L583.936 448.592ZM540.596 430.442V374.76L582.936 391.745V448.604L540.596 430.442ZM625.433 374.021L583.436 390.869L541.439 374.021L583.436 357.173L625.433 374.021Z" stroke="#D3D3D3"/>
<path d="M507.516 322.527L553.88 310.142V363.047L507.516 378.528V322.527Z" fill="#DFDFDF"/>
<path d="M507.516 322.527L461.152 310.142V363.63L507.516 378.528V322.527Z" fill="#E4E4E4"/>
<path d="M507.516 299.911L553.88 310.142L507.516 322.527L461.152 310.142L507.516 299.911Z" fill="#EBEBEB"/>
<path d="M508.016 377.834V322.911L553.38 310.793V362.686L508.016 377.834ZM461.652 363.265V310.793L507.016 322.911V377.842L461.652 363.265ZM551.77 310.188L507.516 322.009L463.263 310.188L507.516 300.423L551.77 310.188Z" stroke="#D3D3D3"/>
<path d="M679.868 108.407L739.335 89.2569V157.459L679.868 180.977V108.407Z" fill="#DFDFDF"/>
<path d="M679.868 108.407L620.401 89.2569V158.345L679.868 180.977V108.407Z" fill="#E4E4E4"/>
<path d="M679.868 72.1224L739.335 89.2569L679.868 108.407L620.401 89.2569L679.868 72.1224Z" fill="#EBEBEB"/>
<path d="M680.368 180.242V108.772L738.835 89.9432V157.119L680.368 180.242ZM620.901 158V89.9432L679.368 108.772V180.252L620.901 158ZM737.621 89.2835L679.868 107.882L622.115 89.2835L679.868 72.6428L737.621 89.2835Z" stroke="#D3D3D3"/>
<path d="M701.036 192.064L747.4 174.93V216.254L701.036 235.404V192.064Z" fill="#DFDFDF"/>
<path d="M701.036 192.064L654.672 174.93V216.254L701.036 235.404V192.064Z" fill="#E4E4E4"/>
<path d="M701.036 156.787L747.4 174.93L701.036 192.064L654.672 174.93L701.036 156.787Z" fill="#EBEBEB"/>
<path d="M701.536 234.657V192.412L746.9 175.647V215.919L701.536 234.657ZM655.172 215.919V175.647L700.536 192.412V234.657L655.172 215.919ZM745.994 174.916L701.036 191.531L656.078 174.916L701.036 157.324L745.994 174.916Z" stroke="#D3D3D3"/>
<path d="M680.019 240.444L711.114 229.357V260.434L680.019 271.689V240.444Z" fill="#DFDFDF"/>
<path d="M680.019 240.444L610.323 217.262V246.491L680.019 271.689V240.444Z" fill="#E4E4E4"/>
<path d="M644.635 207.183L711.114 229.357L680.019 240.444L610.323 217.262L644.635 207.183Z" fill="#EBEBEB"/>
<path d="M680.519 270.976V240.797L710.614 230.066V260.083L680.519 270.976ZM610.823 246.141V217.955L679.519 240.805V270.977L610.823 246.141ZM709.581 229.373L680.014 239.915L611.996 217.292L644.626 207.707L709.581 229.373Z" stroke="#D3D3D3"/>
<path d="M704.059 276.981L749.415 262.24V309.738L704.059 326.116V276.981Z" fill="#DFDFDF"/>
<path d="M704.059 276.981L658.703 262.24V310.355L704.059 326.116V276.981Z" fill="#E4E4E4"/>
<path d="M704.059 247.499L749.415 262.24L704.059 276.981L658.703 262.24L704.059 247.499Z" fill="#EBEBEB"/>
<path d="M704.559 325.404V277.344L748.915 262.928V309.387L704.559 325.404ZM659.203 309.999V262.928L703.559 277.344V325.413L659.203 309.999ZM747.798 262.24L704.059 276.455L660.321 262.24L704.059 248.025L747.798 262.24Z" stroke="#D3D3D3"/>
<path d="M669.79 334.684L713.131 317.297V373.32L669.79 392.639V334.684Z" fill="#DFDFDF"/>
<path d="M669.79 334.684L626.45 317.297V374.048L669.79 392.639V334.684Z" fill="#E4E4E4"/>
<path d="M669.79 299.911L713.131 317.297L669.79 334.684L626.45 317.297L669.79 299.911Z" fill="#EBEBEB"/>
<path d="M670.29 391.868V335.022L712.631 318.036V372.996L670.29 391.868ZM626.95 373.718V318.036L669.29 335.022V391.88L626.95 373.718ZM711.788 317.297L669.79 334.145L627.793 317.297L669.79 300.449L711.788 317.297Z" stroke="#D3D3D3"/>
<path d="M695.995 409.269L739.336 391.883V447.906L695.995 467.224V409.269Z" fill="#DFDFDF"/>
<path d="M695.995 409.269L652.655 391.883V448.633L695.995 467.224V409.269Z" fill="#E4E4E4"/>
<path d="M695.995 374.496L739.336 391.883L695.995 409.269L652.655 391.883L695.995 374.496Z" fill="#EBEBEB"/>
<path d="M696.495 466.454V409.607L738.836 392.622V447.581L696.495 466.454ZM653.155 448.304V392.622L695.495 409.607V466.465L653.155 448.304ZM737.993 391.883L695.995 408.73L653.998 391.883L695.995 375.035L737.993 391.883Z" stroke="#D3D3D3"/>
<path d="M97.2953 594.473L140.636 572.173V644.029L97.2953 668.806V594.473Z" fill="#DFDFDF"/>
<path d="M97.2953 594.473L53.9551 572.173V644.962L97.2953 668.806V594.473Z" fill="#E4E4E4"/>
<path d="M97.2953 549.873L140.636 572.173L97.2953 594.473L53.9551 572.173L97.2953 549.873Z" fill="#EBEBEB"/>
<path d="M97.7953 667.945V594.778L140.136 572.992V643.738L97.7953 667.945ZM54.4551 644.666V572.992L96.7953 594.778V667.961L54.4551 644.666ZM139.543 572.173L97.2953 593.911L55.0479 572.173L97.2953 550.435L139.543 572.173Z" stroke="#D3D3D3"/>
<path d="M85.2021 278.228L114.432 267.258V315.083L85.2021 328.132V278.228Z" fill="#DFDFDF"/>
<path d="M85.2021 278.228L55.9727 267.258V315.704L85.2021 328.132V278.228Z" fill="#E4E4E4"/>
<path d="M85.2021 257.578L114.432 267.258L85.2021 278.228L55.9727 267.258L85.2021 257.578Z" fill="#EBEBEB"/>
<path d="M85.7021 327.361V278.575L113.932 267.98V314.758L85.7021 327.361ZM56.4727 315.373V267.98L84.7021 278.575V327.376L56.4727 315.373ZM112.93 267.287L85.2021 277.694L57.4741 267.287L85.2021 258.105L112.93 267.287Z" stroke="#D3D3D3"/>
<path d="M40.8529 306.462L84.1931 289.076V345.099L40.8529 364.417V306.462Z" fill="#DFDFDF"/>
<path d="M40.8529 306.462L-2.4873 289.076V345.826L40.8529 364.417V306.462Z" fill="#E4E4E4"/>
<path d="M40.8529 271.689L84.1931 289.076L40.8529 306.462L-2.4873 289.076L40.8529 271.689Z" fill="#EBEBEB"/>
<path d="M41.3529 363.647V306.8L83.6931 289.815V344.774L41.3529 363.647ZM-1.9873 345.497V289.815L40.3529 306.8V363.658L-1.9873 345.497ZM82.8502 289.076L40.8529 305.923L-1.14438 289.076L40.8529 272.228L82.8502 289.076Z" stroke="#D3D3D3"/>
<path d="M161.038 312.006L191.031 296.887V338.211L161.038 353.33V312.006Z" fill="#DFDFDF"/>
<path d="M161.038 312.006L100.319 288.824V328.132L161.038 353.33V312.006Z" fill="#E4E4E4"/>
<path d="M129.549 273.705L191.031 296.887L161.038 312.006L100.319 288.824L129.549 273.705Z" fill="#EBEBEB"/>
<path d="M161.538 352.518V312.314L190.531 297.699V337.903L161.538 352.518ZM100.819 327.798V289.55L160.538 312.35V352.581L100.819 327.798ZM189.789 296.953L161.01 311.46L101.541 288.755L129.581 274.251L189.789 296.953Z" stroke="#D3D3D3"/>
<path d="M97.2953 330.652L140.636 313.265V369.288L97.2953 388.607V330.652Z" fill="#DFDFDF"/>
<path d="M97.2953 330.652L53.9551 313.265V370.016L97.2953 388.607V330.652Z" fill="#E4E4E4"/>
<path d="M97.2953 295.879L140.636 313.265L97.2953 330.652L53.9551 313.265L97.2953 295.879Z" fill="#EBEBEB"/>
<path d="M97.7953 387.837V330.99L140.136 314.005V368.964L97.7953 387.837ZM54.4551 369.686V314.005L96.7953 330.99V387.848L54.4551 369.686ZM139.293 313.265L97.2953 330.113L55.298 313.265L97.2953 296.418L139.293 313.265Z" stroke="#D3D3D3"/>
<path d="M227.317 334.684L275.697 311.25V386.759L227.317 412.797V334.684Z" fill="#DFDFDF"/>
<path d="M227.317 334.684L178.938 311.25V387.74L227.317 412.797V334.684Z" fill="#E4E4E4"/>
<path d="M227.317 287.816L275.697 311.25L227.317 334.684L178.938 311.25L227.317 287.816Z" fill="#EBEBEB"/>
<path d="M227.817 411.96V334.997L275.197 312.047V386.46L227.817 411.96ZM179.438 387.436V312.047L226.817 334.997V411.975L179.438 387.436ZM274.55 311.25L227.317 334.128L180.084 311.25L227.317 288.371L274.55 311.25Z" stroke="#D3D3D3"/>
<path d="M160.795 359.041L209.175 342.728V400.826L160.795 420.86V359.041Z" fill="#DFDFDF"/>
<path d="M160.795 359.041L112.415 342.728V401.581L160.795 420.86V359.041Z" fill="#E4E4E4"/>
<path d="M160.795 328.132L209.175 342.728L160.795 359.041L112.415 342.728L160.795 328.132Z" fill="#EBEBEB"/>
<path d="M161.295 420.112V359.4L208.675 343.424V400.492L161.295 420.112ZM112.915 401.242V343.424L160.295 359.4V420.122L112.915 401.242ZM207.531 342.755L160.795 358.514L114.058 342.755L160.795 328.654L207.531 342.755Z" stroke="#D3D3D3"/>
<path d="M42.8685 393.898L86.2087 379.158V426.656L42.8685 443.034V393.898Z" fill="#DFDFDF"/>
<path d="M42.8685 393.898L-0.47168 379.158V427.272L42.8685 443.034V393.898Z" fill="#E4E4E4"/>
<path d="M42.8685 364.417L86.2087 379.158L42.8685 393.898L-0.47168 379.158L42.8685 364.417Z" fill="#EBEBEB"/>
<path d="M43.3685 442.311V394.256L85.7087 379.856V426.31L43.3685 442.311ZM0.0283203 426.922V379.856L42.3685 394.256V442.32L0.0283203 426.922ZM84.656 379.158L42.8685 393.37L1.08111 379.158L42.8685 364.945L84.656 379.158Z" stroke="#D3D3D3"/>
<path d="M262.594 121.51L291.824 110.423V141.5L262.594 152.756V121.51Z" fill="#DFDFDF"/>
<path d="M262.594 121.51L197.08 98.3283V127.558L262.594 152.756V121.51Z" fill="#E4E4E4"/>
<path d="M229.333 88.2491L291.824 110.423L262.594 121.51L197.08 98.3283L229.333 88.2491Z" fill="#EBEBEB"/>
<path d="M263.094 152.027V121.855L291.324 111.148V141.157L263.094 152.027ZM197.58 127.214V99.0356L262.094 121.864V152.027L197.58 127.214ZM290.373 110.439L262.588 120.978L198.662 98.3577L229.323 88.7761L290.373 110.439Z" stroke="#D3D3D3"/>
<path d="M437.97 180.977L469.215 166.082V219.128L437.97 232.381V180.977Z" fill="#DFDFDF"/>
<path d="M437.97 180.977L406.725 166.082V219.817L437.97 232.381V180.977Z" fill="#E4E4E4"/>
<path d="M437.97 152.755L469.215 166.082L437.97 180.977L406.725 166.082L437.97 152.755Z" fill="#EBEBEB"/>
<path d="M438.47 231.625V181.293L468.715 166.875V218.797L438.47 231.625ZM407.225 219.479V166.875L437.47 181.293V231.641L407.225 219.479ZM468 166.108L437.97 180.423L407.94 166.108L437.97 153.299L468 166.108Z" stroke="#D3D3D3"/>
<path d="M423.095 211.929L453.088 198.915V234.486L423.095 247.499V211.929Z" fill="#DFDFDF"/>
<path d="M423.095 211.929L362.376 191.975V225.81L423.095 247.499V211.929Z" fill="#E4E4E4"/>
<path d="M391.605 178.961L453.088 198.915L423.095 211.929L362.376 191.975L391.605 178.961Z" fill="#EBEBEB"/>
<path d="M423.595 246.737V212.257L452.588 199.677V234.158L423.595 246.737ZM362.876 225.458V192.665L422.595 212.291V246.79L362.876 225.458ZM451.676 198.983L423.07 211.394L363.763 191.904L391.634 179.496L451.676 198.983Z" stroke="#D3D3D3"/>
<path d="M570.251 455.129L600.244 440.01V481.335L570.251 496.454V455.129Z" fill="#DFDFDF"/>
<path d="M570.251 455.129L509.532 431.947V471.256L570.251 496.454V455.129Z" fill="#E4E4E4"/>
<path d="M538.762 416.828L600.244 440.01L570.251 455.129L509.532 431.947L538.762 416.828Z" fill="#EBEBEB"/>
<path d="M570.751 495.642V455.437L599.744 440.822V481.027L570.751 495.642ZM510.032 470.922V432.673L569.751 455.473V495.705L510.032 470.922ZM599.002 440.077L570.223 454.583L510.754 431.878L538.794 417.375L599.002 440.077Z" stroke="#D3D3D3"/>
<path d="M775.621 285.8L824.001 265.642V347.283L775.621 366.433V285.8Z" fill="#DFDFDF"/>
<path d="M775.621 285.8L727.241 265.642V347.283L775.621 366.433V285.8Z" fill="#E4E4E4"/>
<path d="M775.621 245.483L824.001 265.642L775.621 285.8L727.241 265.642L775.621 245.483Z" fill="#EBEBEB"/>
<path d="M776.121 365.697V286.133L823.501 266.392V346.943L776.121 365.697ZM727.741 346.943V266.392L775.121 286.133V365.697L727.741 346.943ZM822.701 265.642L775.621 285.258L728.541 265.642L775.621 246.025L822.701 265.642Z" stroke="#D3D3D3"/>
<path d="M620.403 448.074L666.767 430.939V472.264L620.403 491.414V448.074Z" fill="#DFDFDF"/>
<path d="M620.403 448.074L574.039 430.939V472.264L620.403 491.414V448.074Z" fill="#E4E4E4"/>
<path d="M620.403 412.797L666.767 430.939L620.403 448.074L574.039 430.939L620.403 412.797Z" fill="#EBEBEB"/>
<path d="M620.903 490.667V448.422L666.267 431.657V471.929L620.903 490.667ZM574.539 471.929V431.657L619.903 448.422V490.667L574.539 471.929ZM665.361 430.926L620.403 447.541L575.445 430.926L620.403 413.334L665.361 430.926Z" stroke="#D3D3D3"/>
<path d="M148.927 674.266L176.921 663.557V695.684L148.927 707.107V674.266Z" fill="#DFDFDF"/>
<path d="M148.927 674.266L92.2568 651.672V682.917L148.927 707.107V674.266Z" fill="#E4E4E4"/>
<path d="M114.106 638.569L176.921 663.557L148.927 674.266L92.2568 651.672L114.106 638.569Z" fill="#EBEBEB"/>
<path d="M149.427 706.363V674.61L176.421 664.284V695.348L149.427 706.363ZM92.7568 682.587V652.41L148.427 674.605V706.35L92.7568 682.587ZM175.546 663.548L148.931 673.729L93.3799 651.581L114.151 639.125L175.546 663.548Z" stroke="#D3D3D3"/>
<path d="M333.146 611.239L372.455 593.666V668.736L333.146 684.933V611.239Z" fill="#DFDFDF"/>
<path d="M333.146 611.239L293.838 593.666V669.563L333.146 684.933V611.239Z" fill="#E4E4E4"/>
<path d="M333.146 580.11L372.455 593.666L333.146 611.239L293.838 593.666L333.146 580.11Z" fill="#EBEBEB"/>
<path d="M333.646 684.186V611.564L371.955 594.437V668.401L333.646 684.186ZM294.338 669.222V594.437L332.646 611.564V684.201L294.338 669.222ZM371.096 593.726L333.146 610.692L295.197 593.726L333.146 580.639L371.096 593.726Z" stroke="#D3D3D3"/>
<path d="M119.47 725.636L146.684 717.697V751.61L119.47 761.534V725.636Z" fill="#DFDFDF"/>
<path d="M119.47 725.636L92.2568 717.697V751.984L119.47 761.534V725.636Z" fill="#E4E4E4"/>
<path d="M119.47 711.139L146.684 717.697L119.47 725.636L92.2568 717.697L119.47 711.139Z" fill="#EBEBEB"/>
<path d="M119.97 760.82V726.011L146.184 718.364V751.261L119.97 760.82ZM92.7568 751.63V718.364L118.97 726.011V760.829L92.7568 751.63ZM144.741 717.743L119.47 725.115L94.2 717.743L119.47 711.653L144.741 717.743Z" stroke="#D3D3D3"/>
<path d="M185.992 629.498L225.301 613.371V647.055L185.992 663.767V629.498Z" fill="#DFDFDF"/>
<path d="M185.992 629.498L146.684 613.371V647.549L185.992 663.767V629.498Z" fill="#E4E4E4"/>
<path d="M185.992 594.221L225.301 613.371L185.992 629.498L146.684 613.371L185.992 594.221Z" fill="#EBEBEB"/>
<path d="M186.492 663.011V629.833L224.801 614.117V646.725L186.492 663.011ZM147.184 647.214V614.117L185.492 629.833V663.02L147.184 647.214ZM224.079 613.332L185.992 628.957L147.906 613.332L185.992 594.777L224.079 613.332Z" stroke="#D3D3D3"/>
<path d="M276.704 571.039L316.013 554.912V588.597L276.704 605.308V571.039Z" fill="#DFDFDF"/>
<path d="M276.704 571.039L237.396 554.912V589.09L276.704 605.308V571.039Z" fill="#E4E4E4"/>
<path d="M276.704 535.762L316.013 554.912L276.704 571.039L237.396 554.912L276.704 535.762Z" fill="#EBEBEB"/>
<path d="M277.204 604.552V571.374L315.513 555.658V588.266L277.204 604.552ZM237.896 588.755V555.658L276.204 571.374V604.561L237.896 588.755ZM314.791 554.873L276.704 570.498L238.617 554.873L276.704 536.318L314.791 554.873Z" stroke="#D3D3D3"/>
<path d="M258.562 626.108L299.886 605.83V692.45L258.562 711.139V626.108Z" fill="#DFDFDF"/>
<path d="M258.562 626.108L217.237 605.83V693.404L258.562 711.139V626.108Z" fill="#E4E4E4"/>
<path d="M258.562 590.189L299.886 605.83L258.562 626.108L217.237 605.83L258.562 590.189Z" fill="#EBEBEB"/>
<path d="M259.062 710.364V626.419L299.386 606.633V692.127L259.062 710.364ZM217.737 693.075V606.633L258.062 626.419V710.38L217.737 693.075ZM298.63 605.89L258.562 625.551L218.493 605.89L258.562 590.724L298.63 605.89Z" stroke="#D3D3D3"/>
<path d="M229.576 713.154L259.569 700.052V741.376L229.576 756.495V713.154Z" fill="#DFDFDF"/>
<path d="M229.576 713.154L168.857 689.972V731.297L229.576 756.495V713.154Z" fill="#E4E4E4"/>
<path d="M198.087 676.87L259.569 700.052L229.576 713.154L168.857 689.972L198.087 676.87Z" fill="#EBEBEB"/>
<path d="M230.076 755.683V713.482L259.069 700.816V741.068L230.076 755.683ZM169.357 730.963V690.699L229.076 713.499V755.746L169.357 730.963ZM258.243 700.086L229.563 712.614L170.162 689.935L198.103 677.41L258.243 700.086Z" stroke="#D3D3D3"/>
<path d="M323.068 397.678L352.297 386.591V417.668L323.068 428.923V397.678Z" fill="#DFDFDF"/>
<path d="M323.068 397.678L257.554 374.496V403.726L323.068 428.923V397.678Z" fill="#E4E4E4"/>
<path d="M289.807 364.417L352.297 386.591L323.068 397.678L257.554 374.496L289.807 364.417Z" fill="#EBEBEB"/>
<path d="M323.568 428.195V398.023L351.797 387.315V417.325L323.568 428.195ZM258.054 403.382V375.203L322.568 398.032V428.195L258.054 403.382ZM350.846 386.607L323.062 397.146L259.136 374.526L289.797 364.944L350.846 386.607Z" stroke="#D3D3D3"/>
<path d="M635.521 -1.959L686.924 -25.393V50.1164L635.521 76.1542V-1.959Z" fill="#DFDFDF"/>
<path d="M635.521 -1.959L584.117 -25.393V51.0971L635.521 76.1542V-1.959Z" fill="#E4E4E4"/>
<path d="M635.521 -48.8269L686.924 -25.393L635.521 -1.959L584.117 -25.393L635.521 -48.8269Z" fill="#EBEBEB"/>
<path d="M636.021 75.3404V-1.63744L686.424 -24.6155V49.8092L636.021 75.3404ZM584.617 50.7846V-24.6155L635.021 -1.63744V75.3542L584.617 50.7846ZM685.719 -25.393L635.521 -2.50851L585.323 -25.393L635.521 -48.2774L685.719 -25.393Z" stroke="#D3D3D3"/>
<path d="M200.103 140.661L239.412 121.51V189.712L200.103 213.23V140.661Z" fill="#DFDFDF"/>
<path d="M200.103 140.661L160.795 121.51V190.598L200.103 213.23V140.661Z" fill="#E4E4E4"/>
<path d="M200.103 104.376L239.412 121.51L200.103 140.661L160.795 121.51L200.103 104.376Z" fill="#EBEBEB"/>
<path d="M200.603 212.348V140.973L238.912 122.31V189.429L200.603 212.348ZM161.295 190.309V122.31L199.603 140.973V212.365L161.295 190.309ZM238.219 121.535L200.103 140.104L161.988 121.535L200.103 104.921L238.219 121.535Z" stroke="#D3D3D3"/>
<path d="M359.892 138.645L398.662 122.742V172.914L359.892 189.04V138.645Z" fill="#DFDFDF"/>
<path d="M359.892 138.645L320.045 122.742V172.914L359.892 189.04V138.645Z" fill="#E4E4E4"/>
<path d="M359.892 108.407L398.662 122.742L359.892 138.645L320.045 122.742L359.892 108.407Z" fill="#EBEBEB"/>
<path d="M360.392 188.291V138.98L398.162 123.488V172.58L360.392 188.291ZM320.545 172.577V123.48L359.392 138.984V188.299L320.545 172.577ZM397.286 122.766L359.889 138.105L321.455 122.766L359.89 108.94L397.286 122.766Z" stroke="#D3D3D3"/>
<path d="M580.086 46.5887L630.482 30.2755V88.3735L580.086 108.407V46.5887Z" fill="#DFDFDF"/>
<path d="M580.086 46.5887L529.69 30.2755V89.128L580.086 108.407V46.5887Z" fill="#E4E4E4"/>
<path d="M580.086 15.6794L630.482 30.2755L580.086 46.5887L529.69 30.2755L580.086 15.6794Z" fill="#EBEBEB"/>
<path d="M580.586 107.671V46.9524L629.982 30.9629V88.0342L580.586 107.671ZM530.19 88.784V30.9629L579.586 46.9524V107.681L530.19 88.784ZM628.776 30.3021L580.086 46.0632L531.396 30.3021L580.086 16.2L628.776 30.3021Z" stroke="#D3D3D3"/>
<path d="M140.637 401.374L189.016 385.061V443.159L140.637 463.192V401.374Z" fill="#DFDFDF"/>
<path d="M140.637 401.374L92.2568 385.061V443.913L140.637 463.192V401.374Z" fill="#E4E4E4"/>
<path d="M140.637 370.464L189.016 385.061L140.637 401.374L92.2568 385.061L140.637 370.464Z" fill="#EBEBEB"/>
<path d="M141.137 462.444V401.733L188.516 385.757V442.824L141.137 462.444ZM92.7568 443.574V385.757L140.137 401.733V462.455L92.7568 443.574ZM187.373 385.087L140.637 400.846L93.9002 385.087L140.637 370.987L187.373 385.087Z" stroke="#D3D3D3"/>
<path d="M523.643 84.8894L574.038 68.5762V126.674L523.643 146.708V84.8894Z" fill="#DFDFDF"/>
<path d="M523.643 84.8894L473.247 68.5762V127.429L523.643 146.708V84.8894Z" fill="#E4E4E4"/>
<path d="M523.643 53.9801L574.038 68.5762L523.643 84.8894L473.247 68.5762L523.643 53.9801Z" fill="#EBEBEB"/>
<path d="M524.143 145.971V85.2531L573.538 69.2636V126.335L524.143 145.971ZM473.747 127.085V69.2636L523.143 85.2531V145.981L473.747 127.085ZM572.333 68.6027L523.643 84.3639L474.953 68.6027L523.643 54.5007L572.333 68.6027Z" stroke="#D3D3D3"/>
<path d="M262.593 418.088L305.933 403.348V450.845L262.593 467.224V418.088Z" fill="#DFDFDF"/>
<path d="M262.593 418.088L219.253 403.348V451.462L262.593 467.224V418.088Z" fill="#E4E4E4"/>
<path d="M262.593 388.607L305.933 403.348L262.593 418.088L219.253 403.348L262.593 388.607Z" fill="#EBEBEB"/>
<path d="M263.093 466.5V418.446L305.433 404.046V450.5L263.093 466.5ZM219.753 451.112V404.046L262.093 418.446V466.51L219.753 451.112ZM304.381 403.348L262.593 417.56L220.806 403.348L262.593 389.135L304.381 403.348Z" stroke="#D3D3D3"/>
<path d="M477.278 14.1676L523.642 -3.21887V52.8042L477.278 72.1226V14.1676Z" fill="#DFDFDF"/>
<path d="M477.278 14.1676L430.914 -3.21887V53.5318L477.278 72.1226V14.1676Z" fill="#E4E4E4"/>
<path d="M477.278 -20.6053L523.642 -3.21887L477.278 14.1676L430.914 -3.21887L477.278 -20.6053Z" fill="#EBEBEB"/>
<path d="M477.778 71.3726V14.5141L523.142 -2.49736V52.4709L477.778 71.3726ZM431.414 53.1936V-2.49736L476.778 14.5141V71.3834L431.414 53.1936ZM522.218 -3.21886L477.278 13.6336L432.338 -3.21886L477.278 -20.0713L522.218 -3.21886Z" stroke="#D3D3D3"/>
<path d="M186.893 207.466L227.317 193.261V233.079L186.893 247.499V207.466Z" fill="#DFDFDF"/>
<path d="M186.893 207.466L96.2881 177.764V215.215L186.893 247.499V207.466Z" fill="#E4E4E4"/>
<path d="M140.894 164.85L227.317 193.261L186.893 207.466L96.2881 177.764L140.894 164.85Z" fill="#EBEBEB"/>
<path d="M187.393 246.79V207.821L226.817 193.967V232.726L187.393 246.79ZM96.7881 214.862V178.454L186.393 207.829V246.79L96.7881 214.862ZM225.764 193.277L186.887 206.938L97.9836 177.794L140.884 165.374L225.764 193.277Z" stroke="#D3D3D3"/>
<path d="M662.198 541.81L630.481 529.715V560.792L662.198 572.047V541.81Z" fill="#DFDFDF"/>
<path d="M662.198 541.81L733.288 517.62V546.849L697.743 559.448L662.198 572.047V541.81Z" fill="#E4E4E4"/>
<path d="M698.29 507.541L630.481 529.715L662.198 541.81L733.288 517.62L698.29 507.541Z" fill="#EBEBEB"/>
<path d="M661.698 571.339V542.154L630.981 530.44V560.439L661.698 571.339ZM732.788 546.496V518.318L662.698 542.168V571.339L697.576 558.977L732.788 546.496ZM631.979 529.751L662.208 541.278L731.619 517.659L698.299 508.064L631.979 529.751Z" stroke="#D3D3D3"/>
<path d="M534.73 498.469L563.96 487.382V518.459L534.73 529.714V498.469Z" fill="#DFDFDF"/>
<path d="M534.73 498.469L469.216 475.287V504.517L534.73 529.714V498.469Z" fill="#E4E4E4"/>
<path d="M501.469 465.208L563.96 487.382L534.73 498.469L469.216 475.287L501.469 465.208Z" fill="#EBEBEB"/>
<path d="M535.23 528.986V498.814L563.46 488.107V518.116L535.23 528.986ZM469.716 504.173V475.995L534.23 498.823V528.986L469.716 504.173ZM562.508 487.398L534.724 497.937L470.798 475.317L501.459 465.735L562.508 487.398Z" stroke="#D3D3D3"/>
<path d="M309.966 166.866L358.345 149.732V201.975L309.966 221.294V166.866Z" fill="#DFDFDF"/>
<path d="M309.966 166.866L261.586 149.732V202.703L309.966 221.294V166.866Z" fill="#E4E4E4"/>
<path d="M309.966 128.566L358.345 149.732L309.966 166.866L261.586 149.732L309.966 128.566Z" fill="#EBEBEB"/>
<path d="M310.466 220.556V167.22L357.845 150.439V201.637L310.466 220.556ZM262.086 202.359V150.439L309.466 167.22V220.566L262.086 202.359ZM356.986 149.683L309.966 166.336L262.945 149.683L309.966 129.111L356.986 149.683Z" stroke="#D3D3D3"/>
<path d="M249.491 227.59L297.871 211.803V259.938L249.491 277.737V227.59Z" fill="#DFDFDF"/>
<path d="M249.491 227.59L201.111 211.803V260.608L249.491 277.737V227.59Z" fill="#E4E4E4"/>
<path d="M249.491 195.088L297.871 211.803L249.491 227.59L201.111 211.803L249.491 195.088Z" fill="#EBEBEB"/>
<path d="M249.991 277.02V227.953L297.371 212.492V259.589L249.991 277.02ZM201.611 260.255V212.492L248.991 227.953V277.029L201.611 260.255ZM296.301 211.79L249.491 227.064L202.682 211.79L249.491 195.617L296.301 211.79Z" stroke="#D3D3D3"/>
<path d="M364.393 235.404L410.757 213.23V254.555L364.393 276.729V235.404Z" fill="#DFDFDF"/>
<path d="M364.393 235.404L320.045 213.23V254.555L364.393 276.729V235.404Z" fill="#E4E4E4"/>
<path d="M364.393 197.104L410.757 213.23L364.393 235.404L320.045 213.23L364.393 197.104Z" fill="#EBEBEB"/>
<path d="M364.893 275.935V235.719L410.257 214.024V254.24L364.893 275.935ZM320.545 254.246V214.039L363.893 235.713V275.92L320.545 254.246ZM409.445 213.303L364.398 234.848L321.308 213.303L364.397 197.634L409.445 213.303Z" stroke="#D3D3D3"/>
<path d="M7.59227 225.325L51.9404 209.199V254.891L7.59227 271.689V225.325Z" fill="#DFDFDF"/>
<path d="M7.59227 225.325L-36.7559 209.199V255.523L7.59227 271.689V225.325Z" fill="#E4E4E4"/>
<path d="M7.59227 191.056L51.9404 209.199L7.59227 225.325L-36.7559 209.199L7.59227 191.056Z" fill="#EBEBEB"/>
<path d="M8.09227 270.965V225.675L51.4404 209.912V254.545L8.09227 270.965ZM-36.2559 255.173V209.912L7.09227 225.675V270.975L-36.2559 255.173ZM50.5528 209.171L7.59227 224.793L-35.3682 209.171L7.59227 191.596L50.5528 209.171Z" stroke="#D3D3D3"/>
<path d="M773.605 386.591L817.953 370.465V416.157L773.605 432.955V386.591Z" fill="#DFDFDF"/>
<path d="M773.605 386.591L729.257 370.465V416.789L773.605 432.955V386.591Z" fill="#E4E4E4"/>
<path d="M773.605 352.322L817.953 370.465L773.605 386.591L729.257 370.465L773.605 352.322Z" fill="#EBEBEB"/>
<path d="M774.105 432.231V386.941L817.453 371.178V415.811L774.105 432.231ZM729.757 416.439V371.178L773.105 386.941V432.241L729.757 416.439ZM816.565 370.437L773.605 386.059L730.644 370.437L773.605 352.862L816.565 370.437Z" stroke="#D3D3D3"/>
<path d="M377.511 27.7744L420.835 12.6557V58.0117L377.511 74.1383V27.7744Z" fill="#DFDFDF"/>
<path d="M377.511 27.7744L289.807 -2.46298V43.901L377.511 74.1383V27.7744Z" fill="#E4E4E4"/>
<path d="M323.62 -22.6212L420.835 12.6557L377.511 27.7744L289.807 -2.46298L323.62 -22.6212Z" fill="#EBEBEB"/>
<path d="M378.011 73.4187V28.1295L420.335 13.3598V57.6643L378.011 73.4187ZM290.307 43.5445V-1.76171L377.011 28.1309V73.4371L290.307 43.5445ZM419.344 12.6465L377.51 27.2452L290.987 -2.58478L323.673 -22.0703L419.344 12.6465Z" stroke="#D3D3D3"/>
<path d="M455.104 522.659L501.468 505.524V546.849L455.104 565.999V522.659Z" fill="#DFDFDF"/>
<path d="M455.104 522.659L408.74 505.524V546.849L455.104 565.999V522.659Z" fill="#E4E4E4"/>
<path d="M455.104 487.382L501.468 505.524L455.104 522.659L408.74 505.524L455.104 487.382Z" fill="#EBEBEB"/>
<path d="M455.604 565.252V523.007L500.968 506.242V546.514L455.604 565.252ZM409.24 546.514V506.242L454.604 523.007V565.252L409.24 546.514ZM500.062 505.511L455.104 522.126L410.146 505.511L455.104 487.919L500.062 505.511Z" stroke="#D3D3D3"/>
<path d="M616.372 486.374L662.736 469.24V510.564L616.372 529.715V486.374Z" fill="#DFDFDF"/>
<path d="M616.372 486.374L570.008 469.24V510.564L616.372 529.715V486.374Z" fill="#E4E4E4"/>
<path d="M616.372 451.098L662.736 469.24L616.372 486.374L570.008 469.24L616.372 451.098Z" fill="#EBEBEB"/>
<path d="M616.872 528.967V486.723L662.236 469.958V510.23L616.872 528.967ZM570.508 510.23V469.958L615.872 486.723V528.967L570.508 510.23ZM661.329 469.227L616.372 485.841L571.414 469.227L616.372 451.634L661.329 469.227Z" stroke="#D3D3D3"/>
<path d="M509.532 544.833L555.896 527.699V569.023L509.532 588.174V544.833Z" fill="#DFDFDF"/>
<path d="M509.532 544.833L463.168 527.699V569.023L509.532 588.174V544.833Z" fill="#E4E4E4"/>
<path d="M509.532 509.556L555.896 527.699L509.532 544.833L463.168 527.699L509.532 509.556Z" fill="#EBEBEB"/>
<path d="M510.032 587.426V545.182L555.396 528.417V568.689L510.032 587.426ZM463.668 568.689V528.417L509.032 545.182V587.426L463.668 568.689ZM554.49 527.685L509.532 544.3L464.574 527.685L509.532 510.093L554.49 527.685Z" stroke="#D3D3D3"/>
<path d="M401.685 658.092L440.993 639.674V718.353L401.685 735.329V658.092Z" fill="#DFDFDF"/>
<path d="M401.685 658.092L362.376 639.674V719.22L401.685 735.329V658.092Z" fill="#E4E4E4"/>
<path d="M401.685 624.458L440.993 639.674L401.685 658.092L362.376 639.674L401.685 624.458Z" fill="#EBEBEB"/>
<path d="M402.185 734.568V658.41L440.493 640.46V718.024L402.185 734.568ZM362.876 718.884V640.46L401.185 658.41V734.583L362.876 718.884ZM439.721 639.717L401.685 657.54L363.648 639.717L401.685 624.994L439.721 639.717Z" stroke="#D3D3D3"/>
<path d="M363.386 699.542L410.757 677.119V723.75L363.386 745.408V699.542Z" fill="#DFDFDF"/>
<path d="M363.386 699.542L316.014 677.119V724.388L363.386 745.408V699.542Z" fill="#E4E4E4"/>
<path d="M363.386 654.696L410.757 677.119L363.386 699.542L316.014 677.119L363.386 654.696Z" fill="#EBEBEB"/>
<path d="M363.886 744.629V699.859L410.257 677.909V723.429L363.886 744.629ZM316.514 724.062V677.909L362.886 699.859V744.639L316.514 724.062ZM409.589 677.119L363.386 698.989L317.182 677.119L363.386 655.249L409.589 677.119Z" stroke="#D3D3D3"/>
<path d="M310.974 699.936L350.282 682.362V757.432L310.974 773.629V699.936Z" fill="#DFDFDF"/>
<path d="M310.974 699.936L271.665 682.362V758.26L310.974 773.629V699.936Z" fill="#E4E4E4"/>
<path d="M310.974 668.806L350.282 682.362L310.974 699.936L271.665 682.362L310.974 668.806Z" fill="#EBEBEB"/>
<path d="M311.474 772.882V700.26L349.782 683.133V757.097L311.474 772.882ZM272.165 757.918V683.133L310.474 700.26V772.897L272.165 757.918ZM348.923 682.422L310.974 699.388L273.025 682.422L310.974 669.335L348.923 682.422Z" stroke="#D3D3D3"/>
<path d="M260.577 764.558L299.886 748.432V782.116L260.577 798.827V764.558Z" fill="#DFDFDF"/>
<path d="M260.577 764.558L221.269 748.432V782.609L260.577 798.827V764.558Z" fill="#E4E4E4"/>
<path d="M260.577 729.281L299.886 748.432L260.577 764.558L221.269 748.432L260.577 729.281Z" fill="#EBEBEB"/>
<path d="M261.077 798.071V764.893L299.386 749.177V781.785L261.077 798.071ZM221.769 782.275V749.177L260.077 764.893V798.08L221.769 782.275ZM298.664 748.392L260.577 764.018L222.491 748.392L260.577 729.837L298.664 748.392Z" stroke="#D3D3D3"/>
<path d="M565.975 511.572L614.355 494.438V593.465L565.975 610.348V511.572Z" fill="#DFDFDF"/>
<path d="M565.975 511.572L517.596 494.438V594.556L565.975 610.348V511.572Z" fill="#E4E4E4"/>
<path d="M565.975 475.287L614.355 494.438L565.975 511.572L517.596 494.438L565.975 475.287Z" fill="#EBEBEB"/>
<path d="M566.475 609.644V511.926L613.855 495.145V593.11L566.475 609.644ZM518.096 594.194V495.145L565.475 511.926V609.658L518.096 594.194ZM612.931 494.412L565.975 511.042L519.02 494.412L565.975 475.825L612.931 494.412Z" stroke="#D3D3D3"/>
<path d="M558.92 649.366L586.133 637.934V686.769L558.92 701.06V649.366Z" fill="#DFDFDF"/>
<path d="M558.92 649.366L531.706 637.934V687.307L558.92 701.06V649.366Z" fill="#E4E4E4"/>
<path d="M558.92 628.49L586.133 637.934L558.92 649.366L531.706 637.934L558.92 628.49Z" fill="#EBEBEB"/>
<path d="M559.42 700.232V649.698L585.633 638.686V686.467L559.42 700.232ZM532.206 687V638.686L558.42 649.698V700.247L532.206 687ZM584.736 637.978L558.92 648.824L533.103 637.978L558.92 629.019L584.736 637.978Z" stroke="#D3D3D3"/>
<path d="M581.094 677.588L608.308 666.156V714.991L581.094 729.281V677.588Z" fill="#DFDFDF"/>
<path d="M581.094 677.588L553.881 666.156V715.529L581.094 729.281V677.588Z" fill="#E4E4E4"/>
<path d="M581.094 656.712L608.308 666.156L581.094 677.588L553.881 666.156L581.094 656.712Z" fill="#EBEBEB"/>
<path d="M581.594 728.454V677.92L607.808 666.908V714.689L581.594 728.454ZM554.381 715.222V666.908L580.594 677.92V728.468L554.381 715.222ZM606.911 666.2L581.094 677.045L555.278 666.2L581.094 657.241L606.911 666.2Z" stroke="#D3D3D3"/>
<path d="M695.995 562.354L723.208 554.415V588.329L695.995 598.253V562.354Z" fill="#DFDFDF"/>
<path d="M695.995 562.354L668.781 554.415V588.702L695.995 598.253V562.354Z" fill="#E4E4E4"/>
<path d="M695.995 547.857L723.208 554.415L695.995 562.354L668.781 554.415L695.995 547.857Z" fill="#EBEBEB"/>
<path d="M696.495 597.538V562.729L722.708 555.082V587.979L696.495 597.538ZM669.281 588.348V555.082L695.495 562.729V597.547L669.281 588.348ZM721.265 554.461L695.995 561.833L670.724 554.461L695.995 548.371L721.265 554.461Z" stroke="#D3D3D3"/>
<path d="M260.578 759.905L287.792 751.966V785.88L260.578 795.803V759.905Z" fill="#DFDFDF"/>
<path d="M260.578 759.905L233.364 751.966V786.253L260.578 795.803V759.905Z" fill="#E4E4E4"/>
<path d="M260.578 745.408L287.792 751.966L260.578 759.905L233.364 751.966L260.578 745.408Z" fill="#EBEBEB"/>
<path d="M261.078 795.089V760.28L287.292 752.633V785.53L261.078 795.089ZM233.864 785.899V752.633L260.078 760.28V795.098L233.864 785.899ZM285.848 752.012L260.578 759.384L235.307 752.012L260.578 745.922L285.848 752.012Z" stroke="#D3D3D3"/>
<path d="M181.961 737.731L209.174 729.792V763.705L181.961 773.629V737.731Z" fill="#DFDFDF"/>
<path d="M181.961 737.731L154.747 729.792V764.079L181.961 773.629V737.731Z" fill="#E4E4E4"/>
<path d="M181.961 723.234L209.174 729.792L181.961 737.731L154.747 729.792L181.961 723.234Z" fill="#EBEBEB"/>
<path d="M182.461 772.915V738.106L208.674 730.459V763.355L182.461 772.915ZM155.247 763.725V730.459L181.461 738.106V772.924L155.247 763.725ZM207.231 729.838L181.961 737.21L156.69 729.838L181.961 723.748L207.231 729.838Z" stroke="#D3D3D3"/>
<path d="M307.949 241.956L356.329 224.569V280.592L307.949 299.911V241.956Z" fill="#DFDFDF"/>
<path d="M307.949 241.956L259.569 224.569V281.32L307.949 299.911V241.956Z" fill="#E4E4E4"/>
<path d="M307.949 207.183L356.329 224.569L307.949 241.956L259.569 224.569L307.949 207.183Z" fill="#EBEBEB"/>
<path d="M308.449 299.173V242.307L355.829 225.28V280.254L308.449 299.173ZM260.069 280.977V225.28L307.449 242.307V299.183L260.069 280.977ZM354.85 224.569L307.949 241.425L261.048 224.569L307.949 207.714L354.85 224.569Z" stroke="#D3D3D3"/>
<path d="M622.419 576.52L668.783 564.136V617.041L622.419 632.522V576.52Z" fill="#DFDFDF"/>
<path d="M622.419 576.52L576.055 564.136V617.624L622.419 632.522V576.52Z" fill="#E4E4E4"/>
<path d="M622.419 553.905L668.783 564.136L622.419 576.52L576.055 564.136L622.419 553.905Z" fill="#EBEBEB"/>
<path d="M622.919 631.828V576.904L668.283 564.787V616.68L622.919 631.828ZM576.555 617.259V564.787L621.919 576.904V631.836L576.555 617.259ZM666.672 564.182L622.419 576.003L578.165 564.182L622.419 554.417L666.672 564.182Z" stroke="#D3D3D3"/>
<path d="M200.103 420.86L239.412 401.71V469.912L200.103 493.43V420.86Z" fill="#DFDFDF"/>
<path d="M200.103 420.86L160.795 401.71V470.797L200.103 493.43V420.86Z" fill="#E4E4E4"/>
<path d="M200.103 384.575L239.412 401.71L200.103 420.86L160.795 401.71L200.103 384.575Z" fill="#EBEBEB"/>
<path d="M200.603 492.548V421.173L238.912 402.509V469.628L200.603 492.548ZM161.295 470.508V402.509L199.603 421.173V492.565L161.295 470.508ZM238.219 401.735L200.103 420.304L161.988 401.735L200.103 385.121L238.219 401.735Z" stroke="#D3D3D3"/>
<path d="M10.6157 447.066L51.9401 431.947V477.303L10.6157 493.43V447.066Z" fill="#DFDFDF"/>
<path d="M10.6157 447.066L-73.041 416.828V463.192L10.6157 493.43V447.066Z" fill="#E4E4E4"/>
<path d="M-40.7878 396.67L51.9401 431.947L10.6157 447.066L-73.041 416.828L-40.7878 396.67Z" fill="#EBEBEB"/>
<path d="M11.1157 492.698V447.415L51.4401 432.662V476.962L11.1157 492.698ZM-72.541 462.841V417.541L10.1157 447.417V492.717L-72.541 462.841ZM50.5098 431.938L10.6146 446.534L-71.9043 416.708L-40.7335 397.226L50.5098 431.938Z" stroke="#D3D3D3"/>
<path d="M429.907 60.0277L461.153 45.133V98.179L429.907 111.431V60.0277Z" fill="#DFDFDF"/>
<path d="M429.907 60.0277L398.662 45.133V98.8679L429.907 111.431V60.0277Z" fill="#E4E4E4"/>
<path d="M429.907 31.8062L461.153 45.133L429.907 60.0277L398.662 45.133L429.907 31.8062Z" fill="#EBEBEB"/>
<path d="M430.407 110.676V60.3432L460.653 45.9252V97.848L430.407 110.676ZM399.162 98.5301V45.9252L429.407 60.3432V110.691L399.162 98.5301ZM459.938 45.1583L429.907 59.4738L399.877 45.1583L429.907 32.3497L459.938 45.1583Z" stroke="#D3D3D3"/>
<path d="M639.553 628.742L682.893 606.442V678.298L639.553 703.075V628.742Z" fill="#DFDFDF"/>
<path d="M639.553 628.742L596.213 606.442V679.231L639.553 703.075V628.742Z" fill="#E4E4E4"/>
<path d="M639.553 584.142L682.893 606.442L639.553 628.742L596.213 606.442L639.553 584.142Z" fill="#EBEBEB"/>
<path d="M640.053 702.214V629.047L682.393 607.261V678.008L640.053 702.214ZM596.713 678.935V607.261L639.053 629.047V702.23L596.713 678.935ZM681.8 606.442L639.553 628.18L597.306 606.442L639.553 584.704L681.8 606.442Z" stroke="#D3D3D3"/>
<path d="M44.7716 525.095L72.099 514.386V546.513L44.7716 557.936V525.095Z" fill="#DFDFDF"/>
<path d="M44.7716 525.095L-10.5498 502.501V533.746L44.7716 557.936V525.095Z" fill="#E4E4E4"/>
<path d="M10.7789 489.398L72.099 514.386L44.7716 525.095L-10.5498 502.501L10.7789 489.398Z" fill="#EBEBEB"/>
<path d="M45.2716 557.185V525.436L71.599 515.119V546.18L45.2716 557.185ZM-10.0498 533.419V503.245L44.2716 525.431V557.172L-10.0498 533.419ZM70.7518 514.377L44.7754 524.557L-9.44796 502.411L10.8248 489.957L70.7518 514.377Z" stroke="#D3D3D3"/>
<path d="M82.1776 480.838L120.478 464.478V498.65L82.1776 515.604V480.838Z" fill="#DFDFDF"/>
<path d="M82.1776 480.838L43.877 464.478V499.151L82.1776 515.604V480.838Z" fill="#E4E4E4"/>
<path d="M82.1776 445.05L120.478 464.478L82.1776 480.838L43.877 464.478L82.1776 445.05Z" fill="#EBEBEB"/>
<path d="M82.6776 514.836V481.168L119.978 465.235V498.325L82.6776 514.836ZM44.377 498.821V465.235L81.6776 481.168V514.845L44.377 498.821ZM119.296 464.439L82.1776 480.295L45.0588 464.439L82.1776 445.611L119.296 464.439Z" stroke="#D3D3D3"/>
<path d="M278.72 482.343L307.95 471.256V502.333L278.72 513.588V482.343Z" fill="#DFDFDF"/>
<path d="M278.72 482.343L213.206 459.161V488.39L278.72 513.588V482.343Z" fill="#E4E4E4"/>
<path d="M245.459 449.082L307.95 471.256L278.72 482.343L213.206 459.161L245.459 449.082Z" fill="#EBEBEB"/>
<path d="M279.22 512.86V482.688L307.45 471.98V501.99L279.22 512.86ZM213.706 488.047V459.868L278.22 482.696V512.86L213.706 488.047ZM306.499 471.271L278.714 481.81L214.788 459.19L245.449 449.609L306.499 471.271Z" stroke="#D3D3D3"/>
<path d="M224.293 508.8L267.634 494.06V541.558L224.293 557.936V508.8Z" fill="#DFDFDF"/>
<path d="M224.293 508.8L180.953 494.06V542.174L224.293 557.936V508.8Z" fill="#E4E4E4"/>
<path d="M224.293 479.319L267.634 494.06L224.293 508.8L180.953 494.06L224.293 479.319Z" fill="#EBEBEB"/>
<path d="M224.793 557.213V509.158L267.134 494.758V541.212L224.793 557.213ZM181.453 541.824V494.758L223.793 509.158V557.222L181.453 541.824ZM266.081 494.06L224.293 508.272L182.506 494.06L224.293 479.847L266.081 494.06Z" stroke="#D3D3D3"/>
<path d="M161.802 511.572L201.11 492.422V560.624L161.802 584.142V511.572Z" fill="#DFDFDF"/>
<path d="M161.802 511.572L122.493 492.422V561.51L161.802 584.142V511.572Z" fill="#E4E4E4"/>
<path d="M161.802 475.287L201.11 492.422L161.802 511.572L122.493 492.422L161.802 475.287Z" fill="#EBEBEB"/>
<path d="M162.302 583.26V511.885L200.61 493.222V560.34L162.302 583.26ZM122.993 561.221V493.222L161.302 511.885V583.277L122.993 561.221ZM199.917 492.447L161.802 511.016L123.687 492.447L161.802 475.833L199.917 492.447Z" stroke="#D3D3D3"/>
<path d="M133 96.5L-23.5 29.5L-136.5 132L83 151.5L50 107L133 96.5Z" fill="#D5F1C3"/>
<path d="M50 767.5C46.8 658.3 2.66667 578 -19 551.5L-97.5 620L-144 855C-78 871.333 53.2 876.7 50 767.5Z" fill="#C6E0F9"/>
</g>
<defs>
<filter id="filter0_d_916_278" x="316" y="328" width="130" height="96" filterUnits="userSpaceOnUse" color-interpolation-filters="sRGB">
<feFlood flood-opacity="0" result="BackgroundImageFix"/>
<feColorMatrix in="SourceAlpha" type="matrix" values="0 0 0 0 0 0 0 0 0 0 0 0 0 0 0 0 0 0 127 0" result="hardAlpha"/>
<feOffset dy="4"/>
<feGaussianBlur stdDeviation="8"/>
<feComposite in2="hardAlpha" operator="out"/>
<feColorMatrix type="matrix" values="0 0 0 0 0 0 0 0 0 0 0 0 0 0 0 0 0 0 0.1 0"/>
<feBlend mode="normal" in2="BackgroundImageFix" result="effect1_dropShadow_916_278"/>
<feBlend mode="normal" in="SourceGraphic" in2="effect1_dropShadow_916_278" result="shape"/>
</filter>
<clipPath id="clip0_916_278">
<rect width="750" height="750" fill="white"/>
</clipPath>
</defs>
</svg>
