<svg width="1440" height="1024" viewBox="0 0 1440 1024" fill="none" xmlns="http://www.w3.org/2000/svg">
<rect width="1440" height="1024" fill="#FAFAFA"/>
<path d="M259.96 78.82V84H257.64V69.86H263.14C263.873 69.86 264.56 69.9333 265.2 70.08C265.84 70.2267 266.393 70.4733 266.86 70.82C267.34 71.1667 267.713 71.6267 267.98 72.2C268.26 72.7733 268.4 73.48 268.4 74.32C268.4 74.8933 268.313 75.42 268.14 75.9C267.98 76.3667 267.76 76.78 267.48 77.14C267.2 77.4867 266.873 77.78 266.5 78.02C266.127 78.2467 265.727 78.4133 265.3 78.52L268.36 84H265.78C265.313 83.1333 264.84 82.2733 264.36 81.42C263.893 80.5533 263.42 79.6867 262.94 78.82H259.96ZM262.82 76.8C263.273 76.8 263.7 76.76 264.1 76.68C264.5 76.6 264.847 76.4667 265.14 76.28C265.433 76.0933 265.66 75.84 265.82 75.52C265.993 75.1867 266.08 74.7667 266.08 74.26C266.08 73.8067 266.007 73.4333 265.86 73.14C265.727 72.8467 265.527 72.6133 265.26 72.44C264.993 72.2533 264.673 72.1267 264.3 72.06C263.927 71.98 263.513 71.94 263.06 71.94H259.96V76.8H262.82ZM272.284 79.5C272.311 79.8867 272.391 80.2467 272.524 80.58C272.657 80.9133 272.837 81.2067 273.064 81.46C273.304 81.7 273.591 81.8933 273.924 82.04C274.271 82.1867 274.671 82.26 275.124 82.26C275.604 82.26 276.044 82.1733 276.444 82C276.844 81.8267 277.137 81.5267 277.324 81.1H279.664C279.531 81.6333 279.311 82.0933 279.004 82.48C278.711 82.8667 278.357 83.1867 277.944 83.44C277.544 83.68 277.097 83.86 276.604 83.98C276.124 84.0867 275.611 84.14 275.064 84.14C274.224 84.14 273.484 84.0133 272.844 83.76C272.217 83.5067 271.691 83.14 271.264 82.66C270.837 82.18 270.517 81.6133 270.304 80.96C270.104 80.2933 270.004 79.5467 270.004 78.72C270.004 77.92 270.117 77.1933 270.344 76.54C270.571 75.8733 270.897 75.3 271.324 74.82C271.764 74.34 272.291 73.9667 272.904 73.7C273.517 73.42 274.217 73.28 275.004 73.28C275.831 73.28 276.544 73.42 277.144 73.7C277.744 73.9667 278.244 74.3333 278.644 74.8C279.057 75.2667 279.364 75.8133 279.564 76.44C279.764 77.0667 279.864 77.7467 279.864 78.48C279.864 78.8267 279.844 79.1667 279.804 79.5H272.284ZM277.644 77.78C277.617 76.98 277.364 76.36 276.884 75.92C276.404 75.48 275.784 75.26 275.024 75.26C274.597 75.26 274.224 75.3267 273.904 75.46C273.584 75.5933 273.311 75.7733 273.084 76C272.871 76.2267 272.697 76.4933 272.564 76.8C272.431 77.1067 272.344 77.4333 272.304 77.78H277.644ZM285.788 75.18C285.588 75.18 285.374 75.1933 285.148 75.22C284.934 75.2467 284.728 75.3067 284.528 75.4C284.341 75.48 284.181 75.6 284.048 75.76C283.928 75.92 283.868 76.1267 283.868 76.38C283.868 76.66 283.961 76.88 284.148 77.04C284.348 77.2 284.581 77.3333 284.848 77.44C285.114 77.5333 285.394 77.6133 285.688 77.68C285.994 77.7333 286.254 77.78 286.468 77.82C287.041 77.94 287.554 78.0667 288.008 78.2C288.474 78.3333 288.868 78.5133 289.188 78.74C289.508 78.9533 289.754 79.2333 289.928 79.58C290.114 79.9267 290.208 80.38 290.208 80.94C290.208 81.54 290.081 82.0467 289.828 82.46C289.588 82.8733 289.268 83.2067 288.868 83.46C288.481 83.7 288.034 83.8733 287.528 83.98C287.034 84.0867 286.521 84.14 285.988 84.14C285.454 84.14 284.928 84.0867 284.408 83.98C283.888 83.8733 283.408 83.6933 282.968 83.44C282.541 83.1867 282.181 82.8533 281.888 82.44C281.608 82.0133 281.434 81.5 281.368 80.9H283.668C283.721 81.1667 283.834 81.3867 284.008 81.56C284.181 81.7333 284.381 81.8733 284.608 81.98C284.848 82.0867 285.094 82.16 285.348 82.2C285.601 82.24 285.834 82.26 286.048 82.26C286.208 82.26 286.401 82.2467 286.628 82.22C286.868 82.1933 287.088 82.1333 287.288 82.04C287.488 81.9467 287.654 81.8267 287.788 81.68C287.934 81.52 288.008 81.32 288.008 81.08C288.008 80.8533 287.954 80.6667 287.848 80.52C287.741 80.36 287.594 80.2267 287.408 80.12C287.234 80.0133 287.021 79.9333 286.768 79.88C286.514 79.8133 286.248 79.7467 285.967 79.68C285.528 79.6 285.054 79.5 284.548 79.38C284.054 79.26 283.588 79.1067 283.148 78.92C282.721 78.72 282.368 78.4267 282.088 78.04C281.808 77.6533 281.668 77.16 281.668 76.56C281.668 75.92 281.794 75.3933 282.048 74.98C282.301 74.5667 282.628 74.2333 283.028 73.98C283.428 73.7133 283.874 73.5333 284.368 73.44C284.861 73.3333 285.348 73.28 285.827 73.28C286.988 73.28 287.934 73.5467 288.668 74.08C289.414 74.6133 289.821 75.3867 289.888 76.4H287.748C287.681 75.9733 287.461 75.6733 287.088 75.5C286.728 75.3133 286.294 75.2067 285.788 75.18ZM296.762 82.16C297.642 82.16 298.269 81.9133 298.642 81.42C299.016 80.9267 299.202 80.2267 299.202 79.32V73.46H301.462V79.4C301.462 80.28 301.342 81.0267 301.102 81.64C300.862 82.24 300.536 82.7267 300.122 83.1C299.709 83.46 299.216 83.7267 298.642 83.9C298.082 84.06 297.456 84.14 296.762 84.14C295.296 84.14 294.149 83.76 293.322 83C292.509 82.24 292.102 81.04 292.102 79.4V73.46H294.362V79.32C294.362 80.2267 294.556 80.9267 294.942 81.42C295.342 81.9 295.949 82.1467 296.762 82.16ZM306.08 73.46C306.093 73.5667 306.1 73.6733 306.1 73.78L306.16 74.4C306.173 74.5067 306.18 74.6133 306.18 74.72C306.913 73.7333 307.873 73.24 309.06 73.24C309.807 73.24 310.407 73.3933 310.86 73.7C311.313 74.0067 311.667 74.4133 311.92 74.92C312.333 74.3733 312.8 73.96 313.32 73.68C313.853 73.3867 314.473 73.24 315.18 73.24C315.78 73.24 316.293 73.34 316.72 73.54C317.16 73.74 317.507 74.02 317.76 74.38C318.027 74.74 318.22 75.16 318.34 75.64C318.46 76.1067 318.52 76.6067 318.52 77.14V84H316.24V77.98C316.24 77.66 316.22 77.34 316.18 77.02C316.14 76.7 316.053 76.4133 315.92 76.16C315.8 75.8933 315.62 75.68 315.38 75.52C315.14 75.3467 314.82 75.26 314.42 75.26C313.993 75.26 313.64 75.3667 313.36 75.58C313.093 75.78 312.88 76.0267 312.72 76.32C312.573 76.6133 312.473 76.9467 312.42 77.32C312.367 77.68 312.34 78.04 312.34 78.4V84H310.08V77.94C310.08 77.6333 310.06 77.3267 310.02 77.02C309.993 76.7 309.92 76.4133 309.8 76.16C309.68 75.9067 309.5 75.6933 309.26 75.52C309.033 75.3467 308.713 75.26 308.3 75.26C307.873 75.26 307.513 75.3667 307.22 75.58C306.94 75.7933 306.72 76.06 306.56 76.38C306.4 76.6867 306.293 77.0267 306.24 77.4C306.187 77.76 306.16 78.0933 306.16 78.4V84H303.9V73.46H306.08ZM322.772 79.5C322.799 79.8867 322.879 80.2467 323.012 80.58C323.146 80.9133 323.326 81.2067 323.552 81.46C323.792 81.7 324.079 81.8933 324.412 82.04C324.759 82.1867 325.159 82.26 325.612 82.26C326.092 82.26 326.532 82.1733 326.932 82C327.332 81.8267 327.626 81.5267 327.812 81.1H330.152C330.019 81.6333 329.799 82.0933 329.492 82.48C329.199 82.8667 328.846 83.1867 328.432 83.44C328.032 83.68 327.586 83.86 327.092 83.98C326.612 84.0867 326.099 84.14 325.552 84.14C324.712 84.14 323.972 84.0133 323.332 83.76C322.706 83.5067 322.179 83.14 321.752 82.66C321.326 82.18 321.006 81.6133 320.792 80.96C320.592 80.2933 320.492 79.5467 320.492 78.72C320.492 77.92 320.606 77.1933 320.832 76.54C321.059 75.8733 321.386 75.3 321.812 74.82C322.252 74.34 322.779 73.9667 323.392 73.7C324.006 73.42 324.706 73.28 325.492 73.28C326.319 73.28 327.032 73.42 327.632 73.7C328.232 73.9667 328.732 74.3333 329.132 74.8C329.546 75.2667 329.852 75.8133 330.052 76.44C330.252 77.0667 330.352 77.7467 330.352 78.48C330.352 78.8267 330.332 79.1667 330.292 79.5H322.772ZM328.132 77.78C328.106 76.98 327.852 76.36 327.372 75.92C326.892 75.48 326.272 75.26 325.512 75.26C325.086 75.26 324.712 75.3267 324.392 75.46C324.072 75.5933 323.799 75.7733 323.572 76C323.359 76.2267 323.186 76.4933 323.052 76.8C322.919 77.1067 322.832 77.4333 322.792 77.78H328.132ZM332.416 84V73.46H334.556L334.676 74.96C335.489 73.84 336.596 73.28 337.996 73.28C338.129 73.28 338.256 73.2867 338.376 73.3C338.509 73.3 338.629 73.3067 338.736 73.32V75.44C338.576 75.44 338.416 75.4467 338.256 75.46C338.109 75.46 337.962 75.46 337.816 75.46C337.229 75.4733 336.736 75.58 336.336 75.78C335.949 75.9667 335.629 76.22 335.376 76.54C335.136 76.86 334.962 77.24 334.856 77.68C334.749 78.1067 334.696 78.5667 334.696 79.06V84H332.416Z" fill="#383A41"/>
<path d="M570.185 225.052H575.269L567.147 238.785V247H562.652V238.847L554.437 225.052H559.614L564.946 234.538L570.185 225.052ZM582.475 247.248C579.83 247.248 577.794 246.504 576.368 245.016C574.942 243.507 574.229 241.42 574.229 238.754C574.229 237.473 574.415 236.315 574.787 235.282C575.18 234.228 575.717 233.329 576.399 232.585C577.102 231.841 577.959 231.283 578.972 230.911C580.005 230.518 581.173 230.322 582.475 230.322C583.756 230.322 584.903 230.518 585.916 230.911C586.949 231.283 587.817 231.841 588.52 232.585C589.243 233.329 589.791 234.228 590.163 235.282C590.556 236.315 590.752 237.473 590.752 238.754C590.752 241.441 590.029 243.528 588.582 245.016C587.156 246.504 585.12 247.248 582.475 247.248ZM582.475 234.228C581.132 234.228 580.14 234.662 579.499 235.53C578.858 236.398 578.538 237.483 578.538 238.785C578.538 240.108 578.858 241.203 579.499 242.071C580.14 242.939 581.132 243.373 582.475 243.373C583.818 243.373 584.8 242.939 585.42 242.071C586.04 241.203 586.35 240.108 586.35 238.785C586.35 237.483 586.04 236.398 585.42 235.53C584.8 234.662 583.818 234.228 582.475 234.228ZM601.061 243.373C602.259 243.373 603.107 243.063 603.603 242.443C604.099 241.802 604.326 240.893 604.285 239.715V230.663H608.656V239.839C608.656 240.976 608.542 241.947 608.315 242.753C608.108 243.559 607.746 244.293 607.23 244.954C606.837 245.45 606.403 245.832 605.928 246.101C605.473 246.37 604.977 246.597 604.44 246.783C603.923 246.948 603.365 247.062 602.766 247.124C602.187 247.207 601.619 247.248 601.061 247.248C599.779 247.248 598.612 247.072 597.558 246.721C596.504 246.37 595.625 245.781 594.923 244.954C594.385 244.293 594.013 243.559 593.807 242.753C593.6 241.947 593.497 240.976 593.497 239.839V230.663H597.868V239.715C597.847 240.893 598.095 241.792 598.612 242.412C599.128 243.032 599.945 243.352 601.061 243.373ZM616.334 232.709C616.995 231.924 617.698 231.335 618.442 230.942C619.206 230.549 620.116 230.353 621.17 230.353C621.438 230.353 621.697 230.363 621.945 230.384C622.193 230.405 622.42 230.436 622.627 230.477V234.507C622.151 234.507 621.666 234.517 621.17 234.538C620.694 234.538 620.24 234.579 619.806 234.662C619.372 234.745 618.948 234.879 618.535 235.065C618.142 235.23 617.791 235.478 617.481 235.809C617.005 236.346 616.706 236.925 616.582 237.545C616.478 238.165 616.427 238.868 616.427 239.653V247H612.056V230.663H616.086L616.334 232.709ZM642.518 225.052C643.096 225.052 643.675 225.073 644.254 225.114C644.832 225.135 645.401 225.207 645.959 225.331C646.517 225.455 647.054 225.641 647.571 225.889C648.108 226.116 648.604 226.437 649.059 226.85C649.782 227.511 650.299 228.307 650.609 229.237C650.919 230.146 651.063 231.076 651.043 232.027C651.022 233.308 650.795 234.393 650.361 235.282C649.947 236.171 649.379 236.925 648.656 237.545C647.994 238.082 647.23 238.465 646.362 238.692L651.229 247H646.207L641.774 239.126H638.271V247H633.776V225.052H642.518ZM642.549 235.344C643.107 235.344 643.634 235.292 644.13 235.189C644.626 235.086 645.049 234.92 645.401 234.693C645.773 234.445 646.062 234.125 646.269 233.732C646.496 233.319 646.62 232.802 646.641 232.182C646.661 231.521 646.568 230.983 646.362 230.57C646.155 230.157 645.866 229.836 645.494 229.609C645.142 229.382 644.719 229.237 644.223 229.175C643.747 229.092 643.22 229.051 642.642 229.051H638.271V235.344H642.549ZM661.364 243.683C661.984 243.683 662.511 243.59 662.945 243.404C663.4 243.197 663.772 242.867 664.061 242.412H668.649C668.422 243.259 668.07 243.993 667.595 244.613C667.14 245.233 666.582 245.739 665.921 246.132C665.28 246.525 664.567 246.814 663.782 247C662.997 247.165 662.17 247.248 661.302 247.248C658.657 247.248 656.652 246.504 655.288 245.016C653.945 243.528 653.273 241.441 653.273 238.754C653.273 237.535 653.449 236.408 653.8 235.375C654.172 234.342 654.689 233.453 655.35 232.709C656.011 231.944 656.828 231.355 657.799 230.942C658.791 230.529 659.917 230.322 661.178 230.322C662.645 230.322 663.916 230.58 664.991 231.097C666.066 231.614 666.913 232.327 667.533 233.236C668.174 234.125 668.597 235.168 668.804 236.367C669.031 237.566 669.031 238.847 668.804 240.211H657.644C657.727 241.182 658.068 242.009 658.667 242.691C659.266 243.352 660.165 243.683 661.364 243.683ZM664.743 237.204C664.743 236.687 664.65 236.233 664.464 235.84C664.278 235.427 664.03 235.096 663.72 234.848C663.41 234.579 663.038 234.383 662.604 234.259C662.191 234.135 661.757 234.073 661.302 234.073C660.207 234.094 659.349 234.393 658.729 234.972C658.13 235.53 657.778 236.274 657.675 237.204H664.743ZM677.83 233.825C677.52 233.825 677.22 233.846 676.931 233.887C676.662 233.928 676.414 234.001 676.187 234.104C675.959 234.187 675.773 234.331 675.629 234.538C675.484 234.724 675.422 234.972 675.443 235.282C675.463 235.633 675.598 235.912 675.846 236.119C676.114 236.326 676.486 236.491 676.962 236.615C677.416 236.739 677.923 236.863 678.481 236.987C679.039 237.09 679.586 237.204 680.124 237.328C680.661 237.452 681.188 237.597 681.705 237.762C682.221 237.927 682.676 238.134 683.069 238.382C683.606 238.713 684.05 239.178 684.402 239.777C684.753 240.376 684.918 241.11 684.898 241.978C684.898 242.825 684.753 243.559 684.464 244.179C684.195 244.778 683.823 245.295 683.348 245.729C682.748 246.266 681.994 246.659 681.085 246.907C680.175 247.134 679.256 247.248 678.326 247.248C677.251 247.248 676.259 247.134 675.35 246.907C674.461 246.68 673.645 246.277 672.901 245.698C672.363 245.264 671.909 244.737 671.537 244.117C671.185 243.476 670.979 242.712 670.917 241.823H675.319C675.443 242.526 675.784 243.011 676.342 243.28C676.92 243.549 677.602 243.683 678.388 243.683C678.615 243.683 678.853 243.673 679.101 243.652C679.369 243.611 679.607 243.549 679.814 243.466C680.041 243.363 680.227 243.218 680.372 243.032C680.537 242.825 680.62 242.608 680.62 242.381C680.64 241.844 680.454 241.461 680.062 241.234C679.69 241.007 679.287 240.852 678.853 240.769C678.419 240.666 677.954 240.562 677.458 240.459C676.962 240.356 676.466 240.252 675.97 240.149C675.494 240.046 675.019 239.922 674.544 239.777C674.068 239.612 673.634 239.395 673.242 239.126C672.642 238.754 672.136 238.258 671.723 237.638C671.33 237.018 671.165 236.202 671.227 235.189C671.268 234.3 671.485 233.546 671.878 232.926C672.291 232.285 672.797 231.779 673.397 231.407C674.017 231.014 674.709 230.735 675.474 230.57C676.259 230.405 677.055 230.322 677.861 230.322C678.749 230.322 679.586 230.415 680.372 230.601C681.157 230.787 681.839 231.087 682.418 231.5C683.017 231.913 683.492 232.451 683.844 233.112C684.216 233.773 684.422 234.579 684.464 235.53H680.248C680.165 234.848 679.896 234.393 679.442 234.166C679.008 233.939 678.47 233.825 677.83 233.825ZM694.999 243.373C696.198 243.373 697.045 243.063 697.541 242.443C698.037 241.802 698.265 240.893 698.223 239.715V230.663H702.594V239.839C702.594 240.976 702.481 241.947 702.253 242.753C702.047 243.559 701.685 244.293 701.168 244.954C700.776 245.45 700.342 245.832 699.866 246.101C699.412 246.37 698.916 246.597 698.378 246.783C697.862 246.948 697.304 247.062 696.704 247.124C696.126 247.207 695.557 247.248 694.999 247.248C693.718 247.248 692.55 247.072 691.496 246.721C690.442 246.37 689.564 245.781 688.861 244.954C688.324 244.293 687.952 243.559 687.745 242.753C687.539 241.947 687.435 240.976 687.435 239.839V230.663H691.806V239.715C691.786 240.893 692.034 241.792 692.55 242.412C693.067 243.032 693.883 243.352 694.999 243.373ZM710.396 232.771C711.016 231.986 711.678 231.386 712.38 230.973C713.104 230.56 713.92 230.343 714.829 230.322C716.007 230.301 716.958 230.529 717.681 231.004C718.405 231.479 718.973 232.13 719.386 232.957C720.11 232.068 720.885 231.407 721.711 230.973C722.538 230.539 723.478 230.322 724.532 230.322C725.359 230.322 726.062 230.436 726.64 230.663C727.219 230.89 727.725 231.2 728.159 231.593C728.759 232.151 729.182 232.864 729.43 233.732C729.699 234.579 729.833 235.54 729.833 236.615V247H725.462V237.793C725.462 237.359 725.431 236.915 725.369 236.46C725.307 236.005 725.173 235.613 724.966 235.282C724.78 234.931 724.501 234.662 724.129 234.476C723.757 234.269 723.282 234.187 722.703 234.228C722.187 234.269 721.732 234.435 721.339 234.724C720.947 234.993 720.668 235.344 720.502 235.778C720.337 236.212 720.223 236.677 720.161 237.173C720.12 237.669 720.099 238.155 720.099 238.63V247H715.728V237.793C715.728 237.359 715.697 236.915 715.635 236.46C715.573 236.005 715.439 235.613 715.232 235.282C715.026 234.931 714.747 234.662 714.395 234.476C714.044 234.269 713.579 234.187 713 234.228C712.401 234.269 711.926 234.435 711.574 234.724C711.223 234.993 710.954 235.344 710.768 235.778C710.603 236.191 710.489 236.656 710.427 237.173C710.386 237.669 710.365 238.155 710.365 238.63V247H705.994V230.663H710.179L710.396 232.771ZM740.59 243.683C741.21 243.683 741.737 243.59 742.171 243.404C742.625 243.197 742.997 242.867 743.287 242.412H747.875C747.647 243.259 747.296 243.993 746.821 244.613C746.366 245.233 745.808 245.739 745.147 246.132C744.506 246.525 743.793 246.814 743.008 247C742.222 247.165 741.396 247.248 740.528 247.248C737.882 247.248 735.878 246.504 734.514 245.016C733.17 243.528 732.499 241.441 732.499 238.754C732.499 237.535 732.674 236.408 733.026 235.375C733.398 234.342 733.914 233.453 734.576 232.709C735.237 231.944 736.053 231.355 737.025 230.942C738.017 230.529 739.143 230.322 740.404 230.322C741.871 230.322 743.142 230.58 744.217 231.097C745.291 231.614 746.139 232.327 746.759 233.236C747.399 234.125 747.823 235.168 748.03 236.367C748.257 237.566 748.257 238.847 748.03 240.211H736.87C736.952 241.182 737.293 242.009 737.893 242.691C738.492 243.352 739.391 243.683 740.59 243.683ZM743.969 237.204C743.969 236.687 743.876 236.233 743.69 235.84C743.504 235.427 743.256 235.096 742.946 234.848C742.636 234.579 742.264 234.383 741.83 234.259C741.416 234.135 740.982 234.073 740.528 234.073C739.432 234.094 738.575 234.393 737.955 234.972C737.355 235.53 737.004 236.274 736.901 237.204H743.969ZM761.815 223.068C762.621 223.068 763.272 223.306 763.768 223.781C764.264 224.256 764.512 224.887 764.512 225.672C764.512 226.499 764.264 227.15 763.768 227.625C763.272 228.08 762.621 228.307 761.815 228.307C761.029 228.307 760.378 228.08 759.862 227.625C759.366 227.15 759.118 226.499 759.118 225.672C759.118 224.887 759.366 224.256 759.862 223.781C760.378 223.306 761.029 223.068 761.815 223.068ZM764.016 247H759.645V230.663H764.016V247ZM773.736 233.825C773.426 233.825 773.126 233.846 772.837 233.887C772.568 233.928 772.32 234.001 772.093 234.104C771.866 234.187 771.68 234.331 771.535 234.538C771.39 234.724 771.328 234.972 771.349 235.282C771.37 235.633 771.504 235.912 771.752 236.119C772.021 236.326 772.393 236.491 772.868 236.615C773.323 236.739 773.829 236.863 774.387 236.987C774.945 237.09 775.493 237.204 776.03 237.328C776.567 237.452 777.094 237.597 777.611 237.762C778.128 237.927 778.582 238.134 778.975 238.382C779.512 238.713 779.957 239.178 780.308 239.777C780.659 240.376 780.825 241.11 780.804 241.978C780.804 242.825 780.659 243.559 780.37 244.179C780.101 244.778 779.729 245.295 779.254 245.729C778.655 246.266 777.9 246.659 776.991 246.907C776.082 247.134 775.162 247.248 774.232 247.248C773.157 247.248 772.165 247.134 771.256 246.907C770.367 246.68 769.551 246.277 768.807 245.698C768.27 245.264 767.815 244.737 767.443 244.117C767.092 243.476 766.885 242.712 766.823 241.823H771.225C771.349 242.526 771.69 243.011 772.248 243.28C772.827 243.549 773.509 243.683 774.294 243.683C774.521 243.683 774.759 243.673 775.007 243.652C775.276 243.611 775.513 243.549 775.72 243.466C775.947 243.363 776.133 243.218 776.278 243.032C776.443 242.825 776.526 242.608 776.526 242.381C776.547 241.844 776.361 241.461 775.968 241.234C775.596 241.007 775.193 240.852 774.759 240.769C774.325 240.666 773.86 240.562 773.364 240.459C772.868 240.356 772.372 240.252 771.876 240.149C771.401 240.046 770.925 239.922 770.45 239.777C769.975 239.612 769.541 239.395 769.148 239.126C768.549 238.754 768.042 238.258 767.629 237.638C767.236 237.018 767.071 236.202 767.133 235.189C767.174 234.3 767.391 233.546 767.784 232.926C768.197 232.285 768.704 231.779 769.303 231.407C769.923 231.014 770.615 230.735 771.38 230.57C772.165 230.405 772.961 230.322 773.767 230.322C774.656 230.322 775.493 230.415 776.278 230.601C777.063 230.787 777.745 231.087 778.324 231.5C778.923 231.913 779.399 232.451 779.75 233.112C780.122 233.773 780.329 234.579 780.37 235.53H776.154C776.071 234.848 775.803 234.393 775.348 234.166C774.914 233.939 774.377 233.825 773.736 233.825ZM796.037 232.709C796.698 231.924 797.401 231.335 798.145 230.942C798.91 230.549 799.819 230.353 800.873 230.353C801.142 230.353 801.4 230.363 801.648 230.384C801.896 230.405 802.123 230.436 802.33 230.477V234.507C801.855 234.507 801.369 234.517 800.873 234.538C800.398 234.538 799.943 234.579 799.509 234.662C799.075 234.745 798.651 234.879 798.238 235.065C797.845 235.23 797.494 235.478 797.184 235.809C796.709 236.346 796.409 236.925 796.285 237.545C796.182 238.165 796.13 238.868 796.13 239.653V247H791.759V230.663H795.789L796.037 232.709ZM811.672 243.683C812.292 243.683 812.819 243.59 813.253 243.404C813.707 243.197 814.079 242.867 814.369 242.412H818.957C818.729 243.259 818.378 243.993 817.903 244.613C817.448 245.233 816.89 245.739 816.229 246.132C815.588 246.525 814.875 246.814 814.09 247C813.304 247.165 812.478 247.248 811.61 247.248C808.964 247.248 806.96 246.504 805.596 245.016C804.252 243.528 803.581 241.441 803.581 238.754C803.581 237.535 803.756 236.408 804.108 235.375C804.48 234.342 804.996 233.453 805.658 232.709C806.319 231.944 807.135 231.355 808.107 230.942C809.099 230.529 810.225 230.322 811.486 230.322C812.953 230.322 814.224 230.58 815.299 231.097C816.373 231.614 817.221 232.327 817.841 233.236C818.481 234.125 818.905 235.168 819.112 236.367C819.339 237.566 819.339 238.847 819.112 240.211H807.952C808.034 241.182 808.375 242.009 808.975 242.691C809.574 243.352 810.473 243.683 811.672 243.683ZM815.051 237.204C815.051 236.687 814.958 236.233 814.772 235.84C814.586 235.427 814.338 235.096 814.028 234.848C813.718 234.579 813.346 234.383 812.912 234.259C812.498 234.135 812.064 234.073 811.61 234.073C810.514 234.094 809.657 234.393 809.037 234.972C808.437 235.53 808.086 236.274 807.983 237.204H815.051ZM832.384 244.985C831.764 245.812 831.01 246.401 830.121 246.752C829.233 247.103 828.199 247.269 827.021 247.248C825.513 247.207 824.252 246.783 823.239 245.977C822.702 245.522 822.278 244.985 821.968 244.365C821.679 243.724 821.534 242.97 821.534 242.102C821.555 241.213 821.751 240.428 822.123 239.746C822.516 239.043 823.105 238.465 823.89 238.01C824.552 237.659 825.296 237.411 826.122 237.266C826.97 237.121 827.889 237.049 828.881 237.049H832.229C832.291 236.036 832.054 235.282 831.516 234.786C831 234.269 830.266 234.001 829.315 233.98C829.005 233.98 828.685 234.001 828.354 234.042C828.024 234.083 827.714 234.166 827.424 234.29C827.156 234.414 826.918 234.59 826.711 234.817C826.525 235.024 826.401 235.282 826.339 235.592H821.844C821.948 234.6 822.216 233.773 822.65 233.112C823.105 232.43 823.673 231.882 824.355 231.469C825.037 231.056 825.792 230.766 826.618 230.601C827.466 230.415 828.334 230.322 829.222 230.322C829.718 230.322 830.225 230.353 830.741 230.415C831.258 230.456 831.764 230.56 832.26 230.725C832.756 230.87 833.221 231.076 833.655 231.345C834.11 231.593 834.534 231.924 834.926 232.337C835.629 233.143 836.063 234.073 836.228 235.127C836.414 236.16 836.497 237.173 836.476 238.165V247H832.477L832.384 244.985ZM832.229 239.777H829.036C828.726 239.777 828.375 239.808 827.982 239.87C827.59 239.932 827.249 240.046 826.959 240.211C826.67 240.376 826.422 240.593 826.215 240.862C826.029 241.131 825.936 241.461 825.936 241.854C825.936 242.185 825.998 242.474 826.122 242.722C826.267 242.97 826.443 243.177 826.649 243.342C826.877 243.507 827.145 243.642 827.455 243.745C827.765 243.828 828.075 243.869 828.385 243.869C828.985 243.89 829.543 243.786 830.059 243.559C830.597 243.332 831.062 243.011 831.454 242.598C831.702 242.267 831.888 241.895 832.012 241.482C832.157 241.048 832.229 240.48 832.229 239.777ZM851.891 245.171C851.229 245.874 850.485 246.39 849.659 246.721C848.853 247.031 847.871 247.207 846.714 247.248C845.639 247.248 844.647 247.083 843.738 246.752C842.828 246.401 842.043 245.884 841.382 245.202C840.596 244.375 840.038 243.414 839.708 242.319C839.398 241.224 839.243 240.108 839.243 238.971C839.243 236.305 839.987 234.166 841.475 232.554C842.136 231.851 842.963 231.304 843.955 230.911C844.947 230.518 846.073 230.322 847.334 230.322C848.284 230.322 849.132 230.467 849.876 230.756C850.64 231.025 851.281 231.428 851.798 231.965V225.052H856.2V247H852.139L851.891 245.171ZM847.737 243.373C849.059 243.332 850.062 242.887 850.744 242.04C851.446 241.172 851.798 240.108 851.798 238.847C851.798 237.483 851.446 236.377 850.744 235.53C850.041 234.683 849.018 234.249 847.675 234.228C846.993 234.228 846.393 234.342 845.877 234.569C845.381 234.796 844.957 235.127 844.606 235.561C844.275 235.974 844.027 236.46 843.862 237.018C843.696 237.555 843.614 238.144 843.614 238.785C843.614 239.467 843.696 240.087 843.862 240.645C844.027 241.182 844.275 241.658 844.606 242.071C844.957 242.484 845.391 242.805 845.908 243.032C846.445 243.259 847.055 243.373 847.737 243.373ZM870.296 249.542C870.709 248.901 870.947 248.199 871.009 247.434C871.071 246.669 871.102 245.915 871.102 245.171C870.503 245.936 869.769 246.473 868.901 246.783C868.033 247.093 867.093 247.248 866.08 247.248C864.902 247.248 863.879 247.072 863.011 246.721C862.164 246.37 861.492 245.832 860.996 245.109C860.5 244.448 860.159 243.673 859.973 242.784C859.787 241.875 859.694 240.893 859.694 239.839V230.663H864.065V239.312C864.065 239.87 864.106 240.418 864.189 240.955C864.292 241.472 864.499 241.906 864.809 242.257C865.305 243.001 866.204 243.373 867.506 243.373C868.126 243.373 868.705 243.249 869.242 243.001C869.779 242.732 870.203 242.319 870.513 241.761C870.782 241.286 870.947 240.79 871.009 240.273C871.071 239.736 871.102 239.157 871.102 238.537V230.663H875.504V244.086C875.504 244.83 875.494 245.595 875.473 246.38C875.473 247.145 875.411 247.899 875.287 248.643C875.184 249.387 874.987 250.11 874.698 250.813C874.409 251.516 874.006 252.167 873.489 252.766C872.766 253.593 871.815 254.254 870.637 254.75C869.48 255.246 868.085 255.484 866.452 255.463C865.253 255.484 864.065 255.318 862.887 254.967C861.709 254.636 860.624 254.151 859.632 253.51L861.027 249.79C861.564 250.183 862.277 250.544 863.166 250.875C864.075 251.206 865.14 251.371 866.359 251.371C867.351 251.371 868.157 251.206 868.777 250.875C869.418 250.565 869.924 250.121 870.296 249.542ZM883.813 239.87H880.031L879.628 225.052H884.216L883.813 239.87ZM881.922 241.978C882.77 241.978 883.431 242.226 883.906 242.722C884.382 243.218 884.619 243.869 884.619 244.675C884.619 245.481 884.371 246.122 883.875 246.597C883.4 247.052 882.749 247.279 881.922 247.279C881.096 247.279 880.434 247.052 879.938 246.597C879.463 246.142 879.225 245.502 879.225 244.675C879.225 243.869 879.463 243.218 879.938 242.722C880.434 242.226 881.096 241.978 881.922 241.978Z" fill="#383A41"/>
<path d="M607.446 275.688H609.03L605.046 282.744V287H603.654V282.76L599.654 275.688H601.27L604.374 281.352L607.446 275.688ZM612.917 278.472C613.589 278.472 614.17 278.579 614.661 278.792C615.151 279.005 615.562 279.304 615.893 279.688C616.234 280.072 616.485 280.531 616.645 281.064C616.815 281.587 616.901 282.163 616.901 282.792C616.901 283.421 616.815 284.003 616.645 284.536C616.485 285.059 616.234 285.512 615.893 285.896C615.562 286.269 615.146 286.563 614.645 286.776C614.143 286.989 613.557 287.096 612.885 287.096C612.213 287.096 611.626 286.989 611.125 286.776C610.634 286.563 610.218 286.269 609.877 285.896C609.546 285.512 609.295 285.059 609.125 284.536C608.965 284.003 608.885 283.421 608.885 282.792C608.885 282.163 608.965 281.587 609.125 281.064C609.295 280.531 609.546 280.072 609.877 279.688C610.218 279.304 610.645 279.005 611.157 278.792C611.669 278.579 612.255 278.472 612.917 278.472ZM612.885 285.896C613.343 285.896 613.738 285.816 614.069 285.656C614.41 285.496 614.687 285.277 614.901 285C615.125 284.712 615.285 284.381 615.381 284.008C615.487 283.635 615.541 283.229 615.541 282.792C615.541 282.365 615.487 281.965 615.381 281.592C615.285 281.208 615.125 280.877 614.901 280.6C614.687 280.312 614.41 280.088 614.069 279.928C613.738 279.768 613.343 279.688 612.885 279.688C612.426 279.688 612.031 279.768 611.701 279.928C611.37 280.088 611.093 280.312 610.869 280.6C610.655 280.877 610.495 281.208 610.389 281.592C610.293 281.965 610.245 282.365 610.245 282.792C610.245 283.229 610.293 283.635 610.389 284.008C610.495 284.381 610.655 284.712 610.869 285C611.093 285.277 611.37 285.496 611.701 285.656C612.031 285.816 612.426 285.896 612.885 285.896ZM622.24 285.896C623.008 285.896 623.568 285.667 623.92 285.208C624.283 284.739 624.464 284.088 624.464 283.256V278.568H625.824V283.32C625.824 284.6 625.515 285.549 624.896 286.168C624.288 286.787 623.403 287.096 622.24 287.096C621.078 287.096 620.192 286.787 619.584 286.168C618.987 285.549 618.688 284.6 618.688 283.32V278.568H620.048V283.256C620.048 284.088 620.23 284.739 620.592 285.208C620.955 285.667 621.504 285.896 622.24 285.896ZM635.852 287.096C635.18 287.096 634.598 286.989 634.108 286.776C633.617 286.563 633.212 286.264 632.892 285.88C632.572 285.496 632.332 285.043 632.172 284.52C632.012 283.997 631.932 283.427 631.932 282.808C631.932 282.211 632.017 281.651 632.188 281.128C632.358 280.595 632.609 280.136 632.94 279.752C633.27 279.357 633.686 279.048 634.188 278.824C634.689 278.589 635.297 278.472 636.012 278.472C636.438 278.472 636.817 278.52 637.148 278.616C637.478 278.701 637.788 278.845 638.076 279.048C638.374 279.24 638.63 279.496 638.844 279.816C639.057 280.136 639.212 280.525 639.308 280.984H637.916C637.756 280.515 637.5 280.179 637.148 279.976C636.806 279.773 636.401 279.677 635.932 279.688C635.473 279.688 635.068 279.779 634.716 279.96C634.374 280.131 634.097 280.36 633.884 280.648C633.681 280.936 633.532 281.272 633.436 281.656C633.34 282.029 633.292 282.413 633.292 282.808C633.292 283.224 633.34 283.619 633.436 283.992C633.542 284.365 633.697 284.696 633.9 284.984C634.113 285.261 634.385 285.485 634.716 285.656C635.046 285.816 635.441 285.896 635.9 285.896C636.124 285.896 636.342 285.875 636.556 285.832C636.78 285.789 636.982 285.72 637.164 285.624C637.356 285.517 637.521 285.379 637.66 285.208C637.798 285.037 637.9 284.829 637.964 284.584H639.372C639.286 285.021 639.132 285.4 638.908 285.72C638.694 286.029 638.428 286.291 638.108 286.504C637.788 286.707 637.436 286.856 637.052 286.952C636.668 287.048 636.268 287.096 635.852 287.096ZM646.647 285.928C646.466 286.173 646.258 286.371 646.023 286.52C645.789 286.669 645.543 286.787 645.287 286.872C645.042 286.957 644.791 287.016 644.535 287.048C644.29 287.08 644.045 287.096 643.799 287.096C643.405 287.096 643.031 287.048 642.679 286.952C642.327 286.856 642.007 286.701 641.719 286.488C641.442 286.275 641.218 286.008 641.047 285.688C640.887 285.368 640.807 285.005 640.807 284.6C640.807 284.12 640.893 283.72 641.063 283.4C641.245 283.069 641.485 282.803 641.783 282.6C642.082 282.397 642.423 282.259 642.807 282.184C643.202 282.099 643.618 282.056 644.055 282.056H646.535C646.535 281.341 646.381 280.776 646.071 280.36C645.762 279.933 645.239 279.709 644.503 279.688C644.055 279.688 643.661 279.763 643.319 279.912C642.978 280.061 642.743 280.307 642.615 280.648H641.159C641.234 280.264 641.383 279.939 641.607 279.672C641.831 279.395 642.098 279.171 642.407 279C642.717 278.819 643.053 278.685 643.415 278.6C643.778 278.515 644.141 278.472 644.503 278.472C645.133 278.472 645.661 278.579 646.087 278.792C646.525 278.995 646.877 279.267 647.143 279.608C647.41 279.939 647.597 280.344 647.703 280.824C647.81 281.304 647.863 281.843 647.863 282.44V287H646.727L646.647 285.928ZM645.047 283.192C644.791 283.192 644.493 283.197 644.151 283.208C643.821 283.208 643.501 283.24 643.191 283.304C642.882 283.368 642.631 283.501 642.439 283.704C642.258 283.907 642.167 284.173 642.167 284.504C642.167 284.749 642.215 284.957 642.311 285.128C642.407 285.299 642.535 285.443 642.695 285.56C642.866 285.677 643.058 285.763 643.271 285.816C643.485 285.869 643.703 285.896 643.927 285.896C644.727 285.896 645.357 285.704 645.815 285.32C646.285 284.925 646.525 284.355 646.535 283.608V283.192H645.047ZM649.97 287V278.568H651.282L651.346 279.848C651.485 279.613 651.656 279.411 651.858 279.24C652.072 279.069 652.301 278.925 652.546 278.808C652.792 278.691 653.048 278.605 653.314 278.552C653.592 278.499 653.858 278.472 654.114 278.472C654.722 278.472 655.234 278.573 655.65 278.776C656.066 278.968 656.397 279.24 656.642 279.592C656.888 279.933 657.064 280.344 657.17 280.824C657.277 281.293 657.33 281.8 657.33 282.344V287H655.97V282.712C655.97 282.317 655.944 281.939 655.89 281.576C655.848 281.213 655.752 280.893 655.602 280.616C655.464 280.328 655.261 280.099 654.994 279.928C654.728 279.757 654.37 279.672 653.922 279.672C653.485 279.683 653.096 279.789 652.754 279.992C652.424 280.195 652.157 280.435 651.954 280.712C651.709 281.064 651.544 281.453 651.458 281.88C651.373 282.296 651.33 282.717 651.33 283.144V287H649.97ZM662.776 278.568H664.312L666.968 285.688L669.576 278.568H671.128L667.88 287H666.024L662.776 278.568ZM673.098 275.48C673.354 275.48 673.573 275.565 673.754 275.736C673.936 275.896 674.026 276.109 674.026 276.376C674.026 276.643 673.936 276.861 673.754 277.032C673.573 277.203 673.354 277.288 673.098 277.288C672.832 277.288 672.613 277.203 672.442 277.032C672.272 276.861 672.186 276.643 672.186 276.376C672.186 276.109 672.272 275.896 672.442 275.736C672.613 275.565 672.832 275.48 673.098 275.48ZM672.426 287V278.568H673.786V287H672.426ZM677.105 283.288C677.137 283.661 677.211 284.008 677.329 284.328C677.457 284.637 677.627 284.909 677.841 285.144C678.054 285.379 678.315 285.565 678.625 285.704C678.945 285.832 679.313 285.896 679.729 285.896C679.931 285.896 680.139 285.88 680.353 285.848C680.577 285.805 680.785 285.741 680.977 285.656C681.169 285.56 681.339 285.437 681.489 285.288C681.638 285.139 681.75 284.957 681.825 284.744H683.217C683.121 285.149 682.955 285.501 682.721 285.8C682.497 286.099 682.225 286.344 681.905 286.536C681.595 286.728 681.249 286.872 680.865 286.968C680.481 287.053 680.091 287.096 679.697 287.096C679.025 287.096 678.438 286.989 677.937 286.776C677.446 286.563 677.035 286.269 676.705 285.896C676.374 285.512 676.129 285.059 675.969 284.536C675.809 284.003 675.729 283.421 675.729 282.792C675.729 282.163 675.814 281.587 675.985 281.064C676.166 280.531 676.422 280.072 676.753 279.688C677.083 279.304 677.489 279.005 677.969 278.792C678.449 278.579 679.019 278.472 679.681 278.472C680.353 278.472 680.934 278.605 681.425 278.872C681.915 279.139 682.31 279.491 682.609 279.928C682.907 280.355 683.115 280.819 683.233 281.32C683.361 281.821 683.414 282.285 683.393 282.712C683.393 282.808 683.387 282.904 683.377 283C683.377 283.096 683.371 283.192 683.361 283.288H677.105ZM682.017 282.104C681.995 281.389 681.771 280.808 681.345 280.36C680.918 279.912 680.347 279.688 679.633 279.688C679.238 279.688 678.891 279.752 678.593 279.88C678.294 280.008 678.043 280.184 677.841 280.408C677.638 280.632 677.478 280.893 677.361 281.192C677.243 281.48 677.169 281.784 677.137 282.104H682.017ZM684.34 278.568H685.876L687.892 285.688L689.972 278.568H691.812L693.908 285.688L695.892 278.568H697.444L694.82 287H692.964L690.884 280.168L688.804 287H686.964L684.34 278.568ZM703.801 275.48C704.057 275.48 704.276 275.565 704.457 275.736C704.639 275.896 704.729 276.109 704.729 276.376C704.729 276.643 704.639 276.861 704.457 277.032C704.276 277.203 704.057 277.288 703.801 277.288C703.535 277.288 703.316 277.203 703.145 277.032C702.975 276.861 702.889 276.643 702.889 276.376C702.889 276.109 702.975 275.896 703.145 275.736C703.316 275.565 703.535 275.48 703.801 275.48ZM703.129 287V278.568H704.489V287H703.129ZM708.88 278.568H711.472V279.768H708.88V284.152C708.88 284.397 708.89 284.627 708.912 284.84C708.944 285.043 708.997 285.224 709.072 285.384C709.157 285.533 709.274 285.656 709.424 285.752C709.584 285.837 709.797 285.885 710.064 285.896C710.309 285.896 710.522 285.853 710.704 285.768C710.896 285.683 711.056 285.581 711.184 285.464L711.776 286.456C711.498 286.691 711.21 286.856 710.912 286.952C710.613 287.048 710.282 287.096 709.92 287.096C709.461 287.096 709.077 287.032 708.768 286.904C708.458 286.765 708.197 286.568 707.984 286.312C707.802 286.067 707.68 285.779 707.616 285.448C707.552 285.117 707.52 284.744 707.52 284.328V279.768H706.144V278.568H707.52V276.04H708.88V278.568ZM716.528 278.568H718.064L720.08 285.688L722.16 278.568H724L726.096 285.688L728.08 278.568H729.632L727.008 287H725.152L723.072 280.168L720.992 287H719.152L716.528 278.568ZM730.892 287V275.688H732.252V279.864C732.391 279.651 732.567 279.453 732.78 279.272C732.994 279.091 733.218 278.941 733.452 278.824C733.687 278.707 733.943 278.621 734.22 278.568C734.508 278.504 734.786 278.472 735.052 278.472C735.66 278.472 736.167 278.573 736.572 278.776C736.988 278.968 737.319 279.24 737.564 279.592C737.82 279.933 737.996 280.344 738.092 280.824C738.199 281.293 738.252 281.805 738.252 282.36V287H736.892V282.776C736.892 282.392 736.871 282.019 736.828 281.656C736.786 281.283 736.69 280.952 736.54 280.664C736.391 280.376 736.178 280.141 735.9 279.96C735.623 279.768 735.244 279.672 734.764 279.672C734.37 279.672 734.002 279.773 733.66 279.976C733.33 280.168 733.063 280.413 732.86 280.712C732.615 281.043 732.45 281.411 732.364 281.816C732.29 282.221 732.252 282.637 732.252 283.064V287H730.892ZM741.401 283.288C741.433 283.661 741.508 284.008 741.625 284.328C741.753 284.637 741.924 284.909 742.137 285.144C742.351 285.379 742.612 285.565 742.921 285.704C743.241 285.832 743.609 285.896 744.025 285.896C744.228 285.896 744.436 285.88 744.649 285.848C744.873 285.805 745.081 285.741 745.273 285.656C745.465 285.56 745.636 285.437 745.785 285.288C745.935 285.139 746.047 284.957 746.121 284.744H747.513C747.417 285.149 747.252 285.501 747.017 285.8C746.793 286.099 746.521 286.344 746.201 286.536C745.892 286.728 745.545 286.872 745.161 286.968C744.777 287.053 744.388 287.096 743.993 287.096C743.321 287.096 742.735 286.989 742.233 286.776C741.743 286.563 741.332 286.269 741.001 285.896C740.671 285.512 740.425 285.059 740.265 284.536C740.105 284.003 740.025 283.421 740.025 282.792C740.025 282.163 740.111 281.587 740.281 281.064C740.463 280.531 740.719 280.072 741.049 279.688C741.38 279.304 741.785 279.005 742.265 278.792C742.745 278.579 743.316 278.472 743.977 278.472C744.649 278.472 745.231 278.605 745.721 278.872C746.212 279.139 746.607 279.491 746.905 279.928C747.204 280.355 747.412 280.819 747.529 281.32C747.657 281.821 747.711 282.285 747.689 282.712C747.689 282.808 747.684 282.904 747.673 283C747.673 283.096 747.668 283.192 747.657 283.288H741.401ZM746.313 282.104C746.292 281.389 746.068 280.808 745.641 280.36C745.215 279.912 744.644 279.688 743.929 279.688C743.535 279.688 743.188 279.752 742.889 279.88C742.591 280.008 742.34 280.184 742.137 280.408C741.935 280.632 741.775 280.893 741.657 281.192C741.54 281.48 741.465 281.784 741.433 282.104H746.313ZM749.517 287V278.568H750.829L750.893 279.848C751.032 279.613 751.203 279.411 751.405 279.24C751.619 279.069 751.848 278.925 752.093 278.808C752.339 278.691 752.595 278.605 752.861 278.552C753.139 278.499 753.405 278.472 753.661 278.472C754.269 278.472 754.781 278.573 755.197 278.776C755.613 278.968 755.944 279.24 756.189 279.592C756.435 279.933 756.611 280.344 756.717 280.824C756.824 281.293 756.877 281.8 756.877 282.344V287H755.517V282.712C755.517 282.317 755.491 281.939 755.437 281.576C755.395 281.213 755.299 280.893 755.149 280.616C755.011 280.328 754.808 280.099 754.541 279.928C754.275 279.757 753.917 279.672 753.469 279.672C753.032 279.683 752.643 279.789 752.301 279.992C751.971 280.195 751.704 280.435 751.501 280.712C751.256 281.064 751.091 281.453 751.005 281.88C750.92 282.296 750.877 282.717 750.877 283.144V287H749.517ZM766.883 287.096C766.211 287.096 765.63 286.989 765.139 286.776C764.648 286.563 764.243 286.264 763.923 285.88C763.603 285.496 763.363 285.043 763.203 284.52C763.043 283.997 762.963 283.427 762.963 282.808C762.963 282.211 763.048 281.651 763.219 281.128C763.39 280.595 763.64 280.136 763.971 279.752C764.302 279.357 764.718 279.048 765.219 278.824C765.72 278.589 766.328 278.472 767.043 278.472C767.47 278.472 767.848 278.52 768.179 278.616C768.51 278.701 768.819 278.845 769.107 279.048C769.406 279.24 769.662 279.496 769.875 279.816C770.088 280.136 770.243 280.525 770.339 280.984H768.947C768.787 280.515 768.531 280.179 768.179 279.976C767.838 279.773 767.432 279.677 766.963 279.688C766.504 279.688 766.099 279.779 765.747 279.96C765.406 280.131 765.128 280.36 764.915 280.648C764.712 280.936 764.563 281.272 764.467 281.656C764.371 282.029 764.323 282.413 764.323 282.808C764.323 283.224 764.371 283.619 764.467 283.992C764.574 284.365 764.728 284.696 764.931 284.984C765.144 285.261 765.416 285.485 765.747 285.656C766.078 285.816 766.472 285.896 766.931 285.896C767.155 285.896 767.374 285.875 767.587 285.832C767.811 285.789 768.014 285.72 768.195 285.624C768.387 285.517 768.552 285.379 768.691 285.208C768.83 285.037 768.931 284.829 768.995 284.584H770.403C770.318 285.021 770.163 285.4 769.939 285.72C769.726 286.029 769.459 286.291 769.139 286.504C768.819 286.707 768.467 286.856 768.083 286.952C767.699 287.048 767.299 287.096 766.883 287.096ZM772.127 287V275.688H773.487V287H772.127ZM776.411 275.48C776.667 275.48 776.885 275.565 777.067 275.736C777.248 275.896 777.339 276.109 777.339 276.376C777.339 276.643 777.248 276.861 777.067 277.032C776.885 277.203 776.667 277.288 776.411 277.288C776.144 277.288 775.925 277.203 775.755 277.032C775.584 276.861 775.499 276.643 775.499 276.376C775.499 276.109 775.584 275.896 775.755 275.736C775.925 275.565 776.144 275.48 776.411 275.48ZM775.739 287V278.568H777.099V287H775.739ZM782.961 287.096C782.289 287.096 781.708 286.989 781.217 286.776C780.726 286.563 780.321 286.264 780.001 285.88C779.681 285.496 779.441 285.043 779.281 284.52C779.121 283.997 779.041 283.427 779.041 282.808C779.041 282.211 779.126 281.651 779.297 281.128C779.468 280.595 779.718 280.136 780.049 279.752C780.38 279.357 780.796 279.048 781.297 278.824C781.798 278.589 782.406 278.472 783.121 278.472C783.548 278.472 783.926 278.52 784.257 278.616C784.588 278.701 784.897 278.845 785.185 279.048C785.484 279.24 785.74 279.496 785.953 279.816C786.166 280.136 786.321 280.525 786.417 280.984H785.025C784.865 280.515 784.609 280.179 784.257 279.976C783.916 279.773 783.51 279.677 783.041 279.688C782.582 279.688 782.177 279.779 781.825 279.96C781.484 280.131 781.206 280.36 780.993 280.648C780.79 280.936 780.641 281.272 780.545 281.656C780.449 282.029 780.401 282.413 780.401 282.808C780.401 283.224 780.449 283.619 780.545 283.992C780.652 284.365 780.806 284.696 781.009 284.984C781.222 285.261 781.494 285.485 781.825 285.656C782.156 285.816 782.55 285.896 783.009 285.896C783.233 285.896 783.452 285.875 783.665 285.832C783.889 285.789 784.092 285.72 784.273 285.624C784.465 285.517 784.63 285.379 784.769 285.208C784.908 285.037 785.009 284.829 785.073 284.584H786.481C786.396 285.021 786.241 285.4 786.017 285.72C785.804 286.029 785.537 286.291 785.217 286.504C784.897 286.707 784.545 286.856 784.161 286.952C783.777 287.048 783.377 287.096 782.961 287.096ZM788.205 287V275.688H789.565V282.2H791.037L793.565 278.568H795.101L792.285 282.584L795.341 287H793.741L791.197 283.384H789.565V287H788.205ZM797.301 275.48C797.557 275.48 797.776 275.565 797.957 275.736C798.139 275.896 798.229 276.109 798.229 276.376C798.229 276.643 798.139 276.861 797.957 277.032C797.776 277.203 797.557 277.288 797.301 277.288C797.035 277.288 796.816 277.203 796.645 277.032C796.475 276.861 796.389 276.643 796.389 276.376C796.389 276.109 796.475 275.896 796.645 275.736C796.816 275.565 797.035 275.48 797.301 275.48ZM796.629 287V278.568H797.989V287H796.629ZM800.252 287V278.568H801.564L801.628 279.848C801.766 279.613 801.937 279.411 802.14 279.24C802.353 279.069 802.582 278.925 802.828 278.808C803.073 278.691 803.329 278.605 803.596 278.552C803.873 278.499 804.14 278.472 804.396 278.472C805.004 278.472 805.516 278.573 805.932 278.776C806.348 278.968 806.678 279.24 806.924 279.592C807.169 279.933 807.345 280.344 807.452 280.824C807.558 281.293 807.612 281.8 807.612 282.344V287H806.252V282.712C806.252 282.317 806.225 281.939 806.172 281.576C806.129 281.213 806.033 280.893 805.884 280.616C805.745 280.328 805.542 280.099 805.276 279.928C805.009 279.757 804.652 279.672 804.204 279.672C803.766 279.683 803.377 279.789 803.036 279.992C802.705 280.195 802.438 280.435 802.236 280.712C801.99 281.064 801.825 281.453 801.74 281.88C801.654 282.296 801.612 282.717 801.612 283.144V287H800.252ZM817.225 286.936C817.225 288.131 816.905 289.069 816.265 289.752C815.625 290.435 814.659 290.776 813.369 290.776C812.942 290.776 812.531 290.728 812.137 290.632C811.753 290.536 811.401 290.381 811.081 290.168C810.771 289.965 810.505 289.704 810.281 289.384C810.067 289.075 809.918 288.701 809.833 288.264H811.241C811.305 288.509 811.411 288.712 811.561 288.872C811.721 289.043 811.902 289.176 812.105 289.272C812.307 289.379 812.526 289.453 812.761 289.496C812.995 289.539 813.225 289.56 813.449 289.56C813.875 289.56 814.243 289.491 814.553 289.352C814.862 289.224 815.113 289.043 815.305 288.808C815.497 288.573 815.635 288.291 815.721 287.96C815.817 287.64 815.865 287.288 815.865 286.904V285.736C815.587 286.227 815.193 286.579 814.681 286.792C814.169 286.995 813.635 287.096 813.081 287.096C812.441 287.085 811.886 286.973 811.417 286.76C810.947 286.536 810.563 286.232 810.265 285.848C809.966 285.464 809.742 285.016 809.593 284.504C809.454 283.981 809.385 283.416 809.385 282.808C809.385 282.2 809.459 281.635 809.609 281.112C809.758 280.579 809.987 280.12 810.297 279.736C810.606 279.341 810.995 279.032 811.465 278.808C811.934 278.584 812.494 278.472 813.145 278.472C813.635 278.472 814.131 278.563 814.633 278.744C815.134 278.925 815.545 279.219 815.865 279.624L815.929 278.568H817.225V286.936ZM813.257 279.688C812.798 279.688 812.409 279.773 812.089 279.944C811.769 280.104 811.507 280.323 811.305 280.6C811.113 280.877 810.969 281.208 810.873 281.592C810.787 281.965 810.745 282.365 810.745 282.792C810.745 283.261 810.787 283.677 810.873 284.04C810.958 284.392 811.102 284.707 811.305 284.984C811.507 285.261 811.769 285.485 812.089 285.656C812.409 285.816 812.803 285.896 813.273 285.896C813.817 285.896 814.265 285.768 814.617 285.512C814.969 285.256 815.251 284.936 815.465 284.552C815.614 284.285 815.721 283.997 815.785 283.688C815.849 283.368 815.881 283.053 815.881 282.744C815.881 282.36 815.843 282.008 815.769 281.688C815.705 281.368 815.582 281.069 815.401 280.792C815.187 280.483 814.905 280.221 814.553 280.008C814.201 279.795 813.769 279.688 813.257 279.688ZM827.386 278.472C828.058 278.472 828.639 278.579 829.13 278.792C829.62 279.005 830.031 279.304 830.362 279.688C830.703 280.072 830.954 280.531 831.114 281.064C831.284 281.587 831.37 282.163 831.37 282.792C831.37 283.421 831.284 284.003 831.114 284.536C830.954 285.059 830.703 285.512 830.362 285.896C830.031 286.269 829.615 286.563 829.114 286.776C828.612 286.989 828.026 287.096 827.354 287.096C826.682 287.096 826.095 286.989 825.594 286.776C825.103 286.563 824.687 286.269 824.346 285.896C824.015 285.512 823.764 285.059 823.594 284.536C823.434 284.003 823.354 283.421 823.354 282.792C823.354 282.163 823.434 281.587 823.594 281.064C823.764 280.531 824.015 280.072 824.346 279.688C824.687 279.304 825.114 279.005 825.626 278.792C826.138 278.579 826.724 278.472 827.386 278.472ZM827.354 285.896C827.812 285.896 828.207 285.816 828.538 285.656C828.879 285.496 829.156 285.277 829.37 285C829.594 284.712 829.754 284.381 829.85 284.008C829.956 283.635 830.01 283.229 830.01 282.792C830.01 282.365 829.956 281.965 829.85 281.592C829.754 281.208 829.594 280.877 829.37 280.6C829.156 280.312 828.879 280.088 828.538 279.928C828.207 279.768 827.812 279.688 827.354 279.688C826.895 279.688 826.5 279.768 826.17 279.928C825.839 280.088 825.562 280.312 825.338 280.6C825.124 280.877 824.964 281.208 824.858 281.592C824.762 281.965 824.714 282.365 824.714 282.792C824.714 283.229 824.762 283.635 824.858 284.008C824.964 284.381 825.124 284.712 825.338 285C825.562 285.277 825.839 285.496 826.17 285.656C826.5 285.816 826.895 285.896 827.354 285.896ZM833.189 287V278.568H834.501L834.565 279.848C834.704 279.613 834.875 279.411 835.077 279.24C835.291 279.069 835.52 278.925 835.765 278.808C836.011 278.691 836.267 278.605 836.533 278.552C836.811 278.499 837.077 278.472 837.333 278.472C837.941 278.472 838.453 278.573 838.869 278.776C839.285 278.968 839.616 279.24 839.861 279.592C840.107 279.933 840.283 280.344 840.389 280.824C840.496 281.293 840.549 281.8 840.549 282.344V287H839.189V282.712C839.189 282.317 839.163 281.939 839.109 281.576C839.067 281.213 838.971 280.893 838.821 280.616C838.683 280.328 838.48 280.099 838.213 279.928C837.947 279.757 837.589 279.672 837.141 279.672C836.704 279.683 836.315 279.789 835.973 279.992C835.643 280.195 835.376 280.435 835.173 280.712C834.928 281.064 834.763 281.453 834.677 281.88C834.592 282.296 834.549 282.717 834.549 283.144V287H833.189ZM657.153 300.568H659.409V301.768H657.153V306.136C657.153 306.712 657.265 307.139 657.489 307.416C657.713 307.683 658.129 307.816 658.737 307.816H659.361V309H658.449C657.489 309 656.806 308.781 656.401 308.344C655.996 307.907 655.793 307.219 655.793 306.28V301.768H654.417V300.568H655.793V298.056H657.153V300.568ZM660.947 309V297.688H662.307V301.864C662.446 301.651 662.622 301.453 662.835 301.272C663.048 301.091 663.272 300.941 663.507 300.824C663.742 300.707 663.998 300.621 664.275 300.568C664.563 300.504 664.84 300.472 665.107 300.472C665.715 300.472 666.222 300.573 666.627 300.776C667.043 300.968 667.374 301.24 667.619 301.592C667.875 301.933 668.051 302.344 668.147 302.824C668.254 303.293 668.307 303.805 668.307 304.36V309H666.947V304.776C666.947 304.392 666.926 304.019 666.883 303.656C666.84 303.283 666.744 302.952 666.595 302.664C666.446 302.376 666.232 302.141 665.955 301.96C665.678 301.768 665.299 301.672 664.819 301.672C664.424 301.672 664.056 301.773 663.715 301.976C663.384 302.168 663.118 302.413 662.915 302.712C662.67 303.043 662.504 303.411 662.419 303.816C662.344 304.221 662.307 304.637 662.307 305.064V309H660.947ZM671.456 305.288C671.488 305.661 671.563 306.008 671.68 306.328C671.808 306.637 671.979 306.909 672.192 307.144C672.405 307.379 672.667 307.565 672.976 307.704C673.296 307.832 673.664 307.896 674.08 307.896C674.283 307.896 674.491 307.88 674.704 307.848C674.928 307.805 675.136 307.741 675.328 307.656C675.52 307.56 675.691 307.437 675.84 307.288C675.989 307.139 676.101 306.957 676.176 306.744H677.568C677.472 307.149 677.307 307.501 677.072 307.8C676.848 308.099 676.576 308.344 676.256 308.536C675.947 308.728 675.6 308.872 675.216 308.968C674.832 309.053 674.443 309.096 674.048 309.096C673.376 309.096 672.789 308.989 672.288 308.776C671.797 308.563 671.387 308.269 671.056 307.896C670.725 307.512 670.48 307.059 670.32 306.536C670.16 306.003 670.08 305.421 670.08 304.792C670.08 304.163 670.165 303.587 670.336 303.064C670.517 302.531 670.773 302.072 671.104 301.688C671.435 301.304 671.84 301.005 672.32 300.792C672.8 300.579 673.371 300.472 674.032 300.472C674.704 300.472 675.285 300.605 675.776 300.872C676.267 301.139 676.661 301.491 676.96 301.928C677.259 302.355 677.467 302.819 677.584 303.32C677.712 303.821 677.765 304.285 677.744 304.712C677.744 304.808 677.739 304.904 677.728 305C677.728 305.096 677.723 305.192 677.712 305.288H671.456ZM676.368 304.104C676.347 303.389 676.123 302.808 675.696 302.36C675.269 301.912 674.699 301.688 673.984 301.688C673.589 301.688 673.243 301.752 672.944 301.88C672.645 302.008 672.395 302.184 672.192 302.408C671.989 302.632 671.829 302.893 671.712 303.192C671.595 303.48 671.52 303.784 671.488 304.104H676.368ZM683.885 309V297.688H685.245V301.816C685.522 301.389 685.917 301.059 686.429 300.824C686.951 300.579 687.485 300.461 688.029 300.472C688.669 300.472 689.218 300.584 689.677 300.808C690.146 301.032 690.53 301.336 690.829 301.72C691.138 302.104 691.362 302.563 691.501 303.096C691.65 303.619 691.725 304.184 691.725 304.792C691.725 305.4 691.65 305.965 691.501 306.488C691.362 307 691.138 307.448 690.829 307.832C690.519 308.216 690.125 308.52 689.645 308.744C689.175 308.968 688.615 309.085 687.965 309.096H687.789C687.213 309.096 686.711 308.995 686.285 308.792C685.869 308.589 685.522 308.317 685.245 307.976L685.181 309H683.885ZM687.853 307.896C688.311 307.896 688.695 307.816 689.005 307.656C689.325 307.485 689.581 307.261 689.773 306.984C689.975 306.696 690.119 306.365 690.205 305.992C690.301 305.619 690.354 305.219 690.365 304.792C690.365 304.365 690.317 303.965 690.221 303.592C690.135 303.208 689.991 302.877 689.789 302.6C689.586 302.323 689.319 302.104 688.989 301.944C688.669 301.773 688.279 301.688 687.821 301.688C687.565 301.688 687.314 301.731 687.069 301.816C686.823 301.901 686.605 302.019 686.413 302.168C686.221 302.307 686.05 302.467 685.901 302.648C685.762 302.829 685.645 303.021 685.549 303.224C685.431 303.469 685.346 303.731 685.293 304.008C685.239 304.285 685.213 304.552 685.213 304.808C685.213 305.085 685.229 305.373 685.261 305.672C685.303 305.96 685.389 306.227 685.517 306.472C685.709 306.877 686.002 307.219 686.397 307.496C686.791 307.763 687.277 307.896 687.853 307.896ZM697.061 307.896C697.829 307.896 698.389 307.667 698.741 307.208C699.103 306.739 699.285 306.088 699.285 305.256V300.568H700.645V305.32C700.645 306.6 700.335 307.549 699.717 308.168C699.109 308.787 698.223 309.096 697.061 309.096C695.898 309.096 695.013 308.787 694.405 308.168C693.807 307.549 693.509 306.6 693.509 305.32V300.568H694.869V305.256C694.869 306.088 695.05 306.739 695.413 307.208C695.775 307.667 696.325 307.896 697.061 307.896ZM704.888 300.568H707.48V301.768H704.888V306.152C704.888 306.397 704.898 306.627 704.92 306.84C704.952 307.043 705.005 307.224 705.08 307.384C705.165 307.533 705.282 307.656 705.432 307.752C705.592 307.837 705.805 307.885 706.072 307.896C706.317 307.896 706.53 307.853 706.712 307.768C706.904 307.683 707.064 307.581 707.192 307.464L707.784 308.456C707.506 308.691 707.218 308.856 706.92 308.952C706.621 309.048 706.29 309.096 705.928 309.096C705.469 309.096 705.085 309.032 704.776 308.904C704.466 308.765 704.205 308.568 703.992 308.312C703.81 308.067 703.688 307.779 703.624 307.448C703.56 307.117 703.528 306.744 703.528 306.328V301.768H702.152V300.568H703.528V298.04H704.888V300.568ZM711.231 300.568H713.823V301.768H711.231V306.152C711.231 306.397 711.242 306.627 711.263 306.84C711.295 307.043 711.349 307.224 711.423 307.384C711.509 307.533 711.626 307.656 711.775 307.752C711.935 307.837 712.149 307.885 712.415 307.896C712.661 307.896 712.874 307.853 713.055 307.768C713.247 307.683 713.407 307.581 713.535 307.464L714.127 308.456C713.85 308.691 713.562 308.856 713.263 308.952C712.965 309.048 712.634 309.096 712.271 309.096C711.813 309.096 711.429 309.032 711.119 308.904C710.81 308.765 710.549 308.568 710.335 308.312C710.154 308.067 710.031 307.779 709.967 307.448C709.903 307.117 709.871 306.744 709.871 306.328V301.768H708.495V300.568H709.871V298.04H711.231V300.568ZM719.159 300.472C719.831 300.472 720.412 300.579 720.903 300.792C721.394 301.005 721.804 301.304 722.135 301.688C722.476 302.072 722.727 302.531 722.887 303.064C723.058 303.587 723.143 304.163 723.143 304.792C723.143 305.421 723.058 306.003 722.887 306.536C722.727 307.059 722.476 307.512 722.135 307.896C721.804 308.269 721.388 308.563 720.887 308.776C720.386 308.989 719.799 309.096 719.127 309.096C718.455 309.096 717.868 308.989 717.367 308.776C716.876 308.563 716.46 308.269 716.119 307.896C715.788 307.512 715.538 307.059 715.367 306.536C715.207 306.003 715.127 305.421 715.127 304.792C715.127 304.163 715.207 303.587 715.367 303.064C715.538 302.531 715.788 302.072 716.119 301.688C716.46 301.304 716.887 301.005 717.399 300.792C717.911 300.579 718.498 300.472 719.159 300.472ZM719.127 307.896C719.586 307.896 719.98 307.816 720.311 307.656C720.652 307.496 720.93 307.277 721.143 307C721.367 306.712 721.527 306.381 721.623 306.008C721.73 305.635 721.783 305.229 721.783 304.792C721.783 304.365 721.73 303.965 721.623 303.592C721.527 303.208 721.367 302.877 721.143 302.6C720.93 302.312 720.652 302.088 720.311 301.928C719.98 301.768 719.586 301.688 719.127 301.688C718.668 301.688 718.274 301.768 717.943 301.928C717.612 302.088 717.335 302.312 717.111 302.6C716.898 302.877 716.738 303.208 716.631 303.592C716.535 303.965 716.487 304.365 716.487 304.792C716.487 305.229 716.535 305.635 716.631 306.008C716.738 306.381 716.898 306.712 717.111 307C717.335 307.277 717.612 307.496 717.943 307.656C718.274 307.816 718.668 307.896 719.127 307.896ZM724.963 309V300.568H726.275L726.339 301.848C726.477 301.613 726.648 301.411 726.851 301.24C727.064 301.069 727.293 300.925 727.539 300.808C727.784 300.691 728.04 300.605 728.307 300.552C728.584 300.499 728.851 300.472 729.107 300.472C729.715 300.472 730.227 300.573 730.643 300.776C731.059 300.968 731.389 301.24 731.635 301.592C731.88 301.933 732.056 302.344 732.163 302.824C732.269 303.293 732.323 303.8 732.323 304.344V309H730.963V304.712C730.963 304.317 730.936 303.939 730.883 303.576C730.84 303.213 730.744 302.893 730.595 302.616C730.456 302.328 730.253 302.099 729.987 301.928C729.72 301.757 729.363 301.672 728.915 301.672C728.477 301.683 728.088 301.789 727.747 301.992C727.416 302.195 727.149 302.435 726.947 302.712C726.701 303.064 726.536 303.453 726.451 303.88C726.365 304.296 726.323 304.717 726.323 305.144V309H724.963ZM738.728 309V297.688H740.088V301.816C740.366 301.389 740.76 301.059 741.272 300.824C741.795 300.579 742.328 300.461 742.872 300.472C743.512 300.472 744.062 300.584 744.52 300.808C744.99 301.032 745.374 301.336 745.672 301.72C745.982 302.104 746.206 302.563 746.344 303.096C746.494 303.619 746.568 304.184 746.568 304.792C746.568 305.4 746.494 305.965 746.344 306.488C746.206 307 745.982 307.448 745.672 307.832C745.363 308.216 744.968 308.52 744.488 308.744C744.019 308.968 743.459 309.085 742.808 309.096H742.632C742.056 309.096 741.555 308.995 741.128 308.792C740.712 308.589 740.366 308.317 740.088 307.976L740.024 309H738.728ZM742.696 307.896C743.155 307.896 743.539 307.816 743.848 307.656C744.168 307.485 744.424 307.261 744.616 306.984C744.819 306.696 744.963 306.365 745.048 305.992C745.144 305.619 745.198 305.219 745.208 304.792C745.208 304.365 745.16 303.965 745.064 303.592C744.979 303.208 744.835 302.877 744.632 302.6C744.43 302.323 744.163 302.104 743.832 301.944C743.512 301.773 743.123 301.688 742.664 301.688C742.408 301.688 742.158 301.731 741.912 301.816C741.667 301.901 741.448 302.019 741.256 302.168C741.064 302.307 740.894 302.467 740.744 302.648C740.606 302.829 740.488 303.021 740.392 303.224C740.275 303.469 740.19 303.731 740.136 304.008C740.083 304.285 740.056 304.552 740.056 304.808C740.056 305.085 740.072 305.373 740.104 305.672C740.147 305.96 740.232 306.227 740.36 306.472C740.552 306.877 740.846 307.219 741.24 307.496C741.635 307.763 742.12 307.896 742.696 307.896ZM749.441 305.288C749.473 305.661 749.547 306.008 749.664 306.328C749.793 306.637 749.963 306.909 750.177 307.144C750.39 307.379 750.651 307.565 750.961 307.704C751.281 307.832 751.649 307.896 752.065 307.896C752.267 307.896 752.475 307.88 752.689 307.848C752.913 307.805 753.121 307.741 753.313 307.656C753.505 307.56 753.675 307.437 753.825 307.288C753.974 307.139 754.086 306.957 754.161 306.744H755.553C755.457 307.149 755.291 307.501 755.057 307.8C754.833 308.099 754.561 308.344 754.241 308.536C753.931 308.728 753.585 308.872 753.201 308.968C752.817 309.053 752.427 309.096 752.033 309.096C751.361 309.096 750.774 308.989 750.273 308.776C749.782 308.563 749.371 308.269 749.041 307.896C748.71 307.512 748.465 307.059 748.305 306.536C748.145 306.003 748.065 305.421 748.065 304.792C748.065 304.163 748.15 303.587 748.321 303.064C748.502 302.531 748.758 302.072 749.089 301.688C749.419 301.304 749.825 301.005 750.305 300.792C750.785 300.579 751.355 300.472 752.016 300.472C752.689 300.472 753.27 300.605 753.761 300.872C754.251 301.139 754.646 301.491 754.945 301.928C755.243 302.355 755.451 302.819 755.569 303.32C755.697 303.821 755.75 304.285 755.729 304.712C755.729 304.808 755.723 304.904 755.713 305C755.713 305.096 755.707 305.192 755.697 305.288H749.441ZM754.353 304.104C754.331 303.389 754.107 302.808 753.681 302.36C753.254 301.912 752.683 301.688 751.969 301.688C751.574 301.688 751.227 301.752 750.929 301.88C750.63 302.008 750.379 302.184 750.177 302.408C749.974 302.632 749.814 302.893 749.697 303.192C749.579 303.48 749.505 303.784 749.473 304.104H754.353ZM757.556 309V297.688H758.916V309H757.556ZM764.768 300.472C765.44 300.472 766.022 300.579 766.512 300.792C767.003 301.005 767.414 301.304 767.744 301.688C768.086 302.072 768.336 302.531 768.496 303.064C768.667 303.587 768.752 304.163 768.752 304.792C768.752 305.421 768.667 306.003 768.496 306.536C768.336 307.059 768.086 307.512 767.744 307.896C767.414 308.269 766.998 308.563 766.496 308.776C765.995 308.989 765.408 309.096 764.736 309.096C764.064 309.096 763.478 308.989 762.976 308.776C762.486 308.563 762.07 308.269 761.728 307.896C761.398 307.512 761.147 307.059 760.976 306.536C760.816 306.003 760.736 305.421 760.736 304.792C760.736 304.163 760.816 303.587 760.976 303.064C761.147 302.531 761.398 302.072 761.728 301.688C762.07 301.304 762.496 301.005 763.008 300.792C763.52 300.579 764.107 300.472 764.768 300.472ZM764.736 307.896C765.195 307.896 765.59 307.816 765.92 307.656C766.262 307.496 766.539 307.277 766.752 307C766.976 306.712 767.136 306.381 767.232 306.008C767.339 305.635 767.392 305.229 767.392 304.792C767.392 304.365 767.339 303.965 767.232 303.592C767.136 303.208 766.976 302.877 766.752 302.6C766.539 302.312 766.262 302.088 765.92 301.928C765.59 301.768 765.195 301.688 764.736 301.688C764.278 301.688 763.883 301.768 763.552 301.928C763.222 302.088 762.944 302.312 762.72 302.6C762.507 302.877 762.347 303.208 762.24 303.592C762.144 303.965 762.096 304.365 762.096 304.792C762.096 305.229 762.144 305.635 762.24 306.008C762.347 306.381 762.507 306.712 762.72 307C762.944 307.277 763.222 307.496 763.552 307.656C763.883 307.816 764.278 307.896 764.736 307.896ZM769.692 300.568H771.228L773.244 307.688L775.324 300.568H777.164L779.26 307.688L781.244 300.568H782.796L780.172 309H778.316L776.236 302.168L774.156 309H772.316L769.692 300.568ZM785.016 307.208C785.294 307.208 785.523 307.299 785.704 307.48C785.886 307.661 785.976 307.891 785.976 308.168C785.976 308.445 785.886 308.675 785.704 308.856C785.523 309.037 785.294 309.128 785.016 309.128C784.739 309.128 784.51 309.037 784.328 308.856C784.147 308.675 784.056 308.445 784.056 308.168C784.056 307.891 784.147 307.661 784.328 307.48C784.51 307.299 784.739 307.208 785.016 307.208Z" fill="#72757D"/>
<rect x="642" y="362" width="156" height="56" rx="28" fill="#0B8CE9"/>
<path d="M672 398H684" stroke="white" stroke-width="1.5" stroke-linecap="round" stroke-linejoin="round"/>
<path d="M678 382V394M678 394L681.5 390.5M678 394L674.5 390.5" stroke="white" stroke-width="1.5" stroke-linecap="round" stroke-linejoin="round"/>
<path d="M699.427 383.688H703.523C704.419 383.688 705.208 383.821 705.891 384.088C706.584 384.344 707.16 384.717 707.619 385.208C708.088 385.688 708.44 386.28 708.675 386.984C708.909 387.688 709.027 388.477 709.027 389.352C709.027 390.237 708.909 391.027 708.675 391.72C708.44 392.413 708.093 393.005 707.635 393.496C707.187 393.987 706.621 394.36 705.939 394.616C705.267 394.872 704.483 395 703.587 395H699.427V383.688ZM701.283 385.352V393.352H703.539C704.157 393.352 704.691 393.256 705.139 393.064C705.587 392.872 705.955 392.605 706.243 392.264C706.541 391.912 706.76 391.491 706.899 391C707.048 390.509 707.123 389.96 707.123 389.352C707.123 388.093 706.813 387.112 706.195 386.408C705.587 385.704 704.696 385.352 703.523 385.352H701.283ZM714.348 386.424C715.02 386.424 715.612 386.531 716.124 386.744C716.636 386.957 717.068 387.256 717.42 387.64C717.783 388.013 718.055 388.467 718.236 389C718.417 389.533 718.508 390.125 718.508 390.776C718.508 391.437 718.417 392.035 718.236 392.568C718.065 393.091 717.804 393.544 717.452 393.928C717.1 394.312 716.663 394.605 716.14 394.808C715.628 395.011 715.031 395.112 714.348 395.112C713.676 395.112 713.084 395.011 712.572 394.808C712.06 394.595 711.628 394.301 711.276 393.928C710.935 393.544 710.673 393.085 710.492 392.552C710.321 392.019 710.236 391.427 710.236 390.776C710.236 390.125 710.321 389.533 710.492 389C710.673 388.467 710.94 388.013 711.292 387.64C711.644 387.256 712.076 386.957 712.588 386.744C713.1 386.531 713.687 386.424 714.348 386.424ZM714.348 393.528C714.764 393.528 715.116 393.459 715.404 393.32C715.703 393.171 715.943 392.973 716.124 392.728C716.316 392.483 716.455 392.195 716.54 391.864C716.636 391.533 716.684 391.176 716.684 390.792C716.684 390.408 716.636 390.051 716.54 389.72C716.455 389.379 716.316 389.085 716.124 388.84C715.943 388.595 715.703 388.403 715.404 388.264C715.116 388.125 714.764 388.056 714.348 388.056C713.943 388.056 713.596 388.125 713.308 388.264C713.02 388.403 712.78 388.595 712.588 388.84C712.396 389.085 712.252 389.379 712.156 389.72C712.071 390.051 712.028 390.408 712.028 390.792C712.028 391.176 712.071 391.533 712.156 391.864C712.252 392.195 712.391 392.483 712.572 392.728C712.764 392.973 713.004 393.171 713.292 393.32C713.591 393.459 713.943 393.528 714.348 393.528ZM719.125 386.568H721.141L722.901 393.064L724.805 386.568H726.853L728.757 393.064L730.517 386.568H732.469L729.845 395H727.701L725.797 388.792L723.941 395H721.733L719.125 386.568ZM733.408 395V386.568H735.152L735.248 387.736C735.557 387.299 735.941 386.973 736.4 386.76C736.869 386.536 737.365 386.424 737.888 386.424C738.485 386.424 738.987 386.525 739.392 386.728C739.808 386.931 740.144 387.208 740.4 387.56C740.667 387.912 740.853 388.328 740.96 388.808C741.077 389.288 741.136 389.811 741.136 390.376V395H739.312V390.648C739.312 390.285 739.285 389.949 739.232 389.64C739.189 389.331 739.099 389.059 738.96 388.824C738.821 388.579 738.624 388.387 738.368 388.248C738.123 388.109 737.803 388.04 737.408 388.04C737.035 388.04 736.693 388.131 736.384 388.312C736.085 388.493 735.851 388.728 735.68 389.016C735.52 389.304 735.403 389.624 735.328 389.976C735.264 390.328 735.232 390.664 735.232 390.984V395H733.408ZM742.904 395V383.688H744.728V395H742.904ZM750.349 386.424C751.021 386.424 751.613 386.531 752.125 386.744C752.637 386.957 753.069 387.256 753.421 387.64C753.783 388.013 754.055 388.467 754.237 389C754.418 389.533 754.509 390.125 754.509 390.776C754.509 391.437 754.418 392.035 754.237 392.568C754.066 393.091 753.805 393.544 753.453 393.928C753.101 394.312 752.663 394.605 752.141 394.808C751.629 395.011 751.031 395.112 750.349 395.112C749.677 395.112 749.085 395.011 748.573 394.808C748.061 394.595 747.629 394.301 747.277 393.928C746.935 393.544 746.674 393.085 746.493 392.552C746.322 392.019 746.237 391.427 746.237 390.776C746.237 390.125 746.322 389.533 746.493 389C746.674 388.467 746.941 388.013 747.293 387.64C747.645 387.256 748.077 386.957 748.589 386.744C749.101 386.531 749.687 386.424 750.349 386.424ZM750.349 393.528C750.765 393.528 751.117 393.459 751.405 393.32C751.703 393.171 751.943 392.973 752.125 392.728C752.317 392.483 752.455 392.195 752.541 391.864C752.637 391.533 752.685 391.176 752.685 390.792C752.685 390.408 752.637 390.051 752.541 389.72C752.455 389.379 752.317 389.085 752.125 388.84C751.943 388.595 751.703 388.403 751.405 388.264C751.117 388.125 750.765 388.056 750.349 388.056C749.943 388.056 749.597 388.125 749.309 388.264C749.021 388.403 748.781 388.595 748.589 388.84C748.397 389.085 748.253 389.379 748.157 389.72C748.071 390.051 748.029 390.408 748.029 390.792C748.029 391.176 748.071 391.533 748.157 391.864C748.253 392.195 748.391 392.483 748.573 392.728C748.765 392.973 749.005 393.171 749.293 393.32C749.591 393.459 749.943 393.528 750.349 393.528ZM761.446 393.96C761.169 394.355 760.801 394.648 760.342 394.84C759.883 395.021 759.371 395.112 758.806 395.112C758.358 395.112 757.947 395.059 757.574 394.952C757.211 394.845 756.891 394.685 756.614 394.472C756.337 394.248 756.118 393.976 755.958 393.656C755.798 393.325 755.718 392.952 755.718 392.536C755.718 392.077 755.809 391.688 755.99 391.368C756.171 391.037 756.417 390.771 756.726 390.568C757.046 390.365 757.419 390.216 757.846 390.12C758.273 390.013 758.721 389.96 759.19 389.96H761.35C761.35 389.341 761.211 388.861 760.934 388.52C760.657 388.179 760.171 388.003 759.478 387.992C759.073 387.992 758.721 388.061 758.422 388.2C758.134 388.339 757.942 388.568 757.846 388.888H755.974C756.038 388.44 756.182 388.061 756.406 387.752C756.641 387.443 756.918 387.187 757.238 386.984C757.569 386.781 757.931 386.637 758.326 386.552C758.731 386.467 759.137 386.424 759.542 386.424C760.065 386.424 760.55 386.493 760.998 386.632C761.446 386.771 761.835 387.005 762.166 387.336C762.539 387.72 762.79 388.179 762.918 388.712C763.046 389.245 763.11 389.827 763.11 390.456V395H761.526L761.446 393.96ZM761.35 391.256H759.59C759.281 391.256 758.971 391.283 758.662 391.336C758.353 391.379 758.086 391.491 757.862 391.672C757.649 391.843 757.542 392.093 757.542 392.424C757.542 392.829 757.686 393.139 757.974 393.352C758.273 393.555 758.635 393.656 759.062 393.656C759.393 393.656 759.697 393.613 759.974 393.528C760.262 393.443 760.507 393.304 760.71 393.112C760.913 392.909 761.067 392.659 761.174 392.36C761.291 392.051 761.35 391.683 761.35 391.256ZM772.893 395H771.181L771.085 393.832C770.775 394.28 770.386 394.6 769.917 394.792C769.447 394.984 768.919 395.091 768.333 395.112C767.682 395.101 767.122 394.984 766.653 394.76C766.183 394.525 765.794 394.216 765.485 393.832C765.175 393.437 764.946 392.984 764.797 392.472C764.658 391.96 764.589 391.416 764.589 390.84C764.589 390.211 764.669 389.629 764.829 389.096C764.999 388.563 765.25 388.099 765.581 387.704C765.911 387.309 766.317 387 766.797 386.776C767.277 386.541 767.837 386.424 768.477 386.424C768.935 386.424 769.399 386.499 769.869 386.648C770.338 386.797 770.738 387.075 771.069 387.48V383.688H772.893V395ZM768.685 388.072C768.279 388.072 767.933 388.141 767.645 388.28C767.357 388.419 767.117 388.611 766.925 388.856C766.743 389.101 766.61 389.395 766.525 389.736C766.439 390.067 766.397 390.424 766.397 390.808C766.397 391.192 766.439 391.549 766.525 391.88C766.61 392.211 766.743 392.499 766.925 392.744C767.117 392.989 767.357 393.187 767.645 393.336C767.943 393.475 768.301 393.544 768.717 393.544C769.111 393.544 769.453 393.469 769.741 393.32C770.039 393.16 770.285 392.952 770.477 392.696C770.679 392.44 770.829 392.147 770.925 391.816C771.021 391.485 771.069 391.144 771.069 390.792C771.069 390.419 771.021 390.067 770.925 389.736C770.839 389.405 770.701 389.123 770.509 388.888C770.317 388.643 770.071 388.451 769.773 388.312C769.474 388.163 769.111 388.083 768.685 388.072Z" fill="white"/>
</svg>
