<svg width="500" height="500" viewBox="0 0 500 500" fill="none" xmlns="http://www.w3.org/2000/svg">
<path d="M231.631 31.3379C232.234 40.5134 232.1 49.7559 231.229 58.8644C231.095 60.003 231.028 61.1416 230.827 62.2132C230.76 62.7489 230.693 63.2848 230.626 63.8206C230.559 64.6242 230.827 62.5481 230.626 63.7536C230.559 64.0885 230.559 64.4903 230.492 64.8252C230.157 67.1023 229.756 69.3794 229.354 71.6565C228.483 76.2108 227.344 80.7651 226.005 85.1854C225.335 87.2616 224.665 89.3378 223.929 91.414C223.527 92.4186 223.192 93.4232 222.723 94.4278C222.656 94.6288 222.388 94.9637 222.388 95.2316C222.388 94.5618 222.79 94.3609 222.522 94.8298C222.254 95.3655 222.053 95.9013 221.785 96.4371C220.178 99.9867 218.236 103.402 216.093 106.617C215.624 107.354 215.088 108.091 214.552 108.827C214.284 109.229 213.949 109.631 213.681 110.033C213.547 110.167 213.414 110.368 213.347 110.502C214.016 109.296 213.614 110.167 213.414 110.435C212.208 111.975 210.869 113.516 209.529 114.989C208.19 116.396 206.85 117.735 205.377 119.074C204.707 119.677 203.97 120.28 203.234 120.883C202.899 121.151 202.564 121.419 202.229 121.686C201.693 122.088 203.234 120.883 202.43 121.552C202.162 121.753 201.961 121.887 201.693 122.088C199.952 123.361 198.143 124.566 196.268 125.638C194.393 126.71 192.451 127.513 190.509 128.518C190.575 128.451 191.647 128.049 190.91 128.317C190.642 128.451 190.374 128.518 190.107 128.652C189.571 128.853 189.035 129.054 188.432 129.255C187.428 129.589 186.423 129.924 185.351 130.192C183.275 130.795 181.132 131.197 178.989 131.465C177.85 131.599 176.511 132.804 175.975 133.742C175.439 134.747 175.238 135.818 175.372 136.957C175.707 139.368 177.783 141.31 180.328 141.31C185.217 141.243 190.106 141.243 194.996 141.578C196.134 141.645 197.206 141.779 198.344 141.913C198.411 141.913 199.617 142.114 198.813 141.98C197.943 141.846 199.148 142.047 199.282 142.047C199.885 142.114 200.488 142.248 201.09 142.382C203.501 142.85 205.846 143.453 208.123 144.19C208.525 144.324 208.993 144.525 209.395 144.659C209.596 144.726 209.864 144.86 210.065 144.927C210.467 145.061 210.869 145.462 209.797 144.793C210.601 145.328 211.605 145.596 212.476 146.065C214.15 146.936 215.758 147.873 217.231 148.945C217.633 149.213 218.035 149.481 218.437 149.816C218.571 149.95 218.772 150.084 218.906 150.151C219.575 150.619 218.638 149.95 218.571 149.883C219.24 150.552 220.111 151.155 220.848 151.758C222.321 153.098 223.728 154.437 225.067 155.91C225.67 156.58 226.273 157.25 226.808 157.92C227.076 158.255 227.344 158.589 227.679 158.991C228.081 159.527 226.942 157.987 227.545 158.79C227.746 159.058 227.88 159.259 228.081 159.527C229.219 161.067 230.224 162.675 231.229 164.282C232.233 165.957 233.171 167.698 234.042 169.439C234.444 170.31 234.845 171.181 235.247 172.051C235.314 172.252 235.381 172.453 235.515 172.587C234.979 171.315 235.314 172.051 235.448 172.386C235.649 172.922 235.85 173.391 236.051 173.927C237.592 177.945 238.73 182.03 239.601 186.183C239.869 187.388 240.069 188.527 240.27 189.733C240.337 190.201 240.404 190.737 240.538 191.206C240.605 191.608 240.672 191.943 240.672 192.345C240.672 192.144 240.605 191.943 240.605 191.742C240.605 192.01 240.672 192.211 240.672 192.478C240.94 194.89 241.208 197.234 241.342 199.645C242.079 210.696 241.409 221.813 240.672 232.797C240.538 235.275 242.682 237.418 245.026 237.753C247.504 238.088 249.781 236.548 250.517 234.137C255.808 217.326 256.478 199.578 260.43 182.499C261.3 178.682 262.305 174.864 263.644 171.114C263.912 170.31 264.247 169.506 264.515 168.769C264.649 168.368 264.917 167.966 265.051 167.497C265.051 167.564 264.582 168.636 264.917 167.899C264.984 167.698 265.118 167.43 265.185 167.229C265.922 165.622 266.658 164.081 267.462 162.541C269.069 159.46 270.945 156.513 273.021 153.767C273.155 153.633 273.289 153.432 273.356 153.298C272.686 154.303 272.887 153.901 273.088 153.633C273.356 153.298 273.624 152.964 273.892 152.629C274.427 151.959 275.03 151.289 275.633 150.619C276.771 149.347 277.977 148.141 279.183 147.07C279.919 146.4 280.589 145.797 281.393 145.195C281.527 145.061 281.661 144.994 281.862 144.86C280.656 145.797 281.527 145.128 281.728 144.927C282.129 144.659 282.464 144.391 282.866 144.123C284.34 143.118 285.88 142.181 287.487 141.377C287.889 141.176 288.358 140.975 288.76 140.774C288.961 140.707 289.095 140.64 289.296 140.573C290.233 140.171 288.291 140.975 289.162 140.64C290.032 140.305 290.903 139.971 291.841 139.703C292.778 139.435 293.649 139.167 294.587 138.966C294.989 138.899 295.457 138.765 295.859 138.698C296.261 138.631 298.136 138.363 296.395 138.564C297.734 138.363 299.007 138.162 299.945 137.091C300.681 136.287 301.15 135.349 301.351 134.211C301.686 131.934 300.212 129.188 297.734 128.719C295.792 128.317 293.85 127.848 291.908 127.245C291.037 126.977 290.233 126.643 289.363 126.375C288.894 126.174 288.425 125.973 287.956 125.839C289.497 126.442 287.755 125.705 287.353 125.571C283.804 123.897 280.388 121.887 277.24 119.543C277.106 119.409 276.905 119.275 276.771 119.208C276.102 118.673 277.039 119.409 277.106 119.476C276.771 119.141 276.303 118.874 275.901 118.539C275.097 117.869 274.36 117.266 273.624 116.596C272.15 115.257 270.677 113.85 269.337 112.31C267.998 110.837 266.725 109.363 265.453 107.823C265.319 107.622 265.185 107.421 264.984 107.22C265.051 107.287 265.721 108.158 265.185 107.488C264.85 107.086 264.582 106.684 264.247 106.282C263.644 105.479 263.042 104.608 262.506 103.804C260.296 100.523 258.353 97.0399 256.612 93.4903C256.21 92.6196 255.809 91.8159 255.407 90.9452C255.273 90.7443 255.206 90.4764 255.139 90.2755C254.804 89.5387 255.273 90.5434 255.273 90.6103C255.072 90.0076 254.804 89.4718 254.603 88.936C253.866 87.1277 253.196 85.2523 252.527 83.3771C249.714 75.1392 247.638 66.6335 245.963 58.0608C245.026 53.3056 244.155 48.4834 243.418 43.6613C243.083 41.3841 242.749 39.174 242.414 36.8969C242.28 35.7583 242.079 34.6867 241.945 33.5481C241.878 33.1463 241.61 31.271 241.878 32.9454C241.811 32.3426 241.744 31.8068 241.677 31.204C241.476 29.7976 241.208 28.659 240.203 27.6544C239.333 26.7837 237.926 26.114 236.654 26.1809C235.381 26.2479 233.975 26.6497 233.104 27.6544C232.233 28.7259 231.43 30.0654 231.631 31.3379C233.975 48.9522 236.654 66.7674 242.079 83.7119C247.303 99.8528 255.809 115.257 269.136 126.04C276.705 132.135 285.411 136.823 294.989 138.631C295.457 135.349 295.859 132.068 296.328 128.786C292.176 129.322 288.358 130.393 284.474 132.068C281.058 133.541 277.91 135.55 274.963 137.894C269.203 142.382 264.448 148.208 260.698 154.437C256.746 160.934 253.866 168.1 251.924 175.467C249.58 184.174 248.24 193.148 246.901 202.056C245.427 212.102 243.887 222.148 240.806 231.859C244.088 232.328 247.37 232.73 250.651 233.199C251.924 213.375 253.063 192.612 246.365 173.525C240.806 157.585 229.889 142.649 214.016 135.952C203.367 131.465 191.714 131.331 180.328 131.465C180.797 134.746 181.199 138.028 181.668 141.31C198.545 138.966 212.945 128.049 222.79 114.654C233.707 99.7858 238.462 81.1 240.739 63.0169C242.079 52.5019 242.347 41.9199 241.61 31.4049C241.409 28.7929 239.4 26.2479 236.587 26.3818C234.042 26.4488 231.43 28.525 231.631 31.3379Z" fill="#1281ED"/>
<path d="M45.642 167.497C46.7806 172.52 47.7852 177.61 48.6559 182.7C49.1247 185.178 49.5267 187.656 49.8616 190.134C50.0625 191.407 50.2633 192.612 50.3973 193.885C50.4642 194.421 50.5311 195.023 50.5981 195.559C50.732 196.497 50.5981 195.626 50.5981 195.492C50.665 195.894 50.7321 196.296 50.7321 196.765C52.0716 206.878 52.8752 216.991 53.277 227.171C53.478 231.525 53.4782 235.811 53.2103 240.164C53.1434 241.169 53.0761 242.174 52.9422 243.178C52.8752 243.714 52.8083 244.25 52.7414 244.785C52.6744 245.321 52.8753 245.723 52.7414 244.652C52.8083 244.986 52.6073 245.388 52.6073 245.723C52.2724 247.799 51.8706 249.809 51.2678 251.818C50.9999 252.822 50.6651 253.76 50.3302 254.765C50.1963 255.167 49.9286 255.635 49.8616 256.037C50.1295 255.033 50.1293 255.501 49.9954 255.769C49.8614 256.104 49.7274 256.372 49.5934 256.707C48.6558 258.649 47.5843 260.458 46.3118 262.199C45.9769 262.601 45.7091 263.07 45.3742 263.471C45.4412 263.337 46.0441 262.601 45.5083 263.271C45.3743 263.471 45.2402 263.672 45.0393 263.806C44.3696 264.677 43.6327 265.548 42.896 266.418C41.4895 268.026 39.9493 269.633 38.4089 271.173C36.7345 272.848 34.993 274.388 33.1847 275.929C32.2471 276.732 31.3096 277.536 30.3049 278.273C30.104 278.474 29.8361 278.675 29.6352 278.809C29.5012 278.876 28.6975 279.545 29.3003 279.076C29.9701 278.608 29.0324 279.277 28.9654 279.344C28.6975 279.545 28.3628 279.746 28.0949 280.014C24.0764 282.961 19.924 285.707 15.7046 288.319C13.8963 289.457 12.6905 291.869 13.4272 294.012C14.097 296.021 16.0394 297.829 18.2495 297.695C22.4689 297.427 26.6883 297.227 30.9747 297.427C33.7876 297.561 36.6005 297.829 39.3465 298.164C40.8869 298.298 42.3602 298.432 43.9006 298.566C44.3694 298.566 44.8383 298.633 45.3071 298.7C45.4411 298.7 45.5081 298.7 45.642 298.767C46.1778 298.834 46.0438 298.834 45.2401 298.7C45.3741 298.767 45.7092 298.767 45.8431 298.767C46.9147 298.968 47.9862 299.169 49.0578 299.504C49.9954 299.772 50.9331 300.106 51.8038 300.441C52.0717 300.508 52.2727 300.642 52.5406 300.709C53.2103 300.977 51.3348 300.173 52.3395 300.642C52.8753 300.91 53.3443 301.111 53.8801 301.379C55.7554 302.317 57.4966 303.388 59.171 304.594C59.3719 304.728 59.5728 304.929 59.7737 305.062C60.5104 305.598 59.5728 304.929 59.5059 304.862C59.7068 305.196 60.4434 305.598 60.7113 305.866C61.5819 306.603 62.3858 307.34 63.1895 308.076C64.7299 309.55 66.2703 311.157 67.6098 312.765C68.2796 313.568 68.9493 314.372 69.552 315.176C70.2887 316.113 68.8823 314.238 69.552 315.176C69.686 315.377 69.82 315.511 69.9539 315.711C70.3558 316.247 70.7574 316.783 71.0923 317.319C72.3648 319.127 73.5703 320.935 74.7089 322.811C77.1869 326.896 79.4642 331.183 81.5404 335.469C82.6789 337.813 83.8175 340.224 84.8891 342.568C85.157 343.104 85.358 343.64 85.6259 344.176C85.7598 344.443 85.8939 344.778 86.0278 345.046C86.3627 345.917 86.0277 345.113 85.9608 344.912C86.5635 346.252 87.0323 347.591 87.5681 348.931C91.9214 359.915 95.2701 371.233 97.6142 382.82C98.0831 385.298 100.829 386.704 103.106 386.436C105.785 386.102 107.192 384.025 107.46 381.48C109.804 361.321 104.713 341.296 105.919 321.069C105.986 319.462 106.187 317.855 106.321 316.314C106.388 315.912 106.455 315.51 106.455 315.109C106.522 314.439 106.254 316.515 106.388 315.511C106.388 315.31 106.455 315.176 106.455 314.975C106.589 314.104 106.723 313.233 106.857 312.363C107.459 308.947 108.263 305.531 109.201 302.25C109.736 300.508 110.272 298.767 110.875 297.026C111.143 296.222 111.411 295.485 111.746 294.748C111.88 294.347 112.081 293.945 112.215 293.543C112.549 292.806 112.081 293.878 112.014 293.945C112.148 293.677 112.215 293.409 112.349 293.141C113.755 289.993 115.362 286.912 117.305 284.033C117.773 283.296 118.309 282.559 118.845 281.822C118.912 281.688 119.515 280.952 118.912 281.688C118.376 282.425 118.979 281.621 119.113 281.488C119.381 281.153 119.649 280.818 119.984 280.483C121.122 279.143 122.395 277.871 123.734 276.732C124.069 276.397 124.471 276.13 124.806 275.862C125.275 275.46 123.868 276.531 124.404 276.197C124.605 276.063 124.806 275.929 125.007 275.728C125.743 275.259 126.413 274.79 127.217 274.321C127.954 273.919 128.69 273.518 129.427 273.183C129.561 273.116 130.365 272.781 129.494 273.116C128.69 273.451 129.36 273.183 129.561 273.116C130.03 272.915 130.499 272.781 130.967 272.647C132.977 271.977 134.785 270.035 134.651 267.825C134.517 265.548 133.178 263.739 130.967 263.003C122.395 260.123 113.42 258.917 104.781 256.171C103.776 255.836 102.771 255.501 101.767 255.1C101.566 255.033 101.365 254.966 101.164 254.899C101.03 254.832 100.159 254.363 100.896 254.765C101.633 255.167 100.762 254.698 100.628 254.631C100.36 254.497 100.025 254.363 99.7576 254.229C97.8153 253.358 96.0069 252.287 94.2655 251.081C93.9976 250.88 93.7296 250.679 93.4617 250.545C92.8589 250.144 93.5959 250.746 93.7299 250.746C93.5289 250.813 92.658 249.876 92.4571 249.675C91.5864 248.871 90.7159 248.067 89.9122 247.197C89.2424 246.46 88.5727 245.656 87.903 244.853C87.5681 244.451 87.2332 244.049 86.8983 243.647C87.769 244.652 87.2333 244.049 87.0324 243.781C86.8315 243.513 86.6306 243.178 86.3627 242.91C83.9516 239.629 81.9422 236.146 80.1339 232.529C79.665 231.592 79.2633 230.721 78.8614 229.783C78.6605 229.381 78.4597 228.98 78.3257 228.511C78.1918 228.31 78.1248 228.042 77.9909 227.841C77.589 226.903 78.3927 228.779 77.9909 227.908C77.1872 225.966 76.4502 223.956 75.7135 222.014C72.6996 213.709 70.3556 205.137 67.7436 196.698C64.127 185.312 59.9076 174.128 54.4157 163.546C53.2102 161.201 49.7277 160.331 47.5175 161.737C45.1064 163.278 44.4365 166.091 45.7091 168.636C47.0485 171.181 48.3212 173.793 49.5267 176.405C50.0625 177.61 50.6652 178.816 51.1341 180.021C51.0671 179.887 50.7321 179.017 51.067 179.887C51.201 180.155 51.335 180.49 51.4689 180.758C51.7368 181.428 52.0045 182.097 52.2724 182.7C54.1477 187.388 55.8221 192.144 57.3625 196.966C60.1755 205.606 62.5867 214.379 65.5336 222.952C68.3465 231.123 71.7622 239.227 76.6514 246.393C79.2634 250.21 82.2101 254.095 85.8267 257.042C89.7112 260.324 93.9978 262.668 98.7529 264.476C108.263 268.16 118.577 269.231 128.222 272.446C128.222 269.231 128.222 266.016 128.222 262.735C113.621 267.423 105.249 281.956 100.628 295.619C98.217 302.651 96.7436 310.019 96.0069 317.386C95.0693 326.896 95.7389 336.541 96.5426 346.051C97.4802 357.771 98.6189 369.492 97.2794 381.212C100.561 380.744 103.843 380.342 107.125 379.873C104.982 369.358 101.968 358.977 98.217 348.931C94.3994 338.818 89.9121 328.838 84.4872 319.462C79.866 311.559 74.3072 303.857 67.2079 298.03C63.3234 294.882 59.3047 292.337 54.6165 290.529C50.4641 288.855 46.1109 288.386 41.6906 287.984C38.4758 287.716 35.3282 287.314 32.1134 287.113C27.3582 286.845 22.6699 287.046 17.9147 287.314C18.7853 290.462 19.5889 293.543 20.4596 296.691C28.3625 291.802 36.0647 286.444 42.963 280.081C49.7944 273.719 56.1572 266.418 59.5729 257.645C62.8546 249.206 63.3904 239.762 63.1895 230.721C62.9885 220.474 62.1846 210.227 60.9791 200.114C59.5726 188.192 57.5634 176.271 54.9514 164.55C54.3486 162.005 51.268 160.264 48.7899 161.067C46.4458 162.206 44.9723 164.751 45.642 167.497Z" fill="#1281ED"/>
<path d="M309.12 302.383C310.058 306.067 310.795 309.751 311.33 313.568C311.263 313.099 311.196 312.698 311.129 312.229C312.134 319.663 312.268 327.298 311.263 334.732C311.33 334.263 311.397 333.861 311.464 333.393C310.66 339.42 309.12 345.314 306.776 350.873C306.977 350.471 307.111 350.069 307.312 349.667C306.173 352.346 304.901 354.958 303.361 357.436C302.624 358.709 301.753 359.982 300.882 361.187C300.481 361.723 300.079 362.259 299.677 362.794C300.749 361.388 299.878 362.527 299.61 362.861C299.342 363.196 299.074 363.531 298.806 363.799C296.931 366.076 294.788 368.152 292.578 370.095C292.042 370.564 291.439 371.032 290.903 371.501C290.568 371.769 289.43 372.64 290.836 371.568C290.501 371.769 290.233 372.037 289.899 372.305C288.626 373.242 287.287 374.113 285.947 374.984C283.402 376.524 280.857 377.864 278.111 379.002C278.513 378.801 278.915 378.667 279.316 378.466C277.374 379.27 275.432 380.074 273.49 380.945C272.15 381.547 270.878 382.083 269.873 383.088C267.596 385.231 267.998 388.914 270.342 390.723C271.547 391.66 273.155 391.928 274.562 392.33C276.973 393.067 279.383 393.938 281.728 394.942C281.326 394.741 280.924 394.607 280.522 394.406C286.885 397.152 293.046 400.568 298.538 404.72C298.672 404.854 298.806 404.921 298.94 405.055C297.802 404.185 298.27 404.586 298.538 404.72C298.873 404.988 299.141 405.189 299.476 405.457C300.079 405.926 300.681 406.462 301.217 406.931C302.222 407.868 303.226 408.806 304.164 409.877C304.633 410.346 305.035 410.882 305.504 411.418C305.704 411.686 305.905 411.954 306.106 412.222C306.307 412.489 306.642 412.958 305.705 411.753C305.839 411.954 305.972 412.088 306.106 412.289C306.91 413.36 307.714 414.499 308.384 415.704C310.125 418.45 311.531 421.397 312.871 424.411C312.67 424.009 312.536 423.607 312.335 423.205C317.157 434.725 319.367 447.115 321.51 459.372C322.046 462.653 322.649 465.935 323.252 469.217C323.453 470.355 324.591 471.695 325.529 472.231C326.533 472.767 327.605 472.967 328.744 472.833C331.222 472.499 333.03 470.422 333.097 467.877C333.298 462.318 333.499 456.76 333.7 451.134C333.901 445.776 333.901 440.351 334.637 434.993C334.57 435.462 334.504 435.864 334.437 436.332C335.106 431.711 336.111 427.09 337.316 422.603C337.919 420.392 338.589 418.182 339.259 415.972C339.861 414.164 340.397 412.289 341.134 410.48C340.933 410.882 340.799 411.284 340.598 411.686C341.536 409.543 342.741 407.533 344.148 405.658C344.349 405.39 344.55 405.122 344.751 404.787C345.219 404.185 343.88 405.859 344.617 404.921C345.085 404.319 345.554 403.783 346.023 403.18C346.894 402.108 347.831 401.104 348.769 400.099C350.778 398.023 352.921 396.014 355.132 394.071C355.667 393.603 356.203 393.201 356.739 392.732C357.007 392.531 357.275 392.33 357.543 392.062C357.677 391.928 357.81 391.794 358.011 391.727C357.81 391.861 357.007 392.531 357.61 391.995C358.681 391.192 359.82 390.388 360.892 389.584C363.102 388.111 365.379 386.704 367.857 385.7C367.455 385.901 367.053 386.035 366.651 386.236C366.852 386.169 367.053 386.102 367.254 385.968C368.46 385.499 369.598 384.829 370.268 383.69C370.804 382.686 371.005 381.614 370.871 380.476C370.536 377.998 368.46 376.122 365.915 376.122C364.776 376.122 363.637 376.055 362.566 375.921C363.035 375.988 363.437 376.055 363.905 376.122C361.695 375.788 359.485 375.185 357.409 374.314C357.811 374.515 358.213 374.649 358.614 374.85C357.342 374.314 356.136 373.711 354.998 372.975C354.395 372.64 353.859 372.238 353.256 371.903C352.989 371.702 352.654 371.501 352.386 371.3C352.252 371.233 352.118 371.099 351.984 371.032C351.917 370.965 351.85 370.898 351.783 370.898C351.314 370.496 352.453 371.434 352.386 371.367C350.109 369.492 347.965 367.483 345.956 365.272C345.487 364.67 344.952 364.134 344.483 363.531C344.282 363.263 344.014 362.928 343.813 362.66C343.277 361.991 344.349 363.33 344.148 363.062C344.014 362.861 343.88 362.727 343.746 362.527C342.741 361.254 341.871 359.915 340.933 358.575C339.058 355.762 337.384 352.815 335.843 349.801C334.035 346.319 332.36 342.702 330.82 339.085C331.021 339.487 331.155 339.889 331.356 340.291C326.868 329.642 323.386 318.524 320.506 307.273C319.836 304.661 319.233 302.116 318.631 299.504C318.028 296.959 314.947 295.217 312.469 296.021C309.924 297.092 308.45 299.638 309.12 302.383C310.527 308.478 312.067 314.573 313.875 320.601C315.952 327.633 318.363 334.665 321.109 341.497C324.056 348.663 327.337 355.762 331.49 362.326C335.173 368.219 339.594 373.979 345.018 378.332C347.63 380.409 350.376 382.351 353.457 383.69C356.873 385.164 360.222 386.102 363.972 386.436C364.709 386.503 365.446 386.503 366.115 386.503C365.647 383.222 365.245 379.94 364.776 376.658C359.284 378.801 354.529 382.15 349.974 385.834C345.42 389.517 341.134 393.67 337.518 398.291C335.709 400.568 334.035 402.845 332.695 405.457C331.155 408.538 330.15 411.887 329.146 415.168C326.735 423.138 324.792 431.242 324.189 439.547C323.854 444.235 323.788 448.991 323.654 453.679C323.52 458.501 323.319 463.256 323.185 468.078C326.466 467.609 329.748 467.208 333.03 466.739C330.619 453.411 328.811 439.882 324.524 427.023C322.314 420.526 319.568 414.03 315.55 408.404C313.54 405.524 311.264 402.845 308.718 400.434C305.772 397.755 302.49 395.344 299.141 393.201C295.457 390.79 291.573 388.647 287.555 386.838C285.277 385.767 282.933 384.829 280.522 383.958C278.58 383.289 276.638 382.753 274.695 382.15C275.097 382.351 275.499 382.485 275.901 382.686C276.504 383.289 277.039 383.824 277.642 384.427C277.843 384.829 277.977 385.231 278.178 385.633C278.245 386.102 278.312 386.503 278.379 386.972C278.312 387.441 278.245 387.843 278.178 388.312C277.977 388.714 277.843 389.115 277.642 389.517C277.24 390.12 276.705 390.857 276.102 391.125C276.236 391.058 276.303 390.991 276.437 390.924C276.772 390.723 277.106 390.589 277.441 390.388C278.379 389.919 279.383 389.517 280.388 389.115C279.986 389.316 279.585 389.45 279.183 389.651C281.929 388.513 284.741 387.374 287.42 385.968C290.501 384.36 293.381 382.485 296.127 380.409C301.954 375.921 306.977 370.63 310.929 364.469C318.564 352.748 321.912 338.55 321.979 324.686C321.979 316.381 320.841 308.009 318.831 299.972C318.162 297.427 315.215 295.619 312.67 296.49C309.991 297.093 308.383 299.638 309.12 302.383Z" fill="#1281ED"/>
<path d="M376.966 124.7C377.502 127.178 377.971 129.656 378.373 132.135C378.574 133.34 378.774 134.613 378.975 135.885C379.042 136.287 379.377 138.162 379.109 136.689C379.243 137.426 379.31 138.162 379.377 138.832C379.98 143.922 380.449 149.079 380.717 154.236C381.253 164.617 381.185 175.065 380.449 185.379C380.248 187.924 380.047 190.469 379.846 193.081C379.712 194.22 379.645 195.425 379.511 196.564C379.444 197.1 379.377 197.635 379.31 198.238C379.31 198.506 379.243 198.774 379.243 198.975C379.176 199.377 379.243 199.176 379.31 198.372C379.31 198.573 379.243 198.774 379.243 198.975C378.64 203.261 377.703 207.481 376.564 211.633C375.961 213.709 375.292 215.786 374.555 217.795C374.153 218.799 373.818 219.804 373.416 220.809C373.349 221.077 373.215 221.278 373.148 221.545C373.55 220.273 373.349 221.01 373.216 221.344C372.948 221.88 372.747 222.483 372.479 223.019C370.67 226.97 368.594 230.721 366.116 234.338C365.446 235.342 364.71 236.347 363.973 237.284C363.772 237.552 363.37 237.887 364.174 237.016C363.973 237.284 363.705 237.552 363.504 237.82C363.102 238.289 362.767 238.758 362.366 239.227C360.825 241.035 359.218 242.709 357.477 244.384C356.606 245.187 355.735 245.991 354.798 246.795C354.329 247.197 353.793 247.532 353.391 247.933C354.262 247.063 353.927 247.531 353.592 247.799C353.324 248 353.056 248.201 352.721 248.402C350.779 249.809 348.703 251.148 346.56 252.287C344.685 253.291 343.613 255.903 344.282 257.98C344.55 258.783 344.952 259.587 345.555 260.19C346.292 260.993 347.966 261.797 349.105 261.663C353.592 261.127 358.079 260.859 362.567 260.993C364.777 261.06 366.92 261.194 369.13 261.395C369.666 261.462 370.269 261.529 370.804 261.596C371.206 261.663 373.215 261.931 371.474 261.663C372.613 261.864 373.751 261.998 374.89 262.199C379.243 262.936 383.596 264.007 387.816 265.347C389.959 266.016 392.102 266.753 394.178 267.624C394.647 267.825 395.049 267.959 395.518 268.16C395.786 268.294 396.054 268.361 396.322 268.494C394.915 267.959 395.853 268.294 396.188 268.428C397.259 268.896 398.264 269.365 399.336 269.834C403.421 271.776 407.373 273.919 411.123 276.331C412.998 277.536 414.807 278.742 416.548 280.081C417.017 280.416 417.486 280.751 417.954 281.086C418.155 281.287 418.423 281.421 418.624 281.621C417.552 280.818 418.021 281.153 418.289 281.354C419.294 282.157 420.232 282.894 421.169 283.698C424.518 286.511 427.733 289.591 430.679 292.806C432.22 294.481 433.693 296.222 435.167 298.03C435.435 298.432 435.77 298.767 436.037 299.169C434.966 297.896 436.238 299.437 436.439 299.772C437.109 300.709 437.779 301.647 438.449 302.584C441.262 306.67 443.807 310.956 445.95 315.377C446.486 316.515 447.021 317.654 447.49 318.725C447.892 319.663 447.021 317.587 447.423 318.591C447.557 318.926 447.691 319.328 447.825 319.663C448.026 320.199 448.227 320.735 448.428 321.27C449.365 323.681 450.169 326.159 450.839 328.638C451.576 331.183 454.456 332.991 457.001 332.12C458.206 331.718 459.412 330.982 460.014 329.843C460.684 328.571 460.751 327.365 460.55 325.959C460.55 325.892 460.349 324.619 460.483 325.423C460.617 326.226 460.416 325.021 460.416 324.954C460.349 324.485 460.282 324.016 460.215 323.548C460.081 322.476 459.947 321.404 459.88 320.333C459.746 318.658 459.613 316.984 459.546 315.31C459.479 312.698 459.545 310.019 459.478 307.407C459.478 304.125 459.278 300.91 458.943 297.628C458.675 295.15 458.34 292.672 458.005 290.194C457.804 288.721 457.603 287.247 457.403 285.707C457.336 285.439 457.335 285.171 457.268 284.903C457.068 283.631 457.402 285.707 457.268 284.903C457.201 284.166 457.068 283.497 457.001 282.76C456.398 278.005 455.862 273.183 455.728 268.361C455.661 265.883 455.661 263.471 455.862 260.993C455.929 259.855 455.996 258.649 456.197 257.511C455.929 258.917 456.331 256.841 456.331 256.573C456.465 255.903 456.532 255.301 456.666 254.631C457.068 252.555 457.67 250.545 458.34 248.603C458.608 247.732 458.943 246.862 459.278 245.991C459.412 245.589 459.546 245.187 459.747 244.853C459.814 244.585 459.948 244.384 460.014 244.116C460.483 243.044 459.814 244.652 460.014 244.183C461.622 240.633 463.43 237.217 465.573 234.003C466.176 233.132 467.047 232.194 467.582 231.257C467.515 231.324 466.846 232.194 467.382 231.525C467.583 231.257 467.783 231.056 467.984 230.788C468.319 230.386 468.654 229.984 468.989 229.582C470.395 227.975 471.869 226.435 473.476 224.961C474.28 224.224 475.151 223.488 476.021 222.751C476.691 222.215 475.82 222.952 475.753 222.952C476.021 222.818 476.222 222.55 476.49 222.416C476.959 222.081 477.428 221.746 477.83 221.411C479.638 220.139 481.513 219.067 483.523 218.063C485.398 217.125 486.469 214.379 485.8 212.37C485.063 210.16 483.254 208.82 480.977 208.686C478.633 208.552 476.289 208.351 473.945 208.084C473.409 208.017 472.874 207.95 472.338 207.883C472.07 207.883 471.802 207.749 471.534 207.749C472.873 207.682 472.003 207.816 471.601 207.749C470.395 207.548 469.19 207.414 468.051 207.213C463.497 206.409 459.01 205.405 454.657 204.132C452.446 203.462 450.303 202.793 448.16 201.989C447.155 201.587 446.151 201.252 445.079 200.85C444.945 200.783 443.539 200.248 443.539 200.248C443.74 200.314 443.94 200.448 444.141 200.515C443.94 200.448 443.74 200.314 443.539 200.248C443.271 200.114 442.936 199.98 442.668 199.846C438.449 197.97 434.43 195.827 430.546 193.349C428.603 192.077 426.661 190.804 424.853 189.398C424.652 189.264 424.518 189.13 424.317 188.996C425.455 189.8 424.518 189.197 424.317 188.996C423.915 188.661 423.446 188.326 423.044 187.991C422.107 187.255 421.236 186.451 420.365 185.647C418.691 184.107 417.017 182.499 415.476 180.825C413.869 179.084 412.462 177.208 410.922 175.467C411.86 176.539 410.721 175.199 410.52 174.864C410.186 174.395 409.851 173.994 409.516 173.525C408.779 172.52 408.109 171.516 407.44 170.511C406.1 168.502 404.894 166.425 403.689 164.349C401.345 160.197 399.269 155.91 397.326 151.49C397.259 151.289 397.125 151.088 397.059 150.887C396.992 150.686 396.858 150.486 396.791 150.285C397.059 150.954 397.125 151.021 396.924 150.552C396.657 149.95 396.389 149.28 396.121 148.677C395.652 147.472 395.183 146.266 394.714 145.061C393.777 142.583 392.839 140.037 391.968 137.559C390.16 132.402 388.486 127.245 386.811 122.088C386.008 119.61 383.262 117.735 380.65 118.606C377.971 119.342 376.096 122.021 376.966 124.7C382.994 143.52 389.289 162.943 401.01 179.084C406.971 187.321 414.137 194.421 422.576 200.248C430.546 205.739 439.453 209.892 448.629 212.906C459.077 216.321 469.994 218.197 480.977 218.799C480.107 215.652 479.303 212.571 478.432 209.423C463.229 216.991 452.647 232.06 448.026 248.201C445.213 258.047 445.347 268.294 446.486 278.34C446.82 281.153 447.155 283.899 447.557 286.712C447.624 287.381 447.758 287.984 447.825 288.654C447.892 288.922 447.892 289.19 447.959 289.458C448.16 290.73 447.825 288.654 447.959 289.524C448.16 290.797 448.294 292.136 448.495 293.409C448.964 297.36 449.432 301.312 449.499 305.263C449.566 308.277 449.499 311.291 449.566 314.305C449.7 319.06 450.236 323.815 450.906 328.571C454.121 327.7 457.335 326.762 460.617 325.892C455.46 307.675 444.744 291.199 430.679 278.675C416.615 266.083 399.202 256.908 380.717 253.09C370.403 250.947 359.687 250.277 349.239 251.617C350.109 254.765 350.913 257.846 351.784 260.993C368.259 251.952 379.377 235.677 385.204 218.13C388.218 209.021 389.557 199.578 390.294 190C391.165 179.418 391.433 168.837 391.031 158.255C390.562 146.132 389.289 134.01 386.811 122.155C386.275 119.61 383.128 117.869 380.65 118.673C377.77 119.409 376.43 121.954 376.966 124.7Z" fill="#1281ED"/>
</svg>
