<svg width="317" height="128" viewBox="0 0 317 128" fill="none" xmlns="http://www.w3.org/2000/svg">
<rect x="94" width="128" height="128" rx="40" fill="#343434"/>
<path d="M0 0H24C46.0914 0 64 17.9086 64 40V88C64 110.091 46.0914 128 24 128H0V0Z" fill="#343434"/>
<path d="M252 40C252 17.9086 269.909 0 292 0H317V128H292C269.909 128 252 110.091 252 88V40Z" fill="#343434"/>
<g opacity="0.2">
<path opacity="0.2" d="M168.625 74.625C174.493 74.625 179.25 69.868 179.25 64C179.25 58.132 174.493 53.375 168.625 53.375C162.757 53.375 158 58.132 158 64C158 69.868 162.757 74.625 168.625 74.625Z" fill="#EEEEEE"/>
<path opacity="0.2" d="M147.375 53.375H158V32.125H147.375C144.557 32.125 141.855 33.2444 139.862 35.237C137.869 37.2296 136.75 39.9321 136.75 42.75C136.75 45.5679 137.869 48.2704 139.862 50.263C141.855 52.2556 144.557 53.375 147.375 53.375ZM136.75 85.25C136.75 88.0679 137.869 90.7704 139.862 92.763C141.855 94.7556 144.557 95.875 147.375 95.875C150.193 95.875 152.895 94.7556 154.888 92.763C156.881 90.7704 158 88.0679 158 85.25V74.625H147.375C144.557 74.625 141.855 75.7444 139.862 77.737C137.869 79.7296 136.75 82.4321 136.75 85.25Z" fill="#EEEEEE"/>
</g>
<path d="M176.312 53.375C178.556 51.7481 180.227 49.4529 181.086 46.8182C181.945 44.1835 181.948 41.3446 181.094 38.7081C180.241 36.0716 178.575 33.7729 176.335 32.1412C174.095 30.5096 171.396 29.6288 168.625 29.625H147.375C144.604 29.6288 141.905 30.5096 139.665 32.1412C137.425 33.7729 135.759 36.0716 134.906 38.7081C134.052 41.3446 134.055 44.1835 134.914 46.8182C135.773 49.4529 137.444 51.7481 139.687 53.375C138.003 54.588 136.632 56.1839 135.685 58.0313C134.739 59.8786 134.246 61.9245 134.246 64C134.246 66.0755 134.739 68.1213 135.685 69.9687C136.632 71.816 138.003 73.412 139.687 74.625C137.866 75.9415 136.413 77.7037 135.467 79.7429C134.522 81.7821 134.116 84.0299 134.289 86.271C134.461 88.512 135.207 90.6711 136.453 92.5415C137.699 94.4119 139.405 95.9308 141.407 96.9528C143.409 97.9748 145.64 98.4656 147.886 98.3781C150.132 98.2906 152.318 97.6278 154.234 96.4532C156.15 95.2786 157.733 93.6316 158.83 91.6699C159.927 89.7082 160.502 87.4976 160.5 85.25V74.2812C161.862 75.4307 163.445 76.2907 165.15 76.8086C166.856 77.3266 168.649 77.4917 170.42 77.2939C172.192 77.0961 173.904 76.5396 175.454 75.6582C177.003 74.7768 178.357 73.5891 179.432 72.1675C180.507 70.7458 181.282 69.12 181.708 67.3893C182.134 65.6586 182.204 63.8591 181.912 62.1007C181.62 60.3422 180.973 58.6617 180.01 57.1615C179.048 55.6614 177.789 54.373 176.312 53.375ZM176.75 42.75C176.742 44.9023 175.883 46.9642 174.361 48.4861C172.839 50.0081 170.777 50.8668 168.625 50.875H160.5V34.625H168.625C170.777 34.6332 172.839 35.4919 174.361 37.0138C175.883 38.5358 176.742 40.5976 176.75 42.75ZM139.25 42.75C139.258 40.5976 140.117 38.5358 141.639 37.0138C143.161 35.4919 145.223 34.6332 147.375 34.625H155.5V50.875H147.375C145.223 50.8668 143.161 50.0081 141.639 48.4861C140.117 46.9642 139.258 44.9023 139.25 42.75ZM139.25 64C139.258 61.8476 140.117 59.7858 141.639 58.2638C143.161 56.7419 145.223 55.8832 147.375 55.875H155.5V72.125H147.375C145.223 72.1168 143.161 71.2581 141.639 69.7361C140.117 68.2142 139.258 66.1523 139.25 64ZM147.375 93.375C145.22 93.375 143.153 92.519 141.63 90.9952C140.106 89.4715 139.25 87.4049 139.25 85.25C139.25 83.0951 140.106 81.0285 141.63 79.5047C143.153 77.981 145.22 77.125 147.375 77.125H155.5V85.25C155.492 87.4023 154.633 89.4642 153.111 90.9861C151.589 92.5081 149.527 93.3668 147.375 93.375ZM168.625 72.125C166.47 72.125 164.403 71.269 162.88 69.7452C161.356 68.2215 160.5 66.1549 160.5 64C160.5 61.8451 161.356 59.7785 162.88 58.2548C164.403 56.731 166.47 55.875 168.625 55.875C170.78 55.875 172.847 56.731 174.37 58.2548C175.894 59.7785 176.75 61.8451 176.75 64C176.75 66.1549 175.894 68.2215 174.37 69.7452C172.847 71.269 170.78 72.125 168.625 72.125Z" fill="#EEEEEE"/>
<g clip-path="url(#clip0_66_2)">
<path d="M343.34 51.5335C343.34 51.5335 336.853 71.8768 336.323 73.5568C334.69 60.807 333.041 48.0593 331.377 35.3135C320.323 35.3135 314.413 43.1801 311.29 51.4835L302.74 73.6068C302.69 72.0201 301.54 51.7235 301.54 51.7235C300.86 41.5501 291.54 35.3568 284 35.3568L293.13 90.6901C304.71 90.6401 310.953 82.8201 314.223 74.5168C314.223 74.5168 321.19 56.5235 321.477 55.7068C321.527 56.4735 326.477 90.6868 326.477 90.6868C338.103 90.6868 344.35 83.3468 347.71 75.3335L364 35.3601C352.517 35.3601 346.463 43.1801 343.34 51.5301V51.5335Z" fill="#EEEEEE"/>
</g>
<g clip-path="url(#clip1_66_2)">
<path d="M-29.13 38.0225C-26.655 40.04 -25.7175 39.8975 -21.045 39.585L23.005 36.9425C23.9425 36.9425 23.1625 36.005 22.8475 35.8475L15.53 30.56C14.1375 29.465 12.2625 28.23 8.68 28.5275L-33.9625 31.6525C-35.525 31.795 -35.8375 32.5775 -35.2125 33.2025L-29.13 38.0225ZM-26.4875 48.2975V94.6375C-26.4875 97.125 -25.25 98.0625 -22.45 97.905L25.9625 95.105C28.7625 94.9475 29.0875 93.2425 29.0875 91.2125V45.185C29.0875 43.1525 28.305 42.0725 26.5875 42.23L-23.9975 45.185C-25.8725 45.3425 -26.485 46.265 -26.485 48.285L-26.4875 48.2975ZM21.3 50.77C21.6125 52.1775 21.3 53.57 19.8925 53.74L17.5625 54.21V88.415C15.53 89.51 13.67 90.135 12.12 90.135C9.62 90.135 8.995 89.3525 7.1325 87.0225L-8.1275 63.065V86.2425L-3.2975 87.3375C-3.2975 87.3375 -3.2975 90.1375 -7.19 90.1375L-17.9325 90.7625C-18.245 90.1375 -17.9325 88.575 -16.8375 88.275L-14.0375 87.4925V56.855L-17.93 56.5425C-18.2425 55.135 -17.46 53.1175 -15.2875 52.9625L-3.765 52.18L12.12 76.45V54.9775L8.07 54.5075C7.7575 52.8025 8.995 51.5525 10.5575 51.4075L21.3 50.77ZM-37.5425 27.45L6.82 24.1825C12.2625 23.7125 13.67 24.025 17.0925 26.5125L31.26 36.4725C33.59 38.1775 34.3725 38.6475 34.3725 40.51V95.1075C34.3725 98.5325 33.1225 100.55 28.7725 100.862L-22.765 103.975C-26.02 104.132 -27.5825 103.662 -29.3025 101.487L-39.7325 87.945C-41.595 85.4575 -42.375 83.595 -42.375 81.4225V32.895C-42.375 30.095 -41.125 27.765 -37.545 27.4525L-37.5425 27.45Z" fill="#EEEEEE"/>
</g>
<defs>
<clipPath id="clip0_66_2">
<rect width="33" height="80" fill="white" transform="translate(284 23)"/>
</clipPath>
<clipPath id="clip1_66_2">
<rect width="36" height="80" fill="white" transform="translate(0 24)"/>
</clipPath>
</defs>
</svg>
