<svg width="512" height="512" viewBox="0 0 512 512" fill="none" xmlns="http://www.w3.org/2000/svg">
<rect width="512" height="512" fill="#1480EB"/>
<mask id="path-1-inside-1_913_837" fill="white">
<path fill-rule="evenodd" clip-rule="evenodd" d="M256 384C326.692 384 384 326.692 384 256C384 185.308 326.692 128 256 128C185.308 128 128 185.308 128 256C128 326.692 185.308 384 256 384ZM253.333 319.998C290.152 319.998 320 290.15 320 253.331C320 216.512 290.152 186.664 253.333 186.664C216.514 186.664 186.667 216.512 186.667 253.331C186.667 290.15 216.514 319.998 253.333 319.998Z"/>
</mask>
<g filter="url(#filter0_i_913_837)">
<path fill-rule="evenodd" clip-rule="evenodd" d="M256 384C326.692 384 384 326.692 384 256C384 185.308 326.692 128 256 128C185.308 128 128 185.308 128 256C128 326.692 185.308 384 256 384ZM253.333 319.998C290.152 319.998 320 290.15 320 253.331C320 216.512 290.152 186.664 253.333 186.664C216.514 186.664 186.667 216.512 186.667 253.331C186.667 290.15 216.514 319.998 253.333 319.998Z" fill="white" fill-opacity="0.5"/>
</g>
<path d="M376 256C376 322.274 322.274 376 256 376V392C331.111 392 392 331.111 392 256H376ZM256 136C322.274 136 376 189.726 376 256H392C392 180.889 331.111 120 256 120V136ZM136 256C136 189.726 189.726 136 256 136V120C180.889 120 120 180.889 120 256H136ZM256 376C189.726 376 136 322.274 136 256H120C120 331.111 180.889 392 256 392V376ZM312 253.331C312 285.732 285.734 311.998 253.333 311.998V327.998C294.571 327.998 328 294.568 328 253.331H312ZM253.333 194.664C285.734 194.664 312 220.93 312 253.331H328C328 212.094 294.571 178.664 253.333 178.664V194.664ZM194.667 253.331C194.667 220.93 220.933 194.664 253.333 194.664V178.664C212.096 178.664 178.667 212.094 178.667 253.331H194.667ZM253.333 311.998C220.933 311.998 194.667 285.732 194.667 253.331H178.667C178.667 294.568 212.096 327.998 253.333 327.998V311.998Z" fill="white" mask="url(#path-1-inside-1_913_837)"/>
<defs>
<filter id="filter0_i_913_837" x="128" y="128" width="256" height="261.377" filterUnits="userSpaceOnUse" color-interpolation-filters="sRGB">
<feFlood flood-opacity="0" result="BackgroundImageFix"/>
<feBlend mode="normal" in="SourceGraphic" in2="BackgroundImageFix" result="shape"/>
<feColorMatrix in="SourceAlpha" type="matrix" values="0 0 0 0 0 0 0 0 0 0 0 0 0 0 0 0 0 0 127 0" result="hardAlpha"/>
<feOffset dy="5.37707"/>
<feGaussianBlur stdDeviation="30.246"/>
<feComposite in2="hardAlpha" operator="arithmetic" k2="-1" k3="1"/>
<feColorMatrix type="matrix" values="0 0 0 0 1 0 0 0 0 1 0 0 0 0 1 0 0 0 1 0"/>
<feBlend mode="normal" in2="shape" result="effect1_innerShadow_913_837"/>
</filter>
</defs>
</svg>
