<svg width="551" height="177" viewBox="0 0 551 177" fill="none" xmlns="http://www.w3.org/2000/svg">
<g clip-path="url(#clip0_340_407)">
<path d="M7.87982 31.7802H1.31982V1.16016H7.87982V13.9402H20.1998V1.16016H26.7598V31.7802H20.1998V19.0602H7.87982V31.7802Z" fill="black"/>
<path d="M264.26 31.7802H258.06V14.7202H254.98V10.3202H258.06V7.52023C258.06 1.84023 261.16 0.000229679 265.8 0.000229679C266.845 -0.00488347 267.888 0.0753835 268.92 0.24023V4.68023C268.338 4.58491 267.749 4.54473 267.16 4.56023C265.26 4.56023 264.26 5.32023 264.26 7.76023V10.3202H268.48V14.7202H264.26V31.7802Z" fill="black"/>
<path d="M332.94 16.6197C332.94 24.6197 335.78 27.6597 340.42 27.6597C344.64 27.6597 347.08 25.0997 347.4 20.7397V20.1797H340.14V15.4397H353.52V31.7797H348.32V27.6197H348.16C347.29 29.1864 345.989 30.471 344.412 31.3217C342.835 32.1723 341.047 32.5534 339.26 32.4197C330.54 32.4197 325.9 26.4197 325.9 16.9397C325.9 6.93973 331.7 0.719727 340.38 0.719727C347.76 0.719727 352.2 4.19973 352.92 10.4397H346.24C346.088 9.01481 345.396 7.70221 344.306 6.7721C343.216 5.842 341.811 5.36516 340.38 5.43973C335.66 5.43973 332.94 9.31973 332.94 16.6197Z" fill="black"/>
<path d="M7.87982 127.78H1.31982V97.1602H7.87982V109.94H20.1998V97.1602H26.7598V127.78H20.1998V115.06H7.87982V127.78Z" fill="black"/>
<path d="M32.2402 117.06C32.2402 110.02 36.4002 105.8 43.1202 105.8C49.8402 105.8 53.9602 109.96 53.9602 117.06C53.9602 124.16 49.5202 128.34 43.0802 128.34C36.3202 128.34 32.2402 124.06 32.2402 117.06ZM38.8002 117.06C38.8002 121.22 40.0002 124.06 43.1202 124.06C46.2402 124.06 47.3602 121.02 47.3602 117.06C47.3602 113.1 46.2402 110.18 43.1202 110.18C40.0002 110.18 38.7602 113.1 38.7602 117.06H38.8002Z" fill="black"/>
<path d="M72.52 114.02C72.32 111.74 71.24 110.02 68.84 110.02C65.52 110.02 64.52 113.4 64.52 116.96C64.52 120.52 65.2 123.92 68.8 123.92C69.3402 123.951 69.8809 123.865 70.3849 123.668C70.8889 123.471 71.3445 123.167 71.7204 122.778C72.0964 122.389 72.3839 121.923 72.5633 121.413C72.7427 120.902 72.8098 120.359 72.76 119.82H78.76C78.6 125.46 74.36 128.3 68.76 128.3C61.84 128.3 57.96 124.06 57.96 117.06C57.96 110.06 62.16 105.8 68.76 105.8C74.48 105.8 78.52 108.62 78.76 114.02H72.52Z" fill="black"/>
<path d="M97.8798 115.22C98.0111 114.009 97.7888 112.787 97.2398 111.7C96.9187 111.279 96.4989 110.944 96.0175 110.724C95.5361 110.504 95.008 110.407 94.4798 110.44C91.6398 110.44 90.1598 112.26 90.1598 115.38V127.78H83.7798V96.1797H90.1598V109.78C90.7896 108.555 91.7575 107.537 92.9486 106.845C94.1397 106.154 95.504 105.819 96.8798 105.88C102.04 105.88 104.16 108.58 104.16 113.88V127.88H97.8798V115.22Z" fill="black"/>
<path d="M121.28 112.3C121.245 111.934 121.137 111.579 120.962 111.257C120.787 110.934 120.549 110.65 120.261 110.422C119.973 110.194 119.642 110.027 119.288 109.93C118.934 109.834 118.563 109.81 118.2 109.86C116.2 109.86 115.2 110.82 115.2 112.1C115.2 113.38 115.84 114.1 117.68 114.26L121.32 114.74C125.32 115.26 127.52 117.18 127.52 121.06C127.52 125.82 123.64 128.38 118.2 128.38C111.8 128.38 109.08 125.38 108.78 121.54H114.64C114.64 123.06 115.72 124.3 118.24 124.3C120.24 124.3 121.64 123.5 121.64 121.94C121.64 120.38 121.08 119.94 119.08 119.74L115.64 119.26C111.64 118.7 109.34 116.74 109.34 112.86C109.34 108.98 112.16 105.8 118.24 105.8C123.84 105.8 126.6 108.54 126.88 112.3H121.28Z" fill="black"/>
<path d="M145.8 114.02C145.6 111.74 144.52 110.02 142.12 110.02C138.8 110.02 137.8 113.4 137.8 116.96C137.8 120.52 138.48 123.92 142.08 123.92C142.615 123.94 143.149 123.845 143.645 123.641C144.141 123.438 144.587 123.131 144.955 122.741C145.322 122.35 145.602 121.886 145.775 121.379C145.949 120.872 146.011 120.334 145.96 119.8H152.12C151.96 125.44 147.72 128.28 142.12 128.28C135.2 128.28 131.3 124.04 131.3 117.04C131.3 110.04 135.46 105.78 142.16 105.78C147.88 105.78 151.92 108.6 152.16 114L145.8 114.02Z" fill="black"/>
<path d="M171.16 115.22C171.291 114.009 171.069 112.787 170.52 111.7C170.199 111.279 169.779 110.944 169.298 110.724C168.816 110.504 168.288 110.407 167.76 110.44C164.92 110.44 163.42 112.26 163.42 115.38V127.78H157.06V96.1797H163.42V109.78C164.057 108.557 165.029 107.54 166.223 106.85C167.417 106.159 168.782 105.822 170.16 105.88C175.32 105.88 177.44 108.58 177.44 113.88V127.88H171.16V115.22Z" fill="black"/>
<path d="M189.66 118.86C189.544 120.072 189.773 121.293 190.32 122.38C190.622 122.805 191.031 123.143 191.504 123.361C191.978 123.578 192.501 123.668 193.02 123.62C195.84 123.62 197.24 121.62 197.24 118.06V106.32H203.6V127.78H197.48V124.3C196.859 125.531 195.893 126.554 194.699 127.243C193.505 127.932 192.136 128.258 190.76 128.18C185.6 128.18 183.4 125.66 183.4 120.62V106.32H189.76L189.66 118.86Z" fill="black"/>
<path d="M209.78 96.1797H216.16V127.78H209.78V96.1797Z" fill="black"/>
<path d="M231.6 128.34C224.66 128.34 220.98 123.9 220.98 117.02C220.98 110.14 224.98 105.8 231.66 105.8C238.92 105.8 241.96 110.58 241.96 116.86V118.54H227.4C227.66 122.38 229.1 124.06 231.8 124.06C232.622 124.178 233.459 123.985 234.147 123.519C234.835 123.053 235.324 122.347 235.52 121.54H241.76C241.12 125.7 237.4 128.34 231.6 128.34ZM235.48 114.62C235.28 111.58 234.08 109.78 231.66 109.78C229.24 109.78 227.66 111.62 227.4 114.9H235.4L235.48 114.62Z" fill="black"/>
<path d="M264.26 127.78H258.06V110.74H254.98V106.32H258.06V103.52C258.06 97.8402 261.16 96.0002 265.8 96.0002C266.845 95.9951 267.888 96.0754 268.92 96.2402V100.68C268.338 100.585 267.749 100.545 267.16 100.56C265.26 100.56 264.26 101.32 264.26 103.76V106.32H268.48V110.74H264.26V127.78Z" fill="black"/>
<path d="M278.76 118.86C278.649 120.07 278.87 121.287 279.4 122.38C279.708 122.804 280.12 123.141 280.597 123.358C281.074 123.575 281.598 123.665 282.12 123.62C284.94 123.62 286.34 121.62 286.34 118.06V106.32H292.76V127.78H286.56V124.3C285.928 125.544 284.945 126.575 283.733 127.265C282.52 127.954 281.132 128.273 279.74 128.18C274.58 128.18 272.38 125.66 272.38 120.62V106.32H278.76V118.86ZM275.72 96.8604H281.16V102.34H275.72V96.8604ZM284.04 96.8604H289.54V102.34H284.04V96.8604Z" fill="black"/>
<path d="M298.86 106.32H304.86V110.86C305.398 109.414 306.367 108.167 307.637 107.291C308.908 106.414 310.417 105.95 311.96 105.96H312.32V111.74H311.18C307.3 111.74 305.18 113.06 305.18 117.18V127.78H298.86V106.32Z" fill="black"/>
<path d="M332.94 112.62C332.94 120.62 335.78 123.66 340.42 123.66C344.64 123.66 347.08 121.1 347.4 116.74V116.18H340.14V111.44H353.52V127.78H348.32V123.62H348.16C347.29 125.186 345.989 126.471 344.412 127.322C342.835 128.172 341.047 128.553 339.26 128.42C330.54 128.42 325.9 122.42 325.9 112.94C325.9 102.94 331.7 96.7197 340.38 96.7197C347.76 96.7197 352.2 100.2 352.92 106.44H346.24C346.088 105.015 345.396 103.702 344.306 102.772C343.216 101.842 341.811 101.365 340.38 101.44C335.66 101.44 332.94 105.32 332.94 112.62Z" fill="black"/>
<path d="M369.26 128.34C362.34 128.34 358.66 123.9 358.66 117.02C358.66 110.14 362.66 105.8 369.34 105.8C376.58 105.8 379.64 110.58 379.64 116.86V118.54H365.06C365.34 122.38 366.78 124.06 369.46 124.06C370.283 124.178 371.119 123.985 371.807 123.519C372.495 123.053 372.985 122.347 373.18 121.54H379.44C378.76 125.7 375.08 128.34 369.26 128.34ZM373.14 114.62C372.94 111.58 371.76 109.78 369.34 109.78C366.92 109.78 365.34 111.62 365.06 114.9H373.06L373.14 114.62Z" fill="black"/>
<path d="M395.74 112.3C395.705 111.944 395.6 111.598 395.431 111.283C395.262 110.967 395.033 110.688 394.756 110.462C394.479 110.235 394.16 110.065 393.818 109.962C393.475 109.859 393.116 109.824 392.76 109.86C390.76 109.86 389.76 110.82 389.76 112.1C389.76 113.38 390.4 114.1 392.24 114.26L395.88 114.74C399.88 115.26 402.1 117.18 402.1 121.06C402.1 125.82 398.1 128.38 392.76 128.38C386.36 128.38 383.64 125.38 383.36 121.54H389.2C389.2 123.06 390.28 124.3 392.8 124.3C394.8 124.3 396.2 123.5 396.2 121.94C396.2 120.38 395.64 119.94 393.64 119.74L390.2 119.26C386.2 118.7 383.92 116.74 383.92 112.86C383.92 108.98 386.72 105.8 392.8 105.8C398.4 105.8 401.18 108.54 401.44 112.3H395.74Z" fill="black"/>
<path d="M414.02 100.28V106.28H418.76V110.7H414.04V120.18C414.04 122.34 414.84 123.3 417 123.3C417.602 123.284 418.204 123.231 418.8 123.14V127.78C417.96 127.78 416.36 128.02 414.56 128.02C410.36 128.02 407.76 126.22 407.76 121.38V110.74H404.76V106.36H405.48C408.2 106.36 408.68 105.8 408.68 101.92V100.28H414.02Z" fill="black"/>
<path d="M423.5 112.7C423.74 108.42 427.14 105.86 432.74 105.86C439.66 105.86 442.08 108.7 442.08 114.42V121.82C442.08 122.98 442.42 123.42 443.8 123.42V127.82H441.66C438.58 127.82 437.1 127.22 436.42 124.86C435.707 125.904 434.735 126.745 433.599 127.299C432.462 127.853 431.201 128.102 429.94 128.02C425.46 128.02 422.66 125.66 422.66 121.66C422.612 120.547 422.895 119.445 423.471 118.491C424.047 117.538 424.892 116.776 425.9 116.3C428.18 115.1 431.42 114.9 435.9 114.7V113.54C435.9 111.18 434.9 109.94 432.74 109.94C432.347 109.889 431.947 109.923 431.567 110.038C431.188 110.153 430.837 110.347 430.538 110.608C430.239 110.869 429.999 111.191 429.834 111.551C429.669 111.912 429.582 112.304 429.58 112.7H423.5ZM435.94 118.7V118.02C433.876 117.922 431.819 118.32 429.94 119.18C429.598 119.423 429.323 119.749 429.142 120.126C428.96 120.504 428.877 120.922 428.9 121.34C428.89 121.707 428.957 122.072 429.099 122.411C429.241 122.749 429.453 123.053 429.722 123.303C429.991 123.553 430.31 123.743 430.658 123.86C431.006 123.976 431.375 124.017 431.74 123.98C433.9 124.02 435.94 122.3 435.94 118.74V118.7Z" fill="black"/>
<path d="M448.34 96.1797H454.76V127.78H448.4L448.34 96.1797Z" fill="black"/>
<path d="M468.02 100.28V106.28H472.76V110.7H468.04V120.18C468.04 122.34 468.84 123.3 471 123.3C471.602 123.284 472.204 123.231 472.8 123.14V127.78C471.96 127.78 470.36 128.02 468.56 128.02C464.36 128.02 461.76 126.22 461.76 121.38V110.74H458.76V106.36H459.48C462.2 106.36 462.68 105.8 462.68 101.92V100.28H468.02Z" fill="black"/>
<path d="M483.54 118.86C483.429 120.07 483.651 121.287 484.18 122.38C484.488 122.804 484.901 123.14 485.377 123.358C485.854 123.575 486.378 123.665 486.9 123.62C489.7 123.62 491.1 121.62 491.1 118.06V106.32H497.46V127.78H491.34V124.3C490.716 125.546 489.737 126.579 488.527 127.269C487.317 127.96 485.93 128.277 484.54 128.18C479.38 128.18 477.18 125.66 477.18 120.62V106.32H483.54V118.86Z" fill="black"/>
<path d="M517.74 115.26C517.87 114.037 517.648 112.802 517.1 111.7C516.779 111.279 516.359 110.944 515.878 110.725C515.396 110.505 514.868 110.407 514.34 110.44C511.5 110.44 510.02 112.26 510.02 115.38V127.78H503.66V106.32H509.78V109.86C510.431 108.593 511.434 107.541 512.669 106.831C513.904 106.121 515.318 105.784 516.74 105.86C521.9 105.86 524.02 108.56 524.02 113.86V127.86H517.66L517.74 115.26Z" fill="black"/>
<path d="M529.62 129.06H535.74C536.14 130.66 537.06 131.58 539.74 131.58C542.86 131.58 544.34 130.18 544.34 126.38V123.34H544.22C543.681 124.524 542.796 125.516 541.683 126.188C540.569 126.859 539.278 127.177 537.98 127.1C532.38 127.1 528.86 123.86 528.86 116.66C528.86 109.46 532.86 105.88 538.14 105.88C539.376 105.805 540.607 106.082 541.691 106.681C542.775 107.279 543.666 108.174 544.26 109.26V106.32H550.26V126.06C550.26 132.54 546.78 135.74 539.5 135.74C533.06 135.74 529.94 133.1 529.62 129.06ZM544.42 115.7C544.42 112.22 542.62 110.2 539.94 110.2C537.26 110.2 535.42 112.34 535.42 116.66C535.42 120.98 536.86 123.06 539.94 123.06C540.573 123.047 541.196 122.903 541.77 122.637C542.345 122.372 542.859 121.991 543.279 121.518C543.7 121.044 544.018 120.49 544.214 119.888C544.411 119.286 544.481 118.65 544.42 118.02V115.7Z" fill="black"/>
<path d="M16.9199 153.48C16.895 152.914 16.7558 152.359 16.5107 151.848C16.2656 151.337 15.9196 150.881 15.4936 150.507C15.0675 150.133 14.5703 149.85 14.0317 149.673C13.4932 149.497 12.9245 149.431 12.3599 149.48C9.51988 149.48 7.75988 151 7.75988 153.16C7.75988 155.32 8.87988 156.44 11.7599 156.96L16.3999 157.82C21.8399 158.82 24.3999 161.82 24.3999 166.26C24.3999 172.82 19.9199 176.42 12.1199 176.42C4.31988 176.42 0.119883 172.74 -0.120117 167.02H6.75988C6.82001 167.689 7.01192 168.338 7.32452 168.932C7.63712 169.526 8.06423 170.051 8.58117 170.479C9.09812 170.907 9.69466 171.228 10.3364 171.424C10.9781 171.62 11.6522 171.686 12.3199 171.62C15.9599 171.62 17.6399 169.78 17.6399 167.46C17.6399 165.14 16.5599 164.18 13.3599 163.62L8.75988 162.74C4.07988 161.82 0.919883 158.98 0.919883 154.18C0.919883 148.78 5.07988 144.82 12.3999 144.82C20.1599 144.82 23.4399 148.82 23.6399 153.58L16.9199 153.48Z" fill="black"/>
<path d="M43.44 162.02C43.24 159.74 42.16 158.02 39.76 158.02C36.44 158.02 35.44 161.4 35.44 164.96C35.44 168.52 36.12 171.92 39.72 171.92C40.2555 171.94 40.7891 171.845 41.2849 171.641C41.7807 171.438 42.2273 171.131 42.5947 170.741C42.9622 170.35 43.2419 169.886 43.4153 169.379C43.5887 168.872 43.6516 168.334 43.6 167.8H49.76C49.6 173.44 45.36 176.28 39.76 176.28C32.84 176.28 28.96 172.04 28.96 165.04C28.96 158.04 33.12 153.78 39.8 153.78C45.52 153.78 49.56 156.6 49.8 162L43.44 162.02Z" fill="black"/>
<path d="M68.7598 163.22C68.8911 162.009 68.6688 160.787 68.1198 159.7C67.7987 159.279 67.3789 158.944 66.8975 158.724C66.4161 158.504 65.8879 158.407 65.3598 158.44C62.5198 158.44 61.0398 160.26 61.0398 163.38V175.78H54.7598V144.18H61.1198V157.78C61.7354 156.536 62.6972 155.497 63.8894 154.788C65.0815 154.078 66.4533 153.728 67.8398 153.78C72.9998 153.78 75.1198 156.48 75.1198 161.78V175.78H68.7598V163.22Z" fill="black"/>
<path d="M78.7598 154.32H84.7598L87.5998 165.14C87.962 166.629 88.2292 168.138 88.3998 169.66H88.5198C88.5198 169.66 88.9598 167.3 89.5998 165.18L92.7998 154.32H97.9598L101.16 165.18C101.582 166.655 101.929 168.15 102.2 169.66H102.36C102.36 169.66 102.72 167.3 103.28 165.18L106.08 154.32H111.64L105.52 175.78H99.3998L96.7598 167.26C96.1586 165.126 95.6647 162.964 95.2798 160.78C95.2798 160.78 94.4798 164.78 93.6798 167.26L90.9998 175.78H84.9998L78.7598 154.32Z" fill="black"/>
<path d="M114.86 160.7C115.1 156.42 118.52 153.86 124.12 153.86C131.04 153.86 133.44 156.7 133.44 162.42V169.82C133.44 170.98 133.8 171.42 135.16 171.42V175.82H133.04C129.96 175.82 128.48 175.22 127.8 172.86C127.087 173.904 126.115 174.744 124.978 175.298C123.842 175.852 122.581 176.101 121.32 176.02C116.84 176.02 114.02 173.66 114.02 169.66C113.977 168.545 114.263 167.442 114.843 166.489C115.422 165.536 116.27 164.774 117.28 164.3C119.56 163.1 122.8 162.9 127.28 162.7V161.54C127.28 159.18 126.28 157.94 124.12 157.94C123.726 157.889 123.327 157.922 122.947 158.037C122.567 158.152 122.217 158.347 121.918 158.608C121.619 158.869 121.379 159.19 121.214 159.551C121.049 159.912 120.962 160.303 120.96 160.7H114.86ZM117.56 144.84H123V150.32H117.56V144.84ZM127.32 166.84V166.16C125.256 166.062 123.199 166.46 121.32 167.32C120.978 167.563 120.703 167.888 120.522 168.266C120.34 168.644 120.257 169.061 120.28 169.48C120.269 169.847 120.337 170.212 120.479 170.55C120.621 170.889 120.833 171.193 121.102 171.443C121.371 171.693 121.69 171.882 122.038 171.999C122.386 172.116 122.755 172.157 123.12 172.12C125.28 172.02 127.32 170.3 127.32 166.74V166.84ZM125.88 144.84H131.36V150.32H125.88V144.84Z" fill="black"/>
<path d="M139.7 144.18H146.08V157.48C146.747 156.315 147.726 155.359 148.906 154.72C150.085 154.08 151.42 153.783 152.76 153.86C157.72 153.86 161.36 157.04 161.36 164.98C161.36 172.3 157.8 176.3 152.28 176.3C151.005 176.383 149.732 176.1 148.612 175.483C147.492 174.866 146.572 173.942 145.96 172.82V175.78H139.96L139.7 144.18ZM154.76 165.06C154.76 160.54 153.36 158.2 150.32 158.2C147.76 158.2 145.96 160.34 145.96 163.9V166.18C145.96 169.54 147.4 172.02 150.36 172.02C153.32 172.02 154.76 169.66 154.76 165.06Z" fill="black"/>
<path d="M166.1 144.84H172.56V150.6H166.1V144.84ZM166.1 154.32H172.46V175.78H166.16L166.1 154.32Z" fill="black"/>
<path d="M189.8 160.3C189.765 159.938 189.658 159.587 189.486 159.267C189.313 158.948 189.078 158.666 188.795 158.438C188.511 158.211 188.185 158.042 187.836 157.943C187.486 157.844 187.12 157.815 186.76 157.86C184.76 157.86 183.76 158.82 183.76 160.1C183.76 161.38 184.4 162.1 186.24 162.26L189.88 162.74C193.88 163.26 196.08 165.18 196.08 169.06C196.08 173.82 192.2 176.38 186.76 176.38C180.36 176.38 177.62 173.38 177.36 169.54H183.16C183.16 171.06 184.24 172.3 186.76 172.3C188.76 172.3 190.16 171.5 190.16 169.94C190.16 168.38 189.6 167.94 187.6 167.74L184.16 167.26C180.16 166.7 177.88 164.74 177.88 160.86C177.88 156.98 180.76 153.8 186.76 153.8C192.36 153.8 195.12 156.54 195.4 160.3H189.8Z" fill="black"/>
<path d="M214.32 162.02C214.12 159.74 213.04 158.02 210.64 158.02C207.32 158.02 206.32 161.4 206.32 164.96C206.32 168.52 207 171.92 210.6 171.92C211.135 171.94 211.669 171.845 212.165 171.641C212.661 171.438 213.107 171.131 213.475 170.741C213.842 170.35 214.122 169.886 214.295 169.379C214.469 168.872 214.531 168.334 214.48 167.8H220.64C220.48 173.44 216.24 176.28 210.64 176.28C203.7 176.28 199.82 172.04 199.82 165.04C199.82 158.04 204 153.78 210.68 153.78C216.4 153.78 220.44 156.6 220.68 162L214.32 162.02Z" fill="black"/>
<path d="M239.68 163.22C239.811 162.009 239.589 160.787 239.04 159.7C238.719 159.279 238.299 158.944 237.818 158.724C237.336 158.504 236.808 158.407 236.28 158.44C233.44 158.44 231.96 160.26 231.96 163.38V175.78H225.58V144.18H231.96V157.78C232.576 156.536 233.537 155.497 234.73 154.788C235.922 154.078 237.294 153.728 238.68 153.78C243.84 153.78 245.96 156.48 245.96 161.78V175.78H239.6L239.68 163.22Z" fill="black"/>
<path d="M268.24 160.62C268.24 168.62 271.08 171.66 275.72 171.66C279.92 171.66 282.36 169.1 282.68 164.74V164.18H275.44V159.44H288.76V175.78H283.56V171.62H283.4C282.532 173.183 281.234 174.466 279.661 175.316C278.088 176.167 276.304 176.549 274.52 176.42C265.78 176.42 261.14 170.42 261.14 160.94C261.14 150.94 266.94 144.72 275.64 144.72C283 144.72 287.44 148.2 288.16 154.44H281.56C281.413 153.017 280.725 151.704 279.639 150.774C278.552 149.843 277.149 149.366 275.72 149.44C270.96 149.44 268.24 153.32 268.24 160.62Z" fill="black"/>
<path d="M295.14 154.32H301.26V157.86C301.906 156.619 302.888 155.586 304.095 154.879C305.301 154.171 306.682 153.818 308.08 153.86C312.08 153.86 313.96 155.62 314.76 158.32C315.366 156.959 316.362 155.808 317.622 155.014C318.883 154.22 320.351 153.818 321.84 153.86C326.88 153.86 329.04 156.56 329.04 161.86V175.86H322.76V163.22C322.891 162.009 322.669 160.787 322.12 159.7C321.822 159.274 321.418 158.934 320.948 158.713C320.478 158.492 319.958 158.398 319.44 158.44C316.76 158.44 315.28 160.26 315.28 163.38V175.78H308.92V163.22C309.051 162.009 308.829 160.787 308.28 159.7C307.976 159.28 307.571 158.944 307.103 158.724C306.634 158.504 306.117 158.406 305.6 158.44C302.92 158.44 301.42 160.26 301.42 163.34V175.78H295.06L295.14 154.32Z" fill="black"/>
<path d="M341.34 166.86C341.224 168.072 341.453 169.293 342 170.38C342.302 170.805 342.711 171.143 343.184 171.361C343.658 171.578 344.181 171.668 344.7 171.62C347.5 171.62 348.92 169.62 348.92 166.06V154.32H355.28V175.78H349.16V172.3C348.532 173.547 347.55 174.581 346.337 175.272C345.123 175.962 343.733 176.278 342.34 176.18C337.18 176.18 334.98 173.66 334.98 168.62V154.32H341.34V166.86ZM338.3 144.86H343.76V150.34H338.3V144.86ZM346.64 144.86H352.12V150.34H346.64V144.86Z" fill="black"/>
<path d="M375.56 163.26C375.69 162.036 375.468 160.801 374.92 159.7C374.599 159.279 374.179 158.944 373.698 158.724C373.216 158.504 372.688 158.407 372.16 158.44C369.32 158.44 367.84 160.26 367.84 163.38V175.78H361.46V154.32H367.58V157.86C368.234 156.591 369.24 155.538 370.479 154.828C371.717 154.118 373.135 153.782 374.56 153.86C379.72 153.86 381.84 156.56 381.84 161.86V175.86H375.56V163.26Z" fill="black"/>
<path d="M408.44 175.78H402.44V172.62C401.817 173.771 400.888 174.729 399.754 175.385C398.621 176.042 397.329 176.372 396.02 176.34C390.34 176.34 386.9 172.78 386.9 165.34C386.9 157.9 390.9 153.88 396.26 153.88C397.471 153.795 398.681 154.061 399.746 154.647C400.81 155.232 401.683 156.111 402.26 157.18V144.18H408.62L408.44 175.78ZM402.16 164.18C402.16 160.42 400.48 158.28 397.84 158.28C395.2 158.28 393.22 160.52 393.22 165.22C393.22 169.58 394.54 172.14 397.66 172.14C400.78 172.14 402.16 169.82 402.16 166.74V164.18Z" fill="black"/>
</g>
<defs>
<clipPath id="clip0_340_407">
<rect width="550.52" height="176.4" fill="white"/>
</clipPath>
</defs>
</svg>
