<svg width="600" height="201" viewBox="0 0 511 201" fill="none" xmlns="http://www.w3.org/2000/svg">
<path d="M148.559 180.031C161.319 180.031 168.252 171.562 168.252 159.672V99.0364H195.39V161.024C195.124 188.315 173.265 199.027 148.559 199.027C123.853 199.027 101.994 188.315 101.723 161.024V99.0364H128.866V159.672C128.866 171.562 135.799 180.031 148.559 180.031Z" fill="black"/>
<path d="M328.387 156.426C328.479 145.801 334.91 136.2 345.643 136.2C358.126 136.2 363.006 144.757 363.006 156.426H328.387ZM376.59 165.387V159.002C376.59 140.138 365.909 126.83 346.585 126.83C325.007 126.83 314.956 143.528 314.956 163.482C314.956 183.574 323.65 199.043 345.504 199.043C361.792 199.043 373.738 191.316 375.776 175.837H362.207C360.707 185.745 355.689 189.678 345.643 189.678C332.468 189.678 328.095 177.962 328.095 165.387H376.59Z" fill="black"/>
<path d="M405.133 99.0375H392.229V197.016H405.133V99.0375Z" fill="black"/>
<path d="M31.4049 197.01H58.548V118.049H88.9529V99.0419H1V118.049H31.4049V197.01Z" fill="black"/>
<path d="M96.6023 51.3351C89.9867 53.4139 83.1561 51.7498 83.1715 42.8915C83.1817 29.3942 114.882 18.0781 119.275 6.28589C120.366 3.34679 120.433 0.924847 119.024 1.00165C118.016 1.05798 118.804 2.52241 116.587 4.74978C103.453 17.8836 81.4562 17.8631 64.5743 25.4259C53.504 30.3978 21.0612 45.6617 28.5267 79.7174C28.8852 81.3303 29.8478 86.7528 30.8412 86.7528C31.9881 86.7528 31.9779 83.532 31.9472 79.6201C31.7014 59.3433 55.7109 53.6904 63.5246 40.444C64.4565 38.8567 66.0745 36.6344 66.4586 37.6687C66.6429 38.1654 66.5251 38.9027 66.2077 40.3109C63.7601 51.1968 52.3775 58.1861 55.6034 65.964C59.7816 76.0665 71.8555 68.5344 75.5575 62.0418C76.5508 60.2548 77.109 59.1129 77.7746 59.3433C78.2713 59.5174 78.2559 61.5707 77.9436 63.414C75.962 75.1295 73.2687 81.7092 64.692 88.3759C61.9526 90.5111 57.6361 90.9566 58.2045 92.5951C58.3479 93.0201 60.2066 92.974 61.6864 92.8255C84.5182 91.3662 103.617 64.4432 108.676 46.8598C109.204 45.6207 109.367 44.4584 108.804 44.0231C108.118 43.4906 107.114 44.7144 106.095 45.6156C103.484 47.9095 99.9049 50.2956 96.6023 51.3351Z" fill="black"/>
<path d="M445.556 197.01V137.865H461.286V128.894H445.556V117.895C445.556 110.02 449.346 108.668 456.688 108.668C458.849 108.668 461.025 108.95 463.196 109.068V98.3609C460.175 97.6748 457.098 97.004 453.964 97.004C441.757 97.004 432.653 103.123 432.653 116.164V128.894H419.366V137.865H432.653V197.01H445.556Z" fill="black"/>
<path d="M468.701 128.894V137.865H480.375V181.275C480.375 190.338 480.503 199.043 499.659 199.043C502.639 199.043 505.439 198.766 508.471 198.234V188.326C506.376 188.833 503.724 189.145 501.686 189.145C497.068 189.145 493.279 186.826 493.279 181.951V137.865H509.019V128.894H493.279V110.302L480.375 114.372V128.904L468.701 128.894Z" fill="black"/>
<path d="M222.533 197.01H256.19C298.095 197.01 302.493 161.546 302.493 148.029C302.493 134.521 298.095 99.0368 256.19 99.0368H222.533V197.01ZM236.128 110.701H256.195C278.842 110.701 288.238 127.788 288.238 148.029C288.238 168.275 278.842 185.346 256.195 185.346H236.128V110.701Z" fill="black"/>
</svg>
