<svg width="128" height="128" viewBox="0 0 128 128" fill="none" xmlns="http://www.w3.org/2000/svg">
<g clip-path="url(#clip0_1526_690)">
<rect width="128" height="128" rx="32" fill="white"/>
<rect width="128" height="128" fill="url(#paint0_linear_1526_690)"/>
<path d="M83.9832 48.4045L72.6811 59.7065C70.3404 62.0472 70.3404 65.8423 72.6811 68.183L83.9832 79.4851C86.3239 81.8258 90.119 81.8258 92.4597 79.4851L103.762 68.183C106.102 65.8423 106.102 62.0472 103.762 59.7065L92.4597 48.4045C90.119 46.0637 86.3239 46.0637 83.9832 48.4045Z" fill="#FC4733"/>
<path fill-rule="evenodd" clip-rule="evenodd" d="M33.9054 47.3374C33.7626 47.4802 33.6285 47.6284 33.5032 47.7814C33.3496 47.9071 33.2009 48.0417 33.0576 48.1849L21.7555 59.487C19.4148 61.8277 19.4148 65.6228 21.7555 67.9632L58.4871 104.695C60.8279 107.036 64.6229 107.036 66.9637 104.695L78.2657 93.393C80.6065 91.0525 80.6065 87.2575 78.2657 84.9164L66.3993 73.0505L66.4003 73.0491L61.3144 67.9632C58.9738 65.6227 58.9737 61.8277 61.3144 59.4869L63.2923 57.5091L63.2916 57.5084L78.2659 42.5341C80.6066 40.1933 80.6066 36.3983 78.2659 34.0575L66.9639 22.7556C64.6231 20.4148 60.8281 20.4148 58.4873 22.7556L33.9054 47.3374Z" fill="white"/>
</g>
<defs>
<linearGradient id="paint0_linear_1526_690" x1="64" y1="0" x2="64" y2="128" gradientUnits="userSpaceOnUse">
<stop stop-color="#232323"/>
<stop offset="1" stop-color="#330A1E"/>
</linearGradient>
<clipPath id="clip0_1526_690">
<rect width="128" height="128" rx="32" fill="white"/>
</clipPath>
</defs>
</svg>
