<svg width="128" height="128" viewBox="0 0 128 128" fill="none" xmlns="http://www.w3.org/2000/svg">
<g clip-path="url(#clip0_2015_1071)">
<rect width="128" height="128" rx="32" fill="white"/>
<g clip-path="url(#clip1_2015_1071)">
<path d="M52.379 110.443C52.379 107.201 52.711 100.076 52.379 97.6312C51.8608 93.8115 49.0572 90.7503 46.6847 89.3268C44.312 87.903 39.5667 84.8187 36.2449 80.0731C32.9232 75.3279 31.7368 70.5826 31.4994 65.6C31.2623 60.6173 31.2623 54.2112 34.8212 47.8048C38.3803 41.3987 40.7531 39.2633 45.7357 35.467C50.7184 31.6708 59.4973 30.4844 63.0564 30.4844C66.6153 30.4844 73.2588 30.7215 77.2924 33.0943C81.3258 35.467 84.6476 37.8395 86.0713 43.2967C87.4948 48.7538 86.5458 53.7364 87.0203 57.0582C87.4948 60.38 88.6812 66.549 93.4265 70.1081C96.5902 72.4806 97.0132 73.8825 97.2227 74.616C97.6972 76.2769 97.2227 78.4125 95.3247 79.1241C94.6919 79.4406 92.952 80.0731 91.054 80.0731C91.2121 83.2368 91.1962 90.2282 89.8676 92.8857C88.2067 96.2074 84.885 97.8683 82.7496 98.5802C80.6142 99.2921 77.5296 100.716 75.8687 103.563C74.5401 105.84 74.3661 109.257 74.4452 110.681" stroke="#FF1B7B" stroke-width="4.94359" stroke-linecap="round" stroke-linejoin="round"/>
<path d="M39.8041 110.444V104.986C39.8041 101.404 37.6248 99.1388 36.0079 97.8685C32.6861 95.2586 26.7545 92.4113 22.9582 85.0559C19.1619 77.7008 17.2638 67.0236 17.9756 59.4311C18.6874 51.8386 19.6364 40.6869 29.3643 31.4335C39.0922 22.1801 48.8204 18.8583 58.0738 18.6211C67.3272 18.3838 77.5296 18.3838 84.885 22.1801C92.2404 25.9764 96.2738 29.7724 98.4092 38.3142C100.545 46.8557 98.6465 46.8557 100.307 53.2621C101.968 59.6682 101.494 60.1427 106.002 65.3628C110.51 70.5825 112.171 72.2434 112.171 76.5142C112.171 80.7852 109.324 85.2931 103.866 88.6148C104.183 91.1457 104.246 97.2988 101.968 101.665C99.121 107.122 93.4265 110.681 90.3421 110.918" stroke="#FFA551" stroke-width="4.94359" stroke-linecap="round" stroke-linejoin="round"/>
<path d="M48.8203 90.988C51.7466 88.8526 57.8839 83.4428 59.023 78.8873C57.4411 78.8873 53.7556 78.223 51.6676 75.5656C49.0577 72.2438 49.7693 69.3966 50.2441 67.2612C50.7186 65.1258 52.854 62.753 54.9893 62.9904C57.1247 63.2278 59.4975 65.1261 62.5819 66.5496C65.6665 67.9733 64.7172 62.7533 64.7172 60.6179C64.7172 58.4825 63.7682 53.7373 64.0056 51.3645C64.2427 48.9918 66.3781 45.4329 71.5981 44.9584C75.774 44.5788 82.9869 44.4839 86.0713 44.4839" stroke="#FF1B7B" stroke-width="4.94359" stroke-linecap="round" stroke-linejoin="round"/>
</g>
</g>
<defs>
<clipPath id="clip0_2015_1071">
<rect width="128" height="128" rx="32" fill="white"/>
</clipPath>
<clipPath id="clip1_2015_1071">
<rect width="129.667" height="129.667" fill="white" transform="translate(-0.666992 -0.666504)"/>
</clipPath>
</defs>
</svg>
