<svg width="512" height="512" viewBox="0 0 512 512" fill="none" xmlns="http://www.w3.org/2000/svg">
<rect width="512" height="512" fill="#1480EB"/>
<g clip-path="url(#clip0_922_1932)">
<path d="M256 384.438C326.934 384.438 384.438 326.934 384.438 256C384.438 185.066 326.934 127.562 256 127.562C185.066 127.562 127.562 185.066 127.562 256C127.562 326.934 185.066 384.438 256 384.438Z" fill="white" fill-opacity="0.5" stroke="white" stroke-width="8" stroke-linecap="round" stroke-linejoin="round"/>
<path d="M171.711 159.137L159.536 176.797C158.487 179.315 158.573 192.841 159.536 195.394L174.922 236.333C175.523 238.039 176.552 239.563 177.911 240.758C179.27 241.952 180.912 242.778 182.681 243.156L211.312 249.311C212.901 249.632 214.394 250.319 215.671 251.318C216.948 252.316 217.975 253.599 218.671 255.063L223.755 265.633C224.658 267.42 226.033 268.926 227.731 269.987C229.429 271.048 231.385 271.624 233.388 271.653H251.449" stroke="white" stroke-width="8" stroke-linecap="round" stroke-linejoin="round"/>
<path d="M371.327 312.728L298.68 268.042C297.429 267.238 296.01 266.735 294.532 266.571L263.895 262.423C261.609 262.095 259.279 262.534 257.269 263.672C255.26 264.81 253.685 266.582 252.79 268.711L234.461 309.785C233.599 311.695 233.318 313.816 233.651 315.886C233.984 317.955 234.917 319.881 236.334 321.424L261.487 348.583C262.624 349.833 263.457 351.328 263.921 352.953C264.385 354.577 264.468 356.287 264.162 357.949L258.945 384.439C281.555 384.439 305.235 375.876 330.923 360.892C351.473 348.905 366.422 323.788 371.327 312.728Z" stroke="white" stroke-width="8" stroke-linecap="round" stroke-linejoin="round"/>
<path d="M270.209 128.757C282.154 129.843 292.085 137.682 297.894 148.175L301.221 154.185C302.369 156.298 302.783 158.734 302.395 161.107C302.008 163.481 300.841 165.659 299.08 167.297L263.091 199.807C262.488 200.383 261.814 200.877 261.084 201.279L244.628 210.377C243.059 211.209 241.319 211.667 239.544 211.714H210.913C208.804 211.725 206.744 212.351 204.985 213.516C203.226 214.68 201.846 216.333 201.013 218.27L193.248 236.699C191.337 241.234 186.359 243.649 181.615 242.342V242.342C178.588 241.508 176.144 239.274 175.042 236.335L160.257 196.908C158.455 192.102 157.341 186.929 158.806 182.008C160.886 175.017 165.095 167.72 168.234 163.952C178.938 151.108 195.521 138.256 223.891 131.709C241.165 127.722 257.511 127.602 270.209 128.757Z" stroke="white" stroke-width="8" stroke-linecap="round" stroke-linejoin="round"/>
<path d="M171.711 159.137L159.536 176.797C158.487 179.315 158.573 192.841 159.536 195.394L174.922 236.333C175.523 238.039 176.552 239.563 177.911 240.758C179.27 241.952 180.912 242.778 182.681 243.156L211.312 249.311C212.901 249.632 214.394 250.319 215.671 251.318C216.948 252.316 217.975 253.599 218.671 255.063L223.755 265.633C224.658 267.42 226.033 268.926 227.731 269.987C229.429 271.048 231.385 271.624 233.388 271.653H251.449" stroke="white" stroke-width="8" stroke-linecap="round" stroke-linejoin="round"/>
<path d="M371.327 312.728L298.68 268.042C297.429 267.238 296.01 266.735 294.532 266.571L263.895 262.423C261.609 262.095 259.279 262.534 257.269 263.672C255.26 264.81 253.685 266.582 252.79 268.711L234.461 309.785C233.599 311.695 233.318 313.816 233.651 315.886C233.984 317.955 234.917 319.881 236.334 321.424L261.487 348.583C262.624 349.833 263.457 351.328 263.921 352.953C264.385 354.577 264.468 356.287 264.162 357.949L258.945 384.439C281.555 384.439 305.235 375.876 330.923 360.892C351.473 348.905 366.422 323.788 371.327 312.728Z" stroke="white" stroke-width="8" stroke-linecap="round" stroke-linejoin="round"/>
<path d="M270.209 128.757C282.154 129.843 292.085 137.682 297.894 148.175L301.221 154.185C302.369 156.298 302.783 158.734 302.395 161.107C302.008 163.481 300.841 165.659 299.08 167.297L263.091 199.807C262.488 200.383 261.814 200.877 261.084 201.279L244.628 210.377C243.059 211.209 241.319 211.667 239.544 211.714H210.913C208.804 211.725 206.744 212.351 204.985 213.516C203.226 214.68 201.846 216.333 201.013 218.27L193.248 236.699C191.337 241.234 186.359 243.649 181.615 242.342V242.342C178.588 241.508 176.144 239.274 175.042 236.335L160.257 196.908C158.455 192.102 157.341 186.929 158.806 182.008C160.886 175.017 165.095 167.72 168.234 163.952C178.938 151.108 195.521 138.256 223.891 131.709C241.165 127.722 257.511 127.602 270.209 128.757Z" stroke="white" stroke-width="8" stroke-linecap="round" stroke-linejoin="round"/>
</g>
<defs>
<clipPath id="clip0_922_1932">
<rect width="274" height="274" fill="white" transform="translate(119 119)"/>
</clipPath>
</defs>
</svg>
