<svg width="512" height="512" viewBox="0 0 512 512" fill="none" xmlns="http://www.w3.org/2000/svg">
<rect width="512" height="512" fill="#1480EB"/>
<path d="M243.5 449H112L215.5 62H243.5V449Z" fill="white" fill-opacity="0.5" stroke="white" stroke-width="8"/>
<path d="M268 449H399.5L296 62H268V449Z" fill="white" fill-opacity="0.5" stroke="white" stroke-width="8"/>
<g filter="url(#filter0_b_913_842)">
<path d="M256 319H118L152.5 192H256V319Z" fill="white" fill-opacity="0.5"/>
<path d="M256 319H118L152.5 192H256V319Z" stroke="#1480EB" stroke-width="8"/>
</g>
<g filter="url(#filter1_b_913_842)">
<path d="M256 172H164L187 87H256V172Z" fill="white" fill-opacity="0.5"/>
<path d="M256 172H164L187 87H256V172Z" stroke="#1480EB" stroke-width="8"/>
</g>
<g filter="url(#filter2_b_913_842)">
<path d="M256 319H394L359.5 192H256V319Z" fill="white" fill-opacity="0.5"/>
<path d="M256 319H394L359.5 192H256V319Z" stroke="#1480EB" stroke-width="8"/>
</g>
<g filter="url(#filter3_b_913_842)">
<path d="M256 172H348L325 87H256V172Z" fill="white" fill-opacity="0.5"/>
<path d="M256 172H348L325 87H256V172Z" stroke="#1480EB" stroke-width="8"/>
</g>
<defs>
<filter id="filter0_b_913_842" x="96.7686" y="172" width="179.231" height="167" filterUnits="userSpaceOnUse" color-interpolation-filters="sRGB">
<feFlood flood-opacity="0" result="BackgroundImageFix"/>
<feGaussianBlur in="BackgroundImageFix" stdDeviation="8"/>
<feComposite in2="SourceAlpha" operator="in" result="effect1_backgroundBlur_913_842"/>
<feBlend mode="normal" in="SourceGraphic" in2="effect1_backgroundBlur_913_842" result="shape"/>
</filter>
<filter id="filter1_b_913_842" x="142.773" y="67" width="133.227" height="125" filterUnits="userSpaceOnUse" color-interpolation-filters="sRGB">
<feFlood flood-opacity="0" result="BackgroundImageFix"/>
<feGaussianBlur in="BackgroundImageFix" stdDeviation="8"/>
<feComposite in2="SourceAlpha" operator="in" result="effect1_backgroundBlur_913_842"/>
<feBlend mode="normal" in="SourceGraphic" in2="effect1_backgroundBlur_913_842" result="shape"/>
</filter>
<filter id="filter2_b_913_842" x="236" y="172" width="179.231" height="167" filterUnits="userSpaceOnUse" color-interpolation-filters="sRGB">
<feFlood flood-opacity="0" result="BackgroundImageFix"/>
<feGaussianBlur in="BackgroundImageFix" stdDeviation="8"/>
<feComposite in2="SourceAlpha" operator="in" result="effect1_backgroundBlur_913_842"/>
<feBlend mode="normal" in="SourceGraphic" in2="effect1_backgroundBlur_913_842" result="shape"/>
</filter>
<filter id="filter3_b_913_842" x="236" y="67" width="133.227" height="125" filterUnits="userSpaceOnUse" color-interpolation-filters="sRGB">
<feFlood flood-opacity="0" result="BackgroundImageFix"/>
<feGaussianBlur in="BackgroundImageFix" stdDeviation="8"/>
<feComposite in2="SourceAlpha" operator="in" result="effect1_backgroundBlur_913_842"/>
<feBlend mode="normal" in="SourceGraphic" in2="effect1_backgroundBlur_913_842" result="shape"/>
</filter>
</defs>
</svg>
