<svg width="621" height="120" viewBox="0 0 621 120" fill="none" xmlns="http://www.w3.org/2000/svg">
<path d="M39.3121 9.53054C44.5737 0.417071 56.2275 -2.70575 65.341 2.55579C74.4545 7.81739 77.5773 19.4712 72.3158 28.5847L35.6464 92.0987C30.3848 101.212 18.7309 104.335 9.61745 99.0734C0.503985 93.8118 -2.61883 82.158 2.6427 73.0445L39.3121 9.53054Z" fill="black"/>
<path d="M108.836 73.0449C114.097 82.1582 110.974 93.8116 101.861 99.0732C92.7478 104.335 81.0936 101.212 75.832 92.0986L59.4072 63.6494L77.8184 31.7607C79.1991 29.3691 80.1437 26.8455 80.6826 24.2822L108.836 73.0449Z" fill="black"/>
<circle cx="55.6647" cy="106.389" r="12.7028" fill="black"/>
<path d="M182.269 89.0513C178.227 89.0513 174.627 88.3566 171.469 86.9672C168.33 85.5598 165.849 83.6292 164.026 81.1752C162.222 78.7032 161.293 75.8523 161.239 72.6225H173.039C173.111 73.9758 173.554 75.1666 174.366 76.1951C175.196 77.2056 176.296 77.9905 177.668 78.5498C179.039 79.1092 180.582 79.3889 182.296 79.3889C184.082 79.3889 185.661 79.0731 187.032 78.4416C188.404 77.81 189.477 76.9349 190.253 75.8162C191.029 74.6975 191.417 73.4074 191.417 71.9458C191.417 70.4662 191.002 69.1581 190.172 68.0213C189.36 66.8665 188.187 65.9643 186.653 65.3148C185.138 64.6652 183.333 64.3404 181.24 64.3404H176.071V55.7335H181.24C183.008 55.7335 184.569 55.4268 185.923 54.8133C187.294 54.1998 188.358 53.3518 189.116 52.2691C189.874 51.1685 190.253 49.8874 190.253 48.4258C190.253 47.0365 189.919 45.8185 189.252 44.772C188.602 43.7074 187.682 42.8774 186.491 42.2819C185.318 41.6865 183.947 41.3888 182.377 41.3888C180.789 41.3888 179.337 41.6775 178.019 42.2549C176.702 42.8142 175.647 43.6172 174.853 44.6637C174.059 45.7102 173.635 46.9372 173.581 48.3446H162.348C162.403 45.1509 163.314 42.3361 165.082 39.9002C166.85 37.4643 169.232 35.5606 172.227 34.1893C175.241 32.8 178.642 32.1053 182.431 32.1053C186.256 32.1053 189.603 32.8 192.472 34.1893C195.341 35.5787 197.57 37.4552 199.158 39.819C200.763 42.1647 201.557 44.799 201.539 47.7221C201.557 50.8256 200.592 53.4149 198.643 55.4899C196.713 57.565 194.196 58.8822 191.092 59.4415V59.8746C195.17 60.3978 198.273 61.8143 200.403 64.1239C202.55 66.4154 203.614 69.2844 203.596 72.7307C203.614 75.8884 202.703 78.6942 200.863 81.1481C199.04 83.6021 196.523 85.5328 193.311 86.9402C190.1 88.3476 186.419 89.0513 182.269 89.0513ZM231.995 88.2935H212.345V32.8631H232.157C237.733 32.8631 242.532 33.9728 246.556 36.1922C250.58 38.3935 253.674 41.5602 255.84 45.6922C258.023 49.8242 259.115 54.7682 259.115 60.5242C259.115 66.2981 258.023 71.2602 255.84 75.4102C253.674 79.5603 250.562 82.745 246.502 84.9644C242.46 87.1838 237.625 88.2935 231.995 88.2935ZM224.065 78.2521H231.508C234.972 78.2521 237.886 77.6386 240.25 76.4117C242.632 75.1666 244.418 73.245 245.609 70.6467C246.818 68.0303 247.422 64.6562 247.422 60.5242C247.422 56.4282 246.818 53.0811 245.609 50.4828C244.418 47.8845 242.641 45.9719 240.277 44.7449C237.913 43.5179 234.999 42.9044 231.535 42.9044H224.065V78.2521ZM294.99 88.2935H282.432L301.567 32.8631H316.67L335.778 88.2935H323.22L309.335 45.5298H308.902L294.99 88.2935ZM294.205 66.5056H323.869V75.6538H294.205V66.5056ZM354.169 32.8631V88.2935H342.45V32.8631H354.169ZM411.521 48.8047C411.305 46.6215 410.375 44.9253 408.733 43.7164C407.091 42.5075 404.863 41.903 402.048 41.903C400.135 41.903 398.521 42.1737 397.203 42.715C395.886 43.2383 394.876 43.969 394.172 44.9073C393.486 45.8456 393.144 46.9102 393.144 48.101C393.107 49.0934 393.315 49.9595 393.766 50.6993C394.235 51.4391 394.876 52.0797 395.688 52.621C396.5 53.1443 397.438 53.6044 398.503 54.0013C399.567 54.3803 400.704 54.705 401.913 54.9757L406.893 56.1666C409.311 56.7079 411.53 57.4297 413.551 58.3318C415.572 59.234 417.322 60.3437 418.802 61.6609C420.281 62.9781 421.427 64.5299 422.239 66.3162C423.069 68.1025 423.493 70.1505 423.511 72.4601C423.493 75.8523 422.627 78.7934 420.913 81.2835C419.217 83.7555 416.763 85.6771 413.551 87.0484C410.357 88.4017 406.505 89.0784 401.994 89.0784C397.519 89.0784 393.622 88.3927 390.302 87.0214C387 85.65 384.419 83.6201 382.561 80.9316C380.72 78.2251 379.755 74.8779 379.665 70.8903H391.005C391.132 72.7488 391.664 74.3005 392.602 75.5456C393.559 76.7725 394.831 77.7018 396.418 78.3333C398.024 78.9468 399.838 79.2535 401.859 79.2535C403.843 79.2535 405.567 78.9648 407.028 78.3874C408.508 77.81 409.654 77.0071 410.465 75.9786C411.277 74.9501 411.683 73.7683 411.683 72.433C411.683 71.188 411.314 70.1415 410.574 69.2934C409.852 68.4453 408.787 67.7236 407.38 67.1282C405.991 66.5327 404.286 65.9914 402.265 65.5042L396.229 63.9885C391.556 62.8518 387.866 61.0745 385.159 58.6566C382.453 56.2388 381.108 52.9819 381.126 48.8859C381.108 45.5298 382.002 42.5977 383.806 40.0896C385.628 37.5815 388.127 35.6238 391.303 34.2164C394.479 32.809 398.087 32.1053 402.129 32.1053C406.243 32.1053 409.834 32.809 412.901 34.2164C415.987 35.6238 418.387 37.5815 420.101 40.0896C421.815 42.5977 422.699 45.5027 422.753 48.8047H411.521ZM453.29 46.7207V55.3817H428.254V46.7207H453.29ZM433.938 36.7606H445.468V75.5185C445.468 76.5831 445.63 77.4131 445.955 78.0085C446.28 78.5859 446.731 78.9919 447.309 79.2265C447.904 79.461 448.59 79.5783 449.366 79.5783C449.907 79.5783 450.448 79.5332 450.989 79.443C451.531 79.3347 451.946 79.2535 452.234 79.1994L454.048 87.7792C453.47 87.9596 452.659 88.1672 451.612 88.4017C450.565 88.6543 449.293 88.8077 447.796 88.8618C445.017 88.9701 442.581 88.6002 440.488 87.7521C438.413 86.9041 436.798 85.5869 435.643 83.8006C434.488 82.0142 433.92 79.7588 433.938 77.0342V36.7606ZM487.46 70.5926V46.7207H498.99V88.2935H487.92V80.7422H487.487C486.549 83.1781 484.988 85.1358 482.805 86.6154C480.64 88.095 477.996 88.8348 474.875 88.8348C472.096 88.8348 469.651 88.2032 467.54 86.9402C465.429 85.6771 463.778 83.8818 462.587 81.5541C461.414 79.2265 460.819 76.4387 460.801 73.1909V46.7207H472.331V71.1339C472.349 73.5878 473.007 75.5275 474.306 76.953C475.606 78.3784 477.347 79.0912 479.53 79.0912C480.92 79.0912 482.219 78.7754 483.428 78.1439C484.637 77.4943 485.611 76.538 486.351 75.2749C487.109 74.0118 487.478 72.4511 487.46 70.5926ZM523.532 88.9701C520.374 88.9701 517.514 88.1581 514.952 86.5342C512.408 84.8922 510.387 82.4834 508.89 79.3077C507.41 76.1139 506.67 72.1984 506.67 67.5612C506.67 62.7977 507.437 58.8371 508.971 55.6794C510.504 52.5037 512.543 50.131 515.088 48.5612C517.65 46.9733 520.456 46.1794 523.505 46.1794C525.833 46.1794 527.772 46.5763 529.324 47.3703C530.894 48.1462 532.157 49.1205 533.113 50.2934C534.088 51.4482 534.827 52.5849 535.333 53.7036H535.684V32.8631H547.187V88.2935H535.82V81.6353H535.333C534.791 82.7901 534.024 83.9359 533.032 85.0727C532.058 86.1914 530.786 87.1206 529.216 87.8604C527.664 88.6002 525.769 88.9701 523.532 88.9701ZM527.186 79.7949C529.044 79.7949 530.614 79.2896 531.895 78.2792C533.194 77.2507 534.187 75.8162 534.873 73.9758C535.576 72.1353 535.928 69.9791 535.928 67.5071C535.928 65.0351 535.585 62.8879 534.9 61.0655C534.214 59.243 533.222 57.8356 531.922 56.8432C530.623 55.8508 529.044 55.3546 527.186 55.3546C525.291 55.3546 523.694 55.8689 522.395 56.8974C521.096 57.9259 520.113 59.3513 519.445 61.1737C518.778 62.9961 518.444 65.1073 518.444 67.5071C518.444 69.9249 518.778 72.0631 519.445 73.9216C520.131 75.7621 521.114 77.2056 522.395 78.2521C523.694 79.2806 525.291 79.7949 527.186 79.7949ZM556.667 88.2935V46.7207H568.197V88.2935H556.667ZM562.459 41.3617C560.745 41.3617 559.274 40.7933 558.047 39.6566C556.839 38.5018 556.234 37.1214 556.234 35.5155C556.234 33.9277 556.839 32.5654 558.047 31.4286C559.274 30.2738 560.745 29.6964 562.459 29.6964C564.173 29.6964 565.635 30.2738 566.844 31.4286C568.071 32.5654 568.684 33.9277 568.684 35.5155C568.684 37.1214 568.071 38.5018 566.844 39.6566C565.635 40.7933 564.173 41.3617 562.459 41.3617ZM596.217 89.1054C592.013 89.1054 588.377 88.2123 585.309 86.4259C582.26 84.6216 579.905 82.1135 578.245 78.9017C576.585 75.6719 575.755 71.9278 575.755 67.6695C575.755 63.3751 576.585 59.622 578.245 56.4102C579.905 53.1804 582.26 50.6723 585.309 48.8859C588.377 47.0816 592.013 46.1794 596.217 46.1794C600.421 46.1794 604.048 47.0816 607.097 48.8859C610.165 50.6723 612.528 53.1804 614.188 56.4102C615.848 59.622 616.678 63.3751 616.678 67.6695C616.678 71.9278 615.848 75.6719 614.188 78.9017C612.528 82.1135 610.165 84.6216 607.097 86.4259C604.048 88.2123 600.421 89.1054 596.217 89.1054ZM596.271 80.1738C598.183 80.1738 599.78 79.6325 601.061 78.5498C602.343 77.4492 603.308 75.9515 603.957 74.057C604.625 72.1624 604.959 70.0061 604.959 67.5883C604.959 65.1704 604.625 63.0142 603.957 61.1196C603.308 59.225 602.343 57.7274 601.061 56.6267C599.78 55.526 598.183 54.9757 596.271 54.9757C594.34 54.9757 592.716 55.526 591.399 56.6267C590.1 57.7274 589.117 59.225 588.449 61.1196C587.799 63.0142 587.475 65.1704 587.475 67.5883C587.475 70.0061 587.799 72.1624 588.449 74.057C589.117 75.9515 590.1 77.4492 591.399 78.5498C592.716 79.6325 594.34 80.1738 596.271 80.1738Z" fill="black"/>
</svg>
