<svg width="420" height="80" viewBox="0 0 420 80" fill="none" xmlns="http://www.w3.org/2000/svg">
<g clip-path="url(#clip0_343_86)">
<path fill-rule="evenodd" clip-rule="evenodd" d="M28.1875 67.874C20.7109 75.3312 10.5703 79.5196 0 79.5196V0C10.5703 0 20.7109 4.18944 28.1875 11.6455C35.6641 19.1016 39.8594 29.2148 39.8594 39.7598C39.8594 50.3048 35.6641 60.418 28.1875 67.874ZM154.547 51.4688C154.547 68.368 164.336 80 180.953 80C187.664 80 193.82 77.0372 197.016 72.2088V79.122H210.438V0.111328H197.016V30.5088C193.82 26.0098 187.992 22.9365 180.734 22.9365C164.336 22.9365 154.547 34.5684 154.547 51.4688ZM197.891 51.4688C197.891 61.674 191.953 68.368 182.93 68.368C173.906 68.368 167.969 61.674 167.969 51.4688C167.969 41.2628 173.906 34.5684 182.93 34.5684C191.953 34.5684 197.891 41.2628 197.891 51.4688ZM237.016 22.9365C251.102 22.9365 261 31.0576 261 43.5672V60.6864H272.82C273.367 65.954 277.438 69.246 283.484 69.246C286.305 69.246 288.625 68.4952 290.172 67.2928C291.524 66.2452 292.289 64.8544 292.289 63.3204C292.289 58.1544 286.922 57.2344 280.703 56.168C272.125 54.6964 261.922 52.9464 261.922 39.3975C261.922 29.7402 270.398 22.9365 281.836 22.9365C294.82 22.9365 303.726 30.0693 304.281 40.8244H291.961C291.188 35.666 286.461 33.0322 282.164 33.0322C280.82 33.0322 279.602 33.2031 278.539 33.5293C277.641 33.8066 276.859 34.1973 276.211 34.6914C274.883 35.7031 274.133 37.1504 274.133 38.958C274.133 43.8476 279.281 44.538 285.367 45.3544C294.172 46.5352 304.938 47.9796 304.938 62.7716C304.938 73.1964 296.469 80 283.484 80C271.531 80 263.156 74.0792 261 64.4092V79.122H247.688V70.8916C245.383 76.3788 239 80 231.078 80C220.078 80 212.594 72.9764 212.594 63.4296C212.594 52.6756 220.961 45.9816 233.391 45.9816H243.617C246.367 45.9816 247.688 44.4452 247.688 42.25C247.688 41.9296 247.672 41.6152 247.641 41.3068C247.617 41.0136 247.578 40.7256 247.524 40.4432C247.43 39.9726 247.305 39.5186 247.141 39.082L247.07 38.8867L246.726 38.1328L246.594 37.8906L246.305 37.4238C244.531 34.7197 241.102 33.0322 236.359 33.0322C229.211 33.0322 224.914 37.5312 224.695 42.4696H212.594C213.258 31.4961 222.609 22.9365 237.016 22.9365ZM234.266 70.0136C242.742 70.0136 247.688 64.088 247.688 55.748V54.87H235.258C232.344 54.87 229.914 55.6972 228.234 57.1476C226.617 58.542 225.688 60.5136 225.688 62.8808C225.688 67.1612 229.211 70.0136 234.266 70.0136ZM306.359 79.122V0.111328H319.781V32.374C322.859 26.3389 329.242 22.9365 337.164 22.9365C349.594 22.9365 357.734 31.9356 357.734 44.8836V79.122H344.312V47.7372C344.312 40.1652 339.586 34.8984 332.648 34.8984C325.172 34.8984 319.781 40.8244 319.781 48.9444V79.122H306.359ZM359.82 43.3476C359.82 66.8312 368.516 80 387.656 80H392.055C411.196 80 420 66.8312 420 43.3476V38.0801C420 14.5967 411.196 1.42774 392.055 1.42774H387.656C368.516 1.42774 359.82 14.5967 359.82 38.0801V43.3476ZM391.398 67.38H388.312C379.625 67.38 374.344 60.6864 374.344 47.1884V34.2392C374.344 20.6318 379.625 13.9385 388.312 13.9385H391.398C400.084 13.9385 405.476 20.6318 405.476 34.2392V47.1884C405.476 60.6864 400.084 67.38 391.398 67.38ZM82 80C104.094 80 122 62.0916 122 40C122 17.9082 104.094 0 82 0C59.9064 0 42 17.9082 42 40C42 62.0916 59.9064 80 82 80Z" fill="black"/>
</g>
<defs>
<clipPath id="clip0_343_86">
<rect width="420" height="80" fill="white"/>
</clipPath>
</defs>
</svg>
