<svg width="450" height="112" viewBox="0 0 450 112" fill="none" xmlns="http://www.w3.org/2000/svg">
<path d="M31.4766 24.4115C31.4766 14.1487 39.7962 5.8291 50.059 5.8291C52.0294 5.8291 53.6268 7.42647 53.6268 9.39693V90.4202C53.6268 100.683 45.3072 109.003 35.0444 109.003C33.0739 109.003 31.4766 107.405 31.4766 105.435V24.4115Z" fill="black"/>
<path d="M62.9531 42.4814C62.9531 32.2186 71.2728 23.8989 81.5356 23.8989C83.506 23.8989 85.1034 25.4963 85.1034 27.4667V72.3502C85.1034 82.613 76.7837 90.9326 66.5209 90.9326C64.5505 90.9326 62.9531 89.3352 62.9531 87.3648V42.4814Z" fill="black"/>
<path d="M0 42.4814C0 32.2186 8.31964 23.8989 18.5824 23.8989C20.5529 23.8989 22.1503 25.4963 22.1503 27.4667V72.3502C22.1503 82.613 13.8306 90.9326 3.56782 90.9326C1.59737 90.9326 0 89.3352 0 87.3648V42.4814Z" fill="black"/>
<path d="M157.756 90.9325H148.057L130.523 39.1708V90.9325H119.425V23.9688H135.839L153.093 75.2641L170.347 23.9688H186.389V90.9325H175.29V39.1708L157.756 90.9325Z" fill="black"/>
<path d="M240.809 66.4978C240.809 81.6998 231.017 91.9589 217.214 91.9589C203.41 91.9589 193.618 81.6998 193.618 66.4978C193.618 51.2957 203.41 41.0366 217.214 41.0366C231.017 41.0366 240.809 51.2957 240.809 66.4978ZM204.903 66.4978C204.903 76.477 209.659 82.5392 217.214 82.5392C224.768 82.5392 229.524 76.477 229.524 66.4978C229.524 56.5185 224.768 50.4563 217.214 50.4563C209.659 50.4563 204.903 56.5185 204.903 66.4978Z" fill="black"/>
<path d="M275.449 41.8755V53.0672C274.05 52.8807 272.931 52.7874 271.345 52.7874C264.257 52.7874 258.848 57.3574 258.848 65.1916V90.9325H247.656V41.9688H258.848V49.2434C260.993 44.6734 266.029 41.689 272.278 41.689C273.584 41.689 274.61 41.7822 275.449 41.8755Z" fill="black"/>
<path d="M306.585 91.9589C300.243 91.9589 295.58 89.4408 292.503 85.8035V107.721H281.312V41.9693H292.503V47.1921C295.58 43.5548 300.243 41.0366 306.585 41.0366C320.295 41.0366 328.13 52.6014 328.13 66.4978C328.13 80.3941 320.295 91.9589 306.585 91.9589ZM292.224 65.0988V67.99C292.224 77.0366 297.447 82.1662 304.347 82.1662C312.462 82.1662 316.846 75.8242 316.846 66.4978C316.846 57.1713 312.462 50.8294 304.347 50.8294C297.447 50.8294 292.224 55.8656 292.224 65.0988Z" fill="black"/>
<path d="M334.914 90.9325V23.9688H346.105V47.1915C348.903 43.9273 353.287 41.0361 359.629 41.0361C369.888 41.0361 376.043 48.1242 376.043 58.663V90.9325H364.851V61.9273C364.851 55.8651 362.427 51.4817 356.271 51.4817C351.235 51.4817 346.105 55.2123 346.105 62.2071V90.9325H334.914Z" fill="black"/>
<path d="M385.414 35.4403V23.9688H396.978V35.4403H385.414ZM396.792 41.9688V90.9325H385.6V41.9688H396.792Z" fill="black"/>
<path d="M414.8 66.4978C414.8 76.477 420.022 82.2594 427.67 82.2594C433.639 82.2594 437.276 78.3423 438.675 72.933L448.281 77.7827C445.763 85.7102 438.302 91.9589 427.67 91.9589C413.68 91.9589 403.608 81.6066 403.608 66.4978C403.608 51.389 413.68 41.0366 427.67 41.0366C438.209 41.0366 445.484 47.0055 448.095 54.8397L438.675 59.9693C437.276 54.6532 433.639 50.6428 427.67 50.6428C420.022 50.6428 414.8 56.5185 414.8 66.4978Z" fill="black"/>
</svg>
