<svg width="300" height="96" viewBox="0 0 300 96" fill="none" xmlns="http://www.w3.org/2000/svg">
<g clip-path="url(#clip0_340_363)">
<path d="M102.708 96.0012C81.727 96.0012 68.083 81.4122 68.083 60.441C68.083 39.5996 81.727 25.0107 102.708 25.0107C123.689 25.0107 137.333 39.5996 137.333 60.441C137.333 81.4122 123.689 96.0012 102.708 96.0012ZM102.708 82.0638C114.292 82.0638 122.015 74.118 122.015 60.441C122.015 46.7638 114.164 38.9483 102.708 38.9483C91.252 38.9483 83.5288 46.8941 83.5288 60.441C83.5288 74.2482 91.252 82.0638 102.708 82.0638Z" fill="black"/>
<path d="M164.934 94.045L138.032 26.9619H155.022L172.657 76.5904L190.291 26.9619H207.282L180.38 94.045H164.934Z" fill="black"/>
<path d="M215.116 94.0464V26.9633H230.304V94.0464H215.116ZM222.581 19.0177C217.304 19.0177 213.313 14.8494 213.313 9.5088C213.313 4.03799 217.304 0 222.581 0C227.988 0 232.106 4.16825 232.106 9.5088C232.106 14.9797 227.988 19.0177 222.581 19.0177Z" fill="black"/>
<path d="M271.424 96.0012C253.918 96.0012 241.69 86.3622 241.304 72.4248H256.75C257.393 79.3284 263.315 83.8872 272.068 83.8872C279.79 83.8872 284.681 80.37 284.681 74.8992C284.681 70.6008 282.493 68.517 276.572 67.4748L261.255 64.9998C249.413 63.0462 243.364 56.5331 243.364 46.373C243.364 33.6078 254.433 25.0107 271.166 25.0107C288.157 25.0107 299.227 33.738 299.741 47.4151H284.296C283.781 40.9022 278.503 36.8642 270.652 36.8642C263.315 36.8642 258.681 40.2509 258.681 45.3309C258.681 49.2387 260.998 51.3228 267.047 52.3649L282.751 54.8398C294.078 56.6634 299.999 63.4368 299.999 73.7274C299.999 87.1434 288.8 96.0012 271.424 96.0012Z" fill="black"/>
<path d="M28.8755 25.1191C44.9652 25.1192 57.7509 33.0525 57.751 52.1703V94.0475H42.5621V55.1618C42.5621 45.0827 37.8107 39.662 29.6734 39.333L28.8755 39.3169C20.2514 39.3169 15.1889 44.7575 15.1889 55.1618V94.0475H0V52.1703C2.48407e-05 33.0525 12.7856 25.1191 28.8755 25.1191Z" fill="black"/>
</g>
<defs>
<clipPath id="clip0_340_363">
<rect width="300" height="96" fill="white"/>
</clipPath>
</defs>
</svg>
