<svg width="300" height="117" viewBox="0 0 300 117" fill="none" xmlns="http://www.w3.org/2000/svg">
<path d="M67.8795 15.1911C68.2348 15.5012 68.5902 15.8112 68.9562 16.1307C69.2479 16.3771 69.5397 16.6236 69.8402 16.8775C77.1062 23.5088 81.0236 34.5237 81.7656 44.1216C82.3814 58.7341 81.0389 73.6855 71.0392 85.1647C65.1212 91.3246 56.107 96.4179 47.4009 96.8665C45.7262 96.8926 44.0518 96.9138 42.3769 96.9226C41.6626 96.928 40.9483 96.9376 40.2341 96.9517C33.5972 97.0829 27.2411 96.2855 21.3064 93.0761C20.8349 92.8297 20.8349 92.8297 20.3538 92.5784C17.8304 91.2253 15.5722 89.6973 13.4488 87.7685C13.1008 87.4639 12.7528 87.1594 12.3943 86.8456C8.0882 82.8423 5.23213 78.0328 3.07081 72.6166C2.94077 72.295 2.81074 71.9733 2.67677 71.6419C0.449223 65.7011 -0.0605268 59.7753 0.00547627 53.503C0.0167343 52.3624 0.0152083 51.2223 0.0120783 50.0815C0.019798 45.7988 0.28825 41.6964 1.11381 37.4797C1.17547 37.1457 1.23712 36.8117 1.30064 36.4676C3.22838 26.7257 9.10963 17.7909 17.3498 12.2575C32.4227 2.94542 54.1708 3.68439 67.8795 15.1911ZM20.6133 25.836C14.6657 33.0328 13.2753 41.6196 13.3302 50.6746C13.3265 51.2742 13.3229 51.8738 13.3191 52.4917C13.3382 61.8535 15.0527 71.2334 21.5251 78.3931C26.6426 83.2982 33.3669 85.6827 40.3723 85.6039C40.8281 85.6 41.284 85.5961 41.7536 85.592C48.5361 85.432 54.7911 83.3268 59.8533 78.6359C67.4452 70.2865 69.0057 58.3964 68.5393 47.5165C68.0257 38.373 65.1175 29.7177 58.3281 23.3378C53.119 18.9434 47.467 17.7553 40.7577 17.8208C39.9793 17.8262 39.9793 17.8262 39.1852 17.8317C31.7812 17.9827 25.7707 20.3962 20.6133 25.836Z" fill="black"/>
<path d="M148.985 32.3503C155.495 37.9152 158.766 46.4187 159.927 54.7668C160.871 67.0459 158.927 79.3716 150.75 88.953C145.506 94.4094 138.807 96.7717 131.396 96.9458C124.713 97.0134 118.843 96.5924 113.554 92.0256C109.333 87.8708 109.333 87.8708 108.333 85.8711C108.177 95.8909 108.02 105.911 107.859 116.234C103.788 116.234 99.7178 116.234 95.5239 116.234C95.5239 86.9575 95.5239 57.6809 95.5239 27.5171C99.2814 27.5171 103.039 27.5171 106.91 27.5171C107.444 33.3881 107.444 33.3881 107.414 35.9085C107.41 36.3898 107.406 36.8711 107.401 37.3669C107.396 37.7174 107.39 38.0678 107.384 38.4288C107.698 38.4288 108.011 38.4288 108.333 38.4288C108.421 38.1157 108.509 37.8026 108.6 37.48C110.966 32.5428 115.882 29.2294 120.915 27.4115C130.635 24.3652 140.929 26.1498 148.985 32.3503ZM111.067 44.8669C107.727 49.4736 107.76 54.8361 107.745 60.3061C107.74 61.2795 107.726 62.2525 107.711 63.2258C107.659 69.5982 108.679 76.1348 113.137 81.0083C117.516 85.053 122.587 86.5678 128.433 86.4623C133.73 86.1035 138.015 84.4585 141.662 80.5338C147.149 73.5459 147.981 64.5447 147.236 55.9825C146.634 51.4139 145.203 47.3987 142.492 43.6475C142.208 43.2169 141.924 42.7864 141.632 42.3428C137.6 38.1957 132.969 36.8814 127.34 36.798C120.353 36.844 115.566 39.6159 111.067 44.8669Z" fill="black"/>
<path d="M263.47 31.3126C267.235 34.5224 269.325 38.3108 270.112 43.1732C270.155 44.5173 270.175 45.8498 270.171 47.1937C270.172 47.5928 270.173 47.9919 270.174 48.4031C270.176 49.2672 270.177 50.1313 270.177 50.9954C270.179 52.8329 270.189 54.6704 270.199 56.5079C270.217 59.9269 270.231 63.3458 270.23 66.7648C270.23 69.1455 270.241 71.5259 270.26 73.9065C270.265 74.8129 270.265 75.7193 270.262 76.6257C270.257 77.8933 270.267 79.1599 270.281 80.4274C270.276 80.8011 270.271 81.1748 270.266 81.5598C270.3 83.3493 270.54 84.3777 271.524 85.8853C273.269 87.2087 273.269 87.2087 277.228 86.82C277.228 89.7947 277.228 92.7693 277.228 95.8341C273.482 97.3324 268.607 97.5665 264.804 95.9823C261.833 94.3639 260.302 92.3899 259.2 89.1921C259.007 88.0906 258.839 86.9836 258.725 85.8712C258.541 86.1409 258.356 86.4106 258.166 86.6885C254.728 91.4338 250.44 93.9039 244.967 95.8341C244.501 96.0084 244.035 96.1827 243.555 96.3622C240.756 97.1335 237.793 96.9579 234.915 96.9608C234.322 96.9724 233.728 96.9841 233.117 96.996C226.514 97.0167 221.884 95.3154 217.113 90.7952C216.348 89.9851 215.712 89.1602 215.079 88.2433C214.847 87.9125 214.616 87.5816 214.378 87.2407C212.632 84.1832 212.473 81.219 212.44 77.7764C212.433 77.3391 212.426 76.9017 212.418 76.4512C212.493 71.4353 214.212 67.7884 217.671 64.1997C224.698 57.7686 234.643 56.4359 243.692 54.7669C246.051 54.3313 248.404 53.8817 250.749 53.3732C251.226 53.2705 251.702 53.1678 252.193 53.0619C254.363 52.4007 255.591 51.7352 256.739 49.7558C257.759 46.9697 257.738 44.306 256.502 41.6016C254.827 38.6813 252.749 37.7429 249.621 36.8346C247.444 36.3391 245.324 36.2996 243.099 36.3237C242.642 36.3266 242.184 36.3295 241.713 36.3325C238.396 36.4054 235.579 36.8152 232.632 38.4289C232.104 38.7029 231.575 38.9769 231.031 39.2592C228.684 41.2711 227.379 43.4014 227.028 46.4941C226.989 47.1261 226.955 47.7588 226.939 48.3918C219.012 47.9347 219.012 47.9347 215.079 47.443C214.708 42.6039 215.967 38.8209 219.028 35.0468C229.428 23.4347 250.858 23.0051 263.47 31.3126ZM255.149 61.8109C253.03 62.5331 250.886 62.9999 248.692 63.4232C248.34 63.4912 247.987 63.5592 247.625 63.6292C246.153 63.9105 244.68 64.1874 243.207 64.4616C235.181 65.7171 235.181 65.7171 228.333 69.7112C227.825 70.1726 227.825 70.1726 227.308 70.6433C224.958 73.4172 225.242 76.7263 225.516 80.1781C226.285 82.5706 227.682 84.0579 229.786 85.3968C232.725 86.7303 235.119 87.029 238.325 86.9683C238.729 86.9698 239.132 86.9714 239.548 86.9729C245.409 86.9235 251 84.9336 255.167 80.7007C258.074 76.6278 258.011 73.1255 257.895 68.3176C257.886 67.6263 257.877 66.9351 257.869 66.2438C257.848 64.5627 257.816 62.882 257.777 61.2012C256.679 61.1472 256.679 61.1472 255.149 61.8109Z" fill="black"/>
<path d="M287.665 0C291.736 0 295.806 0 300 0C300 31.625 300 63.25 300 95.8334C295.929 95.8334 291.859 95.8334 287.665 95.8334C287.665 64.2083 287.665 32.5833 287.665 0Z" fill="black"/>
<path d="M207.488 27.5169C207.488 31.4309 207.488 35.3448 207.488 39.3774C206.705 39.2209 205.922 39.0643 205.116 38.903C200.103 38.5255 195.568 38.9119 191.447 42.0164C188.696 44.6146 186.765 48.3762 186.564 52.1643C186.536 53.31 186.524 54.455 186.516 55.601C186.509 56.254 186.509 56.254 186.502 56.9202C186.487 58.3551 186.475 59.79 186.463 61.225C186.454 62.2214 186.444 63.2179 186.433 64.2143C186.407 66.8341 186.384 69.4539 186.361 72.0738C186.337 74.7482 186.311 77.4227 186.284 80.0972C186.233 85.3427 186.186 90.5882 186.139 95.8337C181.912 95.8337 177.685 95.8337 173.33 95.8337C173.33 73.2892 173.33 50.7446 173.33 27.5169C177.087 27.5169 180.844 27.5169 184.716 27.5169C185.029 30.4915 185.342 33.4661 185.665 36.5309C186.036 35.9047 186.408 35.2784 186.791 34.6332C191.531 27.6008 199.47 24.8442 207.488 27.5169Z" fill="black"/>
<path d="M67.8795 15.1911C68.2348 15.5012 68.5902 15.8112 68.9562 16.1307C69.2479 16.3771 69.5397 16.6236 69.8402 16.8775C77.1062 23.5088 81.0236 34.5237 81.7656 44.1216C82.3814 58.7341 81.0389 73.6855 71.0392 85.1647C65.1212 91.3246 56.107 96.4179 47.4009 96.8665C45.7262 96.8926 44.0518 96.9138 42.3769 96.9226C41.6626 96.928 40.9483 96.9376 40.2341 96.9517C33.5972 97.0829 27.2411 96.2855 21.3064 93.0761C20.8349 92.8297 20.8349 92.8297 20.3538 92.5784C17.8304 91.2253 15.5722 89.6973 13.4488 87.7685C13.1008 87.4639 12.7528 87.1594 12.3943 86.8456C8.0882 82.8423 5.23213 78.0328 3.07081 72.6166C2.94077 72.295 2.81074 71.9733 2.67677 71.6419C0.449223 65.7011 -0.0605268 59.7753 0.00547627 53.503C0.0167343 52.3624 0.0152083 51.2223 0.0120783 50.0815C0.019798 45.7988 0.28825 41.6964 1.11381 37.4797C1.17547 37.1457 1.23712 36.8117 1.30064 36.4676C3.22838 26.7257 9.10963 17.7909 17.3498 12.2575C32.4227 2.94542 54.1708 3.68439 67.8795 15.1911ZM20.6133 25.836C14.6657 33.0328 13.2753 41.6196 13.3302 50.6746C13.3265 51.2742 13.3229 51.8738 13.3191 52.4917C13.3382 61.8535 15.0527 71.2334 21.5251 78.3931C26.6426 83.2982 33.3669 85.6827 40.3723 85.6039C40.8281 85.6 41.284 85.5961 41.7536 85.592C48.5361 85.432 54.7911 83.3268 59.8533 78.6359C67.4452 70.2865 69.0057 58.3964 68.5393 47.5165C68.0257 38.373 65.1175 29.7177 58.3281 23.3378C53.119 18.9434 47.467 17.7553 40.7577 17.8208C39.9793 17.8262 39.9793 17.8262 39.1852 17.8317C31.7812 17.9827 25.7707 20.3962 20.6133 25.836Z" fill="black"/>
<path d="M148.985 32.3503C155.495 37.9152 158.766 46.4187 159.927 54.7668C160.871 67.0459 158.927 79.3716 150.75 88.953C145.506 94.4094 138.807 96.7717 131.396 96.9458C124.713 97.0134 118.843 96.5924 113.554 92.0256C109.333 87.8708 109.333 87.8708 108.333 85.8711C108.177 95.8909 108.02 105.911 107.859 116.234C103.788 116.234 99.7178 116.234 95.5239 116.234C95.5239 86.9575 95.5239 57.6809 95.5239 27.5171C99.2814 27.5171 103.039 27.5171 106.91 27.5171C107.444 33.3881 107.444 33.3881 107.414 35.9085C107.41 36.3898 107.406 36.8711 107.401 37.3669C107.396 37.7174 107.39 38.0678 107.384 38.4288C107.698 38.4288 108.011 38.4288 108.333 38.4288C108.421 38.1157 108.509 37.8026 108.6 37.48C110.966 32.5428 115.882 29.2294 120.915 27.4115C130.635 24.3652 140.929 26.1498 148.985 32.3503ZM111.067 44.8669C107.727 49.4736 107.76 54.8361 107.745 60.3061C107.74 61.2795 107.726 62.2525 107.711 63.2258C107.659 69.5982 108.679 76.1348 113.137 81.0083C117.516 85.053 122.587 86.5678 128.433 86.4623C133.73 86.1035 138.015 84.4585 141.662 80.5338C147.149 73.5459 147.981 64.5447 147.236 55.9825C146.634 51.4139 145.203 47.3987 142.492 43.6475C142.208 43.2169 141.924 42.7864 141.632 42.3428C137.6 38.1957 132.969 36.8814 127.34 36.798C120.353 36.844 115.566 39.6159 111.067 44.8669Z" fill="black"/>
<path d="M263.47 31.3126C267.235 34.5224 269.325 38.3108 270.112 43.1732C270.155 44.5173 270.175 45.8498 270.171 47.1937C270.172 47.5928 270.173 47.9919 270.174 48.4031C270.176 49.2672 270.177 50.1313 270.177 50.9954C270.179 52.8329 270.189 54.6704 270.199 56.5079C270.217 59.9269 270.231 63.3458 270.23 66.7648C270.23 69.1455 270.241 71.5259 270.26 73.9065C270.265 74.8129 270.265 75.7193 270.262 76.6257C270.257 77.8933 270.267 79.1599 270.281 80.4274C270.276 80.8011 270.271 81.1748 270.266 81.5598C270.3 83.3493 270.54 84.3777 271.524 85.8853C273.269 87.2087 273.269 87.2087 277.228 86.82C277.228 89.7947 277.228 92.7693 277.228 95.8341C273.482 97.3324 268.607 97.5665 264.804 95.9823C261.833 94.3639 260.302 92.3899 259.2 89.1921C259.007 88.0906 258.839 86.9836 258.725 85.8712C258.541 86.1409 258.356 86.4106 258.166 86.6885C254.728 91.4338 250.44 93.9039 244.967 95.8341C244.501 96.0084 244.035 96.1827 243.555 96.3622C240.756 97.1335 237.793 96.9579 234.915 96.9608C234.322 96.9724 233.728 96.9841 233.117 96.996C226.514 97.0167 221.884 95.3154 217.113 90.7952C216.348 89.9851 215.712 89.1602 215.079 88.2433C214.847 87.9125 214.616 87.5816 214.378 87.2407C212.632 84.1832 212.473 81.219 212.44 77.7764C212.433 77.3391 212.426 76.9017 212.418 76.4512C212.493 71.4353 214.212 67.7884 217.671 64.1997C224.698 57.7686 234.643 56.4359 243.692 54.7669C246.051 54.3313 248.404 53.8817 250.749 53.3732C251.226 53.2705 251.702 53.1678 252.193 53.0619C254.363 52.4007 255.591 51.7352 256.739 49.7558C257.759 46.9697 257.738 44.306 256.502 41.6016C254.827 38.6813 252.749 37.7429 249.621 36.8346C247.444 36.3391 245.324 36.2996 243.099 36.3237C242.642 36.3266 242.184 36.3295 241.713 36.3325C238.396 36.4054 235.579 36.8152 232.632 38.4289C232.104 38.7029 231.575 38.9769 231.031 39.2592C228.684 41.2711 227.379 43.4014 227.028 46.4941C226.989 47.1261 226.955 47.7588 226.939 48.3918C219.012 47.9347 219.012 47.9347 215.079 47.443C214.708 42.6039 215.967 38.8209 219.028 35.0468C229.428 23.4347 250.858 23.0051 263.47 31.3126ZM255.149 61.8109C253.03 62.5331 250.886 62.9999 248.692 63.4232C248.34 63.4912 247.987 63.5592 247.625 63.6292C246.153 63.9105 244.68 64.1874 243.207 64.4616C235.181 65.7171 235.181 65.7171 228.333 69.7112C227.825 70.1726 227.825 70.1726 227.308 70.6433C224.958 73.4172 225.242 76.7263 225.516 80.1781C226.285 82.5706 227.682 84.0579 229.786 85.3968C232.725 86.7303 235.119 87.029 238.325 86.9683C238.729 86.9698 239.132 86.9714 239.548 86.9729C245.409 86.9235 251 84.9336 255.167 80.7007C258.074 76.6278 258.011 73.1255 257.895 68.3176C257.886 67.6263 257.877 66.9351 257.869 66.2438C257.848 64.5627 257.816 62.882 257.777 61.2012C256.679 61.1472 256.679 61.1472 255.149 61.8109Z" fill="black"/>
<path d="M287.665 0C291.736 0 295.806 0 300 0C300 31.625 300 63.25 300 95.8334C295.929 95.8334 291.859 95.8334 287.665 95.8334C287.665 64.2083 287.665 32.5833 287.665 0Z" fill="black"/>
<path d="M207.488 27.5169C207.488 31.4309 207.488 35.3448 207.488 39.3774C206.705 39.2209 205.922 39.0643 205.116 38.903C200.103 38.5255 195.568 38.9119 191.447 42.0164C188.696 44.6146 186.765 48.3762 186.564 52.1643C186.536 53.31 186.524 54.455 186.516 55.601C186.509 56.254 186.509 56.254 186.502 56.9202C186.487 58.3551 186.475 59.79 186.463 61.225C186.454 62.2214 186.444 63.2179 186.433 64.2143C186.407 66.8341 186.384 69.4539 186.361 72.0738C186.337 74.7482 186.311 77.4227 186.284 80.0972C186.233 85.3427 186.186 90.5882 186.139 95.8337C181.912 95.8337 177.685 95.8337 173.33 95.8337C173.33 73.2892 173.33 50.7446 173.33 27.5169C177.087 27.5169 180.844 27.5169 184.716 27.5169C185.029 30.4915 185.342 33.4661 185.665 36.5309C186.036 35.9047 186.408 35.2784 186.791 34.6332C191.531 27.6008 199.47 24.8442 207.488 27.5169Z" fill="black"/>
</svg>
