<svg width="642" height="120" viewBox="0 0 642 120" fill="none" xmlns="http://www.w3.org/2000/svg">
<path d="M441.937 91.1346C437.192 91.1346 433.068 90.1909 429.564 88.3042C426.059 86.3633 423.337 83.7488 421.396 80.4598C419.455 77.1175 418.485 73.3166 418.485 69.0572C418.485 65.7683 419.024 62.7494 420.102 59.9998C421.18 57.2503 422.69 54.8781 424.631 52.8833C426.572 50.8346 428.863 49.2711 431.505 48.1929C434.2 47.0607 437.138 46.4946 440.32 46.4946C443.339 46.4946 446.088 47.0338 448.568 48.112C451.102 49.1903 453.286 50.6998 455.119 52.6407C456.951 54.5816 458.354 56.8729 459.324 59.5146C460.294 62.1564 460.726 65.0407 460.618 68.1677L460.537 71.6451H426.329L424.469 64.3668H450.024L448.649 65.9033V64.2859C448.541 62.9381 448.11 61.752 447.355 60.7277C446.654 59.6494 445.71 58.8137 444.525 58.2207C443.339 57.6277 441.991 57.3311 440.481 57.3311C438.379 57.3311 436.572 57.7624 435.063 58.6251C433.607 59.4338 432.502 60.6468 431.747 62.2642C430.992 63.8276 430.615 65.7683 430.615 68.0868C430.615 70.4588 431.1 72.5346 432.071 74.3138C433.095 76.0388 434.551 77.3868 436.438 78.3572C438.379 79.3277 440.67 79.8129 443.312 79.8129C445.144 79.8129 446.762 79.5435 448.164 79.0042C449.62 78.4648 451.183 77.5485 452.854 76.2546L458.92 84.8268C457.248 86.2824 455.469 87.4688 453.582 88.3851C451.695 89.3014 449.754 89.9757 447.76 90.4068C445.819 90.892 443.878 91.1346 441.937 91.1346Z" fill="black"/>
<path d="M386.879 90.326L368.927 47.3843H383.24L393.915 79.4895L390.761 79.813L401.759 47.3843H415.912L397.069 90.326H386.879Z" fill="black"/>
<path d="M343.293 91.1346C338.818 91.1346 334.828 90.1642 331.324 88.2233C327.873 86.2825 325.124 83.6405 323.075 80.2981C321.08 76.9557 320.083 73.1275 320.083 68.8146C320.083 64.5016 321.08 60.6737 323.075 57.3311C325.124 53.9886 327.873 51.3468 331.324 49.4059C334.828 47.4651 338.818 46.4946 343.293 46.4946C347.767 46.4946 351.73 47.4651 355.18 49.4059C358.685 51.3468 361.434 53.9886 363.429 57.3311C365.424 60.6737 366.421 64.5016 366.421 68.8146C366.421 73.1275 365.424 76.9557 363.429 80.2981C361.434 83.6405 358.685 86.2825 355.18 88.2233C351.73 90.1642 347.767 91.1346 343.293 91.1346ZM343.293 79.9746C345.233 79.9746 346.958 79.4894 348.468 78.519C349.978 77.5485 351.164 76.2279 352.026 74.5564C352.889 72.8848 353.294 70.9714 353.24 68.8146C353.294 66.6579 352.889 64.7442 352.026 63.0729C351.164 61.3477 349.978 59.9998 348.468 59.0294C346.958 58.059 345.233 57.5738 343.293 57.5738C341.352 57.5738 339.599 58.059 338.036 59.0294C336.526 59.9998 335.341 61.3477 334.478 63.0729C333.615 64.7442 333.211 66.6579 333.265 68.8146C333.211 70.9714 333.615 72.8848 334.478 74.5564C335.341 76.2279 336.526 77.5485 338.036 78.519C339.599 79.4894 341.352 79.9746 343.293 79.9746Z" fill="black"/>
<path d="M245.204 90.3261V47.3844H257.496L257.901 55.1479L256.202 55.2287C256.849 53.827 257.658 52.587 258.628 51.5087C259.653 50.4305 260.785 49.5409 262.025 48.84C263.319 48.0853 264.64 47.5192 265.988 47.1418C267.39 46.7644 268.791 46.5757 270.193 46.5757C272.295 46.5757 274.21 46.8992 275.935 47.5461C277.66 48.1931 279.169 49.2444 280.463 50.7C281.757 52.1017 282.782 54.0157 283.536 56.4418L281.515 56.28L282.161 54.9861C282.863 53.6922 283.752 52.5331 284.83 51.5087C285.962 50.4305 287.203 49.5409 288.55 48.84C289.898 48.0853 291.3 47.5192 292.755 47.1418C294.211 46.7644 295.613 46.5757 296.961 46.5757C300.357 46.5757 303.188 47.2496 305.452 48.5974C307.716 49.8913 309.415 51.8591 310.547 54.5009C311.733 57.1427 312.326 60.3504 312.326 64.1244V90.3261H299.306V65.1757C299.306 63.4505 299.063 62.0218 298.578 60.8896C298.093 59.7574 297.365 58.9218 296.395 58.3826C295.478 57.7896 294.319 57.4931 292.917 57.4931C291.785 57.4931 290.734 57.6818 289.763 58.0592C288.847 58.4366 288.038 58.9487 287.337 59.5957C286.69 60.2426 286.178 60.9974 285.801 61.86C285.424 62.7227 285.235 63.6931 285.235 64.7713V90.3261H272.215V65.0948C272.215 63.4774 271.972 62.1026 271.487 60.9705C271.001 59.8383 270.274 58.9757 269.303 58.3826C268.333 57.7896 267.201 57.4931 265.907 57.4931C264.775 57.4931 263.723 57.6818 262.753 58.0592C261.836 58.4366 261.028 58.9487 260.327 59.5957C259.68 60.2426 259.168 60.9974 258.79 61.86C258.413 62.7227 258.224 63.6661 258.224 64.6905V90.3261H245.204Z" fill="black"/>
<path d="M218.361 91.1346C213.617 91.1346 209.493 90.1909 205.988 88.3042C202.484 86.3633 199.761 83.7488 197.82 80.4598C195.879 77.1175 194.909 73.3166 194.909 69.0572C194.909 65.7683 195.448 62.7494 196.526 59.9998C197.605 57.2503 199.114 54.8781 201.055 52.8833C202.996 50.8346 205.287 49.2711 207.929 48.1929C210.625 47.0607 213.563 46.4946 216.743 46.4946C219.763 46.4946 222.513 47.0338 224.992 48.112C227.527 49.1903 229.71 50.6998 231.543 52.6407C233.376 54.5816 234.777 56.8729 235.748 59.5146C236.718 62.1564 237.15 65.0407 237.042 68.1677L236.961 71.6451H202.753L200.893 64.3668H226.448L225.073 65.9033V64.2859C224.965 62.9381 224.534 61.752 223.779 60.7277C223.079 59.6494 222.135 58.8137 220.949 58.2207C219.763 57.6277 218.415 57.3311 216.905 57.3311C214.803 57.3311 212.997 57.7624 211.487 58.6251C210.031 59.4338 208.927 60.6468 208.171 62.2642C207.417 63.8276 207.039 65.7683 207.039 68.0868C207.039 70.4588 207.524 72.5346 208.495 74.3138C209.519 76.0388 210.975 77.3868 212.862 78.3572C214.803 79.3277 217.094 79.8129 219.736 79.8129C221.569 79.8129 223.186 79.5435 224.588 79.0042C226.043 78.4648 227.607 77.5485 229.278 76.2546L235.343 84.8268C233.673 86.2824 231.893 87.4688 230.006 88.3851C228.119 89.3014 226.178 89.9757 224.183 90.4068C222.243 90.892 220.302 91.1346 218.361 91.1346Z" fill="black"/>
<path d="M144.073 90.326V33.7173H169.547C173.16 33.7173 176.421 34.499 179.332 36.0625C182.298 37.626 184.616 39.7825 186.287 42.5321C187.959 45.2277 188.794 48.3007 188.794 51.7512C188.794 55.3095 187.959 58.5173 186.287 61.3747C184.616 64.1782 182.325 66.3886 179.413 68.006C176.502 69.6234 173.213 70.4321 169.547 70.4321H157.174V90.326H144.073ZM175.451 90.326L161.056 64.7712L175.127 62.7495L191.139 90.326H175.451ZM157.174 59.919H168.334C169.736 59.919 170.949 59.6225 171.973 59.0295C173.051 58.3825 173.86 57.4929 174.399 56.3608C174.992 55.2286 175.289 53.9347 175.289 52.479C175.289 51.0234 174.965 49.7564 174.318 48.6782C173.671 47.546 172.728 46.6833 171.488 46.0903C170.302 45.4973 168.846 45.2008 167.121 45.2008H157.174V59.919Z" fill="black"/>
<path d="M606.553 90.9781V31.9434H610.596V58.7921C611.783 55.9347 613.696 53.7242 616.338 52.1608C618.98 50.5434 622.026 49.7347 625.476 49.7347C628.495 49.7347 631.164 50.3008 633.482 51.4329C635.801 52.5112 637.607 54.1825 638.901 56.4468C640.249 58.6573 640.922 61.4068 640.922 64.6955V90.9781H636.879V65.9894C636.879 61.6225 635.773 58.4146 633.563 56.366C631.406 54.2634 628.576 53.2121 625.072 53.2121C622.538 53.2121 620.166 53.8051 617.955 54.9912C615.799 56.1773 614.02 57.8756 612.618 60.086C611.27 62.2964 610.596 64.9921 610.596 68.1729V90.9781H606.553Z" fill="black"/>
<path d="M578.979 49.7349C581.729 49.7349 584.182 50.1661 586.338 51.0288C588.495 51.8914 590.328 53.1314 591.838 54.7488C593.347 56.3662 594.506 58.334 595.315 60.6523L591.514 62.4314C590.651 59.5201 589.142 57.2827 586.985 55.7192C584.883 54.1018 582.187 53.2931 578.898 53.2931C575.933 53.2931 573.318 53.994 571.054 55.3957C568.79 56.7436 567.037 58.7383 565.798 61.3801C564.558 63.9679 563.937 67.0951 563.937 70.7609C563.937 74.3733 564.558 77.4999 565.798 80.1418C567.037 82.7838 568.763 84.8055 570.973 86.207C573.183 87.5551 575.799 88.2288 578.818 88.2288C581.082 88.2288 583.13 87.8512 584.964 87.0966C586.85 86.342 588.387 85.2366 589.573 83.781C590.813 82.3253 591.622 80.6003 591.999 78.6053L595.719 79.8992C595.018 82.3794 593.859 84.5088 592.242 86.2879C590.679 88.067 588.764 89.4418 586.5 90.4123C584.236 91.3286 581.702 91.787 578.898 91.787C575.232 91.787 571.944 90.9516 569.032 89.2801C566.175 87.6086 563.938 85.2099 562.32 82.0827C560.703 78.902 559.894 75.1279 559.894 70.7609C559.894 66.394 560.703 62.6471 562.32 59.5201C563.992 56.3392 566.256 53.9131 569.113 52.2418C572.024 50.5705 575.313 49.7349 578.979 49.7349Z" fill="black"/>
<path d="M534.125 91.787C530.405 91.787 527.09 90.9516 524.178 89.2801C521.267 87.6086 518.976 85.2099 517.305 82.0827C515.687 78.902 514.878 75.1279 514.878 70.7609C514.878 66.394 515.687 62.6471 517.305 59.5201C518.976 56.3392 521.214 53.9131 524.017 52.2418C526.82 50.5705 530.028 49.7349 533.64 49.7349C537.307 49.7349 540.433 50.5436 543.021 52.161C545.609 53.7783 547.604 56.0427 549.005 58.954C550.408 61.8114 551.108 65.127 551.108 68.901C551.108 69.3862 551.081 69.8714 551.027 70.3566C551.027 70.7877 551 71.192 550.946 71.5696H517.385V67.9305H549.167L547.145 68.4966C547.092 63.8601 545.851 60.167 543.425 57.4175C541.053 54.6679 537.765 53.2931 533.559 53.2931C530.648 53.2931 528.088 53.994 525.877 55.3957C523.666 56.7436 521.941 58.7383 520.701 61.3801C519.461 63.9679 518.841 67.0951 518.841 70.7609C518.841 74.3733 519.461 77.4999 520.701 80.1418C521.995 82.7838 523.774 84.8055 526.038 86.207C528.357 87.5551 531.026 88.2288 534.045 88.2288C537.172 88.2288 539.84 87.5551 542.051 86.207C544.315 84.859 546.067 82.999 547.307 80.627L550.542 82.487C549.571 84.4279 548.278 86.0994 546.66 87.5009C545.043 88.849 543.183 89.9003 541.08 90.6549C538.978 91.4094 536.66 91.787 534.125 91.787Z" fill="black"/>
<path d="M493.856 39.3027V80.3036C493.856 82.8373 494.449 84.7782 495.635 86.1262C496.875 87.4201 498.654 88.0671 500.973 88.0671C502.482 88.0671 503.803 87.8245 504.935 87.3393C506.121 86.7999 507.172 86.0453 508.089 85.0749L509.626 88.3906C508.601 89.4151 507.307 90.2506 505.744 90.8975C504.18 91.4903 502.428 91.7871 500.487 91.7871C498.385 91.7871 496.525 91.4095 494.907 90.6549C493.29 89.8462 492.023 88.6332 491.106 87.0158C490.244 85.3984 489.813 83.3499 489.813 80.8697V40.4349L493.856 39.3027ZM508.979 50.5436V54.021H481.726V50.5436H508.979Z" fill="black"/>
<path d="M474.548 84.3472C475.626 84.3472 476.489 84.6974 477.136 85.3985C477.836 86.0454 478.187 86.9083 478.187 87.9863C478.187 89.0643 477.836 89.9539 477.136 90.655C476.489 91.3019 475.626 91.6254 474.548 91.6254C473.469 91.6254 472.58 91.3019 471.879 90.655C471.232 89.9539 470.909 89.0643 470.909 87.9863C470.909 86.9083 471.232 86.0454 471.879 85.3985C472.58 84.6974 473.469 84.3472 474.548 84.3472Z" fill="black"/>
<path d="M27.9707 0C26.6858 0 25.5588 0.857015 25.216 2.09482L11.3414 52.1901C10.8373 54.01 12.2069 55.8095 14.0961 55.8095H65.3087C66.5935 55.8095 67.7205 54.9525 68.0635 53.7147L81.9379 3.61947C82.442 1.79946 81.0724 0 79.1831 0H27.9707Z" fill="black"/>
<path d="M81.4025 26.4709C81.7468 25.2355 82.8731 24.3809 84.1559 24.3809H110.619C112.51 24.3809 113.879 26.184 113.372 28.0051L106.202 53.7194C105.858 54.9548 104.731 55.8094 103.449 55.8094H76.9859C75.0946 55.8094 73.7251 54.0063 74.2325 52.1852L81.4025 26.4709Z" fill="black"/>
<path d="M10.0298 64.1904C8.74683 64.1904 7.62098 65.045 7.2765 66.2804L0.106616 91.995C-0.401161 93.8158 0.968693 95.6191 2.86 95.6191H29.3223C30.6053 95.6191 31.7312 94.7641 32.0757 93.5289L39.2455 67.815C39.7533 65.9934 38.3834 64.1904 36.4921 64.1904H10.0298Z" fill="black"/>
<path d="M48.1694 64.1904C46.8845 64.1904 45.7575 65.0475 45.4147 66.285L31.5401 116.38C31.036 118.201 32.4056 120 34.2948 120H85.5077C86.7925 120 87.9195 119.143 88.2625 117.905L102.137 67.8097C102.641 65.9902 101.271 64.1904 99.3821 64.1904H48.1694Z" fill="black"/>
</svg>
