<svg width="816" height="72" viewBox="0 0 816 72" fill="none" xmlns="http://www.w3.org/2000/svg">
<g clip-path="url(#clip0_343_89)">
<path d="M22.646 61.134C16.2482 61.134 11.7799 56.158 11.5769 48.9478H0C0.203116 62.556 9.74892 71.8986 22.646 71.8986C35.1368 71.8986 44.4796 63.4698 44.4796 51.0804C44.4796 36.9367 34.4252 33.7298 25.5191 30.8891C18.439 28.6309 12.0847 26.6041 12.0847 19.4978C12.0847 14.6234 15.9436 10.866 21.3258 10.866C27.0127 10.866 30.9732 15.2327 31.2778 21.4274H42.8548C42.5501 9.0381 34.3244 0 21.4273 0C9.34272 0 0.710874 8.2257 0.710874 19.9041C0.710874 33.5956 10.5395 36.7142 19.3352 39.5052C26.4577 41.7652 32.9027 43.8102 32.9027 51.0804C32.9027 56.9704 28.6375 61.134 22.646 61.134Z" fill="black"/>
<path d="M100.637 1.32129H56.5635V12.2889H72.7103V70.5791H84.3887V12.2889H100.637V1.32129Z" fill="black"/>
<path d="M115.362 1.32129V46.5117C115.362 61.7447 124.908 71.8997 139.328 72.0011C153.748 72.0011 163.193 61.8461 163.193 46.6133V1.32129H151.616V46.8164C151.616 55.2451 146.843 60.9317 139.328 60.9317C131.915 60.9317 127.041 55.3467 127.041 46.8164V1.32129H115.362Z" fill="black"/>
<path fill-rule="evenodd" clip-rule="evenodd" d="M205.234 70.5791C225.24 70.5791 239.762 55.7529 239.762 35.6457C239.762 15.9447 225.24 1.32129 205.234 1.32129H182.487V70.5791H205.234ZM227.881 35.6457C227.881 49.3552 218.64 59.6119 205.946 59.6119H193.962V12.2889H205.946C218.64 12.2889 227.881 22.3425 227.881 35.6457Z" fill="black"/>
<path d="M267.588 70.6811V1.32129H256.011V70.6811H267.588Z" fill="black"/>
<path fill-rule="evenodd" clip-rule="evenodd" d="M319.481 0C299.476 0 283.837 15.7405 283.837 35.9492C283.837 56.0564 299.476 71.8986 319.481 71.8986C339.588 71.8986 355.227 56.0564 355.227 35.9492C355.227 15.7405 339.588 0 319.481 0ZM343.244 35.9492C343.244 49.9633 332.886 60.9306 319.481 60.9306C306.178 60.9306 295.718 49.9633 295.718 35.9492C295.718 21.9351 306.178 10.9676 319.481 10.9676C332.886 10.9676 343.244 21.9351 343.244 35.9492Z" fill="black"/>
<path d="M434.032 59.6119V1.32129H422.455V70.5791H457.999V59.6119H434.032Z" fill="black"/>
<path d="M507.555 1.32129V12.2889H483.69V29.1464H504.508V39.7078H483.69V59.6119H507.555V70.5791H472.113V1.32129H507.555Z" fill="black"/>
<path d="M631.853 10.2578V1.32129H591.028V12.2889H617.435L589.403 61.6427V70.5791H632.159V59.6119H603.827L631.853 10.2578Z" fill="black"/>
<path d="M662.521 1.32129H650.947V70.6811H662.521V1.32129Z" fill="black"/>
<path d="M727.919 1.32129H716.549V46.3086L693.293 1.32129H681.917V70.5791H693.191V23.561L717.563 70.5791H727.919V1.32129Z" fill="black"/>
<path d="M744.167 36.0508C744.167 15.6389 759.707 0 779.507 0C793.013 0 802.865 6.60084 808.043 15.5374L797.789 21.4274C794.231 14.9281 786.719 10.7645 779.303 10.7645C766.511 10.7645 755.951 21.2243 755.951 35.8477C755.951 50.3695 766.001 61.2354 779.507 61.2354C791.897 61.2354 799.613 52.7052 800.429 43.0578H779.003V32.2934H812.207L812.219 32.5148C812.321 34.058 812.411 35.5339 812.411 37.4725C812.411 56.2595 799.007 71.8986 779.003 71.8986C759.095 71.8986 744.167 56.5642 744.167 36.0508Z" fill="black"/>
<path d="M571.533 1.32129H560.159V46.3086L536.904 1.32129H525.53V70.5791H536.802V23.561L561.174 70.5791H571.533V1.32129Z" fill="black"/>
</g>
<defs>
<clipPath id="clip0_343_89">
<rect width="816" height="72" fill="white"/>
</clipPath>
</defs>
</svg>
