<svg width="450" height="72" viewBox="0 0 654 86" fill="none" xmlns="http://www.w3.org/2000/svg">
<path d="M3.05218 19.9143C3.05218 -2.74141 50.356 -7.445 53.3224 19.6791C53.4028 21.4822 52.6008 22.3445 51.238 22.3445H39.4521C38.0891 22.3445 37.4477 21.7174 37.127 20.3063C35.2829 9.64476 19.0072 12.075 19.0072 19.9143C19.0072 32.1437 54.5252 23.1284 54.5252 46.176C54.5252 71.7324 2.73147 72.3596 0.00548938 45.1572C-0.0746868 43.5108 0.727072 42.8052 2.17024 42.8052H13.9561C15.2389 42.8052 15.9605 43.5108 16.2812 45.0004C18.2856 55.6616 38.0089 55.1912 38.0089 46.176C38.0089 34.7307 3.05218 42.8052 3.05218 19.9143ZM101.508 4.86276C101.508 3.37328 102.15 2.51095 103.914 2.51095H115.138C116.822 2.51095 117.624 3.37328 117.624 4.86276V35.5146C117.624 50.7228 107.922 64.7552 88.68 64.7552C69.438 64.7552 59.6564 50.7228 59.6564 35.5146L59.5764 4.86276C59.5764 3.37328 60.458 2.51095 62.0616 2.51095H73.4468C75.2908 2.51095 75.932 3.37328 75.932 4.86276L76.0124 35.5146C76.0124 47.0384 82.0256 50.6444 88.68 50.6444C95.3348 50.6444 101.428 47.0384 101.428 35.5146L101.508 4.86276ZM241.335 26.4994H210.868C210.868 20.3063 217.042 13.0941 226.904 13.0941C236.765 13.0941 241.335 20.3063 241.335 26.4994ZM257.37 35.6714V33.4764C257.37 15.8378 247.028 0.629506 226.502 0.629506C211.269 0.629506 200.365 10.5071 196.356 23.442C194.592 29.0864 194.352 35.201 195.635 41.0804C198.842 55.5048 210.307 66.48 226.502 66.48C229.068 66.48 250.235 66.48 256.729 46.2544C257.13 44.922 256.569 44.4516 255.446 44.4516H242.618C241.816 44.4516 241.255 44.8436 240.854 45.6272C239.571 48.2928 236.204 53.5452 226.502 53.5452C217.924 53.5452 210.868 46.0192 210.868 38.18H254.885C256.488 38.18 257.37 37.2393 257.37 35.6714ZM590.02 26.6562H561.8C561.8 20.6198 567.008 13.5644 576.712 13.5644C586.412 13.5644 590.02 20.6198 590.02 26.6562ZM607.26 35.6714V33.4764C607.26 15.8378 596.836 0.629506 576.312 0.629506C561.076 0.629506 550.172 10.4287 546.164 23.442C544.32 29.0864 544.08 35.201 545.444 41.0804C548.568 55.5048 560.116 66.48 576.312 66.48C578.876 66.48 600.044 66.48 606.616 46.3328C607.016 44.922 606.456 44.4516 605.252 44.4516H592.504C591.624 44.4516 591.064 44.8436 590.66 45.6272C589.38 48.2928 586.012 53.6236 576.312 53.6236C567.732 53.6236 561.476 46.0976 561.476 38.18H604.692C606.376 38.18 607.26 37.2393 607.26 35.6714ZM650.232 2.51095C652.476 2.51095 653.6 3.76525 653.6 6.03864V15.2107C653.6 17.5625 652.316 18.5816 649.912 18.5816C635.88 18.5816 629.148 25.0099 629.148 41.5508V62.3252C629.148 63.8148 628.184 64.5984 626.82 64.5984H614.876C613.512 64.5984 612.712 63.8148 612.712 62.3252V41.5508C612.712 27.2833 616.8 2.51095 650.232 2.51095ZM502.068 2.51095H489.16C488.276 2.51095 487.956 2.82453 487.636 3.76525L474.648 41.394L464.544 3.76525C464.304 2.82453 463.904 2.51095 463.02 2.51095H447.868C446.584 2.51095 446.744 3.29489 446.988 4.1572L462.54 62.9524C462.86 64.2852 463.424 64.5984 464.944 64.5984H481.06C482.264 64.5984 482.984 64.1284 483.388 62.874L495.652 26.1858L507.84 62.874C508.24 64.1284 509.044 64.5984 510.164 64.5984H526.36C527.884 64.5984 528.444 64.2852 528.764 62.9524L544.32 4.1572C544.56 3.29489 544.72 2.51095 543.36 2.51095H528.284C527.324 2.51095 526.92 2.82453 526.68 3.76525L516.58 41.394L503.672 3.76525C503.352 2.82453 502.948 2.51095 502.068 2.51095ZM397.438 33.4764C397.438 22.4229 403.532 15.2891 413.232 15.2891C422.932 15.2891 429.908 22.4229 429.908 33.4764C429.908 44.53 422.692 51.8204 413.232 51.8204C403.772 51.8204 397.438 44.6084 397.438 33.4764ZM413.232 0.629506C394.311 0.629506 380.681 15.8378 380.681 33.4764C380.681 51.1148 394.311 66.48 413.232 66.48C432.152 66.48 446.664 51.5852 446.664 33.4764C446.664 15.3675 431.432 0.629506 413.232 0.629506ZM300.826 2.51095C303.071 2.51095 304.193 3.76525 304.193 6.03864V15.2107C304.193 17.5625 302.91 18.5816 300.505 18.5816C286.474 18.5816 279.74 25.0099 279.74 41.5508V62.3252C279.74 63.8148 278.777 64.5984 277.414 64.5984H265.468C264.105 64.5984 263.304 63.8148 263.304 62.3252V41.5508C263.304 27.2833 267.392 2.51095 300.826 2.51095ZM326.161 32.2221C326.161 43.1188 332.174 50.2524 341.716 50.2524C351.256 50.2524 357.991 43.1972 357.991 32.2221C357.991 21.247 351.016 14.3484 341.716 14.3484C332.415 14.3484 326.161 21.4038 326.161 32.2221ZM327.043 58.2488V83.7264C327.043 85.216 326.161 86 324.798 86H312.772C311.409 86 310.607 85.216 310.607 83.7264V5.96028C310.607 3.68685 311.89 2.51095 314.215 2.51095H324.157C326.562 2.51095 327.043 3.68685 327.043 5.96028V11.6046H327.925C340.192 -10.9727 375.149 1.25666 375.149 32.2221C375.149 65.4608 339.631 71.4188 327.043 58.2488ZM140.153 32.2221C140.153 43.1188 146.246 50.2524 155.707 50.2524C165.168 50.2524 171.983 43.1972 171.983 32.2221C171.983 21.247 165.088 14.3484 155.707 14.3484C146.327 14.3484 140.153 21.4038 140.153 32.2221ZM140.875 58.2488V83.7264C140.875 85.216 139.912 86 138.55 86H126.603C125.16 86 124.439 85.216 124.439 83.7264V5.96028C124.439 3.68685 125.641 2.51095 127.966 2.51095H137.988C140.394 2.51095 140.875 3.68685 140.875 5.96028V11.6046H141.676C153.943 -10.9727 188.9 1.25666 188.9 32.2221C188.9 65.4608 153.382 71.4188 140.875 58.2488Z" fill="black"/>
</svg>
